<svg xmlns="http://www.w3.org/2000/svg" xml:space="preserve" style="fill-rule:evenodd;clip-rule:evenodd;stroke-linecap:round;stroke-linejoin:round;stroke-miterlimit:1.5" viewBox="0 0 4461 2386"><path d="M0 0h4460.42v2385.54H0z" style="fill:none"/><text style="font-family:&quot;CrimsonPro-Regular&quot;,&quot;Crimson Pro&quot;;font-size:66.667px;fill:#b0b0b0" transform="translate(290.905 954.653)">Appr</text><text style="font-family:&quot;CrimsonPro-Regular&quot;,&quot;Crimson Pro&quot;;font-size:66.667px;fill:#b0b0b0" transform="translate(420.983 954.653)">éciation</text><text style="font-family:&quot;CrimsonPro-Regular&quot;,&quot;Crimson Pro&quot;;font-size:66.667px;fill:#b0b0b0" transform="translate(395.006 1025.487)">Musicale</text><path d="m671.86 897.079 20.446-28.618 20.446 28.618m-20.446-28.618v797.568m1221.144-20.449 28.618 20.446-28.618 20.447m28.62-20.443H692.31" style="fill:none;stroke:#e0e0e0;stroke-width:6.25px"/><text style="font-family:&quot;CrimsonPro-Regular&quot;,&quot;Crimson Pro&quot;;font-size:66.667px;fill:#b0b0b0" transform="translate(1676.16 1774.5)">E</text><text style="font-family:&quot;CrimsonPro-Regular&quot;,&quot;Crimson Pro&quot;;font-size:66.667px;fill:#b0b0b0" transform="translate(1711.26 1774.5)">xposition</text><path d="M692.306 1666.03c78.568-133.147 235.703-399.441 624.881-398.784 328.218.554 491.688 231.641 573.423 347.184" style="fill:none;stroke:#e0e0e0;stroke-width:3.54px;stroke-dasharray:3.54,3.54,14.17,14.17,0,0;stroke-dashoffset:14.17"/><path d="M.493.005.455.003.405.001.362 0H.135L.096.001.058.003v-.051l.309-.509v.041H.2l-.047.001-.032.004-.019.1h-.06L.04-.576q.048.005.096.003h.279l.076-.002v.05l-.303.503v-.04h.183l.028-.001.024-.003.041-.111.059.008z" style="fill:#fff;fill-rule:nonzero" transform="rotate(-19.206 4077.002 -2371.801)scale(75.00004)"/><path d="M.263.008A.25.25 0 0 1 .144-.02a.2.2 0 0 1-.081-.077.2.2 0 0 1-.029-.113q0-.072.033-.123.031-.051.086-.077a.25.25 0 0 1 .229.001.2.2 0 0 1 .104.189.23.23 0 0 1-.11.198.2.2 0 0 1-.113.03m.011-.062q.024 0 .041-.016a.1.1 0 0 0 .026-.046.3.3 0 0 0-.017-.21Q.297-.378.252-.378q-.036 0-.059.038a.2.2 0 0 0-.022.102q0 .048.014.094.012.036.036.065a.07.07 0 0 0 .053.025" style="fill:#fff;fill-rule:nonzero" transform="rotate(-16.598 4622.028 -2985.377)scale(75.00005)"/><path d="M.018 0 .015-.045l.061-.016.002-.018.002-.035.001-.045.001-.074L.08-.286Q.078-.308.073-.333L.011-.347V-.39l.171-.045.027.017-.006.058.003.001A.18.18 0 0 1 .35-.437q.042 0 .075.021t.053.06a.2.2 0 0 1 .019.096v.1q0 .05.005.099l.06.016L.559 0H.315L.312-.045l.055-.016.003-.026.002-.035v-.12a.14.14 0 0 0-.011-.059.1.1 0 0 0-.03-.034.1.1 0 0 0-.041-.011.1.1 0 0 0-.083.043v.143q0 .05.005.099l.059.016L.268 0z" style="fill:#fff;fill-rule:nonzero" transform="rotate(-13.816 5430.6 -3876.526)scale(75.00001)"/><path d="M.252.008a.2.2 0 0 1-.113-.029.2.2 0 0 1-.077-.077.2.2 0 0 1-.028-.11q0-.068.032-.119a.2.2 0 0 1 .081-.081q.05-.03.108-.029.086 0 .133.054a.2.2 0 0 1 .047.138v.023H.148v-.051h.191l-.015.024v-.034a.12.12 0 0 0-.02-.072.07.07 0 0 0-.057-.027.1.1 0 0 0-.044.013.1.1 0 0 0-.031.041.2.2 0 0 0-.011.07v.02a.16.16 0 0 0 .037.111.12.12 0 0 0 .098.042.13.13 0 0 0 .061-.013.2.2 0 0 0 .053-.041l.03.028a.2.2 0 0 1-.188.119" style="fill:#fff;fill-rule:nonzero" transform="rotate(-11.098 6606.848 -5200.312)scale(75.00005)"/><path d="M.371.012.345-.002l.001-.063-.003-.002a.2.2 0 0 1-.055.06.13.13 0 0 1-.062.016A.19.19 0 0 1 .06-.09.2.2 0 0 1 .034-.2a.23.23 0 0 1 .074-.173.26.26 0 0 1 .163-.063.2.2 0 0 1 .07.014v-.041L.34-.509.339-.551.337-.58.264-.591.262-.633l.186-.048.026.017-.005.112q-.003.051-.003.108l-.001.226q0 .048.003.078l.004.052.065.014v.042zM.272-.084a.09.09 0 0 0 .07-.042v-.218A.1.1 0 0 0 .311-.37a.1.1 0 0 0-.037-.007.09.09 0 0 0-.076.038.16.16 0 0 0-.03.105q0 .072.031.111a.09.09 0 0 0 .073.039" style="fill:#fff;fill-rule:nonzero" transform="rotate(-7.288 9735.754 -8627.253)scale(75.00003)"/><path d="M.252.008a.2.2 0 0 1-.113-.029.2.2 0 0 1-.077-.077.2.2 0 0 1-.028-.11q0-.068.032-.119a.2.2 0 0 1 .081-.081q.05-.03.108-.029.086 0 .133.054a.2.2 0 0 1 .047.138v.023H.148v-.051h.191l-.015.024v-.034a.12.12 0 0 0-.02-.072.07.07 0 0 0-.057-.027.1.1 0 0 0-.044.013.1.1 0 0 0-.031.041.2.2 0 0 0-.011.07v.02a.16.16 0 0 0 .037.111.12.12 0 0 0 .098.042.13.13 0 0 0 .061-.013.2.2 0 0 0 .053-.041l.03.028a.2.2 0 0 1-.188.119" style="fill:#fff;fill-rule:nonzero" transform="rotate(-4.468 15475.507 -14975.708)scale(75.00004)"/><path d="M.041 0 .038-.049l.058-.016q.003-.003.003-.023l.003-.051.001-.071.001-.157-.001-.069-.006-.075-.062-.014.003-.048h.247q.12 0 .18.043.059.043.059.125a.16.16 0 0 1-.028.096.2.2 0 0 1-.082.068.3.3 0 0 1-.128.025L.252-.218.221-.223V-.29l.028.008.037.003q.046 0 .072-.029a.12.12 0 0 0 .026-.084q0-.066-.032-.096a.12.12 0 0 0-.089-.031H.236l-.001.026v.05l-.001.076.001.157.001.071.003.051.002.023.08.014L.318 0z" style="fill:#fff;fill-rule:nonzero" transform="rotate(-29.644 2991.77 -1078.468)scale(75.00003)"/><path d="M.015 0 .012-.046l.064-.015.003-.038.002-.062.001-.068v-.124L.081-.42.08-.484.079-.54.076-.581l-.072-.01-.002-.042.186-.048.027.017-.003.08-.001.087-.001.119-.001.144.001.115q0 .029.004.058l.063.015L.275 0z" style="fill:#fff;fill-rule:nonzero" transform="rotate(-27.231 3201.928 -1325.184)scale(75.00001)"/><path d="M.184.008a.14.14 0 0 1-.078-.02.15.15 0 0 1-.05-.046.1.1 0 0 1-.017-.052q0-.036.022-.06a.15.15 0 0 1 .068-.037l.154-.045v-.035a.06.06 0 0 0-.014-.039.1.1 0 0 0-.08-.041q-.016 0-.023.007-.006.008-.008.029l-.005.059a.13.13 0 0 1-.079-.003Q.043-.288.043-.318q0-.02.019-.039a.36.36 0 0 1 .161-.08q.087 0 .138.04.05.04.051.106l-.003.136.001.043q.002.015.006.025l.064.011v.041l-.063.028a.2.2 0 0 1-.06.015q-.039 0-.054-.039L.286-.076l.021.004a.3.3 0 0 1-.062.059.1.1 0 0 1-.061.021M.233-.08A.1.1 0 0 0 .26-.085l.023-.017v-.095l-.067.012Q.192-.182.182-.17a.05.05 0 0 0-.01.031q0 .023.018.041a.06.06 0 0 0 .043.018" style="fill:#fff;fill-rule:nonzero" transform="rotate(-24.896 3453.302 -1566.826)scale(75.00004)"/><path d="M.015 0 .012-.046l.065-.016.002-.018.002-.034.001-.045.001-.073a1 1 0 0 0-.009-.101L.009-.347v-.044l.179-.044.027.017-.005.063-.001.072v.123q0 .049.005.098l.065.016L.276 0zm.131-.515a.08.08 0 0 1-.084-.079q0-.031.023-.055a.08.08 0 0 1 .061-.024q.04 0 .061.024a.08.08 0 0 1 .022.055q0 .031-.022.055-.02.024-.061.024" style="fill:#fff;fill-rule:nonzero" transform="rotate(-22.796 3713.249 -1867.8)scale(74.99998)"/><path d="M.19.008a.4.4 0 0 1-.081-.009.3.3 0 0 1-.067-.024L.037-.14H.1l.02.07q.037.022.077.022.03 0 .046-.012a.04.04 0 0 0 .016-.032.05.05 0 0 0-.017-.038.3.3 0 0 0-.07-.035.3.3 0 0 1-.101-.058.1.1 0 0 1-.028-.078q0-.04.025-.071A.2.2 0 0 1 .136-.42a.32.32 0 0 1 .218.005l.011.113H.303L.281-.371a.1.1 0 0 0-.05-.013.1.1 0 0 0-.048.013.04.04 0 0 0-.018.034q0 .023.022.039a.4.4 0 0 0 .078.039.3.3 0 0 1 .092.056q.027.03.027.074A.12.12 0 0 1 .33-.03a.24.24 0 0 1-.14.038" style="fill:#fff;fill-rule:nonzero" transform="rotate(-20.775 4020.15 -2177.625)scale(75)"/><path d="M.015 0 .012-.046l.065-.016.002-.018.002-.034.001-.045.001-.073a1 1 0 0 0-.009-.101L.009-.347v-.044l.179-.044.027.017-.005.063-.001.072v.123q0 .049.005.098l.065.016L.276 0zm.131-.515a.08.08 0 0 1-.084-.079q0-.031.023-.055a.08.08 0 0 1 .061-.024q.04 0 .061.024a.08.08 0 0 1 .022.055q0 .031-.022.055-.02.024-.061.024" style="fill:#fff;fill-rule:nonzero" transform="rotate(-18.816 4374.227 -2569.19)scale(75.00005)"/><path d="M.019 0 .016-.045l.061-.016.002-.019.002-.035.001-.044.001-.074-.002-.052Q.079-.308.074-.333L.012-.347V-.39l.169-.045.025.017-.004.077.003.001a.2.2 0 0 1 .057-.074.1.1 0 0 1 .059-.02q.027 0 .047.015t.019.046a.06.06 0 0 1-.021.049.07.07 0 0 1-.05.017.1.1 0 0 1-.042-.008.1.1 0 0 1-.04-.029l.027.002a.16.16 0 0 0-.052.066l.001.077.001.064.002.048.002.025.085.015L.297 0z" style="fill:#fff;fill-rule:nonzero" transform="rotate(-16.809 4827.451 -3031.8)scale(75.00002)"/><path d="M.047-.573h.204l.205.433H.428l.184-.433h.204l.003.048-.062.015v.044l.002.079.006.171.004.073.006.078.062.016L.834 0H.569L.566-.049l.063-.016.001-.022.001-.052L.63-.215l-.003-.33h.045L.439.003H.378l-.26-.548h.06l.001.336.001.107.002.037.068.016L.247 0H.033L.03-.049l.068-.016L.1-.091l.002-.051.001-.06.002-.183.001-.082v-.042L.044-.525z" style="fill:#fff;fill-rule:nonzero" transform="rotate(-11.832 6610.725 -4804.05)scale(75)"/><path d="m.492-.088.064.014v.042L.391.012.364-.002l.001-.069-.003-.001a.16.16 0 0 1-.061.064.14.14 0 0 1-.067.017.15.15 0 0 1-.115-.044Q.075-.078.075-.167V-.25L.074-.292.071-.333.005-.347V-.39L.18-.435l.028.017-.004.07-.002.084-.001.083q0 .05.023.074a.08.08 0 0 0 .061.023.09.09 0 0 0 .077-.046v-.094L.361-.266.36-.3.356-.333.287-.347V-.39l.176-.045.027.017-.002.037-.001.047v.14l.001.05a.4.4 0 0 0 .004.056" style="fill:#fff;fill-rule:nonzero" transform="rotate(-7.276 10350.214 -8734.6)scale(75.00005)"/><path d="M.19.008a.4.4 0 0 1-.081-.009.3.3 0 0 1-.067-.024L.037-.14H.1l.02.07q.037.022.077.022.03 0 .046-.012a.04.04 0 0 0 .016-.032.05.05 0 0 0-.017-.038.3.3 0 0 0-.07-.035.3.3 0 0 1-.101-.058.1.1 0 0 1-.028-.078q0-.04.025-.071A.2.2 0 0 1 .136-.42a.32.32 0 0 1 .218.005l.011.113H.303L.281-.371a.1.1 0 0 0-.05-.013.1.1 0 0 0-.048.013.04.04 0 0 0-.018.034q0 .023.022.039a.4.4 0 0 0 .078.039.3.3 0 0 1 .092.056q.027.03.027.074A.12.12 0 0 1 .33-.03a.24.24 0 0 1-.14.038" style="fill:#fff;fill-rule:nonzero" transform="rotate(-3.984 18374.69 -17089.71)scale(75.00006)"/><path d="M.015 0 .012-.046l.065-.016.002-.018.002-.034.001-.045.001-.073a1 1 0 0 0-.009-.101L.009-.347v-.044l.179-.044.027.017-.005.063-.001.072v.123q0 .049.005.098l.065.016L.276 0zm.131-.515a.08.08 0 0 1-.084-.079q0-.031.023-.055a.08.08 0 0 1 .061-.024q.04 0 .061.024a.08.08 0 0 1 .022.055q0 .031-.022.055-.02.024-.061.024" style="fill:#fff;fill-rule:nonzero" transform="rotate(-1.638 43766.306 -43536.932)scale(75.00001)"/><path d="M.253.008a.24.24 0 0 1-.111-.027.2.2 0 0 1-.108-.185q0-.062.031-.115a.239.239 0 0 1 .211-.118q.043 0 .078.012.032.008.054.032a.06.06 0 0 1 .021.046q0 .024-.015.036a.06.06 0 0 1-.037.013.1.1 0 0 1-.033-.007Q.327-.315.312-.328L.241-.39l.049.011a.1.1 0 0 0-.056.008.1.1 0 0 0-.046.048.2.2 0 0 0-.018.085q0 .074.037.113a.12.12 0 0 0 .091.038.1.1 0 0 0 .054-.012.2.2 0 0 0 .053-.042l.03.028a.199.199 0 0 1-.182.121" style="fill:#fff;fill-rule:nonzero" transform="rotate(1.018 -68703.712 72863.973)scale(74.99998)"/><path d="M.184.008a.14.14 0 0 1-.078-.02.15.15 0 0 1-.05-.046.1.1 0 0 1-.017-.052q0-.036.022-.06a.15.15 0 0 1 .068-.037l.154-.045v-.035a.06.06 0 0 0-.014-.039.1.1 0 0 0-.08-.041q-.016 0-.023.007-.006.008-.008.029l-.005.059a.13.13 0 0 1-.079-.003Q.043-.288.043-.318q0-.02.019-.039a.36.36 0 0 1 .161-.08q.087 0 .138.04.05.04.051.106l-.003.136.001.043q.002.015.006.025l.064.011v.041l-.063.028a.2.2 0 0 1-.06.015q-.039 0-.054-.039L.286-.076l.021.004a.3.3 0 0 1-.062.059.1.1 0 0 1-.061.021M.233-.08A.1.1 0 0 0 .26-.085l.023-.017v-.095l-.067.012Q.192-.182.182-.17a.05.05 0 0 0-.01.031q0 .023.018.041a.06.06 0 0 0 .043.018" style="fill:#fff;fill-rule:nonzero" transform="rotate(4.419 -15317.669 17691.292)scale(75.00003)"/><path d="M.015 0 .012-.046l.064-.015.003-.038.002-.062.001-.068v-.124L.081-.42.08-.484.079-.54.076-.581l-.072-.01-.002-.042.186-.048.027.017-.003.08-.001.087-.001.119-.001.144.001.115q0 .029.004.058l.063.015L.275 0z" style="fill:#fff;fill-rule:nonzero" transform="rotate(7.099 -9285.15 11532.6)scale(75)"/><path d="m879.366 1317.27 64.613 82.242m475.861-206.632-22.577 96.545" style="fill:none;stroke:#e0e0e0;stroke-width:3.54px"/><text style="font-family:&quot;CrimsonPro-Regular&quot;,&quot;Crimson Pro&quot;;font-size:66.667px;fill:#b0b0b0" transform="rotate(14.617 -4577.99 6293.491)">Z</text><text style="font-family:&quot;CrimsonPro-Regular&quot;,&quot;Crimson Pro&quot;;font-size:66.667px;fill:#b0b0b0" transform="rotate(19.158 -3315.83 5049.624)">o</text><text style="font-family:&quot;CrimsonPro-Regular&quot;,&quot;Crimson Pro&quot;;font-size:66.667px;fill:#b0b0b0" transform="rotate(23.07 -2625.089 4376.167)">n</text><text style="font-family:&quot;CrimsonPro-Regular&quot;,&quot;Crimson Pro&quot;;font-size:66.667px;fill:#b0b0b0" transform="rotate(26.416 -2198.372 3972.364)">e</text><text style="font-family:&quot;CrimsonPro-Regular&quot;,&quot;Crimson Pro&quot;;font-size:66.667px;fill:#b0b0b0" transform="rotate(30.763 -1778.3 3568.376)">d</text><text style="font-family:&quot;CrimsonPro-Regular&quot;,&quot;Crimson Pro&quot;;font-size:66.667px;fill:#b0b0b0" transform="rotate(33.811 -1549.426 3355.471)">e</text><text style="font-family:&quot;CrimsonPro-Regular&quot;,&quot;Crimson Pro&quot;;font-size:66.667px;fill:#b0b0b0" transform="rotate(37.583 -1315.844 3135.851)">r</text><text style="font-family:&quot;CrimsonPro-Regular&quot;,&quot;Crimson Pro&quot;;font-size:66.667px;fill:#b0b0b0" transform="rotate(40.08 -1182.017 3005.166)">é</text><text style="font-family:&quot;CrimsonPro-Regular&quot;,&quot;Crimson Pro&quot;;font-size:66.667px;fill:#b0b0b0" transform="rotate(43.273 -1032.875 2860.207)">g</text><text style="font-family:&quot;CrimsonPro-Regular&quot;,&quot;Crimson Pro&quot;;font-size:66.667px;fill:#b0b0b0" transform="rotate(46.787 -890.972 2722.479)">u</text><text style="font-family:&quot;CrimsonPro-Regular&quot;,&quot;Crimson Pro&quot;;font-size:66.667px;fill:#b0b0b0" transform="rotate(49.72 -791.338 2630.812)">l</text><text style="font-family:&quot;CrimsonPro-Regular&quot;,&quot;Crimson Pro&quot;;font-size:66.667px;fill:#b0b0b0" transform="rotate(52.682 -692.72 2529.345)">a</text><text style="font-family:&quot;CrimsonPro-Regular&quot;,&quot;Crimson Pro&quot;;font-size:66.667px;fill:#b0b0b0" transform="rotate(55.813 -604.888 2444.959)">r</text><text style="font-family:&quot;CrimsonPro-Regular&quot;,&quot;Crimson Pro&quot;;font-size:66.667px;fill:#b0b0b0" transform="rotate(58.304 -540.944 2382.919)">i</text><text style="font-family:&quot;CrimsonPro-Regular&quot;,&quot;Crimson Pro&quot;;font-size:66.667px;fill:#b0b0b0" transform="rotate(60.875 -476.624 2317.641)">t</text><text style="font-family:&quot;CrimsonPro-Regular&quot;,&quot;Crimson Pro&quot;;font-size:66.667px;fill:#b0b0b0" transform="rotate(64.025 -404.17 2244.486)">é</text><text style="font-family:&quot;CrimsonPro-Regular&quot;,&quot;Crimson Pro&quot;;font-size:66.667px;fill:#b0b0b0" transform="rotate(-62.045 1771.72 160.101)">Z</text><text style="font-family:&quot;CrimsonPro-Regular&quot;,&quot;Crimson Pro&quot;;font-size:66.667px;fill:#b0b0b0" transform="rotate(-57.429 1886.123 64.873)">o</text><text style="font-family:&quot;CrimsonPro-Regular&quot;,&quot;Crimson Pro&quot;;font-size:66.667px;fill:#b0b0b0" transform="rotate(-53.595 1992.419 -29.812)">n</text><text style="font-family:&quot;CrimsonPro-Regular&quot;,&quot;Crimson Pro&quot;;font-size:66.667px;fill:#b0b0b0" transform="rotate(-50.405 2087.926 -127.253)">e</text><text style="font-family:&quot;CrimsonPro-Regular&quot;,&quot;Crimson Pro&quot;;font-size:66.667px;fill:#b0b0b0" transform="rotate(-46.321 2230.245 -265.62)">d</text><text style="font-family:&quot;CrimsonPro-Regular&quot;,&quot;Crimson Pro&quot;;font-size:66.667px;fill:#b0b0b0" transform="rotate(-44.132 2310.19 -365.382)">&apos;</text><text style="font-family:&quot;CrimsonPro-Regular&quot;,&quot;Crimson Pro&quot;;font-size:66.667px;fill:#b0b0b0" transform="rotate(-42.687 2371.522 -426.406)">i</text><text style="font-family:&quot;CrimsonPro-Regular&quot;,&quot;Crimson Pro&quot;;font-size:66.667px;fill:#b0b0b0" transform="rotate(-40.83 2457.37 -508.066)">r</text><text style="font-family:&quot;CrimsonPro-Regular&quot;,&quot;Crimson Pro&quot;;font-size:66.667px;fill:#b0b0b0" transform="rotate(-38.675 2564.955 -617.14)">r</text><text style="font-family:&quot;CrimsonPro-Regular&quot;,&quot;Crimson Pro&quot;;font-size:66.667px;fill:#b0b0b0" transform="rotate(-36.353 2696.27 -743.412)">é</text><text style="font-family:&quot;CrimsonPro-Regular&quot;,&quot;Crimson Pro&quot;;font-size:66.667px;fill:#b0b0b0" transform="rotate(-33.368 2890.306 -931.955)">g</text><text style="font-family:&quot;CrimsonPro-Regular&quot;,&quot;Crimson Pro&quot;;font-size:66.667px;fill:#b0b0b0" transform="rotate(-30.063 3148.718 -1182.466)">u</text><text style="font-family:&quot;CrimsonPro-Regular&quot;,&quot;Crimson Pro&quot;;font-size:66.667px;fill:#b0b0b0" transform="rotate(-27.293 3408.118 -1455.153)">l</text><text style="font-family:&quot;CrimsonPro-Regular&quot;,&quot;Crimson Pro&quot;;font-size:66.667px;fill:#b0b0b0" transform="rotate(-24.492 3739.183 -1750.217)">a</text><text style="font-family:&quot;CrimsonPro-Regular&quot;,&quot;Crimson Pro&quot;;font-size:66.667px;fill:#b0b0b0" transform="rotate(-21.517 4176.169 -2178.829)">r</text><text style="font-family:&quot;CrimsonPro-Regular&quot;,&quot;Crimson Pro&quot;;font-size:66.667px;fill:#b0b0b0" transform="rotate(-19.131 4624.613 -2614.563)">i</text><text style="font-family:&quot;CrimsonPro-Regular&quot;,&quot;Crimson Pro&quot;;font-size:66.667px;fill:#b0b0b0" transform="rotate(-16.66 5227.028 -3171.8)">t</text><text style="font-family:&quot;CrimsonPro-Regular&quot;,&quot;Crimson Pro&quot;;font-size:66.667px;fill:#b0b0b0" transform="rotate(-13.599 6273.889 -4140.873)">é</text><text style="font-family:&quot;CrimsonPro-Regular&quot;,&quot;Crimson Pro&quot;;font-size:66.667px;fill:#b0b0b0" transform="translate(2285.384 954.653)">Appr</text><text style="font-family:&quot;CrimsonPro-Regular&quot;,&quot;Crimson Pro&quot;;font-size:66.667px;fill:#b0b0b0" transform="translate(2415.462 954.653)">éciation</text><text style="font-family:&quot;CrimsonPro-Regular&quot;,&quot;Crimson Pro&quot;;font-size:66.667px;fill:#b0b0b0" transform="translate(2389.485 1025.487)">Musicale</text><path d="m2666.34 897.079 20.446-28.618 20.446 28.618m-20.452-28.618v797.568m1221.15-20.449 28.619 20.446-28.619 20.447m28.62-20.443H2686.79" style="fill:none;stroke:#e0e0e0;stroke-width:6.25px"/><text style="font-family:&quot;CrimsonPro-Regular&quot;,&quot;Crimson Pro&quot;;font-size:66.667px;fill:#b0b0b0" transform="translate(3670.64 1774.5)">E</text><text style="font-family:&quot;CrimsonPro-Regular&quot;,&quot;Crimson Pro&quot;;font-size:66.667px;fill:#b0b0b0" transform="translate(3705.74 1774.5)">xposition</text><path d="M2686.78 1666.03c78.568-133.147 235.703-399.441 624.881-398.784 328.218.554 491.688 231.641 573.423 347.184" style="fill:none;stroke:#e0e0e0;stroke-width:3.54px;stroke-dasharray:3.54,3.54,14.17,14.17,0,0;stroke-dashoffset:14.17"/><path d="m3236.95 1185.54 9.929 103.884m518.441 63.656-71.28 73.04" style="fill:#353535;stroke:#e0e0e0;stroke-width:3.54px"/><path d="M.493.005.455.003.405.001.362 0H.135L.096.001.058.003v-.051l.309-.509v.041H.2l-.047.001-.032.004-.019.1h-.06L.04-.576q.048.005.096.003h.279l.076-.002v.05l-.303.503v-.04h.183l.028-.001.024-.003.041-.111.059.008z" style="fill:#fff;fill-rule:nonzero" transform="rotate(9.857 -5046.002 20312.711)scale(75.00004)"/><path d="M.263.008A.25.25 0 0 1 .144-.02a.2.2 0 0 1-.081-.077.2.2 0 0 1-.029-.113q0-.072.033-.123.031-.051.086-.077a.25.25 0 0 1 .229.001.2.2 0 0 1 .104.189.23.23 0 0 1-.11.198.2.2 0 0 1-.113.03m.011-.062q.024 0 .041-.016a.1.1 0 0 0 .026-.046.3.3 0 0 0-.017-.21Q.297-.378.252-.378q-.036 0-.059.038a.2.2 0 0 0-.022.102q0 .048.014.094.012.036.036.065a.07.07 0 0 0 .053.025" style="fill:#fff;fill-rule:nonzero" transform="rotate(12.465 -3637.953 16346.636)scale(75.00005)"/><path d="M.018 0 .015-.045l.061-.016.002-.018.002-.035.001-.045.001-.074L.08-.286Q.078-.308.073-.333L.011-.347V-.39l.171-.045.027.017-.006.058.003.001A.18.18 0 0 1 .35-.437q.042 0 .075.021t.053.06a.2.2 0 0 1 .019.096v.1q0 .05.005.099l.06.016L.559 0H.315L.312-.045l.055-.016.003-.026.002-.035v-.12a.14.14 0 0 0-.011-.059.1.1 0 0 0-.03-.034.1.1 0 0 0-.041-.011.1.1 0 0 0-.083.043v.143q0 .05.005.099l.059.016L.268 0z" style="fill:#fff;fill-rule:nonzero" transform="rotate(15.247 -2663.713 13592.265)scale(75.00002)"/><path d="M.252.008a.2.2 0 0 1-.113-.029.2.2 0 0 1-.077-.077.2.2 0 0 1-.028-.11q0-.068.032-.119a.2.2 0 0 1 .081-.081q.05-.03.108-.029.086 0 .133.054a.2.2 0 0 1 .047.138v.023H.148v-.051h.191l-.015.024v-.034a.12.12 0 0 0-.02-.072.07.07 0 0 0-.057-.027.1.1 0 0 0-.044.013.1.1 0 0 0-.031.041.2.2 0 0 0-.011.07v.02a.16.16 0 0 0 .037.111.12.12 0 0 0 .098.042.13.13 0 0 0 .061-.013.2.2 0 0 0 .053-.041l.03.028a.2.2 0 0 1-.188.119" style="fill:#fff;fill-rule:nonzero" transform="rotate(17.965 -2004.152 11736.534)scale(75.00006)"/><path d="M.371.012.345-.002l.001-.063-.003-.002a.2.2 0 0 1-.055.06.13.13 0 0 1-.062.016A.19.19 0 0 1 .06-.09.2.2 0 0 1 .034-.2a.23.23 0 0 1 .074-.173.26.26 0 0 1 .163-.063.2.2 0 0 1 .07.014v-.041L.34-.509.339-.551.337-.58.264-.591.262-.633l.186-.048.026.017-.005.112q-.003.051-.003.108l-.001.226q0 .048.003.078l.004.052.065.014v.042zM.272-.084a.09.09 0 0 0 .07-.042v-.218A.1.1 0 0 0 .311-.37a.1.1 0 0 0-.037-.007.09.09 0 0 0-.076.038.16.16 0 0 0-.03.105q0 .072.031.111a.09.09 0 0 0 .073.039" style="fill:#fff;fill-rule:nonzero" transform="rotate(21.775 -1350.14 9880.72)scale(75.00004)"/><path d="M.252.008a.2.2 0 0 1-.113-.029.2.2 0 0 1-.077-.077.2.2 0 0 1-.028-.11q0-.068.032-.119a.2.2 0 0 1 .081-.081q.05-.03.108-.029.086 0 .133.054a.2.2 0 0 1 .047.138v.023H.148v-.051h.191l-.015.024v-.034a.12.12 0 0 0-.02-.072.07.07 0 0 0-.057-.027.1.1 0 0 0-.044.013.1.1 0 0 0-.031.041.2.2 0 0 0-.011.07v.02a.16.16 0 0 0 .037.111.12.12 0 0 0 .098.042.13.13 0 0 0 .061-.013.2.2 0 0 0 .053-.041l.03.028a.2.2 0 0 1-.188.119" style="fill:#fff;fill-rule:nonzero" transform="rotate(24.594 -997.35 8884.43)scale(75.00005)"/><path d="M.041 0 .038-.049l.058-.016q.003-.003.003-.023l.003-.051.001-.071.001-.157-.001-.069-.006-.075-.062-.014.003-.048h.247q.12 0 .18.043.059.043.059.125a.16.16 0 0 1-.028.096.2.2 0 0 1-.082.068.3.3 0 0 1-.128.025L.252-.218.221-.223V-.29l.028.008.037.003q.046 0 .072-.029a.12.12 0 0 0 .026-.084q0-.066-.032-.096a.12.12 0 0 0-.089-.031H.236l-.001.026v.05l-.001.076.001.157.001.071.003.051.002.023.08.014L.318 0z" style="fill:#fff;fill-rule:nonzero" transform="rotate(-.582 123447.25 -321236.308)scale(75.00004)"/><path d="M.015 0 .012-.046l.064-.015.003-.038.002-.062.001-.068v-.124L.081-.42.08-.484.079-.54.076-.581l-.072-.01-.002-.042.186-.048.027.017-.003.08-.001.087-.001.119-.001.144.001.115q0 .029.004.058l.063.015L.275 0z" style="fill:#fff;fill-rule:nonzero" transform="rotate(1.832 -37017.523 104115.941)scale(75.00002)"/><path d="M.184.008a.14.14 0 0 1-.078-.02.15.15 0 0 1-.05-.046.1.1 0 0 1-.017-.052q0-.036.022-.06a.15.15 0 0 1 .068-.037l.154-.045v-.035a.06.06 0 0 0-.014-.039.1.1 0 0 0-.08-.041q-.016 0-.023.007-.006.008-.008.029l-.005.059a.13.13 0 0 1-.079-.003Q.043-.288.043-.318q0-.02.019-.039a.36.36 0 0 1 .161-.08q.087 0 .138.04.05.04.051.106l-.003.136.001.043q.002.015.006.025l.064.011v.041l-.063.028a.2.2 0 0 1-.06.015q-.039 0-.054-.039L.286-.076l.021.004a.3.3 0 0 1-.062.059.1.1 0 0 1-.061.021M.233-.08A.1.1 0 0 0 .26-.085l.023-.017v-.095l-.067.012Q.192-.182.182-.17a.05.05 0 0 0-.01.031q0 .023.018.041a.06.06 0 0 0 .043.018" style="fill:#fff;fill-rule:nonzero" transform="rotate(4.166 -15340.284 46410.628)scale(75.00004)"/><path d="M.015 0 .012-.046l.065-.016.002-.018.002-.034.001-.045.001-.073a1 1 0 0 0-.009-.101L.009-.347v-.044l.179-.044.027.017-.005.063-.001.072v.123q0 .049.005.098l.065.016L.276 0zm.131-.515a.08.08 0 0 1-.084-.079q0-.031.023-.055a.08.08 0 0 1 .061-.024q.04 0 .061.024a.08.08 0 0 1 .022.055q0 .031-.022.055-.02.024-.061.024" style="fill:#fff;fill-rule:nonzero" transform="rotate(6.266 -9642.223 31382.7)scale(75)"/><path d="M.19.008a.4.4 0 0 1-.081-.009.3.3 0 0 1-.067-.024L.037-.14H.1l.02.07q.037.022.077.022.03 0 .046-.012a.04.04 0 0 0 .016-.032.05.05 0 0 0-.017-.038.3.3 0 0 0-.07-.035.3.3 0 0 1-.101-.058.1.1 0 0 1-.028-.078q0-.04.025-.071A.2.2 0 0 1 .136-.42a.32.32 0 0 1 .218.005l.011.113H.303L.281-.371a.1.1 0 0 0-.05-.013.1.1 0 0 0-.048.013.04.04 0 0 0-.018.034q0 .023.022.039a.4.4 0 0 0 .078.039.3.3 0 0 1 .092.056q.027.03.027.074A.12.12 0 0 1 .33-.03a.24.24 0 0 1-.14.038" style="fill:#fff;fill-rule:nonzero" transform="rotate(8.288 -6878.102 24012.257)scale(75)"/><path d="M.015 0 .012-.046l.065-.016.002-.018.002-.034.001-.045.001-.073a1 1 0 0 0-.009-.101L.009-.347v-.044l.179-.044.027.017-.005.063-.001.072v.123q0 .049.005.098l.065.016L.276 0zm.131-.515a.08.08 0 0 1-.084-.079q0-.031.023-.055a.08.08 0 0 1 .061-.024q.04 0 .061.024a.08.08 0 0 1 .022.055q0 .031-.022.055-.02.024-.061.024" style="fill:#fff;fill-rule:nonzero" transform="rotate(10.246 -5243.034 19695.238)scale(75.00006)"/><path d="M.019 0 .016-.045l.061-.016.002-.019.002-.035.001-.044.001-.074-.002-.052Q.079-.308.074-.333L.012-.347V-.39l.169-.045.025.017-.004.077.003.001a.2.2 0 0 1 .057-.074.1.1 0 0 1 .059-.02q.027 0 .047.015t.019.046a.06.06 0 0 1-.021.049.07.07 0 0 1-.05.017.1.1 0 0 1-.042-.008.1.1 0 0 1-.04-.029l.027.002a.16.16 0 0 0-.052.066l.001.077.001.064.002.048.002.025.085.015L.297 0z" style="fill:#fff;fill-rule:nonzero" transform="rotate(12.254 -4104.192 16653.884)scale(75.00003)"/><path d="M.047-.573h.204l.205.433H.428l.184-.433h.204l.003.048-.062.015v.044l.002.079.006.171.004.073.006.078.062.016L.834 0H.569L.566-.049l.063-.016.001-.022.001-.052L.63-.215l-.003-.33h.045L.439.003H.378l-.26-.548h.06l.001.336.001.107.002.037.068.016L.247 0H.033L.03-.049l.068-.016L.1-.091l.002-.051.001-.06.002-.183.001-.082v-.042L.044-.525z" style="fill:#fff;fill-rule:nonzero" transform="rotate(17.23 -2415.3 12130.127)scale(75.00001)"/><path d="m.492-.088.064.014v.042L.391.012.364-.002l.001-.069-.003-.001a.16.16 0 0 1-.061.064.14.14 0 0 1-.067.017.15.15 0 0 1-.115-.044Q.075-.078.075-.167V-.25L.074-.292.071-.333.005-.347V-.39L.18-.435l.028.017-.004.07-.002.084-.001.083q0 .05.023.074a.08.08 0 0 0 .061.023.09.09 0 0 0 .077-.046v-.094L.361-.266.36-.3.356-.333.287-.347V-.39l.176-.045.027.017-.002.037-.001.047v.14l.001.05a.4.4 0 0 0 .004.056" style="fill:#fff;fill-rule:nonzero" transform="rotate(21.787 -1551.008 9855.038)scale(75.00006)"/><path d="M.19.008a.4.4 0 0 1-.081-.009.3.3 0 0 1-.067-.024L.037-.14H.1l.02.07q.037.022.077.022.03 0 .046-.012a.04.04 0 0 0 .016-.032.05.05 0 0 0-.017-.038.3.3 0 0 0-.07-.035.3.3 0 0 1-.101-.058.1.1 0 0 1-.028-.078q0-.04.025-.071A.2.2 0 0 1 .136-.42a.32.32 0 0 1 .218.005l.011.113H.303L.281-.371a.1.1 0 0 0-.05-.013.1.1 0 0 0-.048.013.04.04 0 0 0-.018.034q0 .023.022.039a.4.4 0 0 0 .078.039.3.3 0 0 1 .092.056q.027.03.027.074A.12.12 0 0 1 .33-.03a.24.24 0 0 1-.14.038" style="fill:#fff;fill-rule:nonzero" transform="rotate(25.079 -1119.151 8709.908)scale(75.00007)"/><path d="M.015 0 .012-.046l.065-.016.002-.018.002-.034.001-.045.001-.073a1 1 0 0 0-.009-.101L.009-.347v-.044l.179-.044.027.017-.005.063-.001.072v.123q0 .049.005.098l.065.016L.276 0zm.131-.515a.08.08 0 0 1-.084-.079q0-.031.023-.055a.08.08 0 0 1 .061-.024q.04 0 .061.024a.08.08 0 0 1 .022.055q0 .031-.022.055-.02.024-.061.024" style="fill:#fff;fill-rule:nonzero" transform="rotate(27.425 -874.47 8060.167)scale(75.00002)"/><path d="M.253.008a.24.24 0 0 1-.111-.027.2.2 0 0 1-.108-.185q0-.062.031-.115a.239.239 0 0 1 .211-.118q.043 0 .078.012.032.008.054.032a.06.06 0 0 1 .021.046q0 .024-.015.036a.06.06 0 0 1-.037.013.1.1 0 0 1-.033-.007Q.327-.315.312-.328L.241-.39l.049.011a.1.1 0 0 0-.056.008.1.1 0 0 0-.046.048.2.2 0 0 0-.018.085q0 .074.037.113a.12.12 0 0 0 .091.038.1.1 0 0 0 .054-.012.2.2 0 0 0 .053-.042l.03.028a.199.199 0 0 1-.182.121" style="fill:#fff;fill-rule:nonzero" transform="rotate(30.081 -636.604 7420.188)scale(74.99999)"/><path d="M.184.008a.14.14 0 0 1-.078-.02.15.15 0 0 1-.05-.046.1.1 0 0 1-.017-.052q0-.036.022-.06a.15.15 0 0 1 .068-.037l.154-.045v-.035a.06.06 0 0 0-.014-.039.1.1 0 0 0-.08-.041q-.016 0-.023.007-.006.008-.008.029l-.005.059a.13.13 0 0 1-.079-.003Q.043-.288.043-.318q0-.02.019-.039a.36.36 0 0 1 .161-.08q.087 0 .138.04.05.04.051.106l-.003.136.001.043q.002.015.006.025l.064.011v.041l-.063.028a.2.2 0 0 1-.06.015q-.039 0-.054-.039L.286-.076l.021.004a.3.3 0 0 1-.062.059.1.1 0 0 1-.061.021M.233-.08A.1.1 0 0 0 .26-.085l.023-.017v-.095l-.067.012Q.192-.182.182-.17a.05.05 0 0 0-.01.031q0 .023.018.041a.06.06 0 0 0 .043.018" style="fill:#fff;fill-rule:nonzero" transform="rotate(33.482 -388.208 6755.855)scale(75.00004)"/><path d="M.015 0 .012-.046l.064-.015.003-.038.002-.062.001-.068v-.124L.081-.42.08-.484.079-.54.076-.581l-.072-.01-.002-.042.186-.048.027.017-.003.08-.001.087-.001.119-.001.144.001.115q0 .029.004.058l.063.015L.275 0z" style="fill:#fff;fill-rule:nonzero" transform="rotate(36.161 -229.5 6333.525)scale(75)"/><text style="font-family:&quot;CrimsonPro-Regular&quot;,&quot;Crimson Pro&quot;;font-size:66.667px;fill:#b0b0b0" transform="rotate(14.617 -3578.118 14089.22)">Z</text><text style="font-family:&quot;CrimsonPro-Regular&quot;,&quot;Crimson Pro&quot;;font-size:66.667px;fill:#b0b0b0" transform="rotate(19.158 -2315.97 10974.392)">o</text><text style="font-family:&quot;CrimsonPro-Regular&quot;,&quot;Crimson Pro&quot;;font-size:66.667px;fill:#b0b0b0" transform="rotate(23.07 -1625.245 9275.163)">n</text><text style="font-family:&quot;CrimsonPro-Regular&quot;,&quot;Crimson Pro&quot;;font-size:66.667px;fill:#b0b0b0" transform="rotate(26.416 -1198.522 8232.61)">e</text><text style="font-family:&quot;CrimsonPro-Regular&quot;,&quot;Crimson Pro&quot;;font-size:66.667px;fill:#b0b0b0" transform="rotate(30.763 -778.444 7202.935)">d</text><text style="font-family:&quot;CrimsonPro-Regular&quot;,&quot;Crimson Pro&quot;;font-size:66.667px;fill:#b0b0b0" transform="rotate(33.811 -549.575 6645.218)">e</text><text style="font-family:&quot;CrimsonPro-Regular&quot;,&quot;Crimson Pro&quot;;font-size:66.667px;fill:#b0b0b0" transform="rotate(37.583 -315.99 6074.365)">r</text><text style="font-family:&quot;CrimsonPro-Regular&quot;,&quot;Crimson Pro&quot;;font-size:66.667px;fill:#b0b0b0" transform="rotate(40.08 -182.162 5746.255)">é</text><text style="font-family:&quot;CrimsonPro-Regular&quot;,&quot;Crimson Pro&quot;;font-size:66.667px;fill:#b0b0b0" transform="rotate(43.273 -33.02 5380.892)">g</text><text style="font-family:&quot;CrimsonPro-Regular&quot;,&quot;Crimson Pro&quot;;font-size:66.667px;fill:#b0b0b0" transform="rotate(46.787 108.883 5033.726)">u</text><text style="font-family:&quot;CrimsonPro-Regular&quot;,&quot;Crimson Pro&quot;;font-size:66.667px;fill:#b0b0b0" transform="rotate(49.72 208.516 4788.744)">l</text><text style="font-family:&quot;CrimsonPro-Regular&quot;,&quot;Crimson Pro&quot;;font-size:66.667px;fill:#b0b0b0" transform="rotate(52.682 307.133 4548.753)">a</text><text style="font-family:&quot;CrimsonPro-Regular&quot;,&quot;Crimson Pro&quot;;font-size:66.667px;fill:#b0b0b0" transform="rotate(55.813 394.967 4332.835)">r</text><text style="font-family:&quot;CrimsonPro-Regular&quot;,&quot;Crimson Pro&quot;;font-size:66.667px;fill:#b0b0b0" transform="rotate(58.304 458.91 4175.455)">i</text><text style="font-family:&quot;CrimsonPro-Regular&quot;,&quot;Crimson Pro&quot;;font-size:66.667px;fill:#b0b0b0" transform="rotate(60.875 523.232 4019.312)">t</text><text style="font-family:&quot;CrimsonPro-Regular&quot;,&quot;Crimson Pro&quot;;font-size:66.667px;fill:#b0b0b0" transform="rotate(64.025 595.684 3843.823)">é</text><text style="font-family:&quot;CrimsonPro-Regular&quot;,&quot;Crimson Pro&quot;;font-size:66.667px;fill:#b0b0b0" transform="rotate(-62.045 2771.58 -1502.454)">Z</text><text style="font-family:&quot;CrimsonPro-Regular&quot;,&quot;Crimson Pro&quot;;font-size:66.667px;fill:#b0b0b0" transform="rotate(-57.429 2885.982 -1760.301)">o</text><text style="font-family:&quot;CrimsonPro-Regular&quot;,&quot;Crimson Pro&quot;;font-size:66.667px;fill:#b0b0b0" transform="rotate(-53.595 2992.276 -2009.39)">n</text><text style="font-family:&quot;CrimsonPro-Regular&quot;,&quot;Crimson Pro&quot;;font-size:66.667px;fill:#b0b0b0" transform="rotate(-50.405 3087.782 -2251.803)">e</text><text style="font-family:&quot;CrimsonPro-Regular&quot;,&quot;Crimson Pro&quot;;font-size:66.667px;fill:#b0b0b0" transform="rotate(-46.321 3230.105 -2602.938)">d</text><text style="font-family:&quot;CrimsonPro-Regular&quot;,&quot;Crimson Pro&quot;;font-size:66.667px;fill:#b0b0b0" transform="rotate(-44.132 3310.046 -2831.915)">&apos;</text><text style="font-family:&quot;CrimsonPro-Regular&quot;,&quot;Crimson Pro&quot;;font-size:66.667px;fill:#b0b0b0" transform="rotate(-42.687 3371.38 -2985.182)">i</text><text style="font-family:&quot;CrimsonPro-Regular&quot;,&quot;Crimson Pro&quot;;font-size:66.667px;fill:#b0b0b0" transform="rotate(-40.83 3457.229 -3194.454)">r</text><text style="font-family:&quot;CrimsonPro-Regular&quot;,&quot;Crimson Pro&quot;;font-size:66.667px;fill:#b0b0b0" transform="rotate(-38.675 3564.813 -3466.332)">r</text><text style="font-family:&quot;CrimsonPro-Regular&quot;,&quot;Crimson Pro&quot;;font-size:66.667px;fill:#b0b0b0" transform="rotate(-36.353 3696.131 -3788.718)">é</text><text style="font-family:&quot;CrimsonPro-Regular&quot;,&quot;Crimson Pro&quot;;font-size:66.667px;fill:#b0b0b0" transform="rotate(-33.368 3890.165 -4268.02)">g</text><text style="font-family:&quot;CrimsonPro-Regular&quot;,&quot;Crimson Pro&quot;;font-size:66.667px;fill:#b0b0b0" transform="rotate(-30.063 4148.577 -4905.735)">u</text><text style="font-family:&quot;CrimsonPro-Regular&quot;,&quot;Crimson Pro&quot;;font-size:66.667px;fill:#b0b0b0" transform="rotate(-27.293 4407.983 -5573.395)">l</text><text style="font-family:&quot;CrimsonPro-Regular&quot;,&quot;Crimson Pro&quot;;font-size:66.667px;fill:#b0b0b0" transform="rotate(-24.492 4739.044 -6356.922)">a</text><text style="font-family:&quot;CrimsonPro-Regular&quot;,&quot;Crimson Pro&quot;;font-size:66.667px;fill:#b0b0b0" transform="rotate(-21.517 5176.022 -7441.015)">r</text><text style="font-family:&quot;CrimsonPro-Regular&quot;,&quot;Crimson Pro&quot;;font-size:66.667px;fill:#b0b0b0" transform="rotate(-19.131 5624.47 -8547.815)">i</text><text style="font-family:&quot;CrimsonPro-Regular&quot;,&quot;Crimson Pro&quot;;font-size:66.667px;fill:#b0b0b0" transform="rotate(-16.66 6226.895 -10000.387)">t</text><text style="font-family:&quot;CrimsonPro-Regular&quot;,&quot;Crimson Pro&quot;;font-size:66.667px;fill:#b0b0b0" transform="rotate(-13.599 7273.743 -12526.331)">é</text><path d="M.502.006.461.004.406.001.358 0h-.22L.096.001.057.004v-.057l.304-.504v.044H.214l-.086.006-.02.101H.041l-.002-.17q.05.005.101.003h.283l.078-.002v.056l-.298.495v-.042h.163l.035-.001.026-.003.04-.112.066.008z" style="fill:#fff;fill-rule:nonzero" transform="rotate(-7.81 4005.665 -12983.078)scale(83.3333)"/><path d="M.268.008A.25.25 0 0 1 .146-.02a.2.2 0 0 1-.084-.078.2.2 0 0 1-.03-.113q0-.074.034-.125a.24.24 0 0 1 .09-.078.3.3 0 0 1 .117-.026q.066 0 .117.028.05.027.079.077a.2.2 0 0 1 .029.113.22.22 0 0 1-.114.199.2.2 0 0 1-.116.031M.279-.06a.05.05 0 0 0 .036-.015.1.1 0 0 0 .022-.043.3.3 0 0 0 .007-.068.3.3 0 0 0-.024-.138Q.295-.377.256-.377q-.032 0-.05.036a.2.2 0 0 0-.019.097.3.3 0 0 0 .012.094.2.2 0 0 0 .033.065.06.06 0 0 0 .047.025" style="fill:#fff;fill-rule:nonzero" transform="rotate(-6.82 4428.329 -15287.487)scale(83.33326)"/><path d="M.015 0 .012-.048l.06-.017.002-.02.002-.036.001-.04.001-.074-.001-.048L.07-.33.008-.344v-.047l.184-.047.031.017-.006.061.003.001A.2.2 0 0 1 .287-.42a.16.16 0 0 1 .155.001q.034.02.053.061a.2.2 0 0 1 .019.096v.099l.001.061.003.037.061.017L.576 0h-.26L.313-.048l.054-.017.003-.029.002-.036v-.109a.1.1 0 0 0-.01-.057.1.1 0 0 0-.027-.033.1.1 0 0 0-.039-.01.1.1 0 0 0-.041.009.1.1 0 0 0-.034.028v.143q0 .047.005.094l.057.017L.28 0z" style="fill:#fff;fill-rule:nonzero" transform="rotate(-5.881 4959.46 -18196.245)scale(83.33334)"/><path d="M.255.008a.22.22 0 0 1-.194-.109.2.2 0 0 1-.028-.109q0-.068.032-.119a.24.24 0 0 1 .084-.082A.2.2 0 0 1 .26-.44q.088 0 .137.053a.2.2 0 0 1 .049.139v.025H.161v-.053H.34l-.018.027v-.038a.1.1 0 0 0-.018-.068.06.06 0 0 0-.052-.026.06.06 0 0 0-.04.013.1.1 0 0 0-.028.038.2.2 0 0 0-.01.066v.023q0 .065.036.105a.12.12 0 0 0 .097.041.2.2 0 0 0 .061-.012.2.2 0 0 0 .052-.041l.032.03a.2.2 0 0 1-.079.094.2.2 0 0 1-.118.032" style="fill:#fff;fill-rule:nonzero" transform="rotate(-5.034 5603.756 -21855.768)scale(83.3333)"/><path d="M.371.013.34-.002l.001-.064-.003-.002a.15.15 0 0 1-.053.061.12.12 0 0 1-.062.017.2.2 0 0 1-.093-.026.2.2 0 0 1-.071-.074.2.2 0 0 1-.027-.112.23.23 0 0 1 .155-.22.25.25 0 0 1 .121-.014l.027.007V-.47L.334-.511.333-.548.331-.577.26-.586.258-.631l.199-.051.03.018-.006.11-.003.103-.001.228a1 1 0 0 0 .006.128l.066.013v.046zM.278-.094a.1.1 0 0 0 .03-.009.1.1 0 0 0 .029-.028v-.221A.1.1 0 0 0 .311-.37a.085.085 0 0 0-.1.031.16.16 0 0 0-.027.099q0 .072.028.109a.09.09 0 0 0 .066.037" style="fill:#fff;fill-rule:nonzero" transform="rotate(-3.945 6844.225 -28762.801)scale(83.33331)"/><path d="M.255.008a.22.22 0 0 1-.194-.109.2.2 0 0 1-.028-.109q0-.068.032-.119a.24.24 0 0 1 .084-.082A.2.2 0 0 1 .26-.44q.088 0 .137.053a.2.2 0 0 1 .049.139v.025H.161v-.053H.34l-.018.027v-.038a.1.1 0 0 0-.018-.068.06.06 0 0 0-.052-.026.06.06 0 0 0-.04.013.1.1 0 0 0-.028.038.2.2 0 0 0-.01.066v.023q0 .065.036.105a.12.12 0 0 0 .097.041.2.2 0 0 0 .061-.012.2.2 0 0 0 .052-.041l.032.03a.2.2 0 0 1-.079.094.2.2 0 0 1-.118.032" style="fill:#fff;fill-rule:nonzero" transform="rotate(-3.189 8197.135 -36466.712)scale(83.33332)"/><path d="M.038 0 .035-.052.094-.07q.003-.003.004-.025l.003-.054v-.068L.102-.36.101-.426.095-.508.032-.521l.003-.052h.262q.128 0 .189.043a.14.14 0 0 1 .061.126.2.2 0 0 1-.028.098.2.2 0 0 1-.084.069.3.3 0 0 1-.137.026l-.03-.002-.031-.004V-.29l.024.008.038.003q.044 0 .067-.029a.13.13 0 0 0 .023-.083q0-.064-.031-.094-.03-.03-.087-.03H.252l-.001.026v.049L.25-.36l.001.143q.001.074.007.148l.079.015L.334 0z" style="fill:#fff;fill-rule:nonzero" transform="rotate(-2.128 11722.4 -56248.87)scale(83.33327)"/><path d="M.012 0 .009-.05l.063-.015q.005-.052.005-.104l.001-.059v-.189l-.001-.06-.002-.054-.002-.044L0-.585l-.002-.046L.2-.682l.03.018-.003.078-.002.087v.119l-.001.138.004.177.063.015L.289 0z" style="fill:#fff;fill-rule:nonzero" transform="rotate(-1.486 16296 -82510.708)scale(83.33332)"/><path d="M.184.008a.15.15 0 0 1-.131-.069.1.1 0 0 1 .004-.115.15.15 0 0 1 .068-.037L.28-.256v-.029a.06.06 0 0 0-.013-.038.1.1 0 0 0-.076-.042.03.03 0 0 0-.019.007q-.005.012-.007.025l-.006.066A.16.16 0 0 1 .073-.27Q.04-.285.04-.317q0-.02.021-.041A.4.4 0 0 1 .229-.44a.23.23 0 0 1 .144.04.12.12 0 0 1 .053.109l-.002.126.001.045.007.024.065.012v.045l-.07.03-.034.013-.031.004q-.04 0-.059-.041L.284-.08l.023.005a.3.3 0 0 1-.062.06.1.1 0 0 1-.061.023M.241-.09l.021-.004.019-.011v-.093l-.052.006a.06.06 0 0 0-.035.014.04.04 0 0 0-.01.03q0 .022.017.04a.06.06 0 0 0 .04.018" style="fill:#fff;fill-rule:nonzero" transform="rotate(-.856 27463.32 -145044.338)scale(83.33327)"/><path d="M.012 0 .009-.05l.064-.015.002-.02.002-.036.001-.04.001-.073-.001-.049L.071-.33.006-.344v-.047l.192-.047.031.017-.005.065-.001.072v.125q0 .047.005.094l.064.015L.289 0zm.14-.507a.1.1 0 0 1-.069-.026.09.09 0 0 1 0-.121q.024-.027.069-.027t.069.027a.1.1 0 0 1 .023.06.1.1 0 0 1-.023.061.1.1 0 0 1-.069.026" style="fill:#fff;fill-rule:nonzero" transform="rotate(-.278 82320.417 -456273.152)scale(83.33328)"/><path d="M.191.008a.34.34 0 0 1-.154-.034L.032-.145h.069l.02.071q.036.018.077.021a.1.1 0 0 0 .043-.011.03.03 0 0 0 .014-.028.04.04 0 0 0-.017-.035.3.3 0 0 0-.069-.033.3.3 0 0 1-.101-.058.12.12 0 0 1-.028-.08.1.1 0 0 1 .026-.074.17.17 0 0 1 .072-.05.3.3 0 0 1 .106-.018.4.4 0 0 1 .121.022L.377-.3H.309L.288-.37.264-.38.238-.383a.1.1 0 0 0-.044.012.03.03 0 0 0-.017.032.05.05 0 0 0 .021.036q.021.015.078.037a.24.24 0 0 1 .092.056q.027.03.027.075a.12.12 0 0 1-.056.104.26.26 0 0 1-.148.039" style="fill:#fff;fill-rule:nonzero" transform="rotate(.281 -79344.753 457869.147)scale(83.3333)"/><path d="M.012 0 .009-.05l.064-.015.002-.02.002-.036.001-.04.001-.073-.001-.049L.071-.33.006-.344v-.047l.192-.047.031.017-.005.065-.001.072v.125q0 .047.005.094l.064.015L.289 0zm.14-.507a.1.1 0 0 1-.069-.026.09.09 0 0 1 0-.121q.024-.027.069-.027t.069.027a.1.1 0 0 1 .023.06.1.1 0 0 1-.023.061.1.1 0 0 1-.069.026" style="fill:#fff;fill-rule:nonzero" transform="rotate(.82 -26361.776 158935.392)scale(83.33333)"/><path d="M.016 0 .013-.048l.06-.017.002-.02.002-.037.001-.039.001-.073-.001-.048L.071-.33.009-.344v-.047L.19-.438l.03.017-.004.078.003.001a.2.2 0 0 1 .055-.075.1.1 0 0 1 .061-.02.1.1 0 0 1 .049.016q.021.017.021.051t-.023.053a.08.08 0 0 1-.053.02.1.1 0 0 1-.045-.009.1.1 0 0 1-.044-.033l.032.002a.1.1 0 0 0-.027.025l-.022.034.001.073.002.069.002.048.001.022.085.016L.311 0z" style="fill:#fff;fill-rule:nonzero" transform="scale(83.3333)rotate(1.376 -183.046 1149.89)"/><path d="M.371.013.34-.002l.001-.064-.003-.002a.15.15 0 0 1-.053.061.12.12 0 0 1-.062.017.2.2 0 0 1-.093-.026.2.2 0 0 1-.071-.074.2.2 0 0 1-.027-.112.23.23 0 0 1 .155-.22.25.25 0 0 1 .121-.014l.027.007V-.47L.334-.511.333-.548.331-.577.26-.586.258-.631l.199-.051.03.018-.006.11-.003.103-.001.228a1 1 0 0 0 .006.128l.066.013v.046zM.278-.094a.1.1 0 0 0 .03-.009.1.1 0 0 0 .029-.028v-.221A.1.1 0 0 0 .311-.37a.085.085 0 0 0-.1.031.16.16 0 0 0-.027.099q0 .072.028.109a.09.09 0 0 0 .066.037" style="fill:#fff;fill-rule:nonzero" transform="rotate(2.481 -7951.833 54409.493)scale(83.33332)"/><path d="M.256.008A.2.2 0 0 1 .14-.021a.2.2 0 0 1-.078-.08.2.2 0 0 1-.029-.109q0-.068.032-.119a.24.24 0 0 1 .084-.082A.2.2 0 0 1 .26-.44a.18.18 0 0 1 .137.053.2.2 0 0 1 .049.139v.025H.161v-.053H.34l-.018.027v-.038a.1.1 0 0 0-.018-.068.06.06 0 0 0-.052-.026.06.06 0 0 0-.04.013.1.1 0 0 0-.028.038.2.2 0 0 0-.01.066v.023q0 .065.036.105a.12.12 0 0 0 .097.041.2.2 0 0 0 .061-.012.2.2 0 0 0 .052-.04l.032.03a.2.2 0 0 1-.196.125m.028-.481L.22-.494l.096-.167.129.022z" style="fill:#fff;fill-rule:nonzero" transform="rotate(3.304 -5689.996 41704.142)scale(83.33328)"/><path d="M.012.215.009.167.07.15.071.12.073.069.074.006l.001-.06.002-.179-.001-.049Q.074-.303.069-.33L.007-.344v-.047l.184-.047.031.017-.008.063.003.001a.2.2 0 0 1 .058-.06A.13.13 0 0 1 .35-.44a.18.18 0 0 1 .152.092.23.23 0 0 1 .026.112v.003a.24.24 0 0 1-.277.237Q.236.002.219-.003v.058L.223.15l.08.016L.3.215zM.281-.07a.1.1 0 0 0 .048-.012.1.1 0 0 0 .033-.042.2.2 0 0 0 .012-.078.2.2 0 0 0-.014-.082.1.1 0 0 0-.034-.041.1.1 0 0 0-.043-.012.1.1 0 0 0-.035.008.1.1 0 0 0-.029.024v.218l.03.013q.015.004.032.004" style="fill:#fff;fill-rule:nonzero" transform="rotate(4.136 -4314.495 33891.54)scale(83.33329)"/><path d="M.012 0 .009-.05l.063-.015q.005-.052.005-.104l.001-.059v-.189l-.001-.06-.002-.054-.002-.044L0-.585l-.002-.046L.2-.682l.03.018-.003.078-.002.087v.119l-.001.138.004.177.063.015L.289 0z" style="fill:#fff;fill-rule:nonzero" transform="rotate(4.884 -3483.41 29277.78)scale(83.33332)"/><path d="M.184.008a.15.15 0 0 1-.131-.069.1.1 0 0 1 .004-.115.15.15 0 0 1 .068-.037L.28-.256v-.029a.06.06 0 0 0-.013-.038.1.1 0 0 0-.076-.042.03.03 0 0 0-.019.007q-.005.012-.007.025l-.006.066A.16.16 0 0 1 .073-.27Q.04-.285.04-.317q0-.02.021-.041A.4.4 0 0 1 .229-.44a.23.23 0 0 1 .144.04.12.12 0 0 1 .053.109l-.002.126.001.045.007.024.065.012v.045l-.07.03-.034.013-.031.004q-.04 0-.059-.041L.284-.08l.023.005a.3.3 0 0 1-.062.06.1.1 0 0 1-.061.023M.241-.09l.021-.004.019-.011v-.093l-.052.006a.06.06 0 0 0-.035.014.04.04 0 0 0-.01.03q0 .022.017.04a.06.06 0 0 0 .04.018" style="fill:#fff;fill-rule:nonzero" transform="rotate(5.618 -2874.78 25732.295)scale(83.33328)"/><path d="M.258.008A.23.23 0 0 1 .143-.02a.2.2 0 0 1-.081-.076.22.22 0 0 1 .002-.224.25.25 0 0 1 .219-.12q.042 0 .079.012a.13.13 0 0 1 .058.033.07.07 0 0 1 .022.049q0 .027-.017.04a.06.06 0 0 1-.039.013.1.1 0 0 1-.07-.029L.238-.389l.055.012a.07.07 0 0 0-.05.008.1.1 0 0 0-.041.046.2.2 0 0 0-.016.079q0 .073.036.11a.12.12 0 0 0 .088.037.1.1 0 0 0 .05-.011.2.2 0 0 0 .053-.042l.032.029a.2.2 0 0 1-.079.096.2.2 0 0 1-.108.033" style="fill:#fff;fill-rule:nonzero" transform="rotate(6.459 -2351.749 22770.155)scale(83.33329)"/><path d="M.256.008A.2.2 0 0 1 .14-.021a.2.2 0 0 1-.078-.08.2.2 0 0 1-.029-.109q0-.068.032-.119a.24.24 0 0 1 .084-.082A.2.2 0 0 1 .26-.44a.18.18 0 0 1 .137.053.2.2 0 0 1 .049.139v.025H.161v-.053H.34l-.018.027v-.038a.1.1 0 0 0-.018-.068.06.06 0 0 0-.052-.026.06.06 0 0 0-.04.013.1.1 0 0 0-.028.038.2.2 0 0 0-.01.066v.023q0 .065.036.105a.12.12 0 0 0 .097.041.2.2 0 0 0 .061-.012.2.2 0 0 0 .052-.04l.032.03a.2.2 0 0 1-.196.125m.028-.481L.22-.494l.096-.167.129.022z" style="fill:#fff;fill-rule:nonzero" transform="rotate(7.297 -1948.832 20471.495)scale(83.33331)"/><path d="M.255.008a.22.22 0 0 1-.194-.109.2.2 0 0 1-.028-.109q0-.068.032-.119a.24.24 0 0 1 .084-.082A.2.2 0 0 1 .26-.44q.088 0 .137.053a.2.2 0 0 1 .049.139v.025H.161v-.053H.34l-.018.027v-.038a.1.1 0 0 0-.018-.068.06.06 0 0 0-.052-.026.06.06 0 0 0-.04.013.1.1 0 0 0-.028.038.2.2 0 0 0-.01.066v.023q0 .065.036.105a.12.12 0 0 0 .097.041.2.2 0 0 0 .061-.012.2.2 0 0 0 .052-.041l.032.03a.2.2 0 0 1-.079.094.2.2 0 0 1-.118.032" style="fill:#fff;fill-rule:nonzero" transform="rotate(8.19 -1609.499 18532.488)scale(83.33328)"/><path d="M2738.72 298.115c5.801.978 10.092 6.05 10.096 11.933.033 37.118.141 164.302.168 196.608v.007c0 3.486-2.868 6.354-6.354 6.354a6.4 6.4 0 0 1-1.043-.086c-349.273-57.889-689.969-55.442-1023.12.055a6 6 0 0 1-.997.083c-3.313 0-6.04-2.727-6.04-6.04V310.375c0-6.081 4.42-11.261 10.425-12.218 338.128-53.626 677.03-57.119 1016.87-.042z" style="fill:none;stroke:#e0e0e0;stroke-width:2.92px"/><path d="M.039-.573h.259q.157 0 .245.073a.25.25 0 0 1 .088.206.28.28 0 0 1-.156.256A.35.35 0 0 1 .309 0h-.27L.036-.045.098-.06a.2.2 0 0 0 .005-.049l.001-.099v-.156L.103-.466.098-.514.036-.528zm.183.06L.22-.44v.286l.002.05.003.036.048.006.043.002q.09 0 .137-.05.046-.05.046-.154a.4.4 0 0 0-.016-.115.2.2 0 0 0-.11-.125.23.23 0 0 0-.117-.013z" style="fill:#e0e0e0;fill-rule:nonzero" transform="rotate(20.421 -4966.51 2586.92)scale(66.66666)"/><path d="M.184.008A.14.14 0 0 1 .06-.056a.1.1 0 0 1-.017-.05q0-.034.021-.058a.2.2 0 0 1 .069-.037l.152-.047v-.04a.06.06 0 0 0-.014-.04.1.1 0 0 0-.036-.03.1.1 0 0 0-.048-.012q-.019 0-.026.008t-.01.033l-.004.053a.13.13 0 0 1-.072-.003Q.046-.291.046-.319q0-.018.017-.036a.2.2 0 0 1 .045-.036.4.4 0 0 1 .056-.028.2.2 0 0 1 .054-.015q.08 0 .13.039c.032.025.05.064.049.105l-.002.144.001.041.005.026.064.012v.037l-.058.024-.03.01-.025.004q-.036 0-.049-.037L.288-.072l.019.004a.3.3 0 0 1-.062.056.1.1 0 0 1-.061.02M.226-.07a.1.1 0 0 0 .031-.007.1.1 0 0 0 .028-.022v-.097l-.081.017a.1.1 0 0 0-.034.017.055.055 0 0 0 .009.073.06.06 0 0 0 .047.019" style="fill:#e0e0e0;fill-rule:nonzero" transform="rotate(18.29 -5619.686 2922.208)scale(66.66669)"/><path d="M.021 0 .019-.042l.06-.016.002-.016.002-.033.001-.05.001-.074-.002-.057-.007-.048L.014-.35v-.04l.159-.042.023.017L.19-.36l.003.001A.2.2 0 0 1 .26-.415a.2.2 0 0 1 .076-.019q.04 0 .073.02a.14.14 0 0 1 .052.06q.022.045.019.095v.102l.001.062q0 .018.004.037l.061.016L.543 0h-.23L.311-.042l.056-.016L.37-.08l.002-.034v-.13A.13.13 0 0 0 .36-.306a.1.1 0 0 0-.032-.035.1.1 0 0 0-.043-.012.1.1 0 0 0-.051.013.1.1 0 0 0-.041.035v.145q0 .051.006.102l.061.016L.257 0z" style="fill:#e0e0e0;fill-rule:nonzero" transform="rotate(16.732 -6200.603 3215.668)scale(66.6667)"/><path d="M.189.008a.34.34 0 0 1-.143-.032L.041-.136h.058l.02.071a.14.14 0 0 0 .077.022.1.1 0 0 0 .049-.014.04.04 0 0 0 .018-.036.05.05 0 0 0-.018-.04.2.2 0 0 0-.071-.037.3.3 0 0 1-.1-.058.1.1 0 0 1-.028-.076q0-.038.023-.067a.16.16 0 0 1 .065-.046.31.31 0 0 1 .209.004l.011.109H.297L.274-.372.251-.381a.1.1 0 0 0-.078.01.05.05 0 0 0-.019.037q0 .024.022.041.037.025.079.041a.3.3 0 0 1 .091.057.1.1 0 0 1 .027.072.11.11 0 0 1-.051.095.23.23 0 0 1-.133.036" style="fill:#e0e0e0;fill-rule:nonzero" transform="rotate(15.363 -6812.235 3557.475)scale(66.66673)"/><path d="m.476-.082.063.015v.039l-.153.04-.023-.014.001-.065-.003-.001a.2.2 0 0 1-.06.06.16.16 0 0 1-.178-.026Q.079-.077.079-.163v-.083L.078-.289.074-.336.008-.35v-.04l.163-.042.023.017-.005.148-.001.091q0 .054.025.078a.1.1 0 0 0 .064.024.1.1 0 0 0 .084-.051v-.144a.4.4 0 0 0-.006-.067L.284-.35v-.04L.45-.432l.023.016-.002.043-.001.046v.13q0 .057.006.115" style="fill:#e0e0e0;fill-rule:nonzero" transform="rotate(13.71 -7709.504 4036.453)scale(66.66672)"/><path d="M.021 0 .019-.042l.06-.016.002-.016.002-.033.001-.05.001-.074-.002-.057-.007-.048L.014-.35v-.04l.159-.042.023.017L.19-.36l.003.001A.2.2 0 0 1 .26-.415a.2.2 0 0 1 .076-.019q.04 0 .073.02a.14.14 0 0 1 .052.06q.022.045.019.095v.102l.001.062q0 .018.004.037l.061.016L.543 0h-.23L.311-.042l.056-.016L.37-.08l.002-.034v-.13A.13.13 0 0 0 .36-.306a.1.1 0 0 0-.032-.035.1.1 0 0 0-.043-.012.1.1 0 0 0-.051.013.1.1 0 0 0-.041.035v.145q0 .051.006.102l.061.016L.257 0z" style="fill:#e0e0e0;fill-rule:nonzero" transform="rotate(12.437 -8565.907 4521.752)scale(66.66673)"/><path d="M.362.009a.4.4 0 0 1-.163-.033.27.27 0 0 1-.112-.098.3.3 0 0 1-.041-.157q0-.067.024-.123A.28.28 0 0 1 .244-.56a.45.45 0 0 1 .302.01l.007.145-.055.004-.032-.1a.22.22 0 0 0-.198.007.16.16 0 0 0-.062.078.3.3 0 0 0-.021.115.3.3 0 0 0 .026.134q.023.052.071.085.046.027.099.029a.2.2 0 0 0 .099-.03l.038-.089.058.006-.028.127a.4.4 0 0 1-.186.048" style="fill:#e0e0e0;fill-rule:nonzero" transform="rotate(10.824 -9941.21 5317.338)scale(66.66673)"/><path d="M.259.008A.24.24 0 0 1 .142-.02a.2.2 0 0 1-.079-.077.23.23 0 0 1-.028-.113q0-.069.032-.12a.2.2 0 0 1 .084-.077.24.24 0 0 1 .223.001.2.2 0 0 1 .075.076.2.2 0 0 1 .027.112q0 .064-.029.115a.22.22 0 0 1-.188.111m.01-.057a.07.07 0 0 0 .046-.017.1.1 0 0 0 .031-.049.3.3 0 0 0-.019-.212Q.298-.38.249-.38q-.042 0-.067.04a.2.2 0 0 0-.026.107q0 .052.015.094t.04.066a.08.08 0 0 0 .058.024" style="fill:#e0e0e0;fill-rule:nonzero" transform="rotate(9.803 -11049.838 6002.681)scale(66.66669)"/><path d="M.021 0 .019-.042l.06-.016.002-.016.002-.033.001-.05.001-.074-.002-.057-.007-.048L.014-.35v-.04l.159-.042.023.017L.19-.36l.003.001A.2.2 0 0 1 .26-.415a.2.2 0 0 1 .076-.019q.04 0 .073.02a.14.14 0 0 1 .052.06q.022.045.019.095v.102l.001.062q0 .018.004.037l.061.016L.543 0h-.23L.311-.042l.056-.016L.37-.08l.002-.034v-.13A.13.13 0 0 0 .36-.306a.1.1 0 0 0-.032-.035.1.1 0 0 0-.043-.012.1.1 0 0 0-.051.013.1.1 0 0 0-.041.035v.145q0 .051.006.102l.061.016L.257 0z" style="fill:#e0e0e0;fill-rule:nonzero" transform="rotate(8.848 -12315.943 6767.073)scale(66.66672)"/><path d="M.355-.075a.12.12 0 0 1-.052.061.15.15 0 0 1-.079.023.15.15 0 0 1-.107-.038Q.075-.069.075-.145l.003-.222H.01v-.029l.151-.125h.028l-.001.129-.002.235q0 .043.02.064.02.02.058.02a.1.1 0 0 0 .037-.008.1.1 0 0 0 .032-.021zM.137-.367v-.058h.191v.058z" style="fill:#e0e0e0;fill-rule:nonzero" transform="rotate(8.061 -13588.334 7598.667)scale(66.66667)"/><path d="M.248.008a.21.21 0 0 1-.185-.103.2.2 0 0 1-.027-.111q0-.069.03-.12a.24.24 0 0 1 .08-.08.2.2 0 0 1 .104-.028q.085.002.129.054.045.052.045.138v.021H.135V-.27h.204l-.014.021v-.029q0-.05-.022-.077a.07.07 0 0 0-.061-.029.1.1 0 0 0-.047.015.1.1 0 0 0-.034.044.2.2 0 0 0-.013.073v.018a.17.17 0 0 0 .038.115.13.13 0 0 0 .1.043.2.2 0 0 0 .06-.012.2.2 0 0 0 .053-.043l.029.026a.2.2 0 0 1-.075.084.2.2 0 0 1-.105.029" style="fill:#e0e0e0;fill-rule:nonzero" transform="rotate(7.426 -14806.345 8339.539)scale(66.66672)"/><path d="M.48 0H.264L.261-.042l.046-.016-.088-.115-.031-.038-.122-.157-.045-.016.002-.042h.213l.003.042-.041.016.071.092.03.04.138.178.046.016zM.341-.368.3-.384l.003-.042h.153l.003.042-.046.016-.114.132-.08.063-.083.115.046.016L.179 0H.02L.017-.042l.045-.016.126-.153.081-.065z" style="fill:#e0e0e0;fill-rule:nonzero" transform="rotate(6.703 -16478.002 9385.733)scale(66.66667)"/><path d="M.355-.075a.12.12 0 0 1-.052.061.15.15 0 0 1-.079.023.15.15 0 0 1-.107-.038Q.075-.069.075-.145l.003-.222H.01v-.029l.151-.125h.028l-.001.129-.002.235q0 .043.02.064.02.02.058.02a.1.1 0 0 0 .037-.008.1.1 0 0 0 .032-.021zM.137-.367v-.058h.191v.058z" style="fill:#e0e0e0;fill-rule:nonzero" transform="rotate(6.076 -18253.103 10554.703)scale(66.66671)"/><path d="M.248.008a.21.21 0 0 1-.185-.103.2.2 0 0 1-.027-.111q0-.069.03-.12a.24.24 0 0 1 .08-.08.2.2 0 0 1 .104-.028q.085.002.129.054.045.052.045.138v.021H.135V-.27h.204l-.014.021v-.029q0-.05-.022-.077a.07.07 0 0 0-.061-.029.1.1 0 0 0-.047.015.1.1 0 0 0-.034.044.2.2 0 0 0-.013.073v.018a.17.17 0 0 0 .038.115.13.13 0 0 0 .1.043.2.2 0 0 0 .06-.012.2.2 0 0 0 .053-.043l.029.026a.2.2 0 0 1-.075.084.2.2 0 0 1-.105.029" style="fill:#e0e0e0;fill-rule:nonzero" transform="rotate(5.494 -20256.212 11806.009)scale(66.66671)"/><path d="M.372.012.35-.002l.001-.062-.003-.001a.2.2 0 0 1-.057.057.14.14 0 0 1-.063.017.2.2 0 0 1-.097-.027.2.2 0 0 1-.096-.18c0-.065.026-.127.073-.172a.24.24 0 0 1 .158-.063q.021 0 .044.005a.1.1 0 0 1 .037.013L.346-.458l-.001-.05-.001-.046-.001-.03-.074-.012-.002-.039.171-.045.024.016-.005.114-.002.112-.001.225.003.082.005.049.063.015v.039zM.267-.075a.1.1 0 0 0 .041-.011.1.1 0 0 0 .04-.036v-.214a.1.1 0 0 0-.037-.033.1.1 0 0 0-.043-.01.1.1 0 0 0-.083.04.17.17 0 0 0-.032.11.17.17 0 0 0 .034.114q.032.04.08.04" style="fill:#e0e0e0;fill-rule:nonzero" transform="rotate(4.497 -24898.87 14752.467)scale(66.66668)"/><path d="M.131-.682q.031 0 .052.023a.1.1 0 0 1 .021.067l-.006.048-.014.063-.033.123h-.04L.096-.415.078-.481.064-.544.058-.592q0-.043.02-.067a.07.07 0 0 1 .053-.023" style="fill:#e0e0e0;fill-rule:nonzero" transform="rotate(3.95 -28447.997 17180.59)scale(66.66667)"/><path d="M.018 0 .015-.043.08-.058l.002-.016.002-.034.001-.049.001-.074-.002-.057-.007-.048L.012-.35v-.04l.167-.042.022.017a1 1 0 0 0-.006.132v.123q0 .051.006.102l.066.015L.264 0zm.124-.522a.07.07 0 0 1-.055-.021.071.071 0 0 1 0-.101.07.07 0 0 1 .055-.021.07.07 0 0 1 .053.021.075.075 0 0 1 0 .101.07.07 0 0 1-.053.021" style="fill:#e0e0e0;fill-rule:nonzero" transform="rotate(3.578 -31478.882 19143.774)scale(66.6667)"/><path d="M.022 0 .02-.042l.06-.016.002-.016.002-.034.001-.049.001-.074-.001-.038-.003-.035-.005-.032L.015-.35v-.04l.159-.042.023.017-.006.055.003.001a.2.2 0 0 1 .065-.057.14.14 0 0 1 .139.001.14.14 0 0 1 .053.058q.023.046.021.098l.002.102q0 .05.005.099l.055.016L.531 0H.312L.309-.042.36-.058.363-.08l.002-.034v-.04L.364-.251a.14.14 0 0 0-.011-.06.07.07 0 0 0-.03-.032.1.1 0 0 0-.041-.01.1.1 0 0 0-.048.013.1.1 0 0 0-.04.035v.145q0 .051.006.102l.056.016L.253 0zm.566 0L.585-.042l.053-.016.003-.022.001-.034.001-.04-.001-.091a.13.13 0 0 0-.013-.063.08.08 0 0 0-.073-.045.11.11 0 0 0-.093.05L.438-.342A.3.3 0 0 1 .512-.41a.16.16 0 0 1 .164-.002.14.14 0 0 1 .054.06q.02.043.019.091l.001.104.001.062q.001.018.005.037l.06.016L.813 0z" style="fill:#e0e0e0;fill-rule:nonzero" transform="rotate(2.82 -40118.985 24404.346)scale(66.66667)"/><path d="M.02.215.017.173l.06-.016L.08.1.081.045l.001-.069.002-.209-.002-.055-.007-.048L.013-.35v-.04l.159-.042.023.017-.007.057.003.001A.2.2 0 0 1 .25-.413a.14.14 0 0 1 .073-.021.17.17 0 0 1 .156.096.2.2 0 0 1 .025.109q0 .065-.029.118a.23.23 0 0 1-.082.086.24.24 0 0 1-.201.018v.066l.002.062.002.036.08.015-.003.043zm.251-.271A.1.1 0 0 0 .37-.121a.2.2 0 0 0 .015-.081.2.2 0 0 0-.014-.082.1.1 0 0 0-.04-.049.09.09 0 0 0-.101-.005.1.1 0 0 0-.038.032v.227a.15.15 0 0 0 .079.023" style="fill:#e0e0e0;fill-rule:nonzero" transform="rotate(1.914 -59429.97 37139.876)scale(66.6667)"/><path d="M.259.008A.24.24 0 0 1 .142-.02a.2.2 0 0 1-.079-.077.23.23 0 0 1-.028-.113q0-.069.032-.12a.2.2 0 0 1 .084-.077.24.24 0 0 1 .223.001.2.2 0 0 1 .075.076.2.2 0 0 1 .027.112q0 .064-.029.115a.22.22 0 0 1-.188.111m.01-.057a.07.07 0 0 0 .046-.017.1.1 0 0 0 .031-.049.3.3 0 0 0-.019-.212Q.298-.38.249-.38q-.042 0-.067.04a.2.2 0 0 0-.026.107q0 .052.015.094t.04.066a.08.08 0 0 0 .058.024" style="fill:#e0e0e0;fill-rule:nonzero" transform="rotate(1.2 -95199.568 60368.972)scale(66.66672)"/><path d="M.022 0 .02-.042l.06-.016.002-.016.002-.034.001-.049.001-.074-.002-.057-.007-.048L.015-.35v-.04l.157-.042.021.016-.004.078.003.001A.2.2 0 0 1 .25-.411a.1.1 0 0 1 .059-.02q.024 0 .043.014t.018.042a.05.05 0 0 1-.019.044.1.1 0 0 1-.047.016.098.098 0 0 1-.076-.035l.023.003a.2.2 0 0 0-.057.073l.001.081.002.06.002.048.002.027.085.014L.283 0z" style="fill:#e0e0e0;fill-rule:nonzero" transform="rotate(.607 -188803.646 121548.324)scale(66.66671)"/><path d="M.355-.075a.12.12 0 0 1-.052.061.15.15 0 0 1-.079.023.15.15 0 0 1-.107-.038Q.075-.069.075-.145l.003-.222H.01v-.029l.151-.125h.028l-.001.129-.002.235q0 .043.02.064.02.02.058.02a.1.1 0 0 0 .037-.008.1.1 0 0 0 .032-.021zM.137-.367v-.058h.191v.058z" style="fill:#e0e0e0;fill-rule:nonzero" transform="rotate(.115 -999573.268 650576.587)scale(66.6667)"/><path d="M.184.008A.14.14 0 0 1 .06-.056a.1.1 0 0 1-.017-.05q0-.034.021-.058a.2.2 0 0 1 .069-.037l.152-.047v-.04a.06.06 0 0 0-.014-.04.1.1 0 0 0-.036-.03.1.1 0 0 0-.048-.012q-.019 0-.026.008t-.01.033l-.004.053a.13.13 0 0 1-.072-.003Q.046-.291.046-.319q0-.018.017-.036a.2.2 0 0 1 .045-.036.4.4 0 0 1 .056-.028.2.2 0 0 1 .054-.015q.08 0 .13.039c.032.025.05.064.049.105l-.002.144.001.041.005.026.064.012v.037l-.058.024-.03.01-.025.004q-.036 0-.049-.037L.288-.072l.019.004a.3.3 0 0 1-.062.056.1.1 0 0 1-.061.02M.226-.07a.1.1 0 0 0 .031-.007.1.1 0 0 0 .028-.022v-.097l-.081.017a.1.1 0 0 0-.034.017.055.055 0 0 0 .009.073.06.06 0 0 0 .047.019" style="fill:#e0e0e0;fill-rule:nonzero" transform="rotate(-.437 263585.645 -172634.525)scale(66.66671)"/><path d="M.021 0 .019-.042l.06-.016.002-.016.002-.033.001-.05.001-.074-.002-.057-.007-.048L.014-.35v-.04l.159-.042.023.017L.19-.36l.003.001A.2.2 0 0 1 .26-.415a.2.2 0 0 1 .076-.019q.04 0 .073.02a.14.14 0 0 1 .052.06q.022.045.019.095v.102l.001.062q0 .018.004.037l.061.016L.543 0h-.23L.311-.042l.056-.016L.37-.08l.002-.034v-.13A.13.13 0 0 0 .36-.306a.1.1 0 0 0-.032-.035.1.1 0 0 0-.043-.012.1.1 0 0 0-.051.013.1.1 0 0 0-.041.035v.145q0 .051.006.102l.061.016L.257 0z" style="fill:#e0e0e0;fill-rule:nonzero" transform="rotate(-1.103 104954.55 -69515.6)scale(66.66672)"/><path d="M.355-.075a.12.12 0 0 1-.052.061.15.15 0 0 1-.079.023.15.15 0 0 1-.107-.038Q.075-.069.075-.145l.003-.222H.01v-.029l.151-.125h.028l-.001.129-.002.235q0 .043.02.064.02.02.058.02a.1.1 0 0 0 .037-.008.1.1 0 0 0 .032-.021zM.137-.367v-.058h.191v.058z" style="fill:#e0e0e0;fill-rule:nonzero" transform="rotate(-1.723 67427.741 -45383.38)scale(66.66671)"/><path d="M.248.008a.21.21 0 0 1-.185-.103.2.2 0 0 1-.027-.111q0-.069.03-.12a.24.24 0 0 1 .08-.08.2.2 0 0 1 .104-.028q.085.002.129.054.045.052.045.138v.021H.135V-.27h.204l-.014.021v-.029q0-.05-.022-.077a.07.07 0 0 0-.061-.029.1.1 0 0 0-.047.015.1.1 0 0 0-.034.044.2.2 0 0 0-.013.073v.018a.17.17 0 0 0 .038.115.13.13 0 0 0 .1.043.2.2 0 0 0 .06-.012.2.2 0 0 0 .053-.043l.029.026a.2.2 0 0 1-.075.084.2.2 0 0 1-.105.029" style="fill:#e0e0e0;fill-rule:nonzero" transform="rotate(-2.251 51767.41 -35080.557)scale(66.66668)"/><path d="M.043 0 .04-.045l.062-.016v-.022L.103-.12l.001-.045v-.273L.098-.514.036-.528l.003-.045h.24q.106 0 .158.035.051.036.051.11a.14.14 0 0 1-.028.086.2.2 0 0 1-.078.059.3.3 0 0 1-.114.021h-.06v-.051h.045Q.3-.312.336-.344a.1.1 0 0 0 .031-.081.1.1 0 0 0-.026-.073.1.1 0 0 0-.076-.024H.221l-.002.013v.363l.002.053.003.032.055.016L.276 0zm.494.011a.2.2 0 0 1-.162-.072.4.4 0 0 1-.063-.096l-.059-.12L.349-.3l.112.16.044.054a.2.2 0 0 0 .088.05L.592.006.564.01z" style="fill:#e0e0e0;fill-rule:nonzero" transform="rotate(-3.252 36039.124 -24730.794)scale(66.66671)"/><path d="M.248.008a.21.21 0 0 1-.185-.103.2.2 0 0 1-.027-.111q0-.069.03-.12a.24.24 0 0 1 .08-.08.2.2 0 0 1 .104-.028q.085.002.129.054.045.052.045.138v.021H.135V-.27h.204l-.014.021v-.029q0-.05-.022-.077a.07.07 0 0 0-.061-.029.1.1 0 0 0-.047.015.1.1 0 0 0-.034.044.2.2 0 0 0-.013.073v.018a.17.17 0 0 0 .038.115.13.13 0 0 0 .1.043.2.2 0 0 0 .06-.012.2.2 0 0 0 .053-.043l.029.026a.2.2 0 0 1-.075.084.2.2 0 0 1-.105.029m.02-.48L.217-.488l.096-.173.102.022z" style="fill:#e0e0e0;fill-rule:nonzero" transform="rotate(-3.941 29844.692 -20780.887)scale(66.66672)"/><path d="M.02.215.017.173l.06-.016L.08.1.081.045l.001-.069.002-.209-.002-.055-.007-.048L.013-.35v-.04l.159-.042.023.017-.007.057.003.001A.2.2 0 0 1 .25-.413a.14.14 0 0 1 .073-.021.17.17 0 0 1 .156.096.2.2 0 0 1 .025.109q0 .065-.029.118a.23.23 0 0 1-.082.086.24.24 0 0 1-.201.018v.066l.002.062.002.036.08.015-.003.043zm.251-.271A.1.1 0 0 0 .37-.121a.2.2 0 0 0 .015-.081.2.2 0 0 0-.014-.082.1.1 0 0 0-.04-.049.09.09 0 0 0-.101-.005.1.1 0 0 0-.038.032v.227a.15.15 0 0 0 .079.023" style="fill:#e0e0e0;fill-rule:nonzero" transform="rotate(-4.632 25495.193 -17906.858)scale(66.66667)"/><path d="M.248.008a.21.21 0 0 1-.185-.103.2.2 0 0 1-.027-.111q0-.069.03-.12a.24.24 0 0 1 .08-.08.2.2 0 0 1 .104-.028q.085.002.129.054.045.052.045.138v.021H.135V-.27h.204l-.014.021v-.029q0-.05-.022-.077a.07.07 0 0 0-.061-.029.1.1 0 0 0-.047.015.1.1 0 0 0-.034.044.2.2 0 0 0-.013.073v.018a.17.17 0 0 0 .038.115.13.13 0 0 0 .1.043.2.2 0 0 0 .06-.012.2.2 0 0 0 .053-.043l.029.026a.2.2 0 0 1-.075.084.2.2 0 0 1-.105.029m.02-.48L.217-.488l.096-.173.102.022z" style="fill:#e0e0e0;fill-rule:nonzero" transform="rotate(-5.391 21992.47 -15622.647)scale(66.6667)"/><path d="M.355-.075a.12.12 0 0 1-.052.061.15.15 0 0 1-.079.023.15.15 0 0 1-.107-.038Q.075-.069.075-.145l.003-.222H.01v-.029l.151-.125h.028l-.001.129-.002.235q0 .043.02.064.02.02.058.02a.1.1 0 0 0 .037-.008.1.1 0 0 0 .032-.021zM.137-.367v-.058h.191v.058z" style="fill:#e0e0e0;fill-rule:nonzero" transform="rotate(-6.008 19800.776 -14204.346)scale(66.66673)"/><path d="M.018 0 .015-.043.08-.058l.002-.016.002-.034.001-.049.001-.074-.002-.057-.007-.048L.012-.35v-.04l.167-.042.022.017a1 1 0 0 0-.006.132v.123q0 .051.006.102l.066.015L.264 0zm.124-.522a.07.07 0 0 1-.055-.021.071.071 0 0 1 0-.101.07.07 0 0 1 .055-.021.07.07 0 0 1 .053.021.075.075 0 0 1 0 .101.07.07 0 0 1-.053.021" style="fill:#e0e0e0;fill-rule:nonzero" transform="rotate(-6.483 18396.01 -13294.407)scale(66.6667)"/><path d="M.355-.075a.12.12 0 0 1-.052.061.15.15 0 0 1-.079.023.15.15 0 0 1-.107-.038Q.075-.069.075-.145l.003-.222H.01v-.029l.151-.125h.028l-.001.129-.002.235q0 .043.02.064.02.02.058.02a.1.1 0 0 0 .037-.008.1.1 0 0 0 .032-.021zM.137-.367v-.058h.191v.058z" style="fill:#e0e0e0;fill-rule:nonzero" transform="rotate(-6.995 17096.87 -12397.602)scale(66.66668)"/><path d="M.018 0 .015-.043.08-.058l.002-.016.002-.034.001-.049.001-.074-.002-.057-.007-.048L.012-.35v-.04l.167-.042.022.017a1 1 0 0 0-.006.132v.123q0 .051.006.102l.066.015L.264 0zm.124-.522a.07.07 0 0 1-.055-.021.071.071 0 0 1 0-.101.07.07 0 0 1 .055-.021.07.07 0 0 1 .053.021.075.075 0 0 1 0 .101.07.07 0 0 1-.053.021" style="fill:#e0e0e0;fill-rule:nonzero" transform="rotate(-7.493 16002.027 -11683.337)scale(66.66669)"/><path d="M.218.004.04-.368l-.046-.016.002-.042h.23l.003.042-.061.016.118.258H.258l.11-.258-.06-.016.003-.042h.171l.002.042-.046.016-.182.372z" style="fill:#e0e0e0;fill-rule:nonzero" transform="rotate(-8.129 14804.297 -10820.554)scale(66.66669)"/><path d="M.018 0 .015-.043.08-.058l.002-.016.002-.034.001-.049.001-.074-.002-.057-.007-.048L.012-.35v-.04l.167-.042.022.017a1 1 0 0 0-.006.132v.123q0 .051.006.102l.066.015L.264 0zm.124-.522a.07.07 0 0 1-.055-.021.071.071 0 0 1 0-.101.07.07 0 0 1 .055-.021.07.07 0 0 1 .053.021.075.075 0 0 1 0 .101.07.07 0 0 1-.053.021" style="fill:#e0e0e0;fill-rule:nonzero" transform="rotate(-8.787 13740.752 -10141.532)scale(66.66673)"/><path d="M.355-.075a.12.12 0 0 1-.052.061.15.15 0 0 1-.079.023.15.15 0 0 1-.107-.038Q.075-.069.075-.145l.003-.222H.01v-.029l.151-.125h.028l-.001.129-.002.235q0 .043.02.064.02.02.058.02a.1.1 0 0 0 .037-.008.1.1 0 0 0 .032-.021zM.137-.367v-.058h.191v.058z" style="fill:#e0e0e0;fill-rule:nonzero" transform="rotate(-9.364 12935.873 -9567.072)scale(66.6667)"/><path d="M.248.008a.21.21 0 0 1-.185-.103.2.2 0 0 1-.027-.111q0-.069.03-.12a.24.24 0 0 1 .08-.08.2.2 0 0 1 .104-.028q.085.002.129.054.045.052.045.138v.021H.135V-.27h.204l-.014.021v-.029q0-.05-.022-.077a.07.07 0 0 0-.061-.029.1.1 0 0 0-.047.015.1.1 0 0 0-.034.044.2.2 0 0 0-.013.073v.018a.17.17 0 0 0 .038.115.13.13 0 0 0 .1.043.2.2 0 0 0 .06-.012.2.2 0 0 0 .053-.043l.029.026a.2.2 0 0 1-.075.084.2.2 0 0 1-.105.029m.02-.48L.217-.488l.096-.173.102.022z" style="fill:#e0e0e0;fill-rule:nonzero" transform="rotate(-10.085 12059.477 -8937.807)scale(66.66672)"/><path d="M.048-.573h.193l.204.444H.421L.61-.573h.189l.003.045-.062.013v.042l.002.084.006.174.009.155.061.015L.815 0H.569L.566-.045.628-.06l.001-.022L.63-.13.629-.209.626-.545h.038L.431.003H.379L.125-.545h.048l.001.334.003.151.067.015L.241 0H.034L.031-.045.099-.06l.002-.026.002-.05.001-.063.002-.188.001-.084-.001-.043-.061-.014z" style="fill:#e0e0e0;fill-rule:nonzero" transform="rotate(-11.745 10454.538 -7737.203)scale(66.6667)"/><path d="m.476-.082.063.015v.039l-.153.04-.023-.014.001-.065-.003-.001a.2.2 0 0 1-.06.06.16.16 0 0 1-.178-.026Q.079-.077.079-.163v-.083L.078-.289.074-.336.008-.35v-.04l.163-.042.023.017-.005.148-.001.091q0 .054.025.078a.1.1 0 0 0 .064.024.1.1 0 0 0 .084-.051v-.144a.4.4 0 0 0-.006-.067L.284-.35v-.04L.45-.432l.023.016-.002.043-.001.046v.13q0 .057.006.115" style="fill:#e0e0e0;fill-rule:nonzero" transform="rotate(-13.269 9326.205 -6973.47)scale(66.6667)"/><path d="M.189.008a.34.34 0 0 1-.143-.032L.041-.136h.058l.02.071a.14.14 0 0 0 .077.022.1.1 0 0 0 .049-.014.04.04 0 0 0 .018-.036.05.05 0 0 0-.018-.04.2.2 0 0 0-.071-.037.3.3 0 0 1-.1-.058.1.1 0 0 1-.028-.076q0-.038.023-.067a.16.16 0 0 1 .065-.046.31.31 0 0 1 .209.004l.011.109H.297L.274-.372.251-.381a.1.1 0 0 0-.078.01.05.05 0 0 0-.019.037q0 .024.022.041.037.025.079.041a.3.3 0 0 1 .091.057.1.1 0 0 1 .027.072.11.11 0 0 1-.051.095.23.23 0 0 1-.133.036" style="fill:#e0e0e0;fill-rule:nonzero" transform="rotate(-14.415 8635.808 -6481.473)scale(66.66673)"/><path d="M.018 0 .015-.043.08-.058l.002-.016.002-.034.001-.049.001-.074-.002-.057-.007-.048L.012-.35v-.04l.167-.042.022.017a1 1 0 0 0-.006.132v.123q0 .051.006.102l.066.015L.264 0zm.124-.522a.07.07 0 0 1-.055-.021.071.071 0 0 1 0-.101.07.07 0 0 1 .055-.021.07.07 0 0 1 .053.021.075.075 0 0 1 0 .101.07.07 0 0 1-.053.021" style="fill:#e0e0e0;fill-rule:nonzero" transform="rotate(-15.24 8202.935 -6173.068)scale(66.66668)"/><path d="M.249.008a.2.2 0 0 1-.108-.027.2.2 0 0 1-.077-.074.23.23 0 0 1 .085-.309.23.23 0 0 1 .122-.032q.042 0 .075.012.03.008.051.03a.06.06 0 0 1 .019.043q0 .022-.013.034a.05.05 0 0 1-.034.011.1.1 0 0 1-.031-.007.2.2 0 0 1-.03-.022L.243-.392l.045.011a.1.1 0 0 0-.063.008.12.12 0 0 0-.05.051.2.2 0 0 0-.02.09q0 .076.038.115a.13.13 0 0 0 .093.04q.031 0 .058-.013a.2.2 0 0 0 .052-.043l.03.027a.2.2 0 0 1-.074.085.2.2 0 0 1-.103.029" style="fill:#e0e0e0;fill-rule:nonzero" transform="rotate(-16.217 7753.064 -5803.187)scale(66.66669)"/><path d="M.184.008A.14.14 0 0 1 .06-.056a.1.1 0 0 1-.017-.05q0-.034.021-.058a.2.2 0 0 1 .069-.037l.152-.047v-.04a.06.06 0 0 0-.014-.04.1.1 0 0 0-.036-.03.1.1 0 0 0-.048-.012q-.019 0-.026.008t-.01.033l-.004.053a.13.13 0 0 1-.072-.003Q.046-.291.046-.319q0-.018.017-.036a.2.2 0 0 1 .045-.036.4.4 0 0 1 .056-.028.2.2 0 0 1 .054-.015q.08 0 .13.039c.032.025.05.064.049.105l-.002.144.001.041.005.026.064.012v.037l-.058.024-.03.01-.025.004q-.036 0-.049-.037L.288-.072l.019.004a.3.3 0 0 1-.062.056.1.1 0 0 1-.061.02M.226-.07a.1.1 0 0 0 .031-.007.1.1 0 0 0 .028-.022v-.097l-.081.017a.1.1 0 0 0-.034.017.055.055 0 0 0 .009.073.06.06 0 0 0 .047.019" style="fill:#e0e0e0;fill-rule:nonzero" transform="rotate(-17.517 7229.873 -5388.671)scale(66.66672)"/><path d="M.019 0 .016-.043l.063-.015.003-.034.002-.062.001-.076v-.124L.083-.491.082-.548.08-.587l-.072-.01-.002-.038.171-.045.024.016-.002.081-.002.088-.001.119-.001.148q0 .085.005.17l.064.015L.262 0z" style="fill:#e0e0e0;fill-rule:nonzero" transform="rotate(-18.593 6847.93 -5112.005)scale(66.66669)"/><path d="M.248.008a.21.21 0 0 1-.185-.103.2.2 0 0 1-.027-.111q0-.069.03-.12a.24.24 0 0 1 .08-.08.2.2 0 0 1 .104-.028q.085.002.129.054.045.052.045.138v.021H.135V-.27h.204l-.014.021v-.029q0-.05-.022-.077a.07.07 0 0 0-.061-.029.1.1 0 0 0-.047.015.1.1 0 0 0-.034.044.2.2 0 0 0-.013.073v.018a.17.17 0 0 0 .038.115.13.13 0 0 0 .1.043.2.2 0 0 0 .06-.012.2.2 0 0 0 .053-.043l.029.026a.2.2 0 0 1-.075.084.2.2 0 0 1-.105.029" style="fill:#e0e0e0;fill-rule:nonzero" transform="rotate(-19.817 6471.74 -4784.071)scale(66.66673)"/><path d="M.131.01a.08.08 0 0 1-.057-.023.07.07 0 0 1-.024-.056q0-.023.011-.041A.1.1 0 0 1 .09-.139a.1.1 0 0 1 .041-.01q.034 0 .058.023a.07.07 0 0 1 .024.056.08.08 0 0 1-.024.057.08.08 0 0 1-.058.023" style="fill:#e0e0e0;fill-rule:nonzero" transform="rotate(-21.031 6136.07 -4527.136)scale(66.6667)"/><path d="M.039-.573h.259q.157 0 .245.073a.25.25 0 0 1 .088.206.28.28 0 0 1-.156.256A.35.35 0 0 1 .309 0h-.27L.036-.045.098-.06a.2.2 0 0 0 .005-.049l.001-.099v-.156L.103-.466.098-.514.036-.528zm.183.06L.22-.44v.286l.002.05.003.036.048.006.043.002q.09 0 .137-.05.046-.05.046-.154a.4.4 0 0 0-.016-.115.2.2 0 0 0-.11-.125.23.23 0 0 0-.117-.013z" style="fill:#e0e0e0;fill-rule:nonzero" transform="rotate(19.747 -4166.162 8351.843)scale(66.66668)"/><path d="M.184.008A.14.14 0 0 1 .06-.056a.1.1 0 0 1-.017-.05q0-.034.021-.058a.2.2 0 0 1 .069-.037l.152-.047v-.04a.06.06 0 0 0-.014-.04.1.1 0 0 0-.036-.03.1.1 0 0 0-.048-.012q-.019 0-.026.008t-.01.033l-.004.053a.13.13 0 0 1-.072-.003Q.046-.291.046-.319q0-.018.017-.036a.2.2 0 0 1 .045-.036.4.4 0 0 1 .056-.028.2.2 0 0 1 .054-.015q.08 0 .13.039c.032.025.05.064.049.105l-.002.144.001.041.005.026.064.012v.037l-.058.024-.03.01-.025.004q-.036 0-.049-.037L.288-.072l.019.004a.3.3 0 0 1-.062.056.1.1 0 0 1-.061.02M.226-.07a.1.1 0 0 0 .031-.007.1.1 0 0 0 .028-.022v-.097l-.081.017a.1.1 0 0 0-.034.017.055.055 0 0 0 .009.073.06.06 0 0 0 .047.019" style="fill:#e0e0e0;fill-rule:nonzero" transform="rotate(17.677 -4844.666 9380.4)scale(66.66666)"/><path d="M.021 0 .019-.042l.06-.016.002-.016.002-.033.001-.05.001-.074-.002-.057-.007-.048L.014-.35v-.04l.159-.042.023.017L.19-.36l.003.001A.2.2 0 0 1 .26-.415a.2.2 0 0 1 .076-.019q.04 0 .073.02a.14.14 0 0 1 .052.06q.022.045.019.095v.102l.001.062q0 .018.004.037l.061.016L.543 0h-.23L.311-.042l.056-.016L.37-.08l.002-.034v-.13A.13.13 0 0 0 .36-.306a.1.1 0 0 0-.032-.035.1.1 0 0 0-.043-.012.1.1 0 0 0-.051.013.1.1 0 0 0-.041.035v.145q0 .051.006.102l.061.016L.257 0z" style="fill:#e0e0e0;fill-rule:nonzero" transform="rotate(16.161 -5449.736 10293.872)scale(66.6667)"/><path d="M.189.008a.34.34 0 0 1-.143-.032L.041-.136h.058l.02.071a.14.14 0 0 0 .077.022.1.1 0 0 0 .049-.014.04.04 0 0 0 .018-.036.05.05 0 0 0-.018-.04.2.2 0 0 0-.071-.037.3.3 0 0 1-.1-.058.1.1 0 0 1-.028-.076q0-.038.023-.067a.16.16 0 0 1 .065-.046.31.31 0 0 1 .209.004l.011.109H.297L.274-.372.251-.381a.1.1 0 0 0-.078.01.05.05 0 0 0-.019.037q0 .024.022.041.037.025.079.041a.3.3 0 0 1 .091.057.1.1 0 0 1 .027.072.11.11 0 0 1-.051.095.23.23 0 0 1-.133.036" style="fill:#e0e0e0;fill-rule:nonzero" transform="rotate(14.83 -6087.07 11285.139)scale(66.6667)"/><path d="m.476-.082.063.015v.039l-.153.04-.023-.014.001-.065-.003-.001a.2.2 0 0 1-.06.06.16.16 0 0 1-.178-.026Q.079-.077.079-.163v-.083L.078-.289.074-.336.008-.35v-.04l.163-.042.023.017-.005.148-.001.091q0 .054.025.078a.1.1 0 0 0 .064.024.1.1 0 0 0 .084-.051v-.144a.4.4 0 0 0-.006-.067L.284-.35v-.04L.45-.432l.023.016-.002.043-.001.046v.13q0 .057.006.115" style="fill:#e0e0e0;fill-rule:nonzero" transform="rotate(13.229 -7019.806 12716.143)scale(66.66672)"/><path d="M.021 0 .019-.042l.06-.016.002-.016.002-.033.001-.05.001-.074-.002-.057-.007-.048L.014-.35v-.04l.159-.042.023.017L.19-.36l.003.001A.2.2 0 0 1 .26-.415a.2.2 0 0 1 .076-.019q.04 0 .073.02a.14.14 0 0 1 .052.06q.022.045.019.095v.102l.001.062q0 .018.004.037l.061.016L.543 0h-.23L.311-.042l.056-.016L.37-.08l.002-.034v-.13A.13.13 0 0 0 .36-.306a.1.1 0 0 0-.032-.035.1.1 0 0 0-.043-.012.1.1 0 0 0-.051.013.1.1 0 0 0-.041.035v.145q0 .051.006.102l.061.016L.257 0z" style="fill:#e0e0e0;fill-rule:nonzero" transform="rotate(11.994 -7912.807 14111.613)scale(66.66673)"/><path d="M.362.009a.4.4 0 0 1-.163-.033.27.27 0 0 1-.112-.098.3.3 0 0 1-.041-.157q0-.067.024-.123A.28.28 0 0 1 .244-.56a.45.45 0 0 1 .302.01l.007.145-.055.004-.032-.1a.22.22 0 0 0-.198.007.16.16 0 0 0-.062.078.3.3 0 0 0-.021.115.3.3 0 0 0 .026.134q.023.052.071.085.046.027.099.029a.2.2 0 0 0 .099-.03l.038-.089.058.006-.028.127a.4.4 0 0 1-.186.048" style="fill:#e0e0e0;fill-rule:nonzero" transform="rotate(10.433 -9344.141 16363.412)scale(66.66672)"/><path d="M.259.008A.24.24 0 0 1 .142-.02a.2.2 0 0 1-.079-.077.23.23 0 0 1-.028-.113q0-.069.032-.12a.2.2 0 0 1 .084-.077.24.24 0 0 1 .223.001.2.2 0 0 1 .075.076.2.2 0 0 1 .027.112q0 .064-.029.115a.22.22 0 0 1-.188.111m.01-.057a.07.07 0 0 0 .046-.017.1.1 0 0 0 .031-.049.3.3 0 0 0-.019-.212Q.298-.38.249-.38q-.042 0-.067.04a.2.2 0 0 0-.026.107q0 .052.015.094t.04.066a.08.08 0 0 0 .058.024" style="fill:#e0e0e0;fill-rule:nonzero" transform="rotate(9.445 -10498.403 18220.873)scale(66.66669)"/><path d="M.021 0 .019-.042l.06-.016.002-.016.002-.033.001-.05.001-.074-.002-.057-.007-.048L.014-.35v-.04l.159-.042.023.017L.19-.36l.003.001A.2.2 0 0 1 .26-.415a.2.2 0 0 1 .076-.019q.04 0 .073.02a.14.14 0 0 1 .052.06q.022.045.019.095v.102l.001.062q0 .018.004.037l.061.016L.543 0h-.23L.311-.042l.056-.016L.37-.08l.002-.034v-.13A.13.13 0 0 0 .36-.306a.1.1 0 0 0-.032-.035.1.1 0 0 0-.043-.012.1.1 0 0 0-.051.013.1.1 0 0 0-.041.035v.145q0 .051.006.102l.061.016L.257 0z" style="fill:#e0e0e0;fill-rule:nonzero" transform="rotate(8.521 -11817.607 20326.477)scale(66.6667)"/><path d="M.355-.075a.12.12 0 0 1-.052.061.15.15 0 0 1-.079.023.15.15 0 0 1-.107-.038Q.075-.069.075-.145l.003-.222H.01v-.029l.151-.125h.028l-.001.129-.002.235q0 .043.02.064.02.02.058.02a.1.1 0 0 0 .037-.008.1.1 0 0 0 .032-.021zM.137-.367v-.058h.191v.058z" style="fill:#e0e0e0;fill-rule:nonzero" transform="rotate(7.76 -13144.412 22505.354)scale(66.66673)"/><path d="M.248.008a.21.21 0 0 1-.185-.103.2.2 0 0 1-.027-.111q0-.069.03-.12a.24.24 0 0 1 .08-.08.2.2 0 0 1 .104-.028q.085.002.129.054.045.052.045.138v.021H.135V-.27h.204l-.014.021v-.029q0-.05-.022-.077a.07.07 0 0 0-.061-.029.1.1 0 0 0-.047.015.1.1 0 0 0-.034.044.2.2 0 0 0-.013.073v.018a.17.17 0 0 0 .038.115.13.13 0 0 0 .1.043.2.2 0 0 0 .06-.012.2.2 0 0 0 .053-.043l.029.026a.2.2 0 0 1-.075.084.2.2 0 0 1-.105.029" style="fill:#e0e0e0;fill-rule:nonzero" transform="rotate(7.146 -14415.541 24539.612)scale(66.6667)"/><path d="M.48 0H.264L.261-.042l.046-.016-.088-.115-.031-.038-.122-.157-.045-.016.002-.042h.213l.003.042-.041.016.071.092.03.04.138.178.046.016zM.341-.368.3-.384l.003-.042h.153l.003.042-.046.016-.114.132-.08.063-.083.115.046.016L.179 0H.02L.017-.042l.045-.016.126-.153.081-.065z" style="fill:#e0e0e0;fill-rule:nonzero" transform="rotate(6.449 -16154.958 27351.257)scale(66.6667)"/><path d="M.355-.075a.12.12 0 0 1-.052.061.15.15 0 0 1-.079.023.15.15 0 0 1-.107-.038Q.075-.069.075-.145l.003-.222H.01v-.029l.151-.125h.028l-.001.129-.002.235q0 .043.02.064.02.02.058.02a.1.1 0 0 0 .037-.008.1.1 0 0 0 .032-.021zM.137-.367v-.058h.191v.058z" style="fill:#e0e0e0;fill-rule:nonzero" transform="rotate(5.84 -18017.675 30419.95)scale(66.6667)"/><path d="M.248.008a.21.21 0 0 1-.185-.103.2.2 0 0 1-.027-.111q0-.069.03-.12a.24.24 0 0 1 .08-.08.2.2 0 0 1 .104-.028q.085.002.129.054.045.052.045.138v.021H.135V-.27h.204l-.014.021v-.029q0-.05-.022-.077a.07.07 0 0 0-.061-.029.1.1 0 0 0-.047.015.1.1 0 0 0-.034.044.2.2 0 0 0-.013.073v.018a.17.17 0 0 0 .038.115.13.13 0 0 0 .1.043.2.2 0 0 0 .06-.012.2.2 0 0 0 .053-.043l.029.026a.2.2 0 0 1-.075.084.2.2 0 0 1-.105.029" style="fill:#e0e0e0;fill-rule:nonzero" transform="rotate(5.28 -20105.36 33792.129)scale(66.66671)"/><path d="M.372.012.35-.002l.001-.062-.003-.001a.2.2 0 0 1-.057.057.14.14 0 0 1-.063.017.2.2 0 0 1-.097-.027.2.2 0 0 1-.096-.18c0-.065.026-.127.073-.172a.24.24 0 0 1 .158-.063q.021 0 .044.005a.1.1 0 0 1 .037.013L.346-.458l-.001-.05-.001-.046-.001-.03-.074-.012-.002-.039.171-.045.024.016-.005.114-.002.112-.001.225.003.082.005.049.063.015v.039zM.267-.075a.1.1 0 0 0 .041-.011.1.1 0 0 0 .04-.036v-.214a.1.1 0 0 0-.037-.033.1.1 0 0 0-.043-.01.1.1 0 0 0-.083.04.17.17 0 0 0-.032.11.17.17 0 0 0 .034.114q.032.04.08.04" style="fill:#e0e0e0;fill-rule:nonzero" transform="rotate(4.313 -24986.286 41722.703)scale(66.66672)"/><path d="M.131-.682q.031 0 .052.023a.1.1 0 0 1 .021.067l-.006.048-.014.063-.033.123h-.04L.096-.415.078-.481.064-.544.058-.592q0-.043.02-.067a.07.07 0 0 1 .053-.023" style="fill:#e0e0e0;fill-rule:nonzero" transform="rotate(3.786 -28702.018 47936.691)scale(66.6667)"/><path d="M.018 0 .015-.043.08-.058l.002-.016.002-.034.001-.049.001-.074-.002-.057-.007-.048L.012-.35v-.04l.167-.042.022.017a1 1 0 0 0-.006.132v.123q0 .051.006.102l.066.015L.264 0zm.124-.522a.07.07 0 0 1-.055-.021.071.071 0 0 1 0-.101.07.07 0 0 1 .055-.021.07.07 0 0 1 .053.021.075.075 0 0 1 0 .101.07.07 0 0 1-.053.021" style="fill:#e0e0e0;fill-rule:nonzero" transform="rotate(3.424 -31916.024 53199.187)scale(66.66672)"/><path d="M.022 0 .02-.042l.06-.016.002-.016.002-.034.001-.049.001-.074-.001-.038-.003-.035-.005-.032L.015-.35v-.04l.159-.042.023.017-.006.055.003.001a.2.2 0 0 1 .065-.057.14.14 0 0 1 .139.001.14.14 0 0 1 .053.058q.023.046.021.098l.002.102q0 .05.005.099l.055.016L.531 0H.312L.309-.042.36-.058.363-.08l.002-.034v-.04L.364-.251a.14.14 0 0 0-.011-.06.07.07 0 0 0-.03-.032.1.1 0 0 0-.041-.01.1.1 0 0 0-.048.013.1.1 0 0 0-.04.035v.145q0 .051.006.102l.056.016L.253 0zm.566 0L.585-.042l.053-.016.003-.022.001-.034.001-.04-.001-.091a.13.13 0 0 0-.013-.063.08.08 0 0 0-.073-.045.11.11 0 0 0-.093.05L.438-.342A.3.3 0 0 1 .512-.41a.16.16 0 0 1 .164-.002.14.14 0 0 1 .054.06q.02.043.019.091l.001.104.001.062q.001.018.005.037l.06.016L.813 0z" style="fill:#e0e0e0;fill-rule:nonzero" transform="rotate(2.691 -41062.93 67832.134)scale(66.66667)"/><path d="M.02.215.017.173l.06-.016L.08.1.081.045l.001-.069.002-.209-.002-.055-.007-.048L.013-.35v-.04l.159-.042.023.017-.007.057.003.001A.2.2 0 0 1 .25-.413a.14.14 0 0 1 .073-.021.17.17 0 0 1 .156.096.2.2 0 0 1 .025.109q0 .065-.029.118a.23.23 0 0 1-.082.086.24.24 0 0 1-.201.018v.066l.002.062.002.036.08.015-.003.043zm.251-.271A.1.1 0 0 0 .37-.121a.2.2 0 0 0 .015-.081.2.2 0 0 0-.014-.082.1.1 0 0 0-.04-.049.09.09 0 0 0-.101-.005.1.1 0 0 0-.038.032v.227a.15.15 0 0 0 .079.023" style="fill:#e0e0e0;fill-rule:nonzero" transform="rotate(1.817 -61623.212 101726.593)scale(66.66668)"/><path d="M.259.008A.24.24 0 0 1 .142-.02a.2.2 0 0 1-.079-.077.23.23 0 0 1-.028-.113q0-.069.032-.12a.2.2 0 0 1 .084-.077.24.24 0 0 1 .223.001.2.2 0 0 1 .075.076.2.2 0 0 1 .027.112q0 .064-.029.115a.22.22 0 0 1-.188.111m.01-.057a.07.07 0 0 0 .046-.017.1.1 0 0 0 .031-.049.3.3 0 0 0-.019-.212Q.298-.38.249-.38q-.042 0-.067.04a.2.2 0 0 0-.026.107q0 .052.015.094t.04.066a.08.08 0 0 0 .058.024" style="fill:#e0e0e0;fill-rule:nonzero" transform="rotate(1.126 -100454.984 165365.35)scale(66.66671)"/><path d="M.022 0 .02-.042l.06-.016.002-.016.002-.034.001-.049.001-.074-.002-.057-.007-.048L.015-.35v-.04l.157-.042.021.016-.004.078.003.001A.2.2 0 0 1 .25-.411a.1.1 0 0 1 .059-.02q.024 0 .043.014t.018.042a.05.05 0 0 1-.019.044.1.1 0 0 1-.047.016.098.098 0 0 1-.076-.035l.023.003a.2.2 0 0 0-.057.073l.001.081.002.06.002.048.002.027.085.014L.283 0z" style="fill:#e0e0e0;fill-rule:nonzero" transform="rotate(.552 -206588.37 339447.455)scale(66.66673)"/><path d="M.355-.075a.12.12 0 0 1-.052.061.15.15 0 0 1-.079.023.15.15 0 0 1-.107-.038Q.075-.069.075-.145l.003-.222H.01v-.029l.151-.125h.028l-.001.129-.002.235q0 .043.02.064.02.02.058.02a.1.1 0 0 0 .037-.008.1.1 0 0 0 .032-.021zM.137-.367v-.058h.191v.058z" style="fill:#e0e0e0;fill-rule:nonzero" transform="rotate(.073 -1572503.623 2580831.443)scale(66.66669)"/><path d="M.184.008A.14.14 0 0 1 .06-.056a.1.1 0 0 1-.017-.05q0-.034.021-.058a.2.2 0 0 1 .069-.037l.152-.047v-.04a.06.06 0 0 0-.014-.04.1.1 0 0 0-.036-.03.1.1 0 0 0-.048-.012q-.019 0-.026.008t-.01.033l-.004.053a.13.13 0 0 1-.072-.003Q.046-.291.046-.319q0-.018.017-.036a.2.2 0 0 1 .045-.036.4.4 0 0 1 .056-.028.2.2 0 0 1 .054-.015q.08 0 .13.039c.032.025.05.064.049.105l-.002.144.001.041.005.026.064.012v.037l-.058.024-.03.01-.025.004q-.036 0-.049-.037L.288-.072l.019.004a.3.3 0 0 1-.062.056.1.1 0 0 1-.061.02M.226-.07a.1.1 0 0 0 .031-.007.1.1 0 0 0 .028-.022v-.097l-.081.017a.1.1 0 0 0-.034.017.055.055 0 0 0 .009.073.06.06 0 0 0 .047.019" style="fill:#e0e0e0;fill-rule:nonzero" transform="rotate(-.458 252420.345 -412943.342)scale(66.6667)"/><path d="M.021 0 .019-.042l.06-.016.002-.016.002-.033.001-.05.001-.074-.002-.057-.007-.048L.014-.35v-.04l.159-.042.023.017L.19-.36l.003.001A.2.2 0 0 1 .26-.415a.2.2 0 0 1 .076-.019q.04 0 .073.02a.14.14 0 0 1 .052.06q.022.045.019.095v.102l.001.062q0 .018.004.037l.061.016L.543 0h-.23L.311-.042l.056-.016L.37-.08l.002-.034v-.13A.13.13 0 0 0 .36-.306a.1.1 0 0 0-.032-.035.1.1 0 0 0-.043-.012.1.1 0 0 0-.051.013.1.1 0 0 0-.041.035v.145q0 .051.006.102l.061.016L.257 0z" style="fill:#e0e0e0;fill-rule:nonzero" transform="rotate(-1.105 105723.036 -172424.62)scale(66.6667)"/><path d="M.355-.075a.12.12 0 0 1-.052.061.15.15 0 0 1-.079.023.15.15 0 0 1-.107-.038Q.075-.069.075-.145l.003-.222H.01v-.029l.151-.125h.028l-.001.129-.002.235q0 .043.02.064.02.02.058.02a.1.1 0 0 0 .037-.008.1.1 0 0 0 .032-.021zM.137-.367v-.058h.191v.058z" style="fill:#e0e0e0;fill-rule:nonzero" transform="rotate(-1.705 69089.788 -112632.848)scale(66.66669)"/><path d="M.248.008a.21.21 0 0 1-.185-.103.2.2 0 0 1-.027-.111q0-.069.03-.12a.24.24 0 0 1 .08-.08.2.2 0 0 1 .104-.028q.085.002.129.054.045.052.045.138v.021H.135V-.27h.204l-.014.021v-.029q0-.05-.022-.077a.07.07 0 0 0-.061-.029.1.1 0 0 0-.047.015.1.1 0 0 0-.034.044.2.2 0 0 0-.013.073v.018a.17.17 0 0 0 .038.115.13.13 0 0 0 .1.043.2.2 0 0 0 .06-.012.2.2 0 0 0 .053-.043l.029.026a.2.2 0 0 1-.075.084.2.2 0 0 1-.105.029" style="fill:#e0e0e0;fill-rule:nonzero" transform="rotate(-2.214 53587.627 -87091.036)scale(66.66668)"/><path d="M.039 0 .036-.045.098-.06l.003-.024.002-.052.001-.072v-.156L.103-.438.101-.491.098-.514.036-.528l.003-.045h.244l.003.045-.061.014Q.222-.502.221-.49l-.002.051v.304l.002.051q0 .012.004.024l.061.015L.283 0z" style="fill:#e0e0e0;fill-rule:nonzero" transform="rotate(-2.977 40276.995 -65341.13)scale(66.66667)"/><path d="M.022 0 .02-.042l.06-.016.002-.016.002-.034.001-.049.001-.074-.002-.057-.007-.048L.015-.35v-.04l.157-.042.021.016-.004.078.003.001A.2.2 0 0 1 .25-.411a.1.1 0 0 1 .059-.02q.024 0 .043.014t.018.042a.05.05 0 0 1-.019.044.1.1 0 0 1-.047.016.098.098 0 0 1-.076-.035l.023.003a.2.2 0 0 0-.057.073l.001.081.002.06.002.048.002.027.085.014L.283 0z" style="fill:#e0e0e0;fill-rule:nonzero" transform="rotate(-3.456 34924.456 -56501.063)scale(66.66667)"/><path d="M.022 0 .02-.042l.06-.016.002-.016.002-.034.001-.049.001-.074-.002-.057-.007-.048L.015-.35v-.04l.157-.042.021.016-.004.078.003.001A.2.2 0 0 1 .25-.411a.1.1 0 0 1 .059-.02q.024 0 .043.014t.018.042a.05.05 0 0 1-.019.044.1.1 0 0 1-.047.016.098.098 0 0 1-.076-.035l.023.003a.2.2 0 0 0-.057.073l.001.081.002.06.002.048.002.027.085.014L.283 0z" style="fill:#e0e0e0;fill-rule:nonzero" transform="rotate(-3.981 30536.958 -49283.194)scale(66.66667)"/><path d="M.248.008a.21.21 0 0 1-.185-.103.2.2 0 0 1-.027-.111q0-.069.03-.12a.24.24 0 0 1 .08-.08.2.2 0 0 1 .104-.028q.085.002.129.054.045.052.045.138v.021H.135V-.27h.204l-.014.021v-.029q0-.05-.022-.077a.07.07 0 0 0-.061-.029.1.1 0 0 0-.047.015.1.1 0 0 0-.034.044.2.2 0 0 0-.013.073v.018a.17.17 0 0 0 .038.115.13.13 0 0 0 .1.043.2.2 0 0 0 .06-.012.2.2 0 0 0 .053-.043l.029.026a.2.2 0 0 1-.075.084.2.2 0 0 1-.105.029m.02-.48L.217-.488l.096-.173.102.022z" style="fill:#e0e0e0;fill-rule:nonzero" transform="rotate(-4.537 26993.946 -43412.351)scale(66.6667)"/><path d="M.23.223A.34.34 0 0 1 .076.194Q.02.166.02.116q0-.033.031-.061A.3.3 0 0 1 .142.006l.041.006a.13.13 0 0 0-.042.04A.1.1 0 0 0 .126.1q0 .033.029.053a.14.14 0 0 0 .083.02.16.16 0 0 0 .094-.025Q.368.124.368.087a.05.05 0 0 0-.02-.041.15.15 0 0 0-.069-.018L.164.019.153.014a.12.12 0 0 1-.071-.019.06.06 0 0 1-.027-.049q0-.029.029-.055a.2.2 0 0 1 .08-.043l.015.017-.021.018Q.15-.107.15-.1q0 .013.009.019a.1.1 0 0 0 .026.01l.14.013a.2.2 0 0 1 .108.037.1.1 0 0 1 .036.082.13.13 0 0 1-.031.082.2.2 0 0 1-.085.058.3.3 0 0 1-.123.022m.006-.34a.24.24 0 0 1-.099-.02.16.16 0 0 1-.067-.054.14.14 0 0 1-.024-.08q0-.046.025-.084A.2.2 0 0 1 .14-.413a.22.22 0 0 1 .194 0q.042.02.066.058a.14.14 0 0 1 .025.082.14.14 0 0 1-.025.08.193.193 0 0 1-.164.076m.007-.051q.033 0 .053-.027A.13.13 0 0 0 .315-.27a.15.15 0 0 0-.021-.083.07.07 0 0 0-.057-.031.06.06 0 0 0-.053.03.13.13 0 0 0-.021.077.13.13 0 0 0 .022.079q.022.03.058.03M.48-.351.354-.362.317-.405.48-.424z" style="fill:#e0e0e0;fill-rule:nonzero" transform="rotate(-5.213 23707.616 -37981.23)scale(66.66672)"/><path d="m.476-.082.063.015v.039l-.153.04-.023-.014.001-.065-.003-.001a.2.2 0 0 1-.06.06.16.16 0 0 1-.178-.026Q.079-.077.079-.163v-.083L.078-.289.074-.336.008-.35v-.04l.163-.042.023.017-.005.148-.001.091q0 .054.025.078a.1.1 0 0 0 .064.024.1.1 0 0 0 .084-.051v-.144a.4.4 0 0 0-.006-.067L.284-.35v-.04L.45-.432l.023.016-.002.043-.001.046v.13q0 .057.006.115" style="fill:#e0e0e0;fill-rule:nonzero" transform="rotate(-5.98 20879.35 -33293.692)scale(66.66672)"/><path d="M.019 0 .016-.043l.063-.015.003-.034.002-.062.001-.076v-.124L.083-.491.082-.548.08-.587l-.072-.01-.002-.038.171-.045.024.016-.002.081-.002.088-.001.119-.001.148q0 .085.005.17l.064.015L.262 0z" style="fill:#e0e0e0;fill-rule:nonzero" transform="rotate(-6.611 19036.738 -30330.988)scale(66.66671)"/><path d="M.184.008A.14.14 0 0 1 .06-.056a.1.1 0 0 1-.017-.05q0-.034.021-.058a.2.2 0 0 1 .069-.037l.152-.047v-.04a.06.06 0 0 0-.014-.04.1.1 0 0 0-.036-.03.1.1 0 0 0-.048-.012q-.019 0-.026.008t-.01.033l-.004.053a.13.13 0 0 1-.072-.003Q.046-.291.046-.319q0-.018.017-.036a.2.2 0 0 1 .045-.036.4.4 0 0 1 .056-.028.2.2 0 0 1 .054-.015q.08 0 .13.039c.032.025.05.064.049.105l-.002.144.001.041.005.026.064.012v.037l-.058.024-.03.01-.025.004q-.036 0-.049-.037L.288-.072l.019.004a.3.3 0 0 1-.062.056.1.1 0 0 1-.061.02M.226-.07a.1.1 0 0 0 .031-.007.1.1 0 0 0 .028-.022v-.097l-.081.017a.1.1 0 0 0-.034.017.055.055 0 0 0 .009.073.06.06 0 0 0 .047.019" style="fill:#e0e0e0;fill-rule:nonzero" transform="rotate(-7.238 17535.16 -27761.772)scale(66.6667)"/><path d="M.022 0 .02-.042l.06-.016.002-.016.002-.034.001-.049.001-.074-.002-.057-.007-.048L.015-.35v-.04l.157-.042.021.016-.004.078.003.001A.2.2 0 0 1 .25-.411a.1.1 0 0 1 .059-.02q.024 0 .043.014t.018.042a.05.05 0 0 1-.019.044.1.1 0 0 1-.047.016.098.098 0 0 1-.076-.035l.023.003a.2.2 0 0 0-.057.073l.001.081.002.06.002.048.002.027.085.014L.283 0z" style="fill:#e0e0e0;fill-rule:nonzero" transform="rotate(-7.91 16182.546 -25540.954)scale(66.66672)"/><path d="M.018 0 .015-.043.08-.058l.002-.016.002-.034.001-.049.001-.074-.002-.057-.007-.048L.012-.35v-.04l.167-.042.022.017a1 1 0 0 0-.006.132v.123q0 .051.006.102l.066.015L.264 0zm.124-.522a.07.07 0 0 1-.055-.021.071.071 0 0 1 0-.101.07.07 0 0 1 .055-.021.07.07 0 0 1 .053.021.075.075 0 0 1 0 .101.07.07 0 0 1-.053.021" style="fill:#e0e0e0;fill-rule:nonzero" transform="rotate(-8.463 15230.945 -23974.683)scale(66.66671)"/><path d="M.355-.075a.12.12 0 0 1-.052.061.15.15 0 0 1-.079.023.15.15 0 0 1-.107-.038Q.075-.069.075-.145l.003-.222H.01v-.029l.151-.125h.028l-.001.129-.002.235q0 .043.02.064.02.02.058.02a.1.1 0 0 0 .037-.008.1.1 0 0 0 .032-.021zM.137-.367v-.058h.191v.058z" style="fill:#e0e0e0;fill-rule:nonzero" transform="rotate(-9.021 14392.078 -22543.317)scale(66.66669)"/><path d="M.248.008a.21.21 0 0 1-.185-.103.2.2 0 0 1-.027-.111q0-.069.03-.12a.24.24 0 0 1 .08-.08.2.2 0 0 1 .104-.028q.085.002.129.054.045.052.045.138v.021H.135V-.27h.204l-.014.021v-.029q0-.05-.022-.077a.07.07 0 0 0-.061-.029.1.1 0 0 0-.047.015.1.1 0 0 0-.034.044.2.2 0 0 0-.013.073v.018a.17.17 0 0 0 .038.115.13.13 0 0 0 .1.043.2.2 0 0 0 .06-.012.2.2 0 0 0 .053-.043l.029.026a.2.2 0 0 1-.075.084.2.2 0 0 1-.105.029m.02-.48L.217-.488l.096-.173.102.022z" style="fill:#e0e0e0;fill-rule:nonzero" transform="rotate(-9.718 13479.013 -20980.82)scale(66.66673)"/><path d="M.048-.573h.193l.204.444H.421L.61-.573h.189l.003.045-.062.013v.042l.002.084.006.174.009.155.061.015L.815 0H.569L.566-.045.628-.06l.001-.022L.63-.13.629-.209.626-.545h.038L.431.003H.379L.125-.545h.048l.001.334.003.151.067.015L.241 0H.034L.031-.045.099-.06l.002-.026.002-.05.001-.063.002-.188.001-.084-.001-.043-.061-.014z" style="fill:#e0e0e0;fill-rule:nonzero" transform="rotate(-11.324 11807.996 -18066.152)scale(66.66668)"/><path d="m.476-.082.063.015v.039l-.153.04-.023-.014.001-.065-.003-.001a.2.2 0 0 1-.06.06.16.16 0 0 1-.178-.026Q.079-.077.079-.163v-.083L.078-.289.074-.336.008-.35v-.04l.163-.042.023.017-.005.148-.001.091q0 .054.025.078a.1.1 0 0 0 .064.024.1.1 0 0 0 .084-.051v-.144a.4.4 0 0 0-.006-.067L.284-.35v-.04L.45-.432l.023.016-.002.043-.001.046v.13q0 .057.006.115" style="fill:#e0e0e0;fill-rule:nonzero" transform="rotate(-12.803 10631.961 -16105.26)scale(66.66671)"/><path d="M.189.008a.34.34 0 0 1-.143-.032L.041-.136h.058l.02.071a.14.14 0 0 0 .077.022.1.1 0 0 0 .049-.014.04.04 0 0 0 .018-.036.05.05 0 0 0-.018-.04.2.2 0 0 0-.071-.037.3.3 0 0 1-.1-.058.1.1 0 0 1-.028-.076q0-.038.023-.067a.16.16 0 0 1 .065-.046.31.31 0 0 1 .209.004l.011.109H.297L.274-.372.251-.381a.1.1 0 0 0-.078.01.05.05 0 0 0-.019.037q0 .024.022.041.037.025.079.041a.3.3 0 0 1 .091.057.1.1 0 0 1 .027.072.11.11 0 0 1-.051.095.23.23 0 0 1-.133.036" style="fill:#e0e0e0;fill-rule:nonzero" transform="rotate(-13.914 9914.343 -14880.941)scale(66.66668)"/><path d="M.018 0 .015-.043.08-.058l.002-.016.002-.034.001-.049.001-.074-.002-.057-.007-.048L.012-.35v-.04l.167-.042.022.017a1 1 0 0 0-.006.132v.123q0 .051.006.102l.066.015L.264 0zm.124-.522a.07.07 0 0 1-.055-.021.071.071 0 0 1 0-.101.07.07 0 0 1 .055-.021.07.07 0 0 1 .053.021.075.075 0 0 1 0 .101.07.07 0 0 1-.053.021" style="fill:#e0e0e0;fill-rule:nonzero" transform="rotate(-14.717 9462.467 -14110.268)scale(66.66667)"/><path d="M.249.008a.2.2 0 0 1-.108-.027.2.2 0 0 1-.077-.074.23.23 0 0 1 .085-.309.23.23 0 0 1 .122-.032q.042 0 .075.012.03.008.051.03a.06.06 0 0 1 .019.043q0 .022-.013.034a.05.05 0 0 1-.034.011.1.1 0 0 1-.031-.007.2.2 0 0 1-.03-.022L.243-.392l.045.011a.1.1 0 0 0-.063.008.12.12 0 0 0-.05.051.2.2 0 0 0-.02.09q0 .076.038.115a.13.13 0 0 0 .093.04q.031 0 .058-.013a.2.2 0 0 0 .052-.043l.03.027a.2.2 0 0 1-.074.085.2.2 0 0 1-.103.029" style="fill:#e0e0e0;fill-rule:nonzero" transform="rotate(-15.664 8994.875 -13255.746)scale(66.66673)"/><path d="M.184.008A.14.14 0 0 1 .06-.056a.1.1 0 0 1-.017-.05q0-.034.021-.058a.2.2 0 0 1 .069-.037l.152-.047v-.04a.06.06 0 0 0-.014-.04.1.1 0 0 0-.036-.03.1.1 0 0 0-.048-.012q-.019 0-.026.008t-.01.033l-.004.053a.13.13 0 0 1-.072-.003Q.046-.291.046-.319q0-.018.017-.036a.2.2 0 0 1 .045-.036.4.4 0 0 1 .056-.028.2.2 0 0 1 .054-.015q.08 0 .13.039c.032.025.05.064.049.105l-.002.144.001.041.005.026.064.012v.037l-.058.024-.03.01-.025.004q-.036 0-.049-.037L.288-.072l.019.004a.3.3 0 0 1-.062.056.1.1 0 0 1-.061.02M.226-.07a.1.1 0 0 0 .031-.007.1.1 0 0 0 .028-.022v-.097l-.081.017a.1.1 0 0 0-.034.017.055.055 0 0 0 .009.073.06.06 0 0 0 .047.019" style="fill:#e0e0e0;fill-rule:nonzero" transform="rotate(-16.926 8451.136 -12280.004)scale(66.66669)"/><path d="M.019 0 .016-.043l.063-.015.003-.034.002-.062.001-.076v-.124L.083-.491.082-.548.08-.587l-.072-.01-.002-.038.171-.045.024.016-.002.081-.002.088-.001.119-.001.148q0 .085.005.17l.064.015L.262 0z" style="fill:#e0e0e0;fill-rule:nonzero" transform="rotate(-17.975 8052.938 -11595.539)scale(66.6667)"/><path d="M.248.008a.21.21 0 0 1-.185-.103.2.2 0 0 1-.027-.111q0-.069.03-.12a.24.24 0 0 1 .08-.08.2.2 0 0 1 .104-.028q.085.002.129.054.045.052.045.138v.021H.135V-.27h.204l-.014.021v-.029q0-.05-.022-.077a.07.07 0 0 0-.061-.029.1.1 0 0 0-.047.015.1.1 0 0 0-.034.044.2.2 0 0 0-.013.073v.018a.17.17 0 0 0 .038.115.13.13 0 0 0 .1.043.2.2 0 0 0 .06-.012.2.2 0 0 0 .053-.043l.029.026a.2.2 0 0 1-.075.084.2.2 0 0 1-.105.029" style="fill:#e0e0e0;fill-rule:nonzero" transform="rotate(-19.169 7660.535 -10855.935)scale(66.66668)"/><path d="M.131.01a.08.08 0 0 1-.057-.023.07.07 0 0 1-.024-.056q0-.023.011-.041A.1.1 0 0 1 .09-.139a.1.1 0 0 1 .041-.01q.034 0 .058.023a.07.07 0 0 1 .024.056.08.08 0 0 1-.024.057.08.08 0 0 1-.058.023" style="fill:#e0e0e0;fill-rule:nonzero" transform="rotate(-20.349 7312 -10241)scale(66.66667)"/></svg>