<svg xmlns="http://www.w3.org/2000/svg" xml:space="preserve" style="fill-rule:evenodd;clip-rule:evenodd;stroke-linecap:round;stroke-linejoin:round;stroke-miterlimit:1.5" viewBox="0 0 4461 1997"><path d="M0 0h4460.42v1996.53H0z" style="fill:none"/><circle cx="2231.95" cy="1184.38" r="438.612" style="fill:none;stroke:#e0e0e0;stroke-width:4.17px"/><path d="M.095-.07Q.098-.075.1-.119l.001-.103v-.129L.1-.454Q.098-.499.095-.503L.032-.522l.003-.051h.292q.106 0 .157.034.051.033.051.103a.11.11 0 0 1-.049.09.23.23 0 0 1-.127.041l.012-.009a.27.27 0 0 1 .143.043q.05.038.05.102a.14.14 0 0 1-.067.125A.35.35 0 0 1 .306 0H.035L.032-.052zm.154-.103.001.065.002.039a.2.2 0 0 0 .055.008q.046 0 .072-.025a.09.09 0 0 0 .026-.068q0-.054-.029-.079T.284-.259L.26-.258l-.025.002v-.07l.024.001.02.001q.05 0 .073-.026.024-.024.024-.071a.1.1 0 0 0-.024-.068Q.329-.515.277-.515H.251l-.002.041v.301Z" style="fill:#e0e0e0;fill-rule:nonzero;stroke:#fff;stroke-width:.01px;stroke-linecap:butt;stroke-miterlimit:2" transform="scale(83.33333)rotate(-8.137 53.877 -154.378)"/><path d="M.268.008A.25.25 0 0 1 .146-.02a.2.2 0 0 1-.084-.078.2.2 0 0 1-.03-.113q0-.074.034-.125a.23.23 0 0 1 .09-.078.3.3 0 0 1 .117-.026q.066 0 .117.028.05.027.079.077a.2.2 0 0 1 .029.113.22.22 0 0 1-.114.199.2.2 0 0 1-.116.031ZM.279-.06a.05.05 0 0 0 .036-.015.1.1 0 0 0 .022-.043.3.3 0 0 0 .007-.068.3.3 0 0 0-.024-.138Q.295-.377.256-.377q-.032 0-.05.036a.2.2 0 0 0-.019.097.3.3 0 0 0 .012.094.2.2 0 0 0 .033.065q.02.025.047.025Z" style="fill:#e0e0e0;fill-rule:nonzero;stroke:#fff;stroke-width:.01px;stroke-linecap:butt;stroke-miterlimit:2" transform="scale(83.33334)rotate(-6.835 61.614 -189.51)"/><path d="m.509-.095.065.013v.046L.396.013.365-.002l.001-.072-.003-.001a.2.2 0 0 1-.062.067.15.15 0 0 1-.069.018.16.16 0 0 1-.117-.046Q.071-.081.071-.171v-.083L.07-.296.067-.33.001-.344v-.047L.19-.438l.031.017-.003.072q-.003.044-.002.088l-.001.074q0 .048.02.07.021.023.059.023a.1.1 0 0 0 .036-.01.1.1 0 0 0 .032-.031v-.128L.361-.296.357-.33.29-.344v-.047l.187-.047.031.017-.003.032-.001.049v.149l.001.036z" style="fill:#e0e0e0;fill-rule:nonzero;stroke:#fff;stroke-width:.01px;stroke-linecap:butt;stroke-miterlimit:2" transform="scale(83.33328)rotate(-5.673 71.53 -234.373)"/><path d="M.258.008A.23.23 0 0 1 .143-.02a.2.2 0 0 1-.081-.076.216.216 0 0 1 .002-.224.25.25 0 0 1 .219-.12q.042 0 .079.012a.14.14 0 0 1 .058.033q.021.02.022.049 0 .027-.017.04a.06.06 0 0 1-.039.013A.1.1 0 0 1 .351-.3a.1.1 0 0 1-.035-.022L.238-.389l.055.012a.07.07 0 0 0-.05.008.1.1 0 0 0-.041.046.2.2 0 0 0-.016.079q0 .073.036.11a.12.12 0 0 0 .088.037.1.1 0 0 0 .05-.011.2.2 0 0 0 .053-.042l.032.029a.2.2 0 0 1-.079.096.2.2 0 0 1-.108.033Z" style="fill:#e0e0e0;fill-rule:nonzero;stroke:#fff;stroke-width:.01px;stroke-linecap:butt;stroke-miterlimit:2" transform="scale(83.33327)rotate(-4.598 85.11 -297.221)"/><path d="M.012 0 .009-.05l.063-.015a1 1 0 0 0 .005-.104l.001-.059v-.189l-.001-.06-.002-.054-.002-.044L0-.585l-.002-.046L.2-.682l.03.018-.003.078-.002.087v.119l-.001.138.004.177.063.015L.289 0z" style="fill:#e0e0e0;fill-rule:nonzero;stroke:#fff;stroke-width:.01px;stroke-linecap:butt;stroke-miterlimit:2" transform="rotate(-3.887 8181.238 -29902.382)scale(83.33333)"/><path d="M.255.008a.22.22 0 0 1-.194-.109.2.2 0 0 1-.028-.109q0-.068.032-.119a.24.24 0 0 1 .084-.082A.2.2 0 0 1 .26-.44q.088 0 .137.053a.2.2 0 0 1 .049.139v.025H.161v-.053H.34l-.018.027v-.038a.1.1 0 0 0-.018-.068Q.286-.381.252-.381a.06.06 0 0 0-.04.013.1.1 0 0 0-.028.038.2.2 0 0 0-.01.066v.023q0 .065.036.105a.12.12 0 0 0 .097.041.2.2 0 0 0 .061-.012.2.2 0 0 0 .052-.041l.032.03a.2.2 0 0 1-.079.094.22.22 0 0 1-.118.032Z" style="fill:#e0e0e0;fill-rule:nonzero;stroke:#fff;stroke-width:.01px;stroke-linecap:butt;stroke-miterlimit:2" transform="rotate(-3.109 9953.246 -37911.444)scale(83.33331)"/><path d="M.371.013.34-.002l.001-.064-.003-.002a.15.15 0 0 1-.053.061.13.13 0 0 1-.062.017.2.2 0 0 1-.093-.026.2.2 0 0 1-.071-.074.2.2 0 0 1-.027-.112.23.23 0 0 1 .077-.173.2.2 0 0 1 .078-.047.25.25 0 0 1 .121-.014l.027.007V-.47L.334-.511.333-.548.331-.577.26-.586.258-.631l.199-.051.03.018-.006.11-.003.103-.001.228a1 1 0 0 0 .006.128l.066.013v.046zM.278-.094a.1.1 0 0 0 .03-.009.07.07 0 0 0 .029-.028v-.221A.1.1 0 0 0 .311-.37a.084.084 0 0 0-.1.031.16.16 0 0 0-.027.099q0 .072.028.109.028.036.066.037Z" style="fill:#e0e0e0;fill-rule:nonzero;stroke:#fff;stroke-width:.01px;stroke-linecap:butt;stroke-miterlimit:2" transform="rotate(-1.728 17018.856 -70278.978)scale(83.33327)"/><path d="M.255.008a.22.22 0 0 1-.194-.109.2.2 0 0 1-.028-.109q0-.068.032-.119a.24.24 0 0 1 .084-.082A.2.2 0 0 1 .26-.44q.088 0 .137.053a.2.2 0 0 1 .049.139v.025H.161v-.053H.34l-.018.027v-.038a.1.1 0 0 0-.018-.068Q.286-.381.252-.381a.06.06 0 0 0-.04.013.1.1 0 0 0-.028.038.2.2 0 0 0-.01.066v.023q0 .065.036.105a.12.12 0 0 0 .097.041.2.2 0 0 0 .061-.012.2.2 0 0 0 .052-.041l.032.03a.2.2 0 0 1-.079.094.22.22 0 0 1-.118.032Z" style="fill:#e0e0e0;fill-rule:nonzero;stroke:#fff;stroke-width:.01px;stroke-linecap:butt;stroke-miterlimit:2" transform="scale(83.33329)rotate(-.751 452.464 -1987.392)"/><path d="M.362.009a.4.4 0 0 1-.167-.034.26.26 0 0 1-.113-.096.27.27 0 0 1-.041-.15q0-.075.027-.134a.3.3 0 0 1 .074-.097.3.3 0 0 1 .112-.06.5.5 0 0 1 .228-.01.3.3 0 0 1 .072.024l.005.142-.067.002L.46-.496a.18.18 0 0 0-.167.008.17.17 0 0 0-.058.072.3.3 0 0 0-.02.115q0 .072.024.126a.2.2 0 0 0 .064.083.138.138 0 0 0 .114.026l.027-.007-.022.052v-.104l-.001-.04L.417-.2l-.07-.017.003-.054h.264l.003.052-.05.018-.001.033v.041l.001.035.002.049a.445.445 0 0 1-.207.052Z" style="fill:#e0e0e0;fill-rule:nonzero;stroke:#fff;stroke-width:.01px;stroke-linecap:butt;stroke-miterlimit:2" transform="rotate(.704 -37891.174 181679.658)scale(83.33334)"/><path d="M.184.008a.15.15 0 0 1-.08-.02.14.14 0 0 1-.051-.049.1.1 0 0 1-.017-.054.1.1 0 0 1 .021-.061.15.15 0 0 1 .068-.037L.28-.256v-.029a.06.06 0 0 0-.013-.038.1.1 0 0 0-.076-.042.03.03 0 0 0-.019.007.1.1 0 0 0-.007.025l-.006.066A.15.15 0 0 1 .073-.27Q.04-.285.04-.317q0-.02.021-.041A.393.393 0 0 1 .229-.44a.23.23 0 0 1 .144.04.12.12 0 0 1 .053.109l-.002.126.001.045.007.024.065.012v.045l-.07.03-.034.013Q.377.007.362.008q-.041 0-.059-.041L.284-.08l.023.005a.3.3 0 0 1-.062.06.1.1 0 0 1-.061.023ZM.241-.09a.1.1 0 0 0 .021-.004.1.1 0 0 0 .019-.011v-.093l-.052.006a.06.06 0 0 0-.035.014.04.04 0 0 0-.01.03q0 .022.017.04a.06.06 0 0 0 .04.018Z" style="fill:#e0e0e0;fill-rule:nonzero;stroke:#fff;stroke-width:.01px;stroke-linecap:butt;stroke-miterlimit:2" transform="scale(83.33332)rotate(1.843 -165.309 854.529)"/><path d="M.016 0 .013-.048l.06-.017.002-.02.002-.036.001-.04.001-.073v-.033L.076-.296.071-.33.009-.344v-.047l.184-.047.031.017-.006.059.003.001a.2.2 0 0 1 .065-.06.15.15 0 0 1 .073-.019.14.14 0 0 1 .073.019.13.13 0 0 1 .053.058q.02.039.02.099l.002.101.001.061q.001.03.004.037l.05.017L.56 0H.315L.312-.048.36-.065l.003-.029.002-.036v-.034L.364-.251a.1.1 0 0 0-.009-.052.06.06 0 0 0-.025-.028.1.1 0 0 0-.037-.008.094.094 0 0 0-.071.037v.143l.004.094.053.017L.276 0zm.582 0L.595-.048l.048-.017.003-.029.001-.037.001-.033-.002-.074a.2.2 0 0 0-.01-.06.06.06 0 0 0-.027-.031.1.1 0 0 0-.039-.01.1.1 0 0 0-.073.033L.464-.341A.3.3 0 0 1 .54-.415.16.16 0 0 1 .627-.44q.047 0 .083.02a.14.14 0 0 1 .057.06q.02.04.02.098l.003.099.004.098.061.017L.852 0z" style="fill:#e0e0e0;fill-rule:nonzero;stroke:#fff;stroke-width:.01px;stroke-linecap:butt;stroke-miterlimit:2" transform="scale(83.33328)rotate(3.148 -91.092 510.522)"/><path d="M.255.008a.22.22 0 0 1-.194-.109.2.2 0 0 1-.028-.109q0-.068.032-.119a.24.24 0 0 1 .084-.082A.2.2 0 0 1 .26-.44q.088 0 .137.053a.2.2 0 0 1 .049.139v.025H.161v-.053H.34l-.018.027v-.038a.1.1 0 0 0-.018-.068Q.286-.381.252-.381a.06.06 0 0 0-.04.013.1.1 0 0 0-.028.038.2.2 0 0 0-.01.066v.023q0 .065.036.105a.12.12 0 0 0 .097.041.2.2 0 0 0 .061-.012.2.2 0 0 0 .052-.041l.032.03a.2.2 0 0 1-.079.094.22.22 0 0 1-.118.032Z" style="fill:#e0e0e0;fill-rule:nonzero;stroke:#fff;stroke-width:.01px;stroke-linecap:butt;stroke-miterlimit:2" transform="rotate(4.489 -4990.472 30812.647)scale(83.33331)"/><path d="M.012.215.009.167.07.15.071.12.073.069.074.006l.001-.06.002-.179-.001-.049Q.074-.303.069-.33L.007-.344v-.047l.184-.047.031.017-.008.063.003.001a.2.2 0 0 1 .058-.06A.13.13 0 0 1 .35-.44q.044 0 .085.023a.2.2 0 0 1 .067.069q.026.046.026.112a.24.24 0 0 1-.277.24Q.236.002.219-.003v.058L.223.15l.08.016L.3.215zM.281-.07a.1.1 0 0 0 .048-.012.1.1 0 0 0 .033-.042.2.2 0 0 0 .012-.078.2.2 0 0 0-.014-.082.1.1 0 0 0-.034-.041.1.1 0 0 0-.043-.012.1.1 0 0 0-.035.008.1.1 0 0 0-.029.024v.218l.03.013q.015.004.032.004Z" style="fill:#e0e0e0;fill-rule:nonzero;stroke:#fff;stroke-width:.01px;stroke-linecap:butt;stroke-miterlimit:2" transform="rotate(5.502 -3862.03 25591.42)scale(83.33329)"/><path d="M.012 0 .009-.05l.063-.015a1 1 0 0 0 .005-.104l.001-.059v-.189l-.001-.06-.002-.054-.002-.044L0-.585l-.002-.046L.2-.682l.03.018-.003.078-.002.087v.119l-.001.138.004.177.063.015L.289 0z" style="fill:#e0e0e0;fill-rule:nonzero;stroke:#fff;stroke-width:.01px;stroke-linecap:butt;stroke-miterlimit:2" transform="rotate(6.401 -3165.4 22445.443)scale(83.3333)"/><path d="M.184.008a.15.15 0 0 1-.08-.02.14.14 0 0 1-.051-.049.1.1 0 0 1-.017-.054.1.1 0 0 1 .021-.061.15.15 0 0 1 .068-.037L.28-.256v-.029a.06.06 0 0 0-.013-.038.1.1 0 0 0-.076-.042.03.03 0 0 0-.019.007.1.1 0 0 0-.007.025l-.006.066A.15.15 0 0 1 .073-.27Q.04-.285.04-.317q0-.02.021-.041A.393.393 0 0 1 .229-.44a.23.23 0 0 1 .144.04.12.12 0 0 1 .053.109l-.002.126.001.045.007.024.065.012v.045l-.07.03-.034.013Q.377.007.362.008q-.041 0-.059-.041L.284-.08l.023.005a.3.3 0 0 1-.062.06.1.1 0 0 1-.061.023ZM.241-.09a.1.1 0 0 0 .021-.004.1.1 0 0 0 .019-.011v-.093l-.052.006a.06.06 0 0 0-.035.014.04.04 0 0 0-.01.03q0 .022.017.04a.06.06 0 0 0 .04.018Z" style="fill:#e0e0e0;fill-rule:nonzero;stroke:#fff;stroke-width:.01px;stroke-linecap:butt;stroke-miterlimit:2" transform="scale(83.33334)rotate(7.279 -31.699 239.514)"/><path d="M.222.004.04-.367l-.046-.017.003-.049h.27l.003.049-.061.017.102.219zm.28-.437.003.049-.046.017-.171.333-.077.161a.2.2 0 0 1-.056.076.1.1 0 0 1-.06.02.1.1 0 0 1-.057-.018.06.06 0 0 1-.02-.042.06.06 0 0 1 .019-.044.13.13 0 0 1 .058-.03L.218.055.146.099l.122-.223.013-.025.097-.218-.061-.017.003-.049z" style="fill:#e0e0e0;fill-rule:nonzero;stroke:#fff;stroke-width:.01px;stroke-linecap:butt;stroke-miterlimit:2" transform="scale(83.3333)rotate(8.283 -26.204 214.18)"/><path d="M.039 0 .036-.052.095-.07l.003-.026.003-.056v-.071l.001-.124-.001-.075a1 1 0 0 0-.005-.082L.033-.521l.003-.052h.286l.056-.001.063-.002.047-.003.028.151-.06.008-.039-.088-.024-.004-.022-.001H.309l-.034.002q-.015 0-.026.003v.116l.001.233.001.029.003.038.002.022.079.016L.332 0zm.343-.182L.373-.251l-.03-.002-.028-.001H.267l-.035.001-.024.003v-.075l.025.002.034.001h.048L.35-.323l.023-.001.009-.063h.061v.205z" style="fill:#e0e0e0;fill-rule:nonzero;stroke:#fff;stroke-width:.01px;stroke-linecap:butt;stroke-miterlimit:2" transform="scale(83.3333)rotate(-9.793 40.323 -124.931)"/><path d="M.268.008A.25.25 0 0 1 .146-.02a.2.2 0 0 1-.084-.078.2.2 0 0 1-.03-.113q0-.074.034-.125a.23.23 0 0 1 .09-.078.3.3 0 0 1 .117-.026q.066 0 .117.028.05.027.079.077a.2.2 0 0 1 .029.113.22.22 0 0 1-.114.199.2.2 0 0 1-.116.031ZM.279-.06a.05.05 0 0 0 .036-.015.1.1 0 0 0 .022-.043.3.3 0 0 0 .007-.068.3.3 0 0 0-.024-.138Q.295-.377.256-.377q-.032 0-.05.036a.2.2 0 0 0-.019.097.3.3 0 0 0 .012.094.2.2 0 0 0 .033.065q.02.025.047.025Z" style="fill:#e0e0e0;fill-rule:nonzero;stroke:#fff;stroke-width:.01px;stroke-linecap:butt;stroke-miterlimit:2" transform="scale(83.3333)rotate(-8.459 44.648 -148.515)"/><path d="M.015 0 .012-.048l.06-.017.002-.02.002-.036.001-.04.001-.074-.001-.048L.07-.33.008-.344v-.047l.184-.047.031.017-.006.061.003.001A.2.2 0 0 1 .287-.42a.16.16 0 0 1 .155.001q.034.021.053.061a.2.2 0 0 1 .019.096v.099l.001.061.003.037.061.017L.576 0h-.26L.313-.048l.054-.017.003-.029.002-.036v-.109a.13.13 0 0 0-.01-.057.1.1 0 0 0-.027-.033.1.1 0 0 0-.039-.01.1.1 0 0 0-.041.009.1.1 0 0 0-.034.028v.143a1 1 0 0 0 .005.094l.057.017L.28 0z" style="fill:#e0e0e0;fill-rule:nonzero;stroke:#fff;stroke-width:.01px;stroke-linecap:butt;stroke-miterlimit:2" transform="scale(83.33327)rotate(-7.159 50.386 -180.252)"/><path d="M.258.008A.23.23 0 0 1 .143-.02a.2.2 0 0 1-.081-.076.216.216 0 0 1 .002-.224.25.25 0 0 1 .219-.12q.042 0 .079.012a.14.14 0 0 1 .058.033q.021.02.022.049 0 .027-.017.04a.06.06 0 0 1-.039.013A.1.1 0 0 1 .351-.3a.1.1 0 0 1-.035-.022L.238-.389l.055.012a.07.07 0 0 0-.05.008.1.1 0 0 0-.041.046.2.2 0 0 0-.016.079q0 .073.036.11a.12.12 0 0 0 .088.037.1.1 0 0 0 .05-.011.2.2 0 0 0 .053-.042l.032.029a.2.2 0 0 1-.079.096.2.2 0 0 1-.108.033Z" style="fill:#e0e0e0;fill-rule:nonzero;stroke:#fff;stroke-width:.01px;stroke-linecap:butt;stroke-miterlimit:2" transform="scale(83.33329)rotate(-6.018 57.387 -220.533)"/><path d="M.373-.089a.13.13 0 0 1-.054.072.16.16 0 0 1-.093.027.17.17 0 0 1-.115-.04Q.066-.07.066-.152l.003-.213H0v-.033l.183-.14h.032l-.002.146-.002.229q0 .038.019.053a.08.08 0 0 0 .053.016q.015 0 .033-.007a.1.1 0 0 0 .03-.017zM.165-.365v-.067h.182v.067z" style="fill:#e0e0e0;fill-rule:nonzero;stroke:#fff;stroke-width:.01px;stroke-linecap:butt;stroke-miterlimit:2" transform="rotate(-5.183 5371.68 -21801.158)scale(83.33327)"/><path d="M.012 0 .009-.05l.064-.015.002-.02.002-.036.001-.04.001-.073-.001-.049L.071-.33.006-.344v-.047l.192-.047.031.017-.005.065-.001.072v.125a1 1 0 0 0 .005.094l.064.015L.289 0zm.14-.507a.1.1 0 0 1-.069-.026.09.09 0 0 1 0-.121q.024-.027.069-.027t.069.027a.1.1 0 0 1 .023.06.1.1 0 0 1-.023.061.1.1 0 0 1-.069.026Z" style="fill:#e0e0e0;fill-rule:nonzero;stroke:#fff;stroke-width:.01px;stroke-linecap:butt;stroke-miterlimit:2" transform="scale(83.3333)rotate(-4.519 71.946 -305.122)"/><path d="M.268.008A.25.25 0 0 1 .146-.02a.2.2 0 0 1-.084-.078.2.2 0 0 1-.03-.113q0-.074.034-.125a.23.23 0 0 1 .09-.078.3.3 0 0 1 .117-.026q.066 0 .117.028.05.027.079.077a.2.2 0 0 1 .029.113.22.22 0 0 1-.114.199.2.2 0 0 1-.116.031ZM.279-.06a.05.05 0 0 0 .036-.015.1.1 0 0 0 .022-.043.3.3 0 0 0 .007-.068.3.3 0 0 0-.024-.138Q.295-.377.256-.377q-.032 0-.05.036a.2.2 0 0 0-.019.097.3.3 0 0 0 .012.094.2.2 0 0 0 .033.065q.02.025.047.025Z" style="fill:#e0e0e0;fill-rule:nonzero;stroke:#fff;stroke-width:.01px;stroke-linecap:butt;stroke-miterlimit:2" transform="rotate(-3.697 7086.442 -31524.418)scale(83.33326)"/><path d="M.015 0 .012-.048l.06-.017.002-.02.002-.036.001-.04.001-.074-.001-.048L.07-.33.008-.344v-.047l.184-.047.031.017-.006.061.003.001A.2.2 0 0 1 .287-.42a.16.16 0 0 1 .155.001q.034.021.053.061a.2.2 0 0 1 .019.096v.099l.001.061.003.037.061.017L.576 0h-.26L.313-.048l.054-.017.003-.029.002-.036v-.109a.13.13 0 0 0-.01-.057.1.1 0 0 0-.027-.033.1.1 0 0 0-.039-.01.1.1 0 0 0-.041.009.1.1 0 0 0-.034.028v.143a1 1 0 0 0 .005.094l.057.017L.28 0z" style="fill:#e0e0e0;fill-rule:nonzero;stroke:#fff;stroke-width:.01px;stroke-linecap:butt;stroke-miterlimit:2" transform="scale(83.3333)rotate(-2.616 114.63 -547.257)"/><path d="M.015 0 .012-.048l.06-.017.002-.02.002-.036.001-.04.001-.074-.001-.048L.07-.33.008-.344v-.047l.184-.047.031.017-.006.061.003.001A.2.2 0 0 1 .287-.42a.16.16 0 0 1 .155.001q.034.021.053.061a.2.2 0 0 1 .019.096v.099l.001.061.003.037.061.017L.576 0h-.26L.313-.048l.054-.017.003-.029.002-.036v-.109a.13.13 0 0 0-.01-.057.1.1 0 0 0-.027-.033.1.1 0 0 0-.039-.01.1.1 0 0 0-.041.009.1.1 0 0 0-.034.028v.143a1 1 0 0 0 .005.094l.057.017L.28 0z" style="fill:#e0e0e0;fill-rule:nonzero;stroke:#fff;stroke-width:.01px;stroke-linecap:butt;stroke-miterlimit:2" transform="rotate(-1.487 15947.721 -82249.693)scale(83.33329)"/><path d="M.255.008a.22.22 0 0 1-.194-.109.2.2 0 0 1-.028-.109q0-.068.032-.119a.24.24 0 0 1 .084-.082A.2.2 0 0 1 .26-.44q.088 0 .137.053a.2.2 0 0 1 .049.139v.025H.161v-.053H.34l-.018.027v-.038a.1.1 0 0 0-.018-.068Q.286-.381.252-.381a.06.06 0 0 0-.04.013.1.1 0 0 0-.028.038.2.2 0 0 0-.01.066v.023q0 .065.036.105a.12.12 0 0 0 .097.041.2.2 0 0 0 .061-.012.2.2 0 0 0 .052-.041l.032.03a.2.2 0 0 1-.079.094.22.22 0 0 1-.118.032Z" style="fill:#e0e0e0;fill-rule:nonzero;stroke:#fff;stroke-width:.01px;stroke-linecap:butt;stroke-miterlimit:2" transform="rotate(-.455 49583.392 -275542.135)scale(83.33326)"/><path d="M.016 0 .013-.048l.06-.017.002-.02.002-.036.001-.04.001-.073v-.033L.076-.296.071-.33.009-.344v-.047l.184-.047.031.017-.006.059.003.001a.2.2 0 0 1 .065-.06.15.15 0 0 1 .073-.019.14.14 0 0 1 .073.019.13.13 0 0 1 .053.058q.02.039.02.099l.002.101.001.061q.001.03.004.037l.05.017L.56 0H.315L.312-.048.36-.065l.003-.029.002-.036v-.034L.364-.251a.1.1 0 0 0-.009-.052.06.06 0 0 0-.025-.028.1.1 0 0 0-.037-.008.094.094 0 0 0-.071.037v.143l.004.094.053.017L.276 0zm.582 0L.595-.048l.048-.017.003-.029.001-.037.001-.033-.002-.074a.2.2 0 0 0-.01-.06.06.06 0 0 0-.027-.031.1.1 0 0 0-.039-.01.1.1 0 0 0-.073.033L.464-.341A.3.3 0 0 1 .54-.415.16.16 0 0 1 .627-.44q.047 0 .083.02a.14.14 0 0 1 .057.06q.02.04.02.098l.003.099.004.098.061.017L.852 0z" style="fill:#e0e0e0;fill-rule:nonzero;stroke:#fff;stroke-width:.01px;stroke-linecap:butt;stroke-miterlimit:2" transform="scale(83.3333)rotate(.826 -306.613 1857.303)"/><path d="M.255.008a.22.22 0 0 1-.194-.109.2.2 0 0 1-.028-.109q0-.068.032-.119a.24.24 0 0 1 .084-.082A.2.2 0 0 1 .26-.44q.088 0 .137.053a.2.2 0 0 1 .049.139v.025H.161v-.053H.34l-.018.027v-.038a.1.1 0 0 0-.018-.068Q.286-.381.252-.381a.06.06 0 0 0-.04.013.1.1 0 0 0-.028.038.2.2 0 0 0-.01.066v.023q0 .065.036.105a.12.12 0 0 0 .097.041.2.2 0 0 0 .061-.012.2.2 0 0 0 .052-.041l.032.03a.2.2 0 0 1-.079.094.22.22 0 0 1-.118.032Z" style="fill:#e0e0e0;fill-rule:nonzero;stroke:#fff;stroke-width:.01px;stroke-linecap:butt;stroke-miterlimit:2" transform="scale(83.33327)rotate(2.131 -110.608 744.42)"/><path d="M.015 0 .012-.048l.06-.017.002-.02.002-.036.001-.04.001-.074-.001-.048L.07-.33.008-.344v-.047l.184-.047.031.017-.006.061.003.001A.2.2 0 0 1 .287-.42a.16.16 0 0 1 .155.001q.034.021.053.061a.2.2 0 0 1 .019.096v.099l.001.061.003.037.061.017L.576 0h-.26L.313-.048l.054-.017.003-.029.002-.036v-.109a.13.13 0 0 0-.01-.057.1.1 0 0 0-.027-.033.1.1 0 0 0-.039-.01.1.1 0 0 0-.041.009.1.1 0 0 0-.034.028v.143a1 1 0 0 0 .005.094l.057.017L.28 0z" style="fill:#e0e0e0;fill-rule:nonzero;stroke:#fff;stroke-width:.01px;stroke-linecap:butt;stroke-miterlimit:2" transform="rotate(3.166 -5832.84 42528.545)scale(83.33327)"/><path d="M.373-.089a.13.13 0 0 1-.054.072.16.16 0 0 1-.093.027.17.17 0 0 1-.115-.04Q.066-.07.066-.152l.003-.213H0v-.033l.183-.14h.032l-.002.146-.002.229q0 .038.019.053a.08.08 0 0 0 .053.016q.015 0 .033-.007a.1.1 0 0 0 .03-.017zM.165-.365v-.067h.182v.067z" style="fill:#e0e0e0;fill-rule:nonzero;stroke:#fff;stroke-width:.01px;stroke-linecap:butt;stroke-miterlimit:2" transform="rotate(4.122 -4222.4 33388.034)scale(83.33329)"/><path d="M.371.013.34-.002l.001-.064-.003-.002a.15.15 0 0 1-.053.061.13.13 0 0 1-.062.017.2.2 0 0 1-.093-.026.2.2 0 0 1-.071-.074.2.2 0 0 1-.027-.112.23.23 0 0 1 .077-.173.2.2 0 0 1 .078-.047.25.25 0 0 1 .121-.014l.027.007V-.47L.334-.511.333-.548.331-.577.26-.586.258-.631l.199-.051.03.018-.006.11-.003.103-.001.228a1 1 0 0 0 .006.128l.066.013v.046zM.278-.094a.1.1 0 0 0 .03-.009.07.07 0 0 0 .029-.028v-.221A.1.1 0 0 0 .311-.37a.084.084 0 0 0-.1.031.16.16 0 0 0-.027.099q0 .072.028.109.028.036.066.037Z" style="fill:#e0e0e0;fill-rule:nonzero;stroke:#fff;stroke-width:.01px;stroke-linecap:butt;stroke-miterlimit:2" transform="rotate(5.47 -2898.898 25692.713)scale(83.33331)"/><path d="M.148-.682q.038 0 .064.029t.026.079a.3.3 0 0 1-.007.057q-.007.036-.018.076l-.022.078-.019.068H.124L.105-.363.083-.441.065-.517a.3.3 0 0 1-.007-.057q0-.05.025-.079a.08.08 0 0 1 .065-.029Z" style="fill:#e0e0e0;fill-rule:nonzero;stroke:#fff;stroke-width:.01px;stroke-linecap:butt;stroke-miterlimit:2" transform="rotate(6.314 -2365.383 22699.162)scale(83.3333)"/><path d="m.509-.095.065.013v.046L.396.013.365-.002l.001-.072-.003-.001a.2.2 0 0 1-.062.067.15.15 0 0 1-.069.018.16.16 0 0 1-.117-.046Q.071-.081.071-.171v-.083L.07-.296.067-.33.001-.344v-.047L.19-.438l.031.017-.003.072q-.003.044-.002.088l-.001.074q0 .048.02.07.021.023.059.023a.1.1 0 0 0 .036-.01.1.1 0 0 0 .032-.031v-.128L.361-.296.357-.33.29-.344v-.047l.187-.047.031.017-.003.032-.001.049v.149l.001.036z" style="fill:#e0e0e0;fill-rule:nonzero;stroke:#fff;stroke-width:.01px;stroke-linecap:butt;stroke-miterlimit:2" transform="scale(83.33331)rotate(7.22 -23.047 240.81)"/><path d="M.015 0 .012-.048l.06-.017.002-.02.002-.036.001-.04.001-.074-.001-.048L.07-.33.008-.344v-.047l.184-.047.031.017-.006.061.003.001A.2.2 0 0 1 .287-.42a.16.16 0 0 1 .155.001q.034.021.053.061a.2.2 0 0 1 .019.096v.099l.001.061.003.037.061.017L.576 0h-.26L.313-.048l.054-.017.003-.029.002-.036v-.109a.13.13 0 0 0-.01-.057.1.1 0 0 0-.027-.033.1.1 0 0 0-.039-.01.1.1 0 0 0-.041.009.1.1 0 0 0-.034.028v.143a1 1 0 0 0 .005.094l.057.017L.28 0z" style="fill:#e0e0e0;fill-rule:nonzero;stroke:#fff;stroke-width:.01px;stroke-linecap:butt;stroke-miterlimit:2" transform="rotate(8.455 -1472.768 17485.034)scale(83.33332)"/><path d="M.255.008a.22.22 0 0 1-.194-.109.2.2 0 0 1-.028-.109q0-.068.032-.119a.24.24 0 0 1 .084-.082A.2.2 0 0 1 .26-.44q.088 0 .137.053a.2.2 0 0 1 .049.139v.025H.161v-.053H.34l-.018.027v-.038a.1.1 0 0 0-.018-.068Q.286-.381.252-.381a.06.06 0 0 0-.04.013.1.1 0 0 0-.028.038.2.2 0 0 0-.01.066v.023q0 .065.036.105a.12.12 0 0 0 .097.041.2.2 0 0 0 .061-.012.2.2 0 0 0 .052-.041l.032.03a.2.2 0 0 1-.079.094.22.22 0 0 1-.118.032Z" style="fill:#e0e0e0;fill-rule:nonzero;stroke:#fff;stroke-width:.01px;stroke-linecap:butt;stroke-miterlimit:2" transform="scale(83.33327)rotate(9.604 -13.935 188.403)"/><path d="M2725.34 325.28a12.11 12.11 0 0 1 9.546 11.83l.167 251.248a6.356 6.356 0 0 1-7.681 6.219c-340.876-72.483-673.389-69.421-998.548.073a6.042 6.042 0 0 1-7.307-5.906l-.001-251.298a12.37 12.37 0 0 1 9.892-12.121c330.5-67.347 661.758-71.734 993.932-.045" style="fill:none;stroke:#e0e0e0;stroke-width:2.92px"/><path d="M1972.47 781.417s105.854-79.254 267.491-76.337c181.536 3.275 287.391 102.136 287.391 102.136M2706.62 1122.66s26.154 129.624-45.849 274.366c-80.869 162.562-215.592 215.744-215.592 215.744M2057.47 1631.36s-147.309-42.792-238.926-193.237c-102.896-168.967-58.601-334.065-58.601-334.065" style="fill:none;stroke:#e0e0e0;stroke-width:4.17px"/><path d="M.357.009a.36.36 0 0 1-.163-.037.274.274 0 0 1-.153-.25q0-.088.041-.157a.3.3 0 0 1 .112-.108.33.33 0 0 1 .162-.039q.09 0 .158.036a.27.27 0 0 1 .106.101.3.3 0 0 1 .039.149.29.29 0 0 1-.204.287.3.3 0 0 1-.098.018M.363-.07a.1.1 0 0 0 .07-.023.14.14 0 0 0 .041-.068.4.4 0 0 0 .013-.109.4.4 0 0 0-.017-.128.2.2 0 0 0-.05-.084.1.1 0 0 0-.075-.03.11.11 0 0 0-.096.053.27.27 0 0 0-.035.149.4.4 0 0 0 .019.125q.019.054.053.084.033.03.077.031" style="fill:#e0e0e0;fill-rule:nonzero" transform="scale(74.99997)rotate(-72.357 21.473 -8.965)"/><path d="M.063-.029q.002-.032.003-.068l.001-.076.001-.077v-.102L.067-.438.066-.501.064-.546l-.001-.03-.072-.009-.002-.046.2-.051.03.018-.005.079-.003.091-.004.127.003.001a.2.2 0 0 1 .056-.052A.14.14 0 0 1 .34-.44a.18.18 0 0 1 .158.092q.026.045.026.108a.24.24 0 0 1-.125.214.3.3 0 0 1-.148.034.5.5 0 0 1-.188-.037m.213-.045q.04 0 .068-.03.027-.03.027-.104 0-.07-.029-.1A.094.094 0 0 0 .21-.311v.215a.1.1 0 0 0 .031.016.1.1 0 0 0 .035.006" style="fill:#e0e0e0;fill-rule:nonzero" transform="rotate(-67.06 1656.421 -834.527)scale(74.99995)"/><path d="M.016.224-.01.177a.2.2 0 0 0 .068-.07.2.2 0 0 0 .02-.097l.001-.241-.001-.052-.007-.046-.064-.015v-.047l.192-.047.031.017-.004.063-.001.087.002.239a.2.2 0 0 1-.018.081.3.3 0 0 1-.114.135.4.4 0 0 1-.079.04m.136-.731a.1.1 0 0 1-.069-.026.09.09 0 0 1 0-.121q.024-.027.069-.027t.069.027a.1.1 0 0 1 .023.06.1.1 0 0 1-.023.061.1.1 0 0 1-.069.026" style="fill:#e0e0e0;fill-rule:nonzero" transform="rotate(-63.324 1690.896 -967.167)scale(74.99995)"/><path d="M.255.008a.22.22 0 0 1-.194-.109.2.2 0 0 1-.028-.109q0-.068.032-.119a.24.24 0 0 1 .084-.082A.2.2 0 0 1 .26-.44q.088 0 .137.053a.2.2 0 0 1 .049.139v.025H.161v-.053H.34l-.018.027v-.038a.1.1 0 0 0-.018-.068Q.286-.381.252-.381a.06.06 0 0 0-.04.013.1.1 0 0 0-.028.038.2.2 0 0 0-.01.066v.023q0 .065.036.105a.12.12 0 0 0 .097.041.2.2 0 0 0 .061-.012.2.2 0 0 0 .052-.041l.032.03a.2.2 0 0 1-.079.094.22.22 0 0 1-.118.032" style="fill:#e0e0e0;fill-rule:nonzero" transform="scale(74.99997)rotate(-59.469 23.22 -14.69)"/><path d="M.258.008A.23.23 0 0 1 .143-.02a.2.2 0 0 1-.081-.076.216.216 0 0 1 .002-.224.25.25 0 0 1 .219-.12q.042 0 .079.012a.14.14 0 0 1 .058.033q.021.02.022.049 0 .027-.017.04a.06.06 0 0 1-.039.013A.1.1 0 0 1 .351-.3a.1.1 0 0 1-.035-.022L.238-.389l.055.012a.07.07 0 0 0-.05.008.1.1 0 0 0-.041.046.2.2 0 0 0-.016.079q0 .073.036.11a.12.12 0 0 0 .088.037.1.1 0 0 0 .05-.011.2.2 0 0 0 .053-.042l.032.029a.2.2 0 0 1-.079.096.2.2 0 0 1-.108.033" style="fill:#e0e0e0;fill-rule:nonzero" transform="scale(74.99998)rotate(-55.128 24.002 -17.113)"/><path d="M.373-.089a.13.13 0 0 1-.054.072.16.16 0 0 1-.093.027.17.17 0 0 1-.115-.04Q.066-.07.066-.152l.003-.213H0v-.033l.183-.14h.032l-.002.146-.002.229q0 .038.019.053a.08.08 0 0 0 .053.016q.015 0 .033-.007a.1.1 0 0 0 .03-.017zM.165-.365v-.067h.182v.067z" style="fill:#e0e0e0;fill-rule:nonzero" transform="rotate(-51.356 1856.738 -1468.005)scale(74.99992)"/><path d="M.012 0 .009-.05l.064-.015.002-.02.002-.036.001-.04.001-.073-.001-.049L.071-.33.006-.344v-.047l.192-.047.031.017-.005.065-.001.072v.125a1 1 0 0 0 .005.094l.064.015L.289 0zm.14-.507a.1.1 0 0 1-.069-.026.09.09 0 0 1 0-.121q.024-.027.069-.027t.069.027a.1.1 0 0 1 .023.06.1.1 0 0 1-.023.061.1.1 0 0 1-.069.026" style="fill:#e0e0e0;fill-rule:nonzero" transform="scale(74.99996)rotate(-48.327 25.445 -21.806)"/><path d="M.222.004.04-.367l-.046-.017.003-.049h.27l.003.049-.061.017.103.219-.029-.001.095-.218-.061-.017.003-.049h.183l.002.049-.046.017-.19.371z" style="fill:#e0e0e0;fill-rule:nonzero" transform="rotate(-44.699 1984.236 -1851.356)scale(74.99995)"/><path d="M.255.008a.22.22 0 0 1-.194-.109.2.2 0 0 1-.028-.109q0-.068.032-.119a.24.24 0 0 1 .084-.082A.2.2 0 0 1 .26-.44q.088 0 .137.053a.2.2 0 0 1 .049.139v.025H.161v-.053H.34l-.018.027v-.038a.1.1 0 0 0-.018-.068Q.286-.381.252-.381a.06.06 0 0 0-.04.013.1.1 0 0 0-.028.038.2.2 0 0 0-.01.066v.023q0 .065.036.105a.12.12 0 0 0 .097.041.2.2 0 0 0 .061-.012.2.2 0 0 0 .052-.041l.032.03a.2.2 0 0 1-.079.094.22.22 0 0 1-.118.032" style="fill:#e0e0e0;fill-rule:nonzero" transform="scale(74.99992)rotate(-40.563 27.74 -28.738)"/><path d="M.368.009a.4.4 0 0 1-.171-.034.26.26 0 0 1-.114-.098.3.3 0 0 1-.04-.152q0-.074.027-.132a.3.3 0 0 1 .074-.096.3.3 0 0 1 .111-.059.46.46 0 0 1 .304.014l.007.155L.5-.389.463-.496a.19.19 0 0 0-.079-.016.16.16 0 0 0-.088.024.16.16 0 0 0-.056.072.3.3 0 0 0-.02.115q0 .072.023.126a.2.2 0 0 0 .064.082.15.15 0 0 0 .088.029.2.2 0 0 0 .051-.007.1.1 0 0 0 .042-.021l.034-.091.072.007-.029.133a.381.381 0 0 1-.197.052" style="fill:#e0e0e0;fill-rule:nonzero" transform="scale(74.99993)rotate(42.79 3.005 48.713)"/><path d="M.015 0 .012-.048l.06-.017a1 1 0 0 0 .005-.104l.001-.059v-.19l-.001-.06-.002-.054-.002-.043L0-.585l-.002-.046.2-.051.03.018-.006.118-.002.078-.002.107.003.001a.2.2 0 0 1 .066-.06.16.16 0 0 1 .155.001q.034.022.053.061a.2.2 0 0 1 .019.096v.099l.001.061.003.037.061.017L.576 0h-.26L.314-.048l.053-.017.003-.029.002-.036v-.109a.13.13 0 0 0-.01-.057.1.1 0 0 0-.027-.033.1.1 0 0 0-.039-.01.1.1 0 0 0-.041.009.1.1 0 0 0-.034.028v.143a1 1 0 0 0 .005.094l.057.017L.28 0z" style="fill:#e0e0e0;fill-rule:nonzero" transform="scale(74.99995)rotate(47.959 4.421 44.277)"/><path d="M.184.008a.15.15 0 0 1-.08-.02.14.14 0 0 1-.051-.049.1.1 0 0 1-.017-.054.1.1 0 0 1 .021-.061.15.15 0 0 1 .068-.037L.28-.256v-.029a.06.06 0 0 0-.013-.038.1.1 0 0 0-.076-.042.03.03 0 0 0-.019.007.1.1 0 0 0-.007.025l-.006.066A.15.15 0 0 1 .073-.27Q.04-.285.04-.317q0-.02.021-.041A.393.393 0 0 1 .229-.44a.23.23 0 0 1 .144.04.12.12 0 0 1 .053.109l-.002.126.001.045.007.024.065.012v.045l-.07.03-.034.013Q.377.007.362.008q-.041 0-.059-.041L.284-.08l.023.005a.3.3 0 0 1-.062.06.1.1 0 0 1-.061.023M.241-.09a.1.1 0 0 0 .021-.004.1.1 0 0 0 .019-.011v-.093l-.052.006a.06.06 0 0 0-.035.014.04.04 0 0 0-.01.03q0 .022.017.04a.06.06 0 0 0 .04.018" style="fill:#e0e0e0;fill-rule:nonzero" transform="scale(74.99997)rotate(53.115 5.584 40.638)"/><path d="M.012 0 .009-.05l.063-.015a1 1 0 0 0 .005-.104l.001-.059v-.189l-.001-.06-.002-.054-.002-.044L0-.585l-.002-.046L.2-.682l.03.018-.003.078-.002.087v.119l-.001.138.004.177.063.015L.289 0z" style="fill:#e0e0e0;fill-rule:nonzero" transform="rotate(56.642 466.11 2894.639)scale(74.99998)"/><path d="M.012 0 .009-.05l.063-.015a1 1 0 0 0 .005-.104l.001-.059v-.189l-.001-.06-.002-.054-.002-.044L0-.585l-.002-.046L.2-.682l.03.018-.003.078-.002.087v.119l-.001.138.004.177.063.015L.289 0z" style="fill:#e0e0e0;fill-rule:nonzero" transform="scale(74.99994)rotate(59.479 6.718 37.023)"/><path d="M.255.008a.22.22 0 0 1-.194-.109.2.2 0 0 1-.028-.109q0-.068.032-.119a.24.24 0 0 1 .084-.082A.2.2 0 0 1 .26-.44q.088 0 .137.053a.2.2 0 0 1 .049.139v.025H.161v-.053H.34l-.018.027v-.038a.1.1 0 0 0-.018-.068Q.286-.381.252-.381a.06.06 0 0 0-.04.013.1.1 0 0 0-.028.038.2.2 0 0 0-.01.066v.023q0 .065.036.105a.12.12 0 0 0 .097.041.2.2 0 0 0 .061-.012.2.2 0 0 0 .052-.041l.032.03a.2.2 0 0 1-.079.094.22.22 0 0 1-.118.032" style="fill:#e0e0e0;fill-rule:nonzero" transform="rotate(63.257 552.969 2628.733)scale(74.99996)"/><path d="M.015 0 .012-.048l.06-.017.002-.02.002-.036.001-.04.001-.074-.001-.048L.07-.33.008-.344v-.047l.184-.047.031.017-.006.061.003.001A.2.2 0 0 1 .287-.42a.16.16 0 0 1 .155.001q.034.021.053.061a.2.2 0 0 1 .019.096v.099l.001.061.003.037.061.017L.576 0h-.26L.313-.048l.054-.017.003-.029.002-.036v-.109a.13.13 0 0 0-.01-.057.1.1 0 0 0-.027-.033.1.1 0 0 0-.039-.01.1.1 0 0 0-.041.009.1.1 0 0 0-.034.028v.143a1 1 0 0 0 .005.094l.057.017L.28 0z" style="fill:#e0e0e0;fill-rule:nonzero" transform="rotate(68.195 607.357 2462.344)scale(74.99995)"/><path d="M.242.223A.4.4 0 0 1 .074.195Q.014.167.014.117q0-.033.038-.06A.3.3 0 0 1 .15.017L.193.02A.1.1 0 0 0 .16.056a.1.1 0 0 0-.012.042q0 .032.026.048a.16.16 0 0 0 .08.017.15.15 0 0 0 .083-.021Q.371.12.371.09q0-.022-.015-.033A.1.1 0 0 0 .304.042L.17.03.163.025A.14.14 0 0 1 .081.006a.06.06 0 0 1-.029-.05q0-.032.033-.06a.2.2 0 0 1 .09-.042l.017.015-.015.013a.02.02 0 0 0-.006.015q0 .01.005.015a.03.03 0 0 0 .017.007l.162.015q.072.007.107.04a.1.1 0 0 1 .035.083q0 .045-.033.084a.2.2 0 0 1-.091.06.4.4 0 0 1-.131.022m.003-.337a.3.3 0 0 1-.107-.02.15.15 0 0 1-.068-.228.2.2 0 0 1 .075-.059.25.25 0 0 1 .208.001q.045.023.071.061a.14.14 0 0 1 .026.086.14.14 0 0 1-.025.082.2.2 0 0 1-.072.057.3.3 0 0 1-.108.02m.009-.062q.026 0 .042-.026a.14.14 0 0 0 .015-.071.2.2 0 0 0-.016-.078Q.278-.381.25-.38t-.042.028a.14.14 0 0 0-.017.073q0 .045.018.074t.045.029m.248-.17L.366-.361.342-.409l.16-.021z" style="fill:#e0e0e0;fill-rule:nonzero" transform="scale(74.99998)rotate(73.257 8.705 30.901)"/><path d="M.255.008a.22.22 0 0 1-.194-.109.2.2 0 0 1-.028-.109q0-.068.032-.119a.24.24 0 0 1 .084-.082A.2.2 0 0 1 .26-.44q.088 0 .137.053a.2.2 0 0 1 .049.139v.025H.161v-.053H.34l-.018.027v-.038a.1.1 0 0 0-.018-.068Q.286-.381.252-.381a.06.06 0 0 0-.04.013.1.1 0 0 0-.028.038.2.2 0 0 0-.01.066v.023q0 .065.036.105a.12.12 0 0 0 .097.041.2.2 0 0 0 .061-.012.2.2 0 0 0 .052-.041l.032.03a.2.2 0 0 1-.079.094.22.22 0 0 1-.118.032" style="fill:#e0e0e0;fill-rule:nonzero" transform="scale(74.99996)rotate(77.624 9.17 29.413)"/><path d="M.04 0 .037-.052.1-.069v-.024l.001-.041.001-.047v-.17L.101-.424a1 1 0 0 0-.006-.08L.032-.521l.003-.052H.3q.12 0 .175.036.056.036.056.115 0 .048-.03.085a.2.2 0 0 1-.083.059.3.3 0 0 1-.121.022H.229v-.061h.044q.045 0 .074-.03a.1.1 0 0 0 .028-.078.1.1 0 0 0-.023-.067.1.1 0 0 0-.069-.023H.252l-.001.02-.001.039v.285l.002.058.001.044.053.017L.303 0zm.525.012a.3.3 0 0 1-.104-.018.2.2 0 0 1-.08-.055.3.3 0 0 1-.059-.091l-.051-.12L.39-.3l.12.164q.018.024.037.042a.2.2 0 0 0 .087.051L.633.006.599.011z" style="fill:#e0e0e0;fill-rule:nonzero" transform="rotate(12.887 -6353.735 10201.156)scale(75.00001)"/><path d="M.255.008a.22.22 0 0 1-.194-.109.2.2 0 0 1-.028-.109q0-.068.032-.119a.24.24 0 0 1 .084-.082A.2.2 0 0 1 .26-.44q.088 0 .137.053a.2.2 0 0 1 .049.139v.025H.161v-.053H.34l-.018.027v-.038a.1.1 0 0 0-.018-.068Q.286-.381.252-.381a.06.06 0 0 0-.04.013.1.1 0 0 0-.028.038.2.2 0 0 0-.01.066v.023q0 .065.036.105a.12.12 0 0 0 .097.041.2.2 0 0 0 .061-.012.2.2 0 0 0 .052-.041l.032.03a.2.2 0 0 1-.079.094.22.22 0 0 1-.118.032" style="fill:#e0e0e0;fill-rule:nonzero" transform="scale(75.00003)rotate(7.864 -148.947 220.73)"/><path d="M.54.004.365-.367.32-.384l.002-.049h.257l.003.049-.051.017.095.219-.025-.001.098-.218-.051-.017.003-.049h.172l.002.049-.046.017-.192.371zm-.318 0L.043-.367l-.046-.017L0-.433h.253l.003.049-.044.017.098.219-.027-.001.106-.217.038.066-.158.304z" style="fill:#e0e0e0;fill-rule:nonzero" transform="scale(74.99996)rotate(1.262 -1008.355 1339.963)"/><path d="M.184.008a.15.15 0 0 1-.08-.02.14.14 0 0 1-.051-.049.1.1 0 0 1-.017-.054.1.1 0 0 1 .021-.061.15.15 0 0 1 .068-.037L.28-.256v-.029a.06.06 0 0 0-.013-.038.1.1 0 0 0-.076-.042.03.03 0 0 0-.019.007.1.1 0 0 0-.007.025l-.006.066A.15.15 0 0 1 .073-.27Q.04-.285.04-.317q0-.02.021-.041A.393.393 0 0 1 .229-.44a.23.23 0 0 1 .144.04.12.12 0 0 1 .053.109l-.002.126.001.045.007.024.065.012v.045l-.07.03-.034.013Q.377.007.362.008q-.041 0-.059-.041L.284-.08l.023.005a.3.3 0 0 1-.062.06.1.1 0 0 1-.061.023M.241-.09a.1.1 0 0 0 .021-.004.1.1 0 0 0 .019-.011v-.093l-.052.006a.06.06 0 0 0-.035.014.04.04 0 0 0-.01.03q0 .022.017.04a.06.06 0 0 0 .04.018" style="fill:#e0e0e0;fill-rule:nonzero" transform="rotate(-6.081 17042.128 -20384.74)scale(74.99997)"/><path d="M.016 0 .013-.048l.06-.017.002-.02.002-.037.001-.039.001-.073-.001-.048L.071-.33.009-.344v-.047L.19-.438l.03.017-.004.078.003.001a.2.2 0 0 1 .055-.075.1.1 0 0 1 .061-.02q.027 0 .049.016.021.016.021.051 0 .033-.023.053a.08.08 0 0 1-.053.02.1.1 0 0 1-.045-.009.14.14 0 0 1-.044-.033l.032.002a.1.1 0 0 0-.027.025.2.2 0 0 0-.022.034l.001.073.002.069.002.048.001.022.085.016L.311 0z" style="fill:#e0e0e0;fill-rule:nonzero" transform="scale(74.99997)rotate(-11.137 130.607 -145.51)"/><path d="M.371.013.34-.002l.001-.064-.003-.002a.15.15 0 0 1-.053.061.13.13 0 0 1-.062.017.2.2 0 0 1-.093-.026.2.2 0 0 1-.071-.074.2.2 0 0 1-.027-.112.23.23 0 0 1 .077-.173.2.2 0 0 1 .078-.047.25.25 0 0 1 .121-.014l.027.007V-.47L.334-.511.333-.548.331-.577.26-.586.258-.631l.199-.051.03.018-.006.11-.003.103-.001.228a1 1 0 0 0 .006.128l.066.013v.046zM.278-.094a.1.1 0 0 0 .03-.009.07.07 0 0 0 .029-.028v-.221A.1.1 0 0 0 .311-.37a.084.084 0 0 0-.1.031.16.16 0 0 0-.027.099q0 .072.028.109.028.036.066.037" style="fill:#e0e0e0;fill-rule:nonzero" transform="scale(75.00001)rotate(-16.653 92.059 -94.535)"/><path d="m1735.51 1124.62 25.049-24.835 15.374 31.746M2480.1 1617.9l-34.929-4.913 15.969-31.451M2523.96 775.023l5.942 34.77-34.818-5.649" style="fill:none;stroke:#e0e0e0;stroke-width:4.17px"/></svg>