<svg xmlns="http://www.w3.org/2000/svg" xml:space="preserve" style="fill-rule:evenodd;clip-rule:evenodd;stroke-linecap:round;stroke-linejoin:round;stroke-miterlimit:1.5" viewBox="0 0 4461 4522"><path d="M0 23562.2h4460.42v4521.79H0z" style="fill:none" transform="translate(0 -23562.176)"/><path d="M10371.5 23678.3c-11.6 42.1-23.1 84.2-34.6 126.2" style="fill:#353535;stroke:#000;stroke-width:2.75px" transform="matrix(.96547 -1.35378 .60402 .43077 -22287.4 7401.324)"/><path d="M10373 23682.3c-13.6 38.7-27.1 77.3-40.7 115.9" style="fill:#353535;stroke:#000;stroke-width:3.37px" transform="matrix(1.25563 -.08115 .05085 .78683 -11660.5 -14225.336)"/><path d="M6590.32 11330.3v158.8c0 2.9-1.69 5.2-3.79 5.2h-215.14c-2.09 0-3.79-2.3-3.79-5.2v-158.8c0-2.9 1.7-5.2 3.79-5.2h215.14c2.1 0 3.79 2.3 3.79 5.2" style="fill:none;stroke:#000;stroke-width:.33px" transform="matrix(10.2182 0 0 7.46928 -63973.3 -81577.876)"/><path d="M.003 0 .001-.037l.048-.014.201-.506.057-.034.213.54.048.014L.565 0H.368L.366-.037l.06-.014-.058-.144-.011-.031-.106-.265.022-.013-.101.278-.011.03-.052.145.06.014L.167 0zM.14-.181v-.051l.05.002.08.001.078-.001.05-.002v.051L.333-.182.27-.183l-.062.001z" style="fill-rule:nonzero" transform="translate(1260.898 3277.107)scale(66.6667)"/><path d="M.028.215.026.18.087.165V.148L.089.116.09.069.091.006l.002-.241a1 1 0 0 0-.008-.109L.022-.357V-.39l.131-.036.017.016-.005.054h.003a.2.2 0 0 1 .06-.054.14.14 0 0 1 .071-.018.177.177 0 0 1 .16.1.23.23 0 0 1 .024.107.23.23 0 0 1-.029.117.22.22 0 0 1-.242.106.2.2 0 0 1-.045-.012v.073a1 1 0 0 0 .004.102l.08.013-.002.037zm.236-.256A.12.12 0 0 0 .333-.06a.12.12 0 0 0 .046-.054.2.2 0 0 0 .018-.088.2.2 0 0 0-.015-.083.13.13 0 0 0-.045-.057.1.1 0 0 0-.066-.021.1.1 0 0 0-.056.014.14.14 0 0 0-.048.041v.237a.2.2 0 0 0 .045.022.2.2 0 0 0 .052.008" style="fill-rule:nonzero" transform="translate(1298.789 3277.107)scale(66.6667)"/><path d="M.028.215.026.18.087.165V.148L.089.116.09.069.091.006l.002-.241a1 1 0 0 0-.008-.109L.022-.357V-.39l.131-.036.017.016-.005.054h.003a.2.2 0 0 1 .06-.054.14.14 0 0 1 .071-.018.177.177 0 0 1 .16.1.23.23 0 0 1 .024.107.23.23 0 0 1-.029.117.22.22 0 0 1-.242.106.2.2 0 0 1-.045-.012v.073a1 1 0 0 0 .004.102l.08.013-.002.037zm.236-.256A.12.12 0 0 0 .333-.06a.12.12 0 0 0 .046-.054.2.2 0 0 0 .018-.088.2.2 0 0 0-.015-.083.13.13 0 0 0-.045-.057.1.1 0 0 0-.066-.021.1.1 0 0 0-.056.014.14.14 0 0 0-.048.041v.237a.2.2 0 0 0 .045.022.2.2 0 0 0 .052.008" style="fill-rule:nonzero" transform="translate(1333.75 3277.107)scale(66.6667)"/><path d="M.032 0 .029-.035.09-.05l.002-.017.001-.035.001-.052.001-.076a1 1 0 0 0-.008-.114L.024-.357V-.39l.131-.036.014.014-.004.082.003.001a.2.2 0 0 1 .06-.077.1.1 0 0 1 .056-.02q.023 0 .038.011a.04.04 0 0 1 .015.034q0 .024-.016.036a.07.07 0 0 1-.041.012.1.1 0 0 1-.033-.008.1.1 0 0 1-.031-.021l.017.006a.1.1 0 0 0-.035.032.2.2 0 0 0-.03.053l.001.09.002.051.002.047.002.033.085.013L.258 0z" style="fill-rule:nonzero" transform="translate(1368.711 3277.107)scale(66.6667)"/><path d="M.242.008A.2.2 0 0 1 .14-.018.2.2 0 0 1 .068-.09a.2.2 0 0 1-.027-.112q0-.069.028-.12a.2.2 0 0 1 .075-.079.2.2 0 0 1 .098-.027.15.15 0 0 1 .119.051q.043.05.043.141v.017h-.3v-.043H.34l-.011.013V-.27q0-.056-.025-.086a.08.08 0 0 0-.07-.031.1.1 0 0 0-.052.016.1.1 0 0 0-.041.049.2.2 0 0 0-.016.083v.011q0 .081.04.125.039.045.102.045a.14.14 0 0 0 .061-.013.2.2 0 0 0 .053-.044l.024.022a.176.176 0 0 1-.163.101m.012-.479L.215-.483l.097-.178.078.022z" style="fill-rule:nonzero" transform="translate(1390.976 3277.107)scale(66.6667)"/><path d="M.241.008a.2.2 0 0 1-.174-.097.23.23 0 0 1-.027-.113q0-.063.029-.115a.215.215 0 0 1 .192-.111q.042 0 .072.011t.044.028a.05.05 0 0 1 .016.037.04.04 0 0 1-.01.026.04.04 0 0 1-.028.011.1.1 0 0 1-.027-.006A.1.1 0 0 1 .3-.345l-.05-.05.035.01a.1.1 0 0 0-.075.008.13.13 0 0 0-.06.055.2.2 0 0 0-.023.102q0 .078.04.12a.13.13 0 0 0 .099.042.14.14 0 0 0 .064-.013.2.2 0 0 0 .051-.044l.026.022a.2.2 0 0 1-.069.076.2.2 0 0 1-.097.025" style="fill-rule:nonzero" transform="translate(1420.273 3277.107)scale(66.6667)"/><path d="M.026 0 .024-.036.09-.05l.001-.013.002-.032.001-.059v-.065L.092-.292.087-.344.021-.357V-.39L.16-.426l.015.014-.005.059-.001.069v.123l.005.111.065.014L.237 0zm.106-.536a.06.06 0 0 1-.043-.017.05.05 0 0 1-.018-.041q0-.024.018-.041a.06.06 0 0 1 .043-.016q.025 0 .042.016a.06.06 0 0 1 .016.041q0 .025-.016.041a.06.06 0 0 1-.042.017" style="fill-rule:nonzero" transform="translate(1447.943 3277.107)scale(66.6667)"/><path d="M.191.008a.14.14 0 0 1-.116-.056.1.1 0 0 1-.017-.051q0-.033.021-.054a.2.2 0 0 1 .07-.037l.149-.05v-.05a.07.07 0 0 0-.015-.044.1.1 0 0 0-.039-.032.1.1 0 0 0-.055-.012q-.024 0-.033.01t-.01.041l-.002.041a.1.1 0 0 1-.06-.003Q.06-.299.06-.322q0-.017.014-.033a.2.2 0 0 1 .037-.032.3.3 0 0 1 .105-.041q.072 0 .116.038a.13.13 0 0 1 .044.1l-.002.164.001.036.005.027.062.011v.031l-.047.017-.026.008L.35.008q-.032 0-.039-.034L.3-.064h.014a.3.3 0 0 1-.062.054.1.1 0 0 1-.061.018M.218-.05A.1.1 0 0 0 .26-.06a.1.1 0 0 0 .038-.032v-.102l-.11.029a.06.06 0 0 0-.033.019.05.05 0 0 0-.01.032q0 .024.022.044t.051.02" style="fill-rule:nonzero" transform="translate(1465.39 3277.107)scale(66.6667)"/><path d="M.337-.061a.13.13 0 0 1-.051.051.14.14 0 0 1-.067.018.14.14 0 0 1-.098-.036Q.083-.064.083-.137L.086-.37H.018v-.021l.126-.114h.018L.16-.393l-.001.241q0 .051.022.075a.08.08 0 0 0 .062.024.108.108 0 0 0 .076-.032zM.125-.37v-.049h.183v.049z" style="fill-rule:nonzero" transform="translate(1496.25 3277.107)scale(66.6667)"/><path d="M.026 0 .024-.036.09-.05l.001-.013.002-.032.001-.059v-.065L.092-.292.087-.344.021-.357V-.39L.16-.426l.015.014-.005.059-.001.069v.123l.005.111.065.014L.237 0zm.106-.536a.06.06 0 0 1-.043-.017.05.05 0 0 1-.018-.041q0-.024.018-.041a.06.06 0 0 1 .043-.016q.025 0 .042.016a.06.06 0 0 1 .016.041q0 .025-.016.041a.06.06 0 0 1-.042.017" style="fill-rule:nonzero" transform="translate(1518.32 3277.107)scale(66.6667)"/><path d="M.251.008A.2.2 0 0 1 .14-.02a.2.2 0 0 1-.074-.076.24.24 0 0 1-.026-.113q0-.066.029-.115a.212.212 0 0 1 .186-.104q.06 0 .106.027.045.027.07.075.025.049.025.113a.22.22 0 0 1-.101.191.2.2 0 0 1-.104.03m.01-.046a.1.1 0 0 0 .057-.02.12.12 0 0 0 .038-.056.2.2 0 0 0 .014-.081.24.24 0 0 0-.035-.137Q.301-.383.244-.384A.1.1 0 0 0 .16-.34a.2.2 0 0 0-.032.116q0 .055.017.097t.047.065a.1.1 0 0 0 .069.024" style="fill-rule:nonzero" transform="translate(1535.768 3277.107)scale(66.6667)"/><path d="M.03 0 .028-.035.089-.05.09-.068l.002-.033.001-.053.001-.075a1 1 0 0 0-.008-.115L.023-.357V-.39l.131-.036.017.016-.005.052.003.001a.2.2 0 0 1 .067-.054.2.2 0 0 1 .073-.017.13.13 0 0 1 .119.074q.02.037.02.094v.109a1 1 0 0 0 .006.101l.061.015L.512 0H.315L.313-.035.37-.05l.002-.019.002-.03V-.25a.14.14 0 0 0-.015-.07.1.1 0 0 0-.038-.037.1.1 0 0 0-.046-.011.1.1 0 0 0-.06.016.2.2 0 0 0-.047.044v.147l.001.073.004.038.06.015L.23 0z" style="fill-rule:nonzero" transform="translate(1568.841 3277.107)scale(66.6667)"/><path d="M.055-.573h.169l.205.468H.411l.201-.468h.159l.002.037-.06.013-.001.051.002.08.004.179a2 2 0 0 0 .006.163l.059.013L.781 0H.574L.571-.037l.06-.013.001-.027v-.044L.631-.198.629-.545h.025L.418.003H.384L.142-.546h.025l.001.332v.118l.002.045.066.014L.233 0H.042L.039-.037l.066-.014.002-.025.001-.049.001-.073.003-.194.001-.078-.001-.052-.059-.014z" style="fill-rule:nonzero" transform="translate(1365 3347.94)scale(66.6667)"/><path d="m.444-.068.062.015v.032L.379.011.364-.002l.001-.061-.003-.001a.2.2 0 0 1-.058.056.155.155 0 0 1-.173-.025Q.087-.073.087-.154v-.084L.085-.292.082-.344.016-.357V-.39l.132-.036.018.016-.003.064-.001.072-.001.107q0 .06.028.086a.1.1 0 0 0 .073.026.114.114 0 0 0 .101-.06v-.156l-.002-.04-.003-.033-.071-.013V-.39l.138-.036.014.014-.001.049v.159q0 .054.002.086z" style="fill-rule:nonzero" transform="translate(1420.338 3347.94)scale(66.6667)"/><path d="M.191.008A.4.4 0 0 1 .119 0a.3.3 0 0 1-.061-.022L.053-.127h.048l.019.07a.13.13 0 0 0 .078.024q.033 0 .054-.016a.05.05 0 0 0 .02-.044.06.06 0 0 0-.018-.044.2.2 0 0 0-.072-.042.3.3 0 0 1-.098-.058.1.1 0 0 1-.028-.072q0-.035.021-.062a.13.13 0 0 1 .058-.042.2.2 0 0 1 .086-.015.4.4 0 0 1 .102.018l.011.101H.288L.265-.375.241-.384a.1.1 0 0 0-.029-.004.1.1 0 0 0-.055.016.05.05 0 0 0-.02.042q0 .029.022.047a.5.5 0 0 0 .079.045.3.3 0 0 1 .09.057.103.103 0 0 1-.02.155.2.2 0 0 1-.117.034" style="fill-rule:nonzero" transform="translate(1455.69 3347.94)scale(66.6667)"/><path d="M.026 0 .024-.036.09-.05l.001-.013.002-.032.001-.059v-.065L.092-.292.087-.344.021-.357V-.39L.16-.426l.015.014-.005.059-.001.069v.123l.005.111.065.014L.237 0zm.106-.536a.06.06 0 0 1-.043-.017.05.05 0 0 1-.018-.041q0-.024.018-.041a.06.06 0 0 1 .043-.016q.025 0 .042.016a.06.06 0 0 1 .016.041q0 .025-.016.041a.06.06 0 0 1-.042.017" style="fill-rule:nonzero" transform="translate(1481.862 3347.94)scale(66.6667)"/><path d="M.241.008a.2.2 0 0 1-.174-.097.23.23 0 0 1-.027-.113q0-.063.029-.115a.215.215 0 0 1 .192-.111q.042 0 .072.011t.044.028a.05.05 0 0 1 .016.037.04.04 0 0 1-.01.026.04.04 0 0 1-.028.011.1.1 0 0 1-.027-.006A.1.1 0 0 1 .3-.345l-.05-.05.035.01a.1.1 0 0 0-.075.008.13.13 0 0 0-.06.055.2.2 0 0 0-.023.102q0 .078.04.12a.13.13 0 0 0 .099.042.14.14 0 0 0 .064-.013.2.2 0 0 0 .051-.044l.026.022a.2.2 0 0 1-.069.076.2.2 0 0 1-.097.025" style="fill-rule:nonzero" transform="translate(1499.31 3347.94)scale(66.6667)"/><path d="M.191.008a.14.14 0 0 1-.116-.056.1.1 0 0 1-.017-.051q0-.033.021-.054a.2.2 0 0 1 .07-.037l.149-.05v-.05a.07.07 0 0 0-.015-.044.1.1 0 0 0-.039-.032.1.1 0 0 0-.055-.012q-.024 0-.033.01t-.01.041l-.002.041a.1.1 0 0 1-.06-.003Q.06-.299.06-.322q0-.017.014-.033a.2.2 0 0 1 .037-.032.3.3 0 0 1 .105-.041q.072 0 .116.038a.13.13 0 0 1 .044.1l-.002.164.001.036.005.027.062.011v.031l-.047.017-.026.008L.35.008q-.032 0-.039-.034L.3-.064h.014a.3.3 0 0 1-.062.054.1.1 0 0 1-.061.018M.218-.05A.1.1 0 0 0 .26-.06a.1.1 0 0 0 .038-.032v-.102l-.11.029a.06.06 0 0 0-.033.019.05.05 0 0 0-.01.032q0 .024.022.044t.051.02" style="fill-rule:nonzero" transform="translate(1526.979 3347.94)scale(66.6667)"/><path d="M.027 0 .025-.036.089-.05l.003-.032.001-.06.001-.09v-.122L.093-.431.092-.504l-.001-.06L.09-.597.018-.606.016-.638l.139-.04.019.014-.002.082-.002.091v.12l-.001.157a3 3 0 0 0 .005.164l.063.014L.235 0z" style="fill-rule:nonzero" transform="translate(1557.838 3347.94)scale(66.6667)"/><path d="M.242.008A.2.2 0 0 1 .14-.018.2.2 0 0 1 .068-.09a.2.2 0 0 1-.027-.112q0-.069.028-.12a.2.2 0 0 1 .075-.079.2.2 0 0 1 .098-.027.15.15 0 0 1 .119.051q.043.05.043.141v.017h-.3v-.043H.34l-.011.013V-.27q0-.056-.025-.086a.08.08 0 0 0-.07-.031.1.1 0 0 0-.052.016.1.1 0 0 0-.041.049.2.2 0 0 0-.016.083v.011q0 .081.04.125.039.045.102.045a.14.14 0 0 0 .061-.013.2.2 0 0 0 .053-.044l.024.022a.176.176 0 0 1-.163.101" style="fill-rule:nonzero" transform="translate(1575.351 3347.94)scale(66.6667)"/><path d="m2102.91 1178.26 184.39-368.786 184.4 368.786" style="fill:none;stroke:#000;stroke-width:63.4px" transform="matrix(.11422 0 0 .07994 1402.78 3124.924)"/><path d="M10411.5 11883h1043.3" style="fill:none;stroke:#000;stroke-width:8.06px" transform="matrix(0 .78745 -.763 0 10730.8 -5008.976)"/><path d="m2102.91 1178.26 184.39-368.786 184.4 368.786" style="fill:none;stroke:#000;stroke-width:63.4px" transform="matrix(0 .11422 -.07994 0 3016.1 3749.924)"/><path d="M10411.5 11883h1043.3" style="fill:none;stroke:#000;stroke-width:5.14px" transform="matrix(-1.23391 0 0 -1.19561 15798.3 18218.624)"/><path d="M.475.005.424.001.383 0H.048L.045-.037l.06-.014q.003-.005.003-.022l.001-.048v-.332L.108-.501q0-.018-.003-.021l-.06-.014.003-.037h.313L.39-.574l.033-.001.036-.002.02.129-.044.007-.033-.082-.017-.003H.221l-.028.003-.001.063-.001.047v.264l.001.039.001.036v.021l.029.002.034.001h.13l.021-.002.013-.002.051-.092.044.008zM.366-.2.354-.267.338-.27.31-.271H.235L.208-.27l-.031.002v-.053l.031.001.027.001H.31L.338-.32l.016-.002.012-.068h.042v.19z" style="fill-rule:nonzero" transform="translate(2681.799 4121.607)scale(66.6667)"/><path d="M.452 0H.273L.271-.035.317-.05.221-.18.195-.21.074-.37.028-.385.03-.42h.175l.003.035-.041.015.082.111.025.031.134.178.046.015zM.331-.37.29-.385.293-.42h.139l.003.035-.046.015-.115.142-.053.048-.094.13.046.015L.171 0H.026L.024-.035.07-.05l.125-.16.054-.049z" style="fill-rule:nonzero" transform="translate(2716.89 4121.607)scale(66.6667)"/><path d="M.028.215.026.18.087.165V.148L.089.116.09.069.091.006l.002-.241a1 1 0 0 0-.008-.109L.022-.357V-.39l.131-.036.017.016-.005.054h.003a.2.2 0 0 1 .06-.054.14.14 0 0 1 .071-.018.177.177 0 0 1 .16.1.23.23 0 0 1 .024.107.23.23 0 0 1-.029.117.22.22 0 0 1-.242.106.2.2 0 0 1-.045-.012v.073a1 1 0 0 0 .004.102l.08.013-.002.037zm.236-.256A.12.12 0 0 0 .333-.06a.12.12 0 0 0 .046-.054.2.2 0 0 0 .018-.088.2.2 0 0 0-.015-.083.13.13 0 0 0-.045-.057.1.1 0 0 0-.066-.021.1.1 0 0 0-.056.014.14.14 0 0 0-.048.041v.237a.2.2 0 0 0 .045.022.2.2 0 0 0 .052.008" style="fill-rule:nonzero" transform="translate(2748.205 4121.607)scale(66.6667)"/><path d="M.251.008A.2.2 0 0 1 .14-.02a.2.2 0 0 1-.074-.076.24.24 0 0 1-.026-.113q0-.066.029-.115a.212.212 0 0 1 .186-.104q.06 0 .106.027.045.027.07.075.025.049.025.113a.22.22 0 0 1-.101.191.2.2 0 0 1-.104.03m.01-.046a.1.1 0 0 0 .057-.02.12.12 0 0 0 .038-.056.2.2 0 0 0 .014-.081.24.24 0 0 0-.035-.137Q.301-.383.244-.384A.1.1 0 0 0 .16-.34a.2.2 0 0 0-.032.116q0 .055.017.097t.047.065a.1.1 0 0 0 .069.024" style="fill-rule:nonzero" transform="translate(2783.166 4121.607)scale(66.6667)"/><path d="M.191.008A.4.4 0 0 1 .119 0a.3.3 0 0 1-.061-.022L.053-.127h.048l.019.07a.13.13 0 0 0 .078.024q.033 0 .054-.016a.05.05 0 0 0 .02-.044.06.06 0 0 0-.018-.044.2.2 0 0 0-.072-.042.3.3 0 0 1-.098-.058.1.1 0 0 1-.028-.072q0-.035.021-.062a.13.13 0 0 1 .058-.042.2.2 0 0 1 .086-.015.4.4 0 0 1 .102.018l.011.101H.288L.265-.375.241-.384a.1.1 0 0 0-.029-.004.1.1 0 0 0-.055.016.05.05 0 0 0-.02.042q0 .029.022.047a.5.5 0 0 0 .079.045.3.3 0 0 1 .09.057.103.103 0 0 1-.02.155.2.2 0 0 1-.117.034" style="fill-rule:nonzero" transform="translate(2816.239 4121.607)scale(66.6667)"/><path d="M.026 0 .024-.036.09-.05l.001-.013.002-.032.001-.059v-.065L.092-.292.087-.344.021-.357V-.39L.16-.426l.015.014-.005.059-.001.069v.123l.005.111.065.014L.237 0zm.106-.536a.06.06 0 0 1-.043-.017.05.05 0 0 1-.018-.041q0-.024.018-.041a.06.06 0 0 1 .043-.016q.025 0 .042.016a.06.06 0 0 1 .016.041q0 .025-.016.041a.06.06 0 0 1-.042.017" style="fill-rule:nonzero" transform="translate(2842.411 4121.607)scale(66.6667)"/><path d="M.337-.061a.13.13 0 0 1-.051.051.14.14 0 0 1-.067.018.14.14 0 0 1-.098-.036Q.083-.064.083-.137L.086-.37H.018v-.021l.126-.114h.018L.16-.393l-.001.241q0 .051.022.075a.08.08 0 0 0 .062.024.108.108 0 0 0 .076-.032zM.125-.37v-.049h.183v.049z" style="fill-rule:nonzero" transform="translate(2859.859 4121.607)scale(66.6667)"/><path d="M.026 0 .024-.036.09-.05l.001-.013.002-.032.001-.059v-.065L.092-.292.087-.344.021-.357V-.39L.16-.426l.015.014-.005.059-.001.069v.123l.005.111.065.014L.237 0zm.106-.536a.06.06 0 0 1-.043-.017.05.05 0 0 1-.018-.041q0-.024.018-.041a.06.06 0 0 1 .043-.016q.025 0 .042.016a.06.06 0 0 1 .016.041q0 .025-.016.041a.06.06 0 0 1-.042.017" style="fill-rule:nonzero" transform="translate(2881.929 4121.607)scale(66.6667)"/><path d="M.251.008A.2.2 0 0 1 .14-.02a.2.2 0 0 1-.074-.076.24.24 0 0 1-.026-.113q0-.066.029-.115a.212.212 0 0 1 .186-.104q.06 0 .106.027.045.027.07.075.025.049.025.113a.22.22 0 0 1-.101.191.2.2 0 0 1-.104.03m.01-.046a.1.1 0 0 0 .057-.02.12.12 0 0 0 .038-.056.2.2 0 0 0 .014-.081.24.24 0 0 0-.035-.137Q.301-.383.244-.384A.1.1 0 0 0 .16-.34a.2.2 0 0 0-.032.116q0 .055.017.097t.047.065a.1.1 0 0 0 .069.024" style="fill-rule:nonzero" transform="translate(2899.377 4121.607)scale(66.6667)"/><path d="M.03 0 .028-.035.089-.05.09-.068l.002-.033.001-.053.001-.075a1 1 0 0 0-.008-.115L.023-.357V-.39l.131-.036.017.016-.005.052.003.001a.2.2 0 0 1 .067-.054.2.2 0 0 1 .073-.017.13.13 0 0 1 .119.074q.02.037.02.094v.109a1 1 0 0 0 .006.101l.061.015L.512 0H.315L.313-.035.37-.05l.002-.019.002-.03V-.25a.14.14 0 0 0-.015-.07.1.1 0 0 0-.038-.037.1.1 0 0 0-.046-.011.1.1 0 0 0-.06.016.2.2 0 0 0-.047.044v.147l.001.073.004.038.06.015L.23 0z" style="fill-rule:nonzero" transform="translate(2932.45 4121.607)scale(66.6667)"/><path d="M9264.61 21555.6c79.28-134.4 237.84-403.1 630.56-402.4 331.23.6 496.13 233.7 578.63 350.3" style="fill:none;stroke:#000;stroke-width:3.47px;stroke-dasharray:6.94,.17,0,13.88,13.88,0;stroke-dashoffset:13.88" transform="translate(-7793.37 -17992.966)scale(1.02081)"/><path d="M.493.005.455.003.405.001.362 0H.135L.096.001.058.003v-.051l.309-.509v.041H.2l-.047.001-.032.004-.019.1h-.06L.04-.576a1 1 0 0 0 .096.003h.279l.038-.001.038-.001v.05l-.303.503v-.04h.183l.028-.001.024-.003.041-.111.059.008z" style="fill-rule:nonzero" transform="scale(75)rotate(-6.109 451.504 -248.646)"/><path d="M.263.008A.24.24 0 0 1 .144-.02a.2.2 0 0 1-.081-.077.2.2 0 0 1-.029-.113q0-.072.033-.123A.2.2 0 0 1 .153-.41a.25.25 0 0 1 .229.001.2.2 0 0 1 .104.189.23.23 0 0 1-.11.198.2.2 0 0 1-.113.03m.011-.062A.06.06 0 0 0 .315-.07a.1.1 0 0 0 .026-.046.305.305 0 0 0-.017-.21Q.297-.378.252-.378q-.036 0-.059.038a.2.2 0 0 0-.022.102.3.3 0 0 0 .014.094.2.2 0 0 0 .036.065.07.07 0 0 0 .053.025" style="fill-rule:nonzero" transform="rotate(-3.716 54950.975 -32423.979)scale(75)"/><path d="M.018 0 .015-.045l.061-.016.002-.018.002-.035.001-.045.001-.074L.08-.286Q.078-.308.073-.333L.011-.347V-.39l.171-.045.027.017-.006.058.003.001A.175.175 0 0 1 .35-.437q.042 0 .075.021t.053.06a.2.2 0 0 1 .019.096v.1a1 1 0 0 0 .005.099l.06.016L.559 0H.315L.312-.045l.055-.016.003-.026.002-.035v-.12a.14.14 0 0 0-.011-.059.07.07 0 0 0-.03-.034.1.1 0 0 0-.041-.011.105.105 0 0 0-.083.043v.143a1 1 0 0 0 .005.099l.059.016L.268 0z" style="fill-rule:nonzero" transform="rotate(-1.29 156117.034 -98421.845)scale(75.00002)"/><path d="M.252.008a.2.2 0 0 1-.113-.029.2.2 0 0 1-.077-.077.2.2 0 0 1-.028-.11q0-.068.032-.119a.2.2 0 0 1 .081-.081.2.2 0 0 1 .108-.029q.086 0 .133.054a.2.2 0 0 1 .047.138v.023H.148v-.051h.191l-.015.024v-.034a.12.12 0 0 0-.02-.072.07.07 0 0 0-.057-.027.1.1 0 0 0-.044.013.1.1 0 0 0-.031.041.2.2 0 0 0-.011.07v.02a.16.16 0 0 0 .037.111.12.12 0 0 0 .098.042.13.13 0 0 0 .061-.013.2.2 0 0 0 .053-.041l.03.028a.2.2 0 0 1-.077.089.2.2 0 0 1-.111.03" style="fill-rule:nonzero" transform="rotate(1.085 -183199.125 123192.276)scale(75.00004)"/><path d="M.371.012.345-.002l.001-.063-.003-.002a.16.16 0 0 1-.055.06.13.13 0 0 1-.062.016.2.2 0 0 1-.096-.026.2.2 0 0 1-.07-.073.2.2 0 0 1-.026-.11.23.23 0 0 1 .074-.173.26.26 0 0 1 .163-.063q.018 0 .038.004a.1.1 0 0 1 .032.01v-.041L.34-.509.339-.551.337-.58.264-.591.262-.633l.186-.048.026.017-.005.112q-.003.051-.003.108l-.001.226q0 .048.003.078l.004.052.065.014v.042zM.272-.084a.086.086 0 0 0 .07-.042v-.218A.1.1 0 0 0 .311-.37a.1.1 0 0 0-.037-.007.09.09 0 0 0-.076.038.16.16 0 0 0-.03.105q0 .072.031.111a.09.09 0 0 0 .073.039" style="fill-rule:nonzero" transform="scale(75.00003)rotate(4.527 -573.123 419.318)"/><path d="M.252.008a.2.2 0 0 1-.113-.029.2.2 0 0 1-.077-.077.2.2 0 0 1-.028-.11q0-.068.032-.119a.2.2 0 0 1 .081-.081.2.2 0 0 1 .108-.029q.086 0 .133.054a.2.2 0 0 1 .047.138v.023H.148v-.051h.191l-.015.024v-.034a.12.12 0 0 0-.02-.072.07.07 0 0 0-.057-.027.1.1 0 0 0-.044.013.1.1 0 0 0-.031.041.2.2 0 0 0-.011.07v.02a.16.16 0 0 0 .037.111.12.12 0 0 0 .098.042.13.13 0 0 0 .061-.013.2.2 0 0 0 .053-.041l.03.028a.2.2 0 0 1-.077.089.2.2 0 0 1-.111.03" style="fill-rule:nonzero" transform="rotate(7.264 -26331.817 20568.048)scale(75.00002)"/><path d="M.474.004.442.002.41 0H.099L.064.002v-.035l.321-.526.002.033h-.22l-.036.001-.027.003-.014.098H.049l-.002-.15.043.001h.306l.037-.001.037-.001v.035l-.319.523V-.05h.228l.019-.001.018-.002.041-.108.04.005z" style="fill-rule:nonzero" transform="rotate(15.596 -12269.525 10779.236)scale(66.66682)"/><path d="M.251.008A.2.2 0 0 1 .14-.02a.2.2 0 0 1-.074-.076.24.24 0 0 1-.026-.113q0-.066.029-.115a.212.212 0 0 1 .186-.104q.06 0 .106.027.045.027.07.075.025.049.025.113a.22.22 0 0 1-.101.191.2.2 0 0 1-.104.03m.01-.046a.1.1 0 0 0 .057-.02.12.12 0 0 0 .038-.056.2.2 0 0 0 .014-.081.24.24 0 0 0-.035-.137Q.301-.383.244-.384A.1.1 0 0 0 .16-.34a.2.2 0 0 0-.032.116q0 .055.017.097t.047.065a.1.1 0 0 0 .069.024" style="fill-rule:nonzero" transform="rotate(19.824 -9361.331 8947.858)scale(66.66685)"/><path d="M.03 0 .028-.035.089-.05.09-.068l.002-.033.001-.053.001-.075a1 1 0 0 0-.008-.115L.023-.357V-.39l.131-.036.017.016-.005.052.003.001a.2.2 0 0 1 .067-.054.2.2 0 0 1 .073-.017.13.13 0 0 1 .119.074q.02.037.02.094v.109a1 1 0 0 0 .006.101l.061.015L.512 0H.315L.313-.035.37-.05l.002-.019.002-.03V-.25a.14.14 0 0 0-.015-.07.1.1 0 0 0-.038-.037.1.1 0 0 0-.046-.011.1.1 0 0 0-.06.016.2.2 0 0 0-.047.044v.147l.001.073.004.038.06.015L.23 0z" style="fill-rule:nonzero" transform="rotate(23.549 -7658.632 7881.034)scale(66.66681)"/><path d="M.242.008A.2.2 0 0 1 .14-.018.2.2 0 0 1 .068-.09a.2.2 0 0 1-.027-.112q0-.069.028-.12a.2.2 0 0 1 .075-.079.2.2 0 0 1 .098-.027.15.15 0 0 1 .119.051q.043.05.043.141v.017h-.3v-.043H.34l-.011.013V-.27q0-.056-.025-.086a.08.08 0 0 0-.07-.031.1.1 0 0 0-.052.016.1.1 0 0 0-.041.049.2.2 0 0 0-.016.083v.011q0 .081.04.125.039.045.102.045a.14.14 0 0 0 .061-.013.2.2 0 0 0 .053-.044l.024.022a.176.176 0 0 1-.163.101" style="fill-rule:nonzero" transform="rotate(26.766 -6568.124 7210.902)scale(66.66686)"/><path d="M.374.011.359-.002.36-.065.357-.066a.2.2 0 0 1-.06.057.13.13 0 0 1-.065.017.184.184 0 0 1-.168-.098.244.244 0 0 1 .041-.274.22.22 0 0 1 .151-.064q.027 0 .056.007a.1.1 0 0 1 .047.022v-.046L.358-.504.357-.559.355-.592.279-.605.277-.638l.144-.04.017.014-.002.117-.001.118-.001.225q0 .05.002.085l.003.051.063.015v.032zM.257-.058A.1.1 0 0 0 .31-.07a.2.2 0 0 0 .049-.043v-.21A.1.1 0 0 0 .313-.37a.13.13 0 0 0-.057-.014.11.11 0 0 0-.096.046.2.2 0 0 0-.035.117q0 .078.039.12a.12.12 0 0 0 .093.043" style="fill-rule:nonzero" transform="scale(66.66682)rotate(30.976 -82.133 97.975)"/><path d="M.242.008A.2.2 0 0 1 .14-.018.2.2 0 0 1 .068-.09a.2.2 0 0 1-.027-.112q0-.069.028-.12a.2.2 0 0 1 .075-.079.2.2 0 0 1 .098-.027.15.15 0 0 1 .119.051q.043.05.043.141v.017h-.3v-.043H.34l-.011.013V-.27q0-.056-.025-.086a.08.08 0 0 0-.07-.031.1.1 0 0 0-.052.016.1.1 0 0 0-.041.049.2.2 0 0 0-.016.083v.011q0 .081.04.125.039.045.102.045a.14.14 0 0 0 .061-.013.2.2 0 0 0 .053-.044l.024.022a.176.176 0 0 1-.163.101" style="fill-rule:nonzero" transform="scale(66.66679)rotate(33.942 -73.016 92.425)"/><path d="M.032 0 .029-.035.09-.05l.002-.017.001-.035.001-.052.001-.076a1 1 0 0 0-.008-.114L.024-.357V-.39l.131-.036.014.014-.004.082.003.001a.2.2 0 0 1 .06-.077.1.1 0 0 1 .056-.02q.023 0 .038.011a.04.04 0 0 1 .015.034q0 .024-.016.036a.07.07 0 0 1-.041.012.1.1 0 0 1-.033-.008.1.1 0 0 1-.031-.021l.017.006a.1.1 0 0 0-.035.032.2.2 0 0 0-.03.053l.001.09.002.051.002.047.002.033.085.013L.258 0z" style="fill-rule:nonzero" transform="rotate(37.604 -4245.556 5780.64)scale(66.66682)"/><path d="M.242.008A.2.2 0 0 1 .14-.018.2.2 0 0 1 .068-.09a.2.2 0 0 1-.027-.112q0-.069.028-.12a.2.2 0 0 1 .075-.079.2.2 0 0 1 .098-.027.15.15 0 0 1 .119.051q.043.05.043.141v.017h-.3v-.043H.34l-.011.013V-.27q0-.056-.025-.086a.08.08 0 0 0-.07-.031.1.1 0 0 0-.052.016.1.1 0 0 0-.041.049.2.2 0 0 0-.016.083v.011q0 .081.04.125.039.045.102.045a.14.14 0 0 0 .061-.013.2.2 0 0 0 .053-.044l.024.022a.176.176 0 0 1-.163.101m.012-.479L.215-.483l.097-.178.078.022z" style="fill-rule:nonzero" transform="scale(66.6668)rotate(40.025 -58.382 83.375)"/><path d="M.228.223a.3.3 0 0 1-.143-.03Q.032.165.032.115q0-.033.027-.061a.3.3 0 0 1 .085-.058l.037.008a.2.2 0 0 0-.05.043.1.1 0 0 0-.018.054q0 .039.032.06t.086.022A.17.17 0 0 0 .334.155a.08.08 0 0 0 .039-.07q0-.033-.024-.049a.16.16 0 0 0-.078-.02L.166.007.151.003A.1.1 0 0 1 .09-.016Q.066-.035.065-.063q0-.026.026-.051a.2.2 0 0 1 .07-.045l.013.019a.2.2 0 0 0-.028.023.04.04 0 0 0-.008.02q0 .014.012.024t.035.011l.126.013a.2.2 0 0 1 .102.034.1.1 0 0 1 .035.078q0 .045-.029.082A.2.2 0 0 1 .34.202a.3.3 0 0 1-.112.021m.007-.344A.2.2 0 0 1 .143-.14.15.15 0 0 1 .08-.191a.13.13 0 0 1-.022-.075q0-.045.023-.082a.16.16 0 0 1 .064-.058.2.2 0 0 1 .089-.021q.05 0 .09.02a.16.16 0 0 1 .062.054.14.14 0 0 1 .022.079.14.14 0 0 1-.023.078.16.16 0 0 1-.062.055.2.2 0 0 1-.088.02M.24-.16a.08.08 0 0 0 .064-.029.13.13 0 0 0 .023-.079.13.13 0 0 0-.026-.087.08.08 0 0 0-.068-.034.08.08 0 0 0-.065.032.12.12 0 0 0-.025.081q0 .051.026.084A.1.1 0 0 0 .24-.16m.227-.196L.351-.364.313-.403l.154-.016z" style="fill-rule:nonzero" transform="scale(66.6668)rotate(43.119 -52.444 79.656)"/><path d="m.444-.068.062.015v.032L.379.011.364-.002l.001-.061-.003-.001a.2.2 0 0 1-.058.056.155.155 0 0 1-.173-.025Q.087-.073.087-.154v-.084L.085-.292.082-.344.016-.357V-.39l.132-.036.018.016-.003.064-.001.072-.001.107q0 .06.028.086a.1.1 0 0 0 .073.026.114.114 0 0 0 .101-.06v-.156l-.002-.04-.003-.033-.071-.013V-.39l.138-.036.014.014-.001.049v.159q0 .054.002.086z" style="fill-rule:nonzero" transform="rotate(46.52 -3119.003 5074.137)scale(66.66686)"/><path d="M.027 0 .025-.036.089-.05l.003-.032.001-.06.001-.09v-.122L.093-.431.092-.504l-.001-.06L.09-.597.018-.606.016-.638l.139-.04.019.014-.002.082-.002.091v.12l-.001.157a3 3 0 0 0 .005.164l.063.014L.235 0z" style="fill-rule:nonzero" transform="rotate(49.363 -2845.774 4909.63)scale(66.66683)"/><path d="M.191.008a.14.14 0 0 1-.116-.056.1.1 0 0 1-.017-.051q0-.033.021-.054a.2.2 0 0 1 .07-.037l.149-.05v-.05a.07.07 0 0 0-.015-.044.1.1 0 0 0-.039-.032.1.1 0 0 0-.055-.012q-.024 0-.033.01t-.01.041l-.002.041a.1.1 0 0 1-.06-.003Q.06-.299.06-.322q0-.017.014-.033a.2.2 0 0 1 .037-.032.3.3 0 0 1 .105-.041q.072 0 .116.038a.13.13 0 0 1 .044.1l-.002.164.001.036.005.027.062.011v.031l-.047.017-.026.008L.35.008q-.032 0-.039-.034L.3-.064h.014a.3.3 0 0 1-.062.054.1.1 0 0 1-.061.018M.218-.05A.1.1 0 0 0 .26-.06a.1.1 0 0 0 .038-.032v-.102l-.11.029a.06.06 0 0 0-.033.019.05.05 0 0 0-.01.032q0 .024.022.044t.051.02" style="fill-rule:nonzero" transform="scale(66.66681)rotate(52.228 -38.853 71.133)"/><path d="M.032 0 .029-.035.09-.05l.002-.017.001-.035.001-.052.001-.076a1 1 0 0 0-.008-.114L.024-.357V-.39l.131-.036.014.014-.004.082.003.001a.2.2 0 0 1 .06-.077.1.1 0 0 1 .056-.02q.023 0 .038.011a.04.04 0 0 1 .015.034q0 .024-.016.036a.07.07 0 0 1-.041.012.1.1 0 0 1-.033-.008.1.1 0 0 1-.031-.021l.017.006a.1.1 0 0 0-.035.032.2.2 0 0 0-.03.053l.001.09.002.051.002.047.002.033.085.013L.258 0z" style="fill-rule:nonzero" transform="scale(66.6668)rotate(55.237 -35.312 68.936)"/><path d="M.026 0 .024-.036.09-.05l.001-.013.002-.032.001-.059v-.065L.092-.292.087-.344.021-.357V-.39L.16-.426l.015.014-.005.059-.001.069v.123l.005.111.065.014L.237 0zm.106-.536a.06.06 0 0 1-.043-.017.05.05 0 0 1-.018-.041q0-.024.018-.041a.06.06 0 0 1 .043-.016q.025 0 .042.016a.06.06 0 0 1 .016.041q0 .025-.016.041a.06.06 0 0 1-.042.017" style="fill-rule:nonzero" transform="rotate(57.639 -2181.759 4488.126)scale(66.66685)"/><path d="M.337-.061a.13.13 0 0 1-.051.051.14.14 0 0 1-.067.018.14.14 0 0 1-.098-.036Q.083-.064.083-.137L.086-.37H.018v-.021l.126-.114h.018L.16-.393l-.001.241q0 .051.022.075a.08.08 0 0 0 .062.024.108.108 0 0 0 .076-.032zM.125-.37v-.049h.183v.049z" style="fill-rule:nonzero" transform="rotate(60.135 -2012.679 4378.484)scale(66.66687)"/><path d="M.242.008A.2.2 0 0 1 .14-.018.2.2 0 0 1 .068-.09a.2.2 0 0 1-.027-.112q0-.069.028-.12a.2.2 0 0 1 .075-.079.2.2 0 0 1 .098-.027.15.15 0 0 1 .119.051q.043.05.043.141v.017h-.3v-.043H.34l-.011.013V-.27q0-.056-.025-.086a.08.08 0 0 0-.07-.031.1.1 0 0 0-.052.016.1.1 0 0 0-.041.049.2.2 0 0 0-.016.083v.011q0 .081.04.125.039.045.102.045a.14.14 0 0 0 .061-.013.2.2 0 0 0 .053-.044l.024.022a.176.176 0 0 1-.163.101m.012-.479L.215-.483l.097-.178.078.022z" style="fill-rule:nonzero" transform="rotate(63.167 -1823.583 4256.136)scale(66.66679)"/><path d="M.474.004.442.002.41 0H.099L.064.002v-.035l.321-.526.002.033h-.22l-.036.001-.027.003-.014.098H.049l-.002-.15.043.001h.306l.037-.001.037-.001v.035l-.319.523V-.05h.228l.019-.001.018-.002.041-.108.04.005z" style="fill-rule:nonzero" transform="scale(66.66692)rotate(-60.985 64.154 7.193)"/><path d="M.251.008A.2.2 0 0 1 .14-.02a.2.2 0 0 1-.074-.076.24.24 0 0 1-.026-.113q0-.066.029-.115a.212.212 0 0 1 .186-.104q.06 0 .106.027.045.027.07.075.025.049.025.113a.22.22 0 0 1-.101.191.2.2 0 0 1-.104.03m.01-.046a.1.1 0 0 0 .057-.02.12.12 0 0 0 .038-.056.2.2 0 0 0 .014-.081.24.24 0 0 0-.035-.137Q.301-.383.244-.384A.1.1 0 0 0 .16-.34a.2.2 0 0 0-.032.116q0 .055.017.097t.047.065a.1.1 0 0 0 .069.024" style="fill-rule:nonzero" transform="scale(66.6669)rotate(-56.732 68.462 4.673)"/><path d="M.03 0 .028-.035.089-.05.09-.068l.002-.033.001-.053.001-.075a1 1 0 0 0-.008-.115L.023-.357V-.39l.131-.036.017.016-.005.052.003.001a.2.2 0 0 1 .067-.054.2.2 0 0 1 .073-.017.13.13 0 0 1 .119.074q.02.037.02.094v.109a1 1 0 0 0 .006.101l.061.015L.512 0H.315L.313-.035.37-.05l.002-.019.002-.03V-.25a.14.14 0 0 0-.015-.07.1.1 0 0 0-.038-.037.1.1 0 0 0-.046-.011.1.1 0 0 0-.06.016.2.2 0 0 0-.047.044v.147l.001.073.004.038.06.015L.23 0z" style="fill-rule:nonzero" transform="scale(66.66689)rotate(-53.119 72.587 2.19)"/><path d="M.242.008A.2.2 0 0 1 .14-.018.2.2 0 0 1 .068-.09a.2.2 0 0 1-.027-.112q0-.069.028-.12a.2.2 0 0 1 .075-.079.2.2 0 0 1 .098-.027.15.15 0 0 1 .119.051q.043.05.043.141v.017h-.3v-.043H.34l-.011.013V-.27q0-.056-.025-.086a.08.08 0 0 0-.07-.031.1.1 0 0 0-.052.016.1.1 0 0 0-.041.049.2.2 0 0 0-.016.083v.011q0 .081.04.125.039.045.102.045a.14.14 0 0 0 .061-.013.2.2 0 0 0 .053-.044l.024.022a.176.176 0 0 1-.163.101" style="fill-rule:nonzero" transform="scale(66.66682)rotate(-50.056 76.454 -.296)"/><path d="M.374.011.359-.002.36-.065.357-.066a.2.2 0 0 1-.06.057.13.13 0 0 1-.065.017.184.184 0 0 1-.168-.098.244.244 0 0 1 .041-.274.22.22 0 0 1 .151-.064q.027 0 .056.007a.1.1 0 0 1 .047.022v-.046L.358-.504.357-.559.355-.592.279-.605.277-.638l.144-.04.017.014-.002.117-.001.118-.001.225q0 .05.002.085l.003.051.063.015v.032zM.257-.058A.1.1 0 0 0 .31-.07a.2.2 0 0 0 .049-.043v-.21A.1.1 0 0 0 .313-.37a.13.13 0 0 0-.057-.014.11.11 0 0 0-.096.046.2.2 0 0 0-.035.117q0 .078.039.12a.12.12 0 0 0 .093.043" style="fill-rule:nonzero" transform="rotate(-46.096 5479.777 -259.483)scale(66.66683)"/><path d="M.114-.682q.025 0 .041.018t.016.056L.167-.57l-.011.051-.013.053-.012.046H.098a1 1 0 0 1-.025-.099L.062-.57.058-.608q0-.038.016-.056a.05.05 0 0 1 .04-.018" style="fill-rule:nonzero" transform="rotate(-43.982 5704.342 -419.676)scale(66.66684)"/><path d="M.026 0 .024-.036.09-.05l.001-.013.002-.032.001-.059v-.065L.092-.292.087-.344.021-.357V-.39L.16-.426l.015.014-.005.059-.001.069v.123l.005.111.065.014L.237 0zm.106-.536a.06.06 0 0 1-.043-.017.05.05 0 0 1-.018-.041q0-.024.018-.041a.06.06 0 0 1 .043-.016q.025 0 .042.016a.06.06 0 0 1 .016.041q0 .025-.016.041a.06.06 0 0 1-.042.017" style="fill-rule:nonzero" transform="scale(66.66693)rotate(-42.574 88.048 -7.868)"/><path d="M.032 0 .029-.035.09-.05l.002-.017.001-.035.001-.052.001-.076a1 1 0 0 0-.008-.114L.024-.357V-.39l.131-.036.014.014-.004.082.003.001a.2.2 0 0 1 .06-.077.1.1 0 0 1 .056-.02q.023 0 .038.011a.04.04 0 0 1 .015.034q0 .024-.016.036a.07.07 0 0 1-.041.012.1.1 0 0 1-.033-.008.1.1 0 0 1-.031-.021l.017.006a.1.1 0 0 0-.035.032.2.2 0 0 0-.03.053l.001.09.002.051.002.047.002.033.085.013L.258 0z" style="fill-rule:nonzero" transform="rotate(-40.772 6098.7 -665.927)scale(66.66689)"/><path d="M.032 0 .029-.035.09-.05l.002-.017.001-.035.001-.052.001-.076a1 1 0 0 0-.008-.114L.024-.357V-.39l.131-.036.014.014-.004.082.003.001a.2.2 0 0 1 .06-.077.1.1 0 0 1 .056-.02q.023 0 .038.011a.04.04 0 0 1 .015.034q0 .024-.016.036a.07.07 0 0 1-.041.012.1.1 0 0 1-.033-.008.1.1 0 0 1-.031-.021l.017.006a.1.1 0 0 0-.035.032.2.2 0 0 0-.03.053l.001.09.002.051.002.047.002.033.085.013L.258 0z" style="fill-rule:nonzero" transform="scale(66.6669)rotate(-38.683 95.81 -12.758)"/><path d="M.242.008A.2.2 0 0 1 .14-.018.2.2 0 0 1 .068-.09a.2.2 0 0 1-.027-.112q0-.069.028-.12a.2.2 0 0 1 .075-.079.2.2 0 0 1 .098-.027.15.15 0 0 1 .119.051q.043.05.043.141v.017h-.3v-.043H.34l-.011.013V-.27q0-.056-.025-.086a.08.08 0 0 0-.07-.031.1.1 0 0 0-.052.016.1.1 0 0 0-.041.049.2.2 0 0 0-.016.083v.011q0 .081.04.125.039.045.102.045a.14.14 0 0 0 .061-.013.2.2 0 0 0 .053-.044l.024.022a.176.176 0 0 1-.163.101m.012-.479L.215-.483l.097-.178.078.022z" style="fill-rule:nonzero" transform="scale(66.66683)rotate(-36.425 101.056 -16.017)"/><path d="M.228.223a.3.3 0 0 1-.143-.03Q.032.165.032.115q0-.033.027-.061a.3.3 0 0 1 .085-.058l.037.008a.2.2 0 0 0-.05.043.1.1 0 0 0-.018.054q0 .039.032.06t.086.022A.17.17 0 0 0 .334.155a.08.08 0 0 0 .039-.07q0-.033-.024-.049a.16.16 0 0 0-.078-.02L.166.007.151.003A.1.1 0 0 1 .09-.016Q.066-.035.065-.063q0-.026.026-.051a.2.2 0 0 1 .07-.045l.013.019a.2.2 0 0 0-.028.023.04.04 0 0 0-.008.02q0 .014.012.024t.035.011l.126.013a.2.2 0 0 1 .102.034.1.1 0 0 1 .035.078q0 .045-.029.082A.2.2 0 0 1 .34.202a.3.3 0 0 1-.112.021m.007-.344A.2.2 0 0 1 .143-.14.15.15 0 0 1 .08-.191a.13.13 0 0 1-.022-.075q0-.045.023-.082a.16.16 0 0 1 .064-.058.2.2 0 0 1 .089-.021q.05 0 .09.02a.16.16 0 0 1 .062.054.14.14 0 0 1 .022.079.14.14 0 0 1-.023.078.16.16 0 0 1-.062.055.2.2 0 0 1-.088.02M.24-.16a.08.08 0 0 0 .064-.029.13.13 0 0 0 .023-.079.13.13 0 0 0-.026-.087.08.08 0 0 0-.068-.034.08.08 0 0 0-.065.032.12.12 0 0 0-.025.081q0 .051.026.084A.1.1 0 0 0 .24-.16m.227-.196L.351-.364.313-.403l.154-.016z" style="fill-rule:nonzero" transform="rotate(-33.53 7251.144 -1388.978)scale(66.66683)"/><path d="m.444-.068.062.015v.032L.379.011.364-.002l.001-.061-.003-.001a.2.2 0 0 1-.058.056.155.155 0 0 1-.173-.025Q.087-.073.087-.154v-.084L.085-.292.082-.344.016-.357V-.39l.132-.036.018.016-.003.064-.001.072-.001.107q0 .06.028.086a.1.1 0 0 0 .073.026.114.114 0 0 0 .101-.06v-.156l-.002-.04-.003-.033-.071-.013V-.39l.138-.036.014.014-.001.049v.159q0 .054.002.086z" style="fill-rule:nonzero" transform="scale(66.66684)rotate(-30.326 118.962 -27.197)"/><path d="M.027 0 .025-.036.089-.05l.003-.032.001-.06.001-.09v-.122L.093-.431.092-.504l-.001-.06L.09-.597.018-.606.016-.638l.139-.04.019.014-.002.082-.002.091v.12l-.001.157a3 3 0 0 0 .005.164l.063.014L.235 0z" style="fill-rule:nonzero" transform="scale(66.66688)rotate(-27.664 129.117 -33.832)"/><path d="M.191.008a.14.14 0 0 1-.116-.056.1.1 0 0 1-.017-.051q0-.033.021-.054a.2.2 0 0 1 .07-.037l.149-.05v-.05a.07.07 0 0 0-.015-.044.1.1 0 0 0-.039-.032.1.1 0 0 0-.055-.012q-.024 0-.033.01t-.01.041l-.002.041a.1.1 0 0 1-.06-.003Q.06-.299.06-.322q0-.017.014-.033a.2.2 0 0 1 .037-.032.3.3 0 0 1 .105-.041q.072 0 .116.038a.13.13 0 0 1 .044.1l-.002.164.001.036.005.027.062.011v.031l-.047.017-.026.008L.35.008q-.032 0-.039-.034L.3-.064h.014a.3.3 0 0 1-.062.054.1.1 0 0 1-.061.018M.218-.05A.1.1 0 0 0 .26-.06a.1.1 0 0 0 .038-.032v-.102l-.11.029a.06.06 0 0 0-.033.019.05.05 0 0 0-.01.032q0 .024.022.044t.051.02" style="fill-rule:nonzero" transform="scale(66.66691)rotate(-24.948 141.822 -41.413)"/><path d="M.032 0 .029-.035.09-.05l.002-.017.001-.035.001-.052.001-.076a1 1 0 0 0-.008-.114L.024-.357V-.39l.131-.036.014.014-.004.082.003.001a.2.2 0 0 1 .06-.077.1.1 0 0 1 .056-.02q.023 0 .038.011a.04.04 0 0 1 .015.034q0 .024-.016.036a.07.07 0 0 1-.041.012.1.1 0 0 1-.033-.008.1.1 0 0 1-.031-.021l.017.006a.1.1 0 0 0-.035.032.2.2 0 0 0-.03.053l.001.09.002.051.002.047.002.033.085.013L.258 0z" style="fill-rule:nonzero" transform="rotate(-22.077 10565.412 -3459.068)scale(66.66686)"/><path d="M.026 0 .024-.036.09-.05l.001-.013.002-.032.001-.059v-.065L.092-.292.087-.344.021-.357V-.39L.16-.426l.015.014-.005.059-.001.069v.123l.005.111.065.014L.237 0zm.106-.536a.06.06 0 0 1-.043-.017.05.05 0 0 1-.018-.041q0-.024.018-.041a.06.06 0 0 1 .043-.016q.025 0 .042.016a.06.06 0 0 1 .016.041q0 .025-.016.041a.06.06 0 0 1-.042.017" style="fill-rule:nonzero" transform="rotate(-19.783 11681.872 -4157.549)scale(66.66688)"/><path d="M.337-.061a.13.13 0 0 1-.051.051.14.14 0 0 1-.067.018.14.14 0 0 1-.098-.036Q.083-.064.083-.137L.086-.37H.018v-.021l.126-.114h.018L.16-.393l-.001.241q0 .051.022.075a.08.08 0 0 0 .062.024.108.108 0 0 0 .076-.032zM.125-.37v-.049h.183v.049z" style="fill-rule:nonzero" transform="scale(66.6669)rotate(-17.398 197.343 -75.81)"/><path d="M.242.008A.2.2 0 0 1 .14-.018.2.2 0 0 1 .068-.09a.2.2 0 0 1-.027-.112q0-.069.028-.12a.2.2 0 0 1 .075-.079.2.2 0 0 1 .098-.027.15.15 0 0 1 .119.051q.043.05.043.141v.017h-.3v-.043H.34l-.011.013V-.27q0-.056-.025-.086a.08.08 0 0 0-.07-.031.1.1 0 0 0-.052.016.1.1 0 0 0-.041.049.2.2 0 0 0-.016.083v.011q0 .081.04.125.039.045.102.045a.14.14 0 0 0 .061-.013.2.2 0 0 0 .053-.044l.024.022a.176.176 0 0 1-.163.101m.012-.479L.215-.483l.097-.178.078.022z" style="fill-rule:nonzero" transform="scale(66.6669)rotate(-14.456 234.564 -98.454)"/><path d="M.041 0 .038-.049l.058-.016q.003-.003.003-.023l.003-.051.001-.071.001-.157-.001-.069-.006-.075-.062-.014.003-.048h.247q.12 0 .18.043.059.043.059.125a.17.17 0 0 1-.028.096.2.2 0 0 1-.082.068.3.3 0 0 1-.128.025q-.016 0-.034-.002L.221-.223V-.29l.028.008q.016.003.037.003.046 0 .072-.029a.12.12 0 0 0 .026-.084q0-.066-.032-.096a.12.12 0 0 0-.089-.031H.236l-.001.026v.05l-.001.076.001.157.001.071.003.051.002.023.08.014L.318 0z" style="fill-rule:nonzero" transform="rotate(-16.842 13225.304 -5178.046)scale(75)"/><path d="M.015 0 .012-.046l.064-.015.003-.038.002-.062.001-.068v-.124L.081-.42.08-.484.079-.54.076-.581l-.072-.01-.002-.042.186-.048.027.017-.003.08-.001.087-.001.119-.001.144.001.115a.4.4 0 0 0 .004.058l.063.015L.275 0z" style="fill-rule:nonzero" transform="rotate(-14.502 15191.955 -6482.789)scale(75)"/><path d="M.184.008a.15.15 0 0 1-.078-.02.14.14 0 0 1-.05-.046.1.1 0 0 1-.017-.052q0-.036.022-.06a.15.15 0 0 1 .068-.037l.154-.045v-.035a.06.06 0 0 0-.014-.039.095.095 0 0 0-.08-.041q-.016 0-.023.007-.006.008-.008.029l-.005.059a.13.13 0 0 1-.079-.003Q.043-.288.043-.318q0-.019.019-.039a.358.358 0 0 1 .161-.08q.087 0 .138.04.05.04.051.106l-.003.136.001.043q.002.015.006.025l.064.011v.041l-.063.028a.2.2 0 0 1-.06.015q-.039 0-.054-.039L.286-.076l.021.004a.3.3 0 0 1-.062.059.1.1 0 0 1-.061.021M.233-.08A.1.1 0 0 0 .26-.085a.1.1 0 0 0 .023-.017v-.095l-.067.012Q.192-.182.182-.17a.05.05 0 0 0-.01.031q0 .023.018.041a.06.06 0 0 0 .043.018" style="fill-rule:nonzero" transform="rotate(-12.24 17815.114 -8129.395)scale(75)"/><path d="M.015 0 .012-.046l.065-.016.002-.018.002-.034.001-.045.001-.073-.002-.053Q.079-.309.074-.333L.009-.347v-.044l.179-.044.027.017-.005.063-.001.072v.123a1 1 0 0 0 .005.098l.065.016L.276 0zm.131-.515a.08.08 0 1 1 0-.158q.04 0 .061.024a.08.08 0 0 1 .022.055.08.08 0 0 1-.022.055q-.02.024-.061.024" style="fill-rule:nonzero" transform="rotate(-10.207 21150.37 -10324.045)scale(75)"/><path d="M.19.008a.4.4 0 0 1-.081-.009.3.3 0 0 1-.067-.024L.037-.14H.1l.02.07q.037.022.077.022.03 0 .046-.012a.04.04 0 0 0 .016-.032.05.05 0 0 0-.017-.038.3.3 0 0 0-.07-.035.3.3 0 0 1-.101-.058.11.11 0 0 1-.028-.078q0-.04.025-.071A.2.2 0 0 1 .136-.42a.3.3 0 0 1 .101-.017.4.4 0 0 1 .117.022l.011.113H.303L.281-.371a.1.1 0 0 0-.05-.013.1.1 0 0 0-.048.013.04.04 0 0 0-.018.034q0 .023.022.039a.4.4 0 0 0 .078.039.3.3 0 0 1 .092.056q.027.03.027.074A.12.12 0 0 1 .33-.03a.24.24 0 0 1-.14.038" style="fill-rule:nonzero" transform="scale(75)rotate(-8.239 345.984 -178.428)"/><path d="M.015 0 .012-.046l.065-.016.002-.018.002-.034.001-.045.001-.073-.002-.053Q.079-.309.074-.333L.009-.347v-.044l.179-.044.027.017-.005.063-.001.072v.123a1 1 0 0 0 .005.098l.065.016L.276 0zm.131-.515a.08.08 0 1 1 0-.158q.04 0 .061.024a.08.08 0 0 1 .022.055.08.08 0 0 1-.022.055q-.02.024-.061.024" style="fill-rule:nonzero" transform="scale(74.99997)rotate(-6.338 445.363 -242.958)"/><path d="M.019 0 .016-.045l.061-.016.002-.019.002-.035.001-.044.001-.074-.002-.052Q.079-.308.074-.333L.012-.347V-.39l.169-.045.025.017-.004.077.003.001a.2.2 0 0 1 .057-.074.1.1 0 0 1 .059-.02q.027 0 .047.015t.019.046a.06.06 0 0 1-.021.049.07.07 0 0 1-.05.017.1.1 0 0 1-.042-.008.1.1 0 0 1-.04-.029l.027.002a.16.16 0 0 0-.052.066l.001.077.001.064.002.048.002.025.085.015L.297 0z" style="fill-rule:nonzero" transform="scale(74.99999)rotate(-4.383 637.445 -365.94)"/><path d="M.047-.573h.204l.205.433H.428l.184-.433h.204l.003.048-.062.015v.044l.002.079.006.171.004.073.006.078.062.016L.834 0H.569L.566-.049l.063-.016.001-.022.001-.052L.63-.215l-.003-.33h.045L.439.003H.378l-.26-.548h.06l.001.336.001.107.002.037.068.016L.247 0H.033L.03-.049l.068-.016L.1-.091l.002-.051.001-.06.002-.183.001-.082v-.042L.044-.525z" style="fill-rule:nonzero" transform="rotate(.449 -454864.555 293238.308)scale(75)"/><path d="m.492-.088.064.014v.042L.391.012.364-.002l.001-.069-.003-.001a.16.16 0 0 1-.061.064.14.14 0 0 1-.067.017.15.15 0 0 1-.115-.044Q.075-.078.075-.167V-.25L.074-.292.071-.333.005-.347V-.39L.18-.435l.028.017-.004.07-.002.084-.001.083q0 .05.023.074a.08.08 0 0 0 .061.023.092.092 0 0 0 .077-.046v-.094L.361-.266.36-.3.356-.333.287-.347V-.39l.176-.045.027.017-.002.037-.001.047v.14a1 1 0 0 0 .005.106" style="fill-rule:nonzero" transform="rotate(4.866 -40854.93 29409.107)scale(74.99996)"/><path d="M.19.008a.4.4 0 0 1-.081-.009.3.3 0 0 1-.067-.024L.037-.14H.1l.02.07q.037.022.077.022.03 0 .046-.012a.04.04 0 0 0 .016-.032.05.05 0 0 0-.017-.038.3.3 0 0 0-.07-.035.3.3 0 0 1-.101-.058.11.11 0 0 1-.028-.078q0-.04.025-.071A.2.2 0 0 1 .136-.42a.3.3 0 0 1 .101-.017.4.4 0 0 1 .117.022l.011.113H.303L.281-.371a.1.1 0 0 0-.05-.013.1.1 0 0 0-.048.013.04.04 0 0 0-.018.034q0 .023.022.039a.4.4 0 0 0 .078.039.3.3 0 0 1 .092.056q.027.03.027.074A.12.12 0 0 1 .33-.03a.24.24 0 0 1-.14.038" style="fill-rule:nonzero" transform="rotate(8.056 -24189.146 18754.092)scale(75)"/><path d="M.015 0 .012-.046l.065-.016.002-.018.002-.034.001-.045.001-.073-.002-.053Q.079-.309.074-.333L.009-.347v-.044l.179-.044.027.017-.005.063-.001.072v.123a1 1 0 0 0 .005.098l.065.016L.276 0zm.131-.515a.08.08 0 1 1 0-.158q.04 0 .061.024a.08.08 0 0 1 .022.055.08.08 0 0 1-.022.055q-.02.024-.061.024" style="fill-rule:nonzero" transform="scale(75)rotate(10.318 -248.161 202.54)"/><path d="M.253.008a.23.23 0 0 1-.111-.027.203.203 0 0 1-.108-.185q0-.062.031-.115a.23.23 0 0 1 .086-.085.24.24 0 0 1 .125-.033q.043 0 .078.012a.1.1 0 0 1 .054.032.06.06 0 0 1 .021.046q0 .024-.015.036a.06.06 0 0 1-.037.013.1.1 0 0 1-.033-.007.2.2 0 0 1-.032-.023L.241-.39l.049.011a.08.08 0 0 0-.056.008.1.1 0 0 0-.046.048.2.2 0 0 0-.018.085q0 .074.037.113a.12.12 0 0 0 .091.038.1.1 0 0 0 .054-.012.2.2 0 0 0 .053-.042l.03.028a.2.2 0 0 1-.076.09.2.2 0 0 1-.106.031" style="fill-rule:nonzero" transform="scale(75)rotate(12.895 -195.095 167.901)"/><path d="M.184.008a.15.15 0 0 1-.078-.02.14.14 0 0 1-.05-.046.1.1 0 0 1-.017-.052q0-.036.022-.06a.15.15 0 0 1 .068-.037l.154-.045v-.035a.06.06 0 0 0-.014-.039.095.095 0 0 0-.08-.041q-.016 0-.023.007-.006.008-.008.029l-.005.059a.13.13 0 0 1-.079-.003Q.043-.288.043-.318q0-.019.019-.039a.358.358 0 0 1 .161-.08q.087 0 .138.04.05.04.051.106l-.003.136.001.043q.002.015.006.025l.064.011v.041l-.063.028a.2.2 0 0 1-.06.015q-.039 0-.054-.039L.286-.076l.021.004a.3.3 0 0 1-.062.059.1.1 0 0 1-.061.021M.233-.08A.1.1 0 0 0 .26-.085a.1.1 0 0 0 .023-.017v-.095l-.067.012Q.192-.182.182-.17a.05.05 0 0 0-.01.031q0 .023.018.041a.06.06 0 0 0 .043.018" style="fill-rule:nonzero" transform="rotate(16.175 -11396.28 10500.29)scale(75)"/><path d="M.015 0 .012-.046l.064-.015.003-.038.002-.062.001-.068v-.124L.081-.42.08-.484.079-.54.076-.581l-.072-.01-.002-.042.186-.048.027.017-.003.08-.001.087-.001.119-.001.144.001.115a.4.4 0 0 0 .004.058l.063.015L.275 0z" style="fill-rule:nonzero" transform="scale(75)rotate(18.78 -128.43 125.157)"/><path d="M6590.32 11330.3v158.8c0 2.9-1.54 5.2-3.44 5.2h-215.83c-1.91 0-3.45-2.3-3.45-5.2v-158.8c0-2.9 1.54-5.2 3.45-5.2h215.83c1.9 0 3.44 2.3 3.44 5.2" style="fill:none;stroke:#000;stroke-width:.41px" transform="matrix(8.40745 0 0 5.59067 -52285.43 -62637.386)"/><path d="m2102.91 1178.26 184.39-368.786 184.4 368.786" style="fill:none;stroke:#000;stroke-width:84.71px" transform="matrix(.0855 0 0 .05983 1559.69 783.114)"/><path d="M10411.5 11883h1043.3" style="fill:none;stroke:#000;stroke-width:10.77px" transform="matrix(0 .5894 -.5711 0 8541.67 -5304.986)"/><path d="m2102.91 1178.26 184.39-368.786 184.4 368.786" style="fill:none;stroke:#000;stroke-width:84.71px" transform="matrix(0 .0855 -.05983 0 2768.51 1251.314)"/><path d="M10411.5 11883h1043.3" style="fill:none;stroke:#000;stroke-width:6.87px" transform="matrix(-.92357 0 0 -.8949 12334.57 12080.514)"/><path d="m10420.5 20545.7 1521.6-950.9" style="fill:none;stroke:#000;stroke-width:6.2px;stroke-dasharray:0,.31,24.81,24.81,0,0;stroke-dashoffset:24.81" transform="matrix(.5711 0 0 .5711 -4195.919 -10287.266)"/><path d="M.359.009a.35.35 0 0 1-.154-.033.26.26 0 0 1-.112-.098.3.3 0 0 1-.042-.16q0-.062.021-.116a.3.3 0 0 1 .063-.096.32.32 0 0 1 .237-.088.5.5 0 0 1 .165.03l.007.134L.5-.414.471-.507a.2.2 0 0 0-.049-.019.3.3 0 0 0-.059-.006.19.19 0 0 0-.188.116.3.3 0 0 0-.022.116q0 .083.029.141a.2.2 0 0 0 .078.087.2.2 0 0 0 .109.029.2.2 0 0 0 .106-.027l.043-.092.045.005-.028.123a.3.3 0 0 1-.079.03.3.3 0 0 1-.097.013" style="fill-rule:nonzero" transform="translate(1380.006 909.597)scale(66.6667)"/><path d="M.242.008A.2.2 0 0 1 .14-.018.2.2 0 0 1 .068-.09a.2.2 0 0 1-.027-.112q0-.069.028-.12a.2.2 0 0 1 .075-.079.2.2 0 0 1 .098-.027.15.15 0 0 1 .119.051q.043.05.043.141v.017h-.3v-.043H.34l-.011.013V-.27q0-.056-.025-.086a.08.08 0 0 0-.07-.031.1.1 0 0 0-.052.016.1.1 0 0 0-.041.049.2.2 0 0 0-.016.083v.011q0 .081.04.125.039.045.102.045a.14.14 0 0 0 .061-.013.2.2 0 0 0 .053-.044l.024.022a.176.176 0 0 1-.163.101" style="fill-rule:nonzero" transform="translate(1419.004 909.597)scale(66.6667)"/><path d="M.032 0 .029-.035.09-.05l.002-.017.001-.035.001-.052.001-.076a1 1 0 0 0-.008-.114L.024-.357V-.39l.131-.036.014.014-.004.082.003.001a.2.2 0 0 1 .06-.077.1.1 0 0 1 .056-.02q.023 0 .038.011a.04.04 0 0 1 .015.034q0 .024-.016.036a.07.07 0 0 1-.041.012.1.1 0 0 1-.033-.008.1.1 0 0 1-.031-.021l.017.006a.1.1 0 0 0-.035.032.2.2 0 0 0-.03.053l.001.09.002.051.002.047.002.033.085.013L.258 0z" style="fill-rule:nonzero" transform="translate(1448.3 909.597)scale(66.6667)"/><path d="M.337-.061a.13.13 0 0 1-.051.051.14.14 0 0 1-.067.018.14.14 0 0 1-.098-.036Q.083-.064.083-.137L.086-.37H.018v-.021l.126-.114h.018L.16-.393l-.001.241q0 .051.022.075a.08.08 0 0 0 .062.024.108.108 0 0 0 .076-.032zM.125-.37v-.049h.183v.049z" style="fill-rule:nonzero" transform="translate(1471.999 909.597)scale(66.6667)"/><path d="M.026 0 .024-.036.09-.05l.001-.013.002-.032.001-.059v-.065L.092-.292.087-.344.021-.357V-.39L.16-.426l.015.014-.005.059-.001.069v.123l.005.111.065.014L.237 0zm.106-.536a.06.06 0 0 1-.043-.017.05.05 0 0 1-.018-.041q0-.024.018-.041a.06.06 0 0 1 .043-.016q.025 0 .042.016a.06.06 0 0 1 .016.041q0 .025-.016.041a.06.06 0 0 1-.042.017" style="fill-rule:nonzero" transform="translate(1494.069 909.597)scale(66.6667)"/><path d="M.337-.061a.13.13 0 0 1-.051.051.14.14 0 0 1-.067.018.14.14 0 0 1-.098-.036Q.083-.064.083-.137L.086-.37H.018v-.021l.126-.114h.018L.16-.393l-.001.241q0 .051.022.075a.08.08 0 0 0 .062.024.108.108 0 0 0 .076-.032zM.125-.37v-.049h.183v.049z" style="fill-rule:nonzero" transform="translate(1511.517 909.597)scale(66.6667)"/><path d="m.444-.068.062.015v.032L.379.011.364-.002l.001-.061-.003-.001a.2.2 0 0 1-.058.056.155.155 0 0 1-.173-.025Q.087-.073.087-.154v-.084L.085-.292.082-.344.016-.357V-.39l.132-.036.018.016-.003.064-.001.072-.001.107q0 .06.028.086a.1.1 0 0 0 .073.026.114.114 0 0 0 .101-.06v-.156l-.002-.04-.003-.033-.071-.013V-.39l.138-.036.014.014-.001.049v.159q0 .054.002.086z" style="fill-rule:nonzero" transform="translate(1533.587 909.597)scale(66.6667)"/><path d="M.374.011.359-.002.36-.065.357-.066a.2.2 0 0 1-.06.057.13.13 0 0 1-.065.017.184.184 0 0 1-.168-.098.244.244 0 0 1 .041-.274.22.22 0 0 1 .151-.064q.027 0 .056.007a.1.1 0 0 1 .047.022v-.046L.358-.504.357-.559.355-.592.279-.605.277-.638l.144-.04.017.014-.002.117-.001.118-.001.225q0 .05.002.085l.003.051.063.015v.032zM.257-.058A.1.1 0 0 0 .31-.07a.2.2 0 0 0 .049-.043v-.21A.1.1 0 0 0 .313-.37a.13.13 0 0 0-.057-.014.11.11 0 0 0-.096.046.2.2 0 0 0-.035.117q0 .078.039.12a.12.12 0 0 0 .093.043" style="fill-rule:nonzero" transform="translate(1568.939 909.597)scale(66.6667)"/><path d="M.242.008A.2.2 0 0 1 .14-.018.2.2 0 0 1 .068-.09a.2.2 0 0 1-.027-.112q0-.069.028-.12a.2.2 0 0 1 .075-.079.2.2 0 0 1 .098-.027.15.15 0 0 1 .119.051q.043.05.043.141v.017h-.3v-.043H.34l-.011.013V-.27q0-.056-.025-.086a.08.08 0 0 0-.07-.031.1.1 0 0 0-.052.016.1.1 0 0 0-.041.049.2.2 0 0 0-.016.083v.011q0 .081.04.125.039.045.102.045a.14.14 0 0 0 .061-.013.2.2 0 0 0 .053-.044l.024.022a.176.176 0 0 1-.163.101" style="fill-rule:nonzero" transform="translate(1604.03 909.597)scale(66.6667)"/><path d="M.374.011.359-.002.36-.065.357-.066a.2.2 0 0 1-.06.057.13.13 0 0 1-.065.017.184.184 0 0 1-.168-.098.244.244 0 0 1 .041-.274.22.22 0 0 1 .151-.064q.027 0 .056.007a.1.1 0 0 1 .047.022v-.046L.358-.504.357-.559.355-.592.279-.605.277-.638l.144-.04.017.014-.002.117-.001.118-.001.225q0 .05.002.085l.003.051.063.015v.032zM.257-.058A.1.1 0 0 0 .31-.07a.2.2 0 0 0 .049-.043v-.21A.1.1 0 0 0 .313-.37a.13.13 0 0 0-.057-.014.11.11 0 0 0-.096.046.2.2 0 0 0-.035.117q0 .078.039.12a.12.12 0 0 0 .093.043" style="fill-rule:nonzero" transform="translate(1645.827 909.597)scale(66.6667)"/><path d="M.242.008A.2.2 0 0 1 .14-.018.2.2 0 0 1 .068-.09a.2.2 0 0 1-.027-.112q0-.069.028-.12a.2.2 0 0 1 .075-.079.2.2 0 0 1 .098-.027.15.15 0 0 1 .119.051q.043.05.043.141v.017h-.3v-.043H.34l-.011.013V-.27q0-.056-.025-.086a.08.08 0 0 0-.07-.031.1.1 0 0 0-.052.016.1.1 0 0 0-.041.049.2.2 0 0 0-.016.083v.011q0 .081.04.125.039.045.102.045a.14.14 0 0 0 .061-.013.2.2 0 0 0 .053-.044l.024.022a.176.176 0 0 1-.163.101" style="fill-rule:nonzero" transform="translate(1680.918 909.597)scale(66.6667)"/><path d="M.052 0 .049-.037l.056-.014.002-.017.002-.042v-.079L.11-.388.109-.464.108-.505q0-.014-.002-.016l-.06-.015.003-.037h.208q.096 0 .15.042a.15.15 0 0 1 .054.123.16.16 0 0 1-.028.095.2.2 0 0 1-.075.062.25.25 0 0 1-.145.019L.178-.237V-.29a.3.3 0 0 0 .073.013q.057 0 .09-.029t.032-.09q0-.069-.036-.102A.13.13 0 0 0 .246-.53H.194l-.001.078-.001.064.001.199.001.078.002.042.001.017.081.013L.275 0z" style="fill-rule:nonzero" transform="translate(1436.582 980.43)scale(66.6667)"/><path d="M.032 0 .029-.035.09-.05l.002-.017.001-.035.001-.052.001-.076a1 1 0 0 0-.008-.114L.024-.357V-.39l.131-.036.014.014-.004.082.003.001a.2.2 0 0 1 .06-.077.1.1 0 0 1 .056-.02q.023 0 .038.011a.04.04 0 0 1 .015.034q0 .024-.016.036a.07.07 0 0 1-.041.012.1.1 0 0 1-.033-.008.1.1 0 0 1-.031-.021l.017.006a.1.1 0 0 0-.035.032.2.2 0 0 0-.03.053l.001.09.002.051.002.047.002.033.085.013L.258 0z" style="fill-rule:nonzero" transform="translate(1470.045 980.43)scale(66.6667)"/><path d="M.242.008A.2.2 0 0 1 .14-.018.2.2 0 0 1 .068-.09a.2.2 0 0 1-.027-.112q0-.069.028-.12a.2.2 0 0 1 .075-.079.2.2 0 0 1 .098-.027.15.15 0 0 1 .119.051q.043.05.043.141v.017h-.3v-.043H.34l-.011.013V-.27q0-.056-.025-.086a.08.08 0 0 0-.07-.031.1.1 0 0 0-.052.016.1.1 0 0 0-.041.049.2.2 0 0 0-.016.083v.011q0 .081.04.125.039.045.102.045a.14.14 0 0 0 .061-.013.2.2 0 0 0 .053-.044l.024.022a.176.176 0 0 1-.163.101m.012-.479L.215-.483l.097-.178.078.022z" style="fill-rule:nonzero" transform="translate(1492.311 980.43)scale(66.6667)"/><path d="M.374.011.359-.002.36-.065.357-.066a.2.2 0 0 1-.06.057.13.13 0 0 1-.065.017.184.184 0 0 1-.168-.098.244.244 0 0 1 .041-.274.22.22 0 0 1 .151-.064q.027 0 .056.007a.1.1 0 0 1 .047.022v-.046L.358-.504.357-.559.355-.592.279-.605.277-.638l.144-.04.017.014-.002.117-.001.118-.001.225q0 .05.002.085l.003.051.063.015v.032zM.257-.058A.1.1 0 0 0 .31-.07a.2.2 0 0 0 .049-.043v-.21A.1.1 0 0 0 .313-.37a.13.13 0 0 0-.057-.014.11.11 0 0 0-.096.046.2.2 0 0 0-.035.117q0 .078.039.12a.12.12 0 0 0 .093.043" style="fill-rule:nonzero" transform="translate(1521.608 980.43)scale(66.6667)"/><path d="M.026 0 .024-.036.09-.05l.001-.013.002-.032.001-.059v-.065L.092-.292.087-.344.021-.357V-.39L.16-.426l.015.014-.005.059-.001.069v.123l.005.111.065.014L.237 0zm.106-.536a.06.06 0 0 1-.043-.017.05.05 0 0 1-.018-.041q0-.024.018-.041a.06.06 0 0 1 .043-.016q.025 0 .042.016a.06.06 0 0 1 .016.041q0 .025-.016.041a.06.06 0 0 1-.042.017" style="fill-rule:nonzero" transform="translate(1556.699 980.43)scale(66.6667)"/><path d="M.241.008a.2.2 0 0 1-.174-.097.23.23 0 0 1-.027-.113q0-.063.029-.115a.215.215 0 0 1 .192-.111q.042 0 .072.011t.044.028a.05.05 0 0 1 .016.037.04.04 0 0 1-.01.026.04.04 0 0 1-.028.011.1.1 0 0 1-.027-.006A.1.1 0 0 1 .3-.345l-.05-.05.035.01a.1.1 0 0 0-.075.008.13.13 0 0 0-.06.055.2.2 0 0 0-.023.102q0 .078.04.12a.13.13 0 0 0 .099.042.14.14 0 0 0 .064-.013.2.2 0 0 0 .051-.044l.026.022a.2.2 0 0 1-.069.076.2.2 0 0 1-.097.025" style="fill-rule:nonzero" transform="translate(1574.147 980.43)scale(66.6667)"/><path d="M.337-.061a.13.13 0 0 1-.051.051.14.14 0 0 1-.067.018.14.14 0 0 1-.098-.036Q.083-.064.083-.137L.086-.37H.018v-.021l.126-.114h.018L.16-.393l-.001.241q0 .051.022.075a.08.08 0 0 0 .062.024.108.108 0 0 0 .076-.032zM.125-.37v-.049h.183v.049z" style="fill-rule:nonzero" transform="translate(1601.816 980.43)scale(66.6667)"/><path d="M.026 0 .024-.036.09-.05l.001-.013.002-.032.001-.059v-.065L.092-.292.087-.344.021-.357V-.39L.16-.426l.015.014-.005.059-.001.069v.123l.005.111.065.014L.237 0zm.106-.536a.06.06 0 0 1-.043-.017.05.05 0 0 1-.018-.041q0-.024.018-.041a.06.06 0 0 1 .043-.016q.025 0 .042.016a.06.06 0 0 1 .016.041q0 .025-.016.041a.06.06 0 0 1-.042.017" style="fill-rule:nonzero" transform="translate(1623.887 980.43)scale(66.6667)"/><path d="M.251.008A.2.2 0 0 1 .14-.02a.2.2 0 0 1-.074-.076.24.24 0 0 1-.026-.113q0-.066.029-.115a.212.212 0 0 1 .186-.104q.06 0 .106.027.045.027.07.075.025.049.025.113a.22.22 0 0 1-.101.191.2.2 0 0 1-.104.03m.01-.046a.1.1 0 0 0 .057-.02.12.12 0 0 0 .038-.056.2.2 0 0 0 .014-.081.24.24 0 0 0-.035-.137Q.301-.383.244-.384A.1.1 0 0 0 .16-.34a.2.2 0 0 0-.032.116q0 .055.017.097t.047.065a.1.1 0 0 0 .069.024" style="fill-rule:nonzero" transform="translate(1641.335 980.43)scale(66.6667)"/><path d="M.03 0 .028-.035.089-.05.09-.068l.002-.033.001-.053.001-.075a1 1 0 0 0-.008-.115L.023-.357V-.39l.131-.036.017.016-.005.052.003.001a.2.2 0 0 1 .067-.054.2.2 0 0 1 .073-.017.13.13 0 0 1 .119.074q.02.037.02.094v.109a1 1 0 0 0 .006.101l.061.015L.512 0H.315L.313-.035.37-.05l.002-.019.002-.03V-.25a.14.14 0 0 0-.015-.07.1.1 0 0 0-.038-.037.1.1 0 0 0-.046-.011.1.1 0 0 0-.06.016.2.2 0 0 0-.047.044v.147l.001.073.004.038.06.015L.23 0z" style="fill-rule:nonzero" transform="translate(1674.407 980.43)scale(66.6667)"/><path d="M.475.005.424.001.383 0H.048L.045-.037l.06-.014q.003-.005.003-.022l.001-.048v-.332L.108-.501q0-.018-.003-.021l-.06-.014.003-.037h.313L.39-.574l.033-.001.036-.002.02.129-.044.007-.033-.082-.017-.003H.221l-.028.003-.001.063-.001.047v.264l.001.039.001.036v.021l.029.002.034.001h.13l.021-.002.013-.002.051-.092.044.008zM.366-.2.354-.267.338-.27.31-.271H.235L.208-.27l-.031.002v-.053l.031.001.027.001H.31L.338-.32l.016-.002.012-.068h.042v.19z" style="fill-rule:nonzero" transform="translate(2468.561 1540.397)scale(66.6667)"/><path d="M.452 0H.273L.271-.035.317-.05.221-.18.195-.21.074-.37.028-.385.03-.42h.175l.003.035-.041.015.082.111.025.031.134.178.046.015zM.331-.37.29-.385.293-.42h.139l.003.035-.046.015-.115.142-.053.048-.094.13.046.015L.171 0H.026L.024-.035.07-.05l.125-.16.054-.049z" style="fill-rule:nonzero" transform="translate(2503.652 1540.397)scale(66.6667)"/><path d="M.028.215.026.18.087.165V.148L.089.116.09.069.091.006l.002-.241a1 1 0 0 0-.008-.109L.022-.357V-.39l.131-.036.017.016-.005.054h.003a.2.2 0 0 1 .06-.054.14.14 0 0 1 .071-.018.177.177 0 0 1 .16.1.23.23 0 0 1 .024.107.23.23 0 0 1-.029.117.22.22 0 0 1-.242.106.2.2 0 0 1-.045-.012v.073a1 1 0 0 0 .004.102l.08.013-.002.037zm.236-.256A.12.12 0 0 0 .333-.06a.12.12 0 0 0 .046-.054.2.2 0 0 0 .018-.088.2.2 0 0 0-.015-.083.13.13 0 0 0-.045-.057.1.1 0 0 0-.066-.021.1.1 0 0 0-.056.014.14.14 0 0 0-.048.041v.237a.2.2 0 0 0 .045.022.2.2 0 0 0 .052.008" style="fill-rule:nonzero" transform="translate(2534.967 1540.397)scale(66.6667)"/><path d="M.251.008A.2.2 0 0 1 .14-.02a.2.2 0 0 1-.074-.076.24.24 0 0 1-.026-.113q0-.066.029-.115a.212.212 0 0 1 .186-.104q.06 0 .106.027.045.027.07.075.025.049.025.113a.22.22 0 0 1-.101.191.2.2 0 0 1-.104.03m.01-.046a.1.1 0 0 0 .057-.02.12.12 0 0 0 .038-.056.2.2 0 0 0 .014-.081.24.24 0 0 0-.035-.137Q.301-.383.244-.384A.1.1 0 0 0 .16-.34a.2.2 0 0 0-.032.116q0 .055.017.097t.047.065a.1.1 0 0 0 .069.024" style="fill-rule:nonzero" transform="translate(2569.928 1540.397)scale(66.6667)"/><path d="M.191.008A.4.4 0 0 1 .119 0a.3.3 0 0 1-.061-.022L.053-.127h.048l.019.07a.13.13 0 0 0 .078.024q.033 0 .054-.016a.05.05 0 0 0 .02-.044.06.06 0 0 0-.018-.044.2.2 0 0 0-.072-.042.3.3 0 0 1-.098-.058.1.1 0 0 1-.028-.072q0-.035.021-.062a.13.13 0 0 1 .058-.042.2.2 0 0 1 .086-.015.4.4 0 0 1 .102.018l.011.101H.288L.265-.375.241-.384a.1.1 0 0 0-.029-.004.1.1 0 0 0-.055.016.05.05 0 0 0-.02.042q0 .029.022.047a.5.5 0 0 0 .079.045.3.3 0 0 1 .09.057.103.103 0 0 1-.02.155.2.2 0 0 1-.117.034" style="fill-rule:nonzero" transform="translate(2603.001 1540.397)scale(66.6667)"/><path d="M.026 0 .024-.036.09-.05l.001-.013.002-.032.001-.059v-.065L.092-.292.087-.344.021-.357V-.39L.16-.426l.015.014-.005.059-.001.069v.123l.005.111.065.014L.237 0zm.106-.536a.06.06 0 0 1-.043-.017.05.05 0 0 1-.018-.041q0-.024.018-.041a.06.06 0 0 1 .043-.016q.025 0 .042.016a.06.06 0 0 1 .016.041q0 .025-.016.041a.06.06 0 0 1-.042.017" style="fill-rule:nonzero" transform="translate(2629.173 1540.397)scale(66.6667)"/><path d="M.337-.061a.13.13 0 0 1-.051.051.14.14 0 0 1-.067.018.14.14 0 0 1-.098-.036Q.083-.064.083-.137L.086-.37H.018v-.021l.126-.114h.018L.16-.393l-.001.241q0 .051.022.075a.08.08 0 0 0 .062.024.108.108 0 0 0 .076-.032zM.125-.37v-.049h.183v.049z" style="fill-rule:nonzero" transform="translate(2646.621 1540.397)scale(66.6667)"/><path d="M.026 0 .024-.036.09-.05l.001-.013.002-.032.001-.059v-.065L.092-.292.087-.344.021-.357V-.39L.16-.426l.015.014-.005.059-.001.069v.123l.005.111.065.014L.237 0zm.106-.536a.06.06 0 0 1-.043-.017.05.05 0 0 1-.018-.041q0-.024.018-.041a.06.06 0 0 1 .043-.016q.025 0 .042.016a.06.06 0 0 1 .016.041q0 .025-.016.041a.06.06 0 0 1-.042.017" style="fill-rule:nonzero" transform="translate(2668.691 1540.397)scale(66.6667)"/><path d="M.251.008A.2.2 0 0 1 .14-.02a.2.2 0 0 1-.074-.076.24.24 0 0 1-.026-.113q0-.066.029-.115a.212.212 0 0 1 .186-.104q.06 0 .106.027.045.027.07.075.025.049.025.113a.22.22 0 0 1-.101.191.2.2 0 0 1-.104.03m.01-.046a.1.1 0 0 0 .057-.02.12.12 0 0 0 .038-.056.2.2 0 0 0 .014-.081.24.24 0 0 0-.035-.137Q.301-.383.244-.384A.1.1 0 0 0 .16-.34a.2.2 0 0 0-.032.116q0 .055.017.097t.047.065a.1.1 0 0 0 .069.024" style="fill-rule:nonzero" transform="translate(2686.139 1540.397)scale(66.6667)"/><path d="M.03 0 .028-.035.089-.05.09-.068l.002-.033.001-.053.001-.075a1 1 0 0 0-.008-.115L.023-.357V-.39l.131-.036.017.016-.005.052.003.001a.2.2 0 0 1 .067-.054.2.2 0 0 1 .073-.017.13.13 0 0 1 .119.074q.02.037.02.094v.109a1 1 0 0 0 .006.101l.061.015L.512 0H.315L.313-.035.37-.05l.002-.019.002-.03V-.25a.14.14 0 0 0-.015-.07.1.1 0 0 0-.038-.037.1.1 0 0 0-.046-.011.1.1 0 0 0-.06.016.2.2 0 0 0-.047.044v.147l.001.073.004.038.06.015L.23 0z" style="fill-rule:nonzero" transform="translate(2719.212 1540.397)scale(66.6667)"/><path d="M6590.32 11330.3v158.8c0 2.9-1.54 5.2-3.44 5.2h-215.83c-1.91 0-3.45-2.3-3.45-5.2v-158.8c0-2.9 1.54-5.2 3.45-5.2h215.83c1.9 0 3.44 2.3 3.44 5.2" style="fill:none;stroke:#000;stroke-width:.41px" transform="matrix(8.40742 0 0 5.59067 -52285.26 -61469.156)"/><path d="m2102.91 1178.26 184.39-368.786 184.4 368.786" style="fill:none;stroke:#000;stroke-width:81.53px" transform="matrix(.0904 0 0 .05983 1571.631 1951.344)"/><path d="M10411.5 11883h1043.3" style="fill:none;stroke:#000;stroke-width:10.47px" transform="matrix(0 .5894 -.60395 0 8955.145 -4136.756)"/><path d="m2102.91 1178.26 184.39-368.786 184.4 368.786" style="fill:none;stroke:#000;stroke-width:83.1px" transform="matrix(0 .0855 -.06327 0 2848.627 2419.144)"/><path d="M10411.5 11883h1043.3" style="fill:none;stroke:#000;stroke-width:6.67px" transform="matrix(-.97668 0 0 -.8949 12966.175 13248.744)"/><path d="m9975.83 19844.9 1882.27 753.2" style="fill:none;stroke:#000;stroke-width:6.14px;stroke-dasharray:12.28,.31,0,24.55,24.55,0;stroke-dashoffset:24.55" transform="matrix(.45903 .08564 .09057 .51758 -4559.03 -9093.006)"/><path d="M.475.005.424.001.383 0H.048L.045-.037l.06-.014q.003-.005.003-.022l.001-.048v-.332L.108-.501q0-.018-.003-.021l-.06-.014.003-.037h.313L.39-.574l.033-.001.036-.002.02.129-.044.007-.033-.082-.017-.003H.221l-.028.003-.001.063-.001.047v.264l.001.039.001.036v.021l.029.002.034.001h.13l.021-.002.013-.002.051-.092.044.008zM.366-.2.354-.267.338-.27.31-.271H.235L.208-.27l-.031.002v-.053l.031.001.027.001H.31L.338-.32l.016-.002.012-.068h.042v.19z" style="fill-rule:nonzero" transform="matrix(66.66645 0 0 66.6667 1473.974 2077.827)"/><path d="M.032 0 .029-.035.09-.05l.002-.017.001-.035.001-.052.001-.076a1 1 0 0 0-.008-.114L.024-.357V-.39l.131-.036.014.014-.004.082.003.001a.2.2 0 0 1 .06-.077.1.1 0 0 1 .056-.02q.023 0 .038.011a.04.04 0 0 1 .015.034q0 .024-.016.036a.07.07 0 0 1-.041.012.1.1 0 0 1-.033-.008.1.1 0 0 1-.031-.021l.017.006a.1.1 0 0 0-.035.032.2.2 0 0 0-.03.053l.001.09.002.051.002.047.002.033.085.013L.258 0z" style="fill-rule:nonzero" transform="matrix(66.66645 0 0 66.6667 1510.172 2077.827)"/><path d="M.032 0 .029-.035.09-.05l.002-.017.001-.035.001-.052.001-.076a1 1 0 0 0-.008-.114L.024-.357V-.39l.131-.036.014.014-.004.082.003.001a.2.2 0 0 1 .06-.077.1.1 0 0 1 .056-.02q.023 0 .038.011a.04.04 0 0 1 .015.034q0 .024-.016.036a.07.07 0 0 1-.041.012.1.1 0 0 1-.033-.008.1.1 0 0 1-.031-.021l.017.006a.1.1 0 0 0-.035.032.2.2 0 0 0-.03.053l.001.09.002.051.002.047.002.033.085.013L.258 0z" style="fill-rule:nonzero" transform="matrix(66.66645 0 0 66.6667 1533.87 2077.827)"/><path d="M.242.008A.2.2 0 0 1 .14-.018.2.2 0 0 1 .068-.09a.2.2 0 0 1-.027-.112q0-.069.028-.12a.2.2 0 0 1 .075-.079.2.2 0 0 1 .098-.027.15.15 0 0 1 .119.051q.043.05.043.141v.017h-.3v-.043H.34l-.011.013V-.27q0-.056-.025-.086a.08.08 0 0 0-.07-.031.1.1 0 0 0-.052.016.1.1 0 0 0-.041.049.2.2 0 0 0-.016.083v.011q0 .081.04.125.039.045.102.045a.14.14 0 0 0 .061-.013.2.2 0 0 0 .053-.044l.024.022a.176.176 0 0 1-.163.101" style="fill-rule:nonzero" transform="matrix(66.66645 0 0 66.6667 1556.135 2077.827)"/><path d="m.444-.068.062.015v.032L.379.011.364-.002l.001-.061-.003-.001a.2.2 0 0 1-.058.056.155.155 0 0 1-.173-.025Q.087-.073.087-.154v-.084L.085-.292.082-.344.016-.357V-.39l.132-.036.018.016-.003.064-.001.072-.001.107q0 .06.028.086a.1.1 0 0 0 .073.026.114.114 0 0 0 .101-.06v-.156l-.002-.04-.003-.033-.071-.013V-.39l.138-.036.014.014-.001.049v.159q0 .054.002.086z" style="fill-rule:nonzero" transform="matrix(66.66645 0 0 66.6667 1585.432 2077.827)"/><path d="M.032 0 .029-.035.09-.05l.002-.017.001-.035.001-.052.001-.076a1 1 0 0 0-.008-.114L.024-.357V-.39l.131-.036.014.014-.004.082.003.001a.2.2 0 0 1 .06-.077.1.1 0 0 1 .056-.02q.023 0 .038.011a.04.04 0 0 1 .015.034q0 .024-.016.036a.07.07 0 0 1-.041.012.1.1 0 0 1-.033-.008.1.1 0 0 1-.031-.021l.017.006a.1.1 0 0 0-.035.032.2.2 0 0 0-.03.053l.001.09.002.051.002.047.002.033.085.013L.258 0z" style="fill-rule:nonzero" transform="matrix(66.66645 0 0 66.6667 1620.784 2077.827)"/><path d="M.374.011.359-.002.36-.065.357-.066a.2.2 0 0 1-.06.057.13.13 0 0 1-.065.017.184.184 0 0 1-.168-.098.244.244 0 0 1 .041-.274.22.22 0 0 1 .151-.064q.027 0 .056.007a.1.1 0 0 1 .047.022v-.046L.358-.504.357-.559.355-.592.279-.605.277-.638l.144-.04.017.014-.002.117-.001.118-.001.225q0 .05.002.085l.003.051.063.015v.032zM.257-.058A.1.1 0 0 0 .31-.07a.2.2 0 0 0 .049-.043v-.21A.1.1 0 0 0 .313-.37a.13.13 0 0 0-.057-.014.11.11 0 0 0-.096.046.2.2 0 0 0-.035.117q0 .078.039.12a.12.12 0 0 0 .093.043" style="fill-rule:nonzero" transform="matrix(66.66645 0 0 66.6667 1656.982 2077.827)"/><path d="M.242.008A.2.2 0 0 1 .14-.018.2.2 0 0 1 .068-.09a.2.2 0 0 1-.027-.112q0-.069.028-.12a.2.2 0 0 1 .075-.079.2.2 0 0 1 .098-.027.15.15 0 0 1 .119.051q.043.05.043.141v.017h-.3v-.043H.34l-.011.013V-.27q0-.056-.025-.086a.08.08 0 0 0-.07-.031.1.1 0 0 0-.052.016.1.1 0 0 0-.041.049.2.2 0 0 0-.016.083v.011q0 .081.04.125.039.045.102.045a.14.14 0 0 0 .061-.013.2.2 0 0 0 .053-.044l.024.022a.176.176 0 0 1-.163.101" style="fill-rule:nonzero" transform="matrix(66.66645 0 0 66.6667 1692.072 2077.827)"/><path d="M.052 0 .049-.037l.056-.014.002-.017.002-.042v-.079L.11-.388.109-.464.108-.505q0-.014-.002-.016l-.06-.015.003-.037h.208q.096 0 .15.042a.15.15 0 0 1 .054.123.16.16 0 0 1-.028.095.2.2 0 0 1-.075.062.25.25 0 0 1-.145.019L.178-.237V-.29a.3.3 0 0 0 .073.013q.057 0 .09-.029t.032-.09q0-.069-.036-.102A.13.13 0 0 0 .246-.53H.194l-.001.078-.001.064.001.199.001.078.002.042.001.017.081.013L.275 0z" style="fill-rule:nonzero" transform="matrix(66.66645 0 0 66.6667 1447.737 2148.66)"/><path d="M.032 0 .029-.035.09-.05l.002-.017.001-.035.001-.052.001-.076a1 1 0 0 0-.008-.114L.024-.357V-.39l.131-.036.014.014-.004.082.003.001a.2.2 0 0 1 .06-.077.1.1 0 0 1 .056-.02q.023 0 .038.011a.04.04 0 0 1 .015.034q0 .024-.016.036a.07.07 0 0 1-.041.012.1.1 0 0 1-.033-.008.1.1 0 0 1-.031-.021l.017.006a.1.1 0 0 0-.035.032.2.2 0 0 0-.03.053l.001.09.002.051.002.047.002.033.085.013L.258 0z" style="fill-rule:nonzero" transform="matrix(66.66645 0 0 66.6667 1481.2 2148.66)"/><path d="M.242.008A.2.2 0 0 1 .14-.018.2.2 0 0 1 .068-.09a.2.2 0 0 1-.027-.112q0-.069.028-.12a.2.2 0 0 1 .075-.079.2.2 0 0 1 .098-.027.15.15 0 0 1 .119.051q.043.05.043.141v.017h-.3v-.043H.34l-.011.013V-.27q0-.056-.025-.086a.08.08 0 0 0-.07-.031.1.1 0 0 0-.052.016.1.1 0 0 0-.041.049.2.2 0 0 0-.016.083v.011q0 .081.04.125.039.045.102.045a.14.14 0 0 0 .061-.013.2.2 0 0 0 .053-.044l.024.022a.176.176 0 0 1-.163.101m.012-.479L.215-.483l.097-.178.078.022z" style="fill-rule:nonzero" transform="matrix(66.66645 0 0 66.6667 1503.466 2148.66)"/><path d="M.374.011.359-.002.36-.065.357-.066a.2.2 0 0 1-.06.057.13.13 0 0 1-.065.017.184.184 0 0 1-.168-.098.244.244 0 0 1 .041-.274.22.22 0 0 1 .151-.064q.027 0 .056.007a.1.1 0 0 1 .047.022v-.046L.358-.504.357-.559.355-.592.279-.605.277-.638l.144-.04.017.014-.002.117-.001.118-.001.225q0 .05.002.085l.003.051.063.015v.032zM.257-.058A.1.1 0 0 0 .31-.07a.2.2 0 0 0 .049-.043v-.21A.1.1 0 0 0 .313-.37a.13.13 0 0 0-.057-.014.11.11 0 0 0-.096.046.2.2 0 0 0-.035.117q0 .078.039.12a.12.12 0 0 0 .093.043" style="fill-rule:nonzero" transform="matrix(66.66645 0 0 66.6667 1532.763 2148.66)"/><path d="M.026 0 .024-.036.09-.05l.001-.013.002-.032.001-.059v-.065L.092-.292.087-.344.021-.357V-.39L.16-.426l.015.014-.005.059-.001.069v.123l.005.111.065.014L.237 0zm.106-.536a.06.06 0 0 1-.043-.017.05.05 0 0 1-.018-.041q0-.024.018-.041a.06.06 0 0 1 .043-.016q.025 0 .042.016a.06.06 0 0 1 .016.041q0 .025-.016.041a.06.06 0 0 1-.042.017" style="fill-rule:nonzero" transform="matrix(66.66645 0 0 66.6667 1567.854 2148.66)"/><path d="M.241.008a.2.2 0 0 1-.174-.097.23.23 0 0 1-.027-.113q0-.063.029-.115a.215.215 0 0 1 .192-.111q.042 0 .072.011t.044.028a.05.05 0 0 1 .016.037.04.04 0 0 1-.01.026.04.04 0 0 1-.028.011.1.1 0 0 1-.027-.006A.1.1 0 0 1 .3-.345l-.05-.05.035.01a.1.1 0 0 0-.075.008.13.13 0 0 0-.06.055.2.2 0 0 0-.023.102q0 .078.04.12a.13.13 0 0 0 .099.042.14.14 0 0 0 .064-.013.2.2 0 0 0 .051-.044l.026.022a.2.2 0 0 1-.069.076.2.2 0 0 1-.097.025" style="fill-rule:nonzero" transform="matrix(66.66645 0 0 66.6667 1585.302 2148.66)"/><path d="M.337-.061a.13.13 0 0 1-.051.051.14.14 0 0 1-.067.018.14.14 0 0 1-.098-.036Q.083-.064.083-.137L.086-.37H.018v-.021l.126-.114h.018L.16-.393l-.001.241q0 .051.022.075a.08.08 0 0 0 .062.024.108.108 0 0 0 .076-.032zM.125-.37v-.049h.183v.049z" style="fill-rule:nonzero" transform="matrix(66.66645 0 0 66.6667 1612.97 2148.66)"/><path d="M.026 0 .024-.036.09-.05l.001-.013.002-.032.001-.059v-.065L.092-.292.087-.344.021-.357V-.39L.16-.426l.015.014-.005.059-.001.069v.123l.005.111.065.014L.237 0zm.106-.536a.06.06 0 0 1-.043-.017.05.05 0 0 1-.018-.041q0-.024.018-.041a.06.06 0 0 1 .043-.016q.025 0 .042.016a.06.06 0 0 1 .016.041q0 .025-.016.041a.06.06 0 0 1-.042.017" style="fill-rule:nonzero" transform="matrix(66.66645 0 0 66.6667 1635.04 2148.66)"/><path d="M.251.008A.2.2 0 0 1 .14-.02a.2.2 0 0 1-.074-.076.24.24 0 0 1-.026-.113q0-.066.029-.115a.212.212 0 0 1 .186-.104q.06 0 .106.027.045.027.07.075.025.049.025.113a.22.22 0 0 1-.101.191.2.2 0 0 1-.104.03m.01-.046a.1.1 0 0 0 .057-.02.12.12 0 0 0 .038-.056.2.2 0 0 0 .014-.081.24.24 0 0 0-.035-.137Q.301-.383.244-.384A.1.1 0 0 0 .16-.34a.2.2 0 0 0-.032.116q0 .055.017.097t.047.065a.1.1 0 0 0 .069.024" style="fill-rule:nonzero" transform="matrix(66.66645 0 0 66.6667 1652.489 2148.66)"/><path d="M.03 0 .028-.035.089-.05.09-.068l.002-.033.001-.053.001-.075a1 1 0 0 0-.008-.115L.023-.357V-.39l.131-.036.017.016-.005.052.003.001a.2.2 0 0 1 .067-.054.2.2 0 0 1 .073-.017.13.13 0 0 1 .119.074q.02.037.02.094v.109a1 1 0 0 0 .006.101l.061.015L.512 0H.315L.313-.035.37-.05l.002-.019.002-.03V-.25a.14.14 0 0 0-.015-.07.1.1 0 0 0-.038-.037.1.1 0 0 0-.046-.011.1.1 0 0 0-.06.016.2.2 0 0 0-.047.044v.147l.001.073.004.038.06.015L.23 0z" style="fill-rule:nonzero" transform="matrix(66.66645 0 0 66.6667 1685.561 2148.66)"/><path d="M.475.005.424.001.383 0H.048L.045-.037l.06-.014q.003-.005.003-.022l.001-.048v-.332L.108-.501q0-.018-.003-.021l-.06-.014.003-.037h.313L.39-.574l.033-.001.036-.002.02.129-.044.007-.033-.082-.017-.003H.221l-.028.003-.001.063-.001.047v.264l.001.039.001.036v.021l.029.002.034.001h.13l.021-.002.013-.002.051-.092.044.008zM.366-.2.354-.267.338-.27.31-.271H.235L.208-.27l-.031.002v-.053l.031.001.027.001H.31L.338-.32l.016-.002.012-.068h.042v.19z" style="fill-rule:nonzero" transform="matrix(66.66645 0 0 66.6667 2541.01 2708.627)"/><path d="M.452 0H.273L.271-.035.317-.05.221-.18.195-.21.074-.37.028-.385.03-.42h.175l.003.035-.041.015.082.111.025.031.134.178.046.015zM.331-.37.29-.385.293-.42h.139l.003.035-.046.015-.115.142-.053.048-.094.13.046.015L.171 0H.026L.024-.035.07-.05l.125-.16.054-.049z" style="fill-rule:nonzero" transform="matrix(66.66645 0 0 66.6667 2576.1 2708.627)"/><path d="M.028.215.026.18.087.165V.148L.089.116.09.069.091.006l.002-.241a1 1 0 0 0-.008-.109L.022-.357V-.39l.131-.036.017.016-.005.054h.003a.2.2 0 0 1 .06-.054.14.14 0 0 1 .071-.018.177.177 0 0 1 .16.1.23.23 0 0 1 .024.107.23.23 0 0 1-.029.117.22.22 0 0 1-.242.106.2.2 0 0 1-.045-.012v.073a1 1 0 0 0 .004.102l.08.013-.002.037zm.236-.256A.12.12 0 0 0 .333-.06a.12.12 0 0 0 .046-.054.2.2 0 0 0 .018-.088.2.2 0 0 0-.015-.083.13.13 0 0 0-.045-.057.1.1 0 0 0-.066-.021.1.1 0 0 0-.056.014.14.14 0 0 0-.048.041v.237a.2.2 0 0 0 .045.022.2.2 0 0 0 .052.008" style="fill-rule:nonzero" transform="matrix(66.66645 0 0 66.6667 2607.415 2708.627)"/><path d="M.251.008A.2.2 0 0 1 .14-.02a.2.2 0 0 1-.074-.076.24.24 0 0 1-.026-.113q0-.066.029-.115a.212.212 0 0 1 .186-.104q.06 0 .106.027.045.027.07.075.025.049.025.113a.22.22 0 0 1-.101.191.2.2 0 0 1-.104.03m.01-.046a.1.1 0 0 0 .057-.02.12.12 0 0 0 .038-.056.2.2 0 0 0 .014-.081.24.24 0 0 0-.035-.137Q.301-.383.244-.384A.1.1 0 0 0 .16-.34a.2.2 0 0 0-.032.116q0 .055.017.097t.047.065a.1.1 0 0 0 .069.024" style="fill-rule:nonzero" transform="matrix(66.66645 0 0 66.6667 2642.376 2708.627)"/><path d="M.191.008A.4.4 0 0 1 .119 0a.3.3 0 0 1-.061-.022L.053-.127h.048l.019.07a.13.13 0 0 0 .078.024q.033 0 .054-.016a.05.05 0 0 0 .02-.044.06.06 0 0 0-.018-.044.2.2 0 0 0-.072-.042.3.3 0 0 1-.098-.058.1.1 0 0 1-.028-.072q0-.035.021-.062a.13.13 0 0 1 .058-.042.2.2 0 0 1 .086-.015.4.4 0 0 1 .102.018l.011.101H.288L.265-.375.241-.384a.1.1 0 0 0-.029-.004.1.1 0 0 0-.055.016.05.05 0 0 0-.02.042q0 .029.022.047a.5.5 0 0 0 .079.045.3.3 0 0 1 .09.057.103.103 0 0 1-.02.155.2.2 0 0 1-.117.034" style="fill-rule:nonzero" transform="matrix(66.66645 0 0 66.6667 2675.449 2708.627)"/><path d="M.026 0 .024-.036.09-.05l.001-.013.002-.032.001-.059v-.065L.092-.292.087-.344.021-.357V-.39L.16-.426l.015.014-.005.059-.001.069v.123l.005.111.065.014L.237 0zm.106-.536a.06.06 0 0 1-.043-.017.05.05 0 0 1-.018-.041q0-.024.018-.041a.06.06 0 0 1 .043-.016q.025 0 .042.016a.06.06 0 0 1 .016.041q0 .025-.016.041a.06.06 0 0 1-.042.017" style="fill-rule:nonzero" transform="matrix(66.66645 0 0 66.6667 2701.62 2708.627)"/><path d="M.337-.061a.13.13 0 0 1-.051.051.14.14 0 0 1-.067.018.14.14 0 0 1-.098-.036Q.083-.064.083-.137L.086-.37H.018v-.021l.126-.114h.018L.16-.393l-.001.241q0 .051.022.075a.08.08 0 0 0 .062.024.108.108 0 0 0 .076-.032zM.125-.37v-.049h.183v.049z" style="fill-rule:nonzero" transform="matrix(66.66645 0 0 66.6667 2719.069 2708.627)"/><path d="M.026 0 .024-.036.09-.05l.001-.013.002-.032.001-.059v-.065L.092-.292.087-.344.021-.357V-.39L.16-.426l.015.014-.005.059-.001.069v.123l.005.111.065.014L.237 0zm.106-.536a.06.06 0 0 1-.043-.017.05.05 0 0 1-.018-.041q0-.024.018-.041a.06.06 0 0 1 .043-.016q.025 0 .042.016a.06.06 0 0 1 .016.041q0 .025-.016.041a.06.06 0 0 1-.042.017" style="fill-rule:nonzero" transform="matrix(66.66645 0 0 66.6667 2741.139 2708.627)"/><path d="M.251.008A.2.2 0 0 1 .14-.02a.2.2 0 0 1-.074-.076.24.24 0 0 1-.026-.113q0-.066.029-.115a.212.212 0 0 1 .186-.104q.06 0 .106.027.045.027.07.075.025.049.025.113a.22.22 0 0 1-.101.191.2.2 0 0 1-.104.03m.01-.046a.1.1 0 0 0 .057-.02.12.12 0 0 0 .038-.056.2.2 0 0 0 .014-.081.24.24 0 0 0-.035-.137Q.301-.383.244-.384A.1.1 0 0 0 .16-.34a.2.2 0 0 0-.032.116q0 .055.017.097t.047.065a.1.1 0 0 0 .069.024" style="fill-rule:nonzero" transform="matrix(66.66645 0 0 66.6667 2758.586 2708.627)"/><path d="M.03 0 .028-.035.089-.05.09-.068l.002-.033.001-.053.001-.075a1 1 0 0 0-.008-.115L.023-.357V-.39l.131-.036.017.016-.005.052.003.001a.2.2 0 0 1 .067-.054.2.2 0 0 1 .073-.017.13.13 0 0 1 .119.074q.02.037.02.094v.109a1 1 0 0 0 .006.101l.061.015L.512 0H.315L.313-.035.37-.05l.002-.019.002-.03V-.25a.14.14 0 0 0-.015-.07.1.1 0 0 0-.038-.037.1.1 0 0 0-.046-.011.1.1 0 0 0-.06.016.2.2 0 0 0-.047.044v.147l.001.073.004.038.06.015L.23 0z" style="fill-rule:nonzero" transform="matrix(66.66645 0 0 66.6667 2791.66 2708.627)"/><path d="m.032 0 .215-.314v.067L.043-.546h.103l.067.106a1 1 0 0 1 .046.077l.04.069H.253l.038-.069A1 1 0 0 1 .335-.44l.07-.106h.1l-.204.303v-.065L.514 0H.412l-.08-.123-.045-.074-.038-.066h.046a1 1 0 0 0-.037.066 1 1 0 0 1-.044.074L.133 0z" style="fill-rule:nonzero" transform="matrix(144.53377 0 0 121.1914 2197.57 1766.377)"/><path d="M.11-.35v-.081h.442v.081zm0 .212v-.081h.442v.081z" style="fill-rule:nonzero" transform="matrix(144.53377 0 0 121.1914 2192.138 2930.677)"/><path d="M.52.007.448.002.371 0H.034L.031-.052.094-.07l.004-.025.003-.055v-.274l-.007-.08-.063-.017.003-.052H.33l.053-.001a1 1 0 0 0 .112-.005l.028.151-.061.008-.037-.088L.4-.512.378-.513H.316l-.037.001-.028.002-.001.024-.001.04v.307l.002.069q.02.002.04.003l.053.001H.42l.018-.001.014-.003.055-.099.059.011zm-.129-.2L.382-.259.359-.26H.278l-.033.001-.02.002v-.075l.02.003.033.001h.045l.036-.001h.023l.009-.065h.058v.201z" style="fill-rule:nonzero" transform="rotate(-8.967 3626.244 -11581.23)scale(83.33305)"/><path d="M.016 0 .013-.048l.06-.017.002-.02.002-.037.001-.039.001-.073-.001-.048L.071-.33.009-.344v-.047L.19-.438l.03.017-.004.078.003.001a.2.2 0 0 1 .055-.075.1.1 0 0 1 .061-.02q.027 0 .049.016.021.017.021.051t-.023.053a.08.08 0 0 1-.053.02.1.1 0 0 1-.045-.009.14.14 0 0 1-.044-.033l.032.002a.1.1 0 0 0-.027.025.2.2 0 0 0-.022.034l.001.073.002.069.002.048.001.022.085.016L.311 0z" style="fill-rule:nonzero" transform="rotate(-7.86 3977.33 -13599.139)scale(83.33307)"/><path d="M.016 0 .013-.048l.06-.017.002-.02.002-.037.001-.039.001-.073-.001-.048L.071-.33.009-.344v-.047L.19-.438l.03.017-.004.078.003.001a.2.2 0 0 1 .055-.075.1.1 0 0 1 .061-.02q.027 0 .049.016.021.017.021.051t-.023.053a.08.08 0 0 1-.053.02.1.1 0 0 1-.045-.009.14.14 0 0 1-.044-.033l.032.002a.1.1 0 0 0-.027.025.2.2 0 0 0-.022.034l.001.073.002.069.002.048.001.022.085.016L.311 0z" style="fill-rule:nonzero" transform="rotate(-6.974 4341.899 -15643.052)scale(83.33311)"/><path d="M.255.008a.22.22 0 0 1-.194-.109.2.2 0 0 1-.028-.109q0-.068.032-.119a.24.24 0 0 1 .084-.082A.2.2 0 0 1 .26-.44q.088 0 .137.053a.2.2 0 0 1 .049.139v.025H.161v-.053H.34l-.018.027v-.038a.1.1 0 0 0-.018-.068Q.286-.382.252-.381a.06.06 0 0 0-.04.013.1.1 0 0 0-.028.038.2.2 0 0 0-.01.066v.023q0 .065.036.105a.12.12 0 0 0 .097.041.2.2 0 0 0 .061-.012.2.2 0 0 0 .052-.041l.032.03a.2.2 0 0 1-.079.094.22.22 0 0 1-.118.032" style="fill-rule:nonzero" transform="rotate(-6.098 4807.006 -18232.72)scale(83.3331)"/><path d="m.509-.095.065.013v.046L.396.013.365-.002l.001-.072-.003-.001a.2.2 0 0 1-.062.067.15.15 0 0 1-.069.018.16.16 0 0 1-.117-.046Q.071-.081.071-.171v-.083L.07-.296.067-.33.001-.344v-.047L.19-.438l.031.017-.003.072q-.002.044-.002.088l-.001.074q0 .048.02.07.021.023.059.023a.1.1 0 0 0 .036-.01.1.1 0 0 0 .032-.031v-.128L.361-.296.357-.33.29-.344v-.047l.187-.047.031.017-.003.032-.001.049v.149l.001.036z" style="fill-rule:nonzero" transform="scale(83.33305)rotate(-5.053 66.837 -269.975)"/><path d="M.016 0 .013-.048l.06-.017.002-.02.002-.037.001-.039.001-.073-.001-.048L.071-.33.009-.344v-.047L.19-.438l.03.017-.004.078.003.001a.2.2 0 0 1 .055-.075.1.1 0 0 1 .061-.02q.027 0 .049.016.021.017.021.051t-.023.053a.08.08 0 0 1-.053.02.1.1 0 0 1-.045-.009.14.14 0 0 1-.044-.033l.032.002a.1.1 0 0 0-.027.025.2.2 0 0 0-.022.034l.001.073.002.069.002.048.001.022.085.016L.311 0z" style="fill-rule:nonzero" transform="scale(83.33306)rotate(-4.065 79.763 -344.481)"/><path d="M.191.008a.34.34 0 0 1-.154-.034L.032-.145h.069l.02.071a.2.2 0 0 0 .077.021.07.07 0 0 0 .043-.011.03.03 0 0 0 .014-.028.04.04 0 0 0-.017-.035.3.3 0 0 0-.069-.033.3.3 0 0 1-.101-.058.12.12 0 0 1-.028-.08.1.1 0 0 1 .026-.074.16.16 0 0 1 .072-.05.3.3 0 0 1 .106-.018.4.4 0 0 1 .121.022L.377-.3H.309L.288-.37.264-.38.238-.383a.1.1 0 0 0-.044.012q-.018.01-.017.032t.021.036.078.037a.24.24 0 0 1 .092.056q.027.03.027.075a.12.12 0 0 1-.056.104.26.26 0 0 1-.148.039" style="fill-rule:nonzero" transform="rotate(-3.254 8023.198 -36508.82)scale(83.3331)"/><path d="M.371.013.34-.002l.001-.064-.003-.002a.15.15 0 0 1-.053.061.13.13 0 0 1-.062.017.2.2 0 0 1-.093-.026.2.2 0 0 1-.071-.074.2.2 0 0 1-.027-.112.23.23 0 0 1 .077-.173.2.2 0 0 1 .078-.047.25.25 0 0 1 .121-.014l.027.007V-.47L.334-.511.333-.548.331-.577.26-.586.258-.631l.199-.051.03.018-.006.11-.003.103-.001.228a1 1 0 0 0 .006.128l.066.013v.046zM.278-.094a.1.1 0 0 0 .03-.009.07.07 0 0 0 .029-.028v-.221A.1.1 0 0 0 .311-.37a.084.084 0 0 0-.1.031.16.16 0 0 0-.027.099q0 .072.028.109.028.036.066.037" style="fill-rule:nonzero" transform="scale(83.3331)rotate(-1.899 155.38 -771.034)"/><path d="M.255.008a.22.22 0 0 1-.194-.109.2.2 0 0 1-.028-.109q0-.068.032-.119a.24.24 0 0 1 .084-.082A.2.2 0 0 1 .26-.44q.088 0 .137.053a.2.2 0 0 1 .049.139v.025H.161v-.053H.34l-.018.027v-.038a.1.1 0 0 0-.018-.068Q.286-.382.252-.381a.06.06 0 0 0-.04.013.1.1 0 0 0-.028.038.2.2 0 0 0-.01.066v.023q0 .065.036.105a.12.12 0 0 0 .097.041.2.2 0 0 0 .061-.012.2.2 0 0 0 .052-.041l.032.03a.2.2 0 0 1-.079.094.22.22 0 0 1-.118.032" style="fill-rule:nonzero" transform="rotate(-.888 26409.94 -140670.121)scale(83.33304)"/><path d="M.038 0 .035-.052.094-.07q.003-.004.004-.025l.003-.054v-.068L.102-.36.101-.426.095-.508.032-.521l.003-.052h.262q.128 0 .189.043a.14.14 0 0 1 .061.126.2.2 0 0 1-.028.098.2.2 0 0 1-.084.069.3.3 0 0 1-.137.026q-.014 0-.03-.002L.237-.217V-.29l.024.008.038.003q.044 0 .067-.029a.13.13 0 0 0 .023-.083q0-.064-.031-.094-.03-.03-.087-.03H.252l-.001.026v.049L.25-.36l.001.143a2 2 0 0 0 .007.148l.079.015L.334 0z" style="fill-rule:nonzero" transform="rotate(.562 -38827.572 228547.9)scale(83.33304)"/><path d="M.016 0 .013-.048l.06-.017.002-.02.002-.037.001-.039.001-.073-.001-.048L.071-.33.009-.344v-.047L.19-.438l.03.017-.004.078.003.001a.2.2 0 0 1 .055-.075.1.1 0 0 1 .061-.02q.027 0 .049.016.021.017.021.051t-.023.053a.08.08 0 0 1-.053.02.1.1 0 0 1-.045-.009.14.14 0 0 1-.044-.033l.032.002a.1.1 0 0 0-.027.025.2.2 0 0 0-.022.034l.001.073.002.069.002.048.001.022.085.016L.311 0z" style="fill-rule:nonzero" transform="rotate(1.575 -13115.816 83348.261)scale(83.33303)"/><path d="M.256.008A.23.23 0 0 1 .14-.021a.2.2 0 0 1-.078-.08.2.2 0 0 1-.029-.109q0-.068.032-.119a.24.24 0 0 1 .084-.082A.2.2 0 0 1 .26-.44q.087 0 .137.053a.2.2 0 0 1 .049.139v.025H.161v-.053H.34l-.018.027v-.038a.1.1 0 0 0-.018-.068.06.06 0 0 0-.052-.026.06.06 0 0 0-.04.013.1.1 0 0 0-.028.038.2.2 0 0 0-.01.066v.023q0 .065.036.105a.12.12 0 0 0 .097.041.2.2 0 0 0 .061-.012.2.2 0 0 0 .052-.04l.032.03a.2.2 0 0 1-.079.093.22.22 0 0 1-.117.032m.028-.481L.22-.494l.096-.167.129.022z" style="fill-rule:nonzero" transform="rotate(2.47 -7956.217 53989.974)scale(83.33303)"/><path d="M.371.013.34-.002l.001-.064-.003-.002a.15.15 0 0 1-.053.061.13.13 0 0 1-.062.017.2.2 0 0 1-.093-.026.2.2 0 0 1-.071-.074.2.2 0 0 1-.027-.112.23.23 0 0 1 .077-.173.2.2 0 0 1 .078-.047.25.25 0 0 1 .121-.014l.027.007V-.47L.334-.511.333-.548.331-.577.26-.586.258-.631l.199-.051.03.018-.006.11-.003.103-.001.228a1 1 0 0 0 .006.128l.066.013v.046zM.278-.094a.1.1 0 0 0 .03-.009.07.07 0 0 0 .029-.028v-.221A.1.1 0 0 0 .311-.37a.084.084 0 0 0-.1.031.16.16 0 0 0-.027.099q0 .072.028.109.028.036.066.037" style="fill-rule:nonzero" transform="rotate(3.583 -5128 37899.823)scale(83.33303)"/><path d="M.012 0 .009-.05l.064-.015.002-.02.002-.036.001-.04.001-.073-.001-.049L.071-.33.006-.344v-.047l.192-.047.031.017-.005.065-.001.072v.125a1 1 0 0 0 .005.094l.064.015L.289 0zm.14-.507a.1.1 0 0 1-.069-.026.09.09 0 0 1 0-.121q.024-.027.069-.027t.069.027a.1.1 0 0 1 .023.06.1.1 0 0 1-.023.061.1.1 0 0 1-.069.026" style="fill-rule:nonzero" transform="rotate(4.483 -3876.295 30918.297)scale(83.33307)"/><path d="M.258.008A.23.23 0 0 1 .143-.02a.2.2 0 0 1-.081-.076.216.216 0 0 1 .002-.224.25.25 0 0 1 .219-.12q.043 0 .079.012a.14.14 0 0 1 .058.033q.022.02.022.049 0 .027-.017.04a.06.06 0 0 1-.039.013A.1.1 0 0 1 .351-.3a.1.1 0 0 1-.035-.022L.238-.389l.055.012a.07.07 0 0 0-.05.008.1.1 0 0 0-.041.046.2.2 0 0 0-.016.079q0 .073.036.11a.12.12 0 0 0 .088.037.1.1 0 0 0 .05-.011.2.2 0 0 0 .053-.042l.032.029a.2.2 0 0 1-.079.096.2.2 0 0 1-.108.033" style="fill-rule:nonzero" transform="scale(83.33307)rotate(5.352 -36.705 314.345)"/><path d="M.373-.089a.13.13 0 0 1-.054.072.16.16 0 0 1-.093.027.17.17 0 0 1-.115-.04Q.066-.07.066-.152l.003-.213H0v-.033l.183-.14h.032l-.002.146-.002.229q0 .038.019.053a.08.08 0 0 0 .053.016q.015 0 .033-.007a.1.1 0 0 0 .03-.017zM.165-.365v-.067h.182v.067z" style="fill-rule:nonzero" transform="rotate(6.271 -2444.718 22727.331)scale(83.33312)"/><path d="M.012 0 .009-.05l.064-.015.002-.02.002-.036.001-.04.001-.073-.001-.049L.071-.33.006-.344v-.047l.192-.047.031.017-.005.065-.001.072v.125a1 1 0 0 0 .005.094l.064.015L.289 0zm.14-.507a.1.1 0 0 1-.069-.026.09.09 0 0 1 0-.121q.024-.027.069-.027t.069.027a.1.1 0 0 1 .023.06.1.1 0 0 1-.023.061.1.1 0 0 1-.069.026" style="fill-rule:nonzero" transform="scale(83.3331)rotate(7.033 -24.695 246.408)"/><path d="M.268.008A.25.25 0 0 1 .146-.02a.2.2 0 0 1-.084-.078.2.2 0 0 1-.03-.113q0-.074.034-.125a.23.23 0 0 1 .09-.078.3.3 0 0 1 .117-.026q.066 0 .117.028.05.027.079.077a.2.2 0 0 1 .029.113.22.22 0 0 1-.114.199.2.2 0 0 1-.116.031M.279-.06a.05.05 0 0 0 .036-.015.1.1 0 0 0 .022-.043.3.3 0 0 0 .007-.068.3.3 0 0 0-.024-.138Q.295-.377.256-.377q-.032 0-.05.036a.2.2 0 0 0-.019.097.3.3 0 0 0 .012.094.2.2 0 0 0 .033.065q.02.025.047.025" style="fill-rule:nonzero" transform="scale(83.3331)rotate(8.008 -19.956 218.762)"/><path d="M.015 0 .012-.048l.06-.017.002-.02.002-.036.001-.04.001-.074-.001-.048L.07-.33.008-.344v-.047l.184-.047.031.017-.006.061.003.001A.2.2 0 0 1 .287-.42a.16.16 0 0 1 .155.001q.034.022.053.061a.2.2 0 0 1 .019.096v.099l.001.061.003.037.061.017L.576 0h-.26L.313-.048l.054-.017.003-.029.002-.036v-.109a.13.13 0 0 0-.01-.057.1.1 0 0 0-.027-.033.1.1 0 0 0-.039-.01.1.1 0 0 0-.041.009.1.1 0 0 0-.034.028v.143l.001.057q.001.03.004.037l.057.017L.28 0z" style="fill-rule:nonzero" transform="scale(83.33306)rotate(9.349 -15.09 190.88)"/><path d="M10345.8 10584.8c4.5.9 7.8 5.1 7.8 10 .1 30.9.1 136.9.1 164.3.1 1.6-.6 3.2-1.8 4.2-1.1 1-2.7 1.4-4.2 1.1-243.6-48.2-481.24-46.1-713.64.1-1.41.3-2.87-.1-3.98-1.1-1.1-1-1.74-2.4-1.74-3.9v-164.4c0-5.1 3.43-9.4 8.14-10.3 235.85-44.7 472.22-47.6 709.32 0" style="fill:none;stroke:#000;stroke-width:2.4px" transform="matrix(1.2514 0 0 1.1788 -10272.582 -12175.497)"/></svg>