<svg xmlns="http://www.w3.org/2000/svg" xml:space="preserve" style="fill-rule:evenodd;clip-rule:evenodd;stroke-linecap:round;stroke-linejoin:round;stroke-miterlimit:1.5" viewBox="0 0 577 1164"><path d="M0 0h576.513v1163.62H0z" style="fill:none"/><path d="m236.381 922.105 12.44 30.573M393.363 924.021l-13.145 28.535" style="fill:#353535;stroke:#000;stroke-width:.94px"/><text x="135.522" y="45.182" style="font-family:&quot;CrimsonPro-Regular&quot;,&quot;Crimson Pro&quot;;font-size:66.667px" transform="matrix(.26667 0 0 .26667 -14.424 822.854)">Appr<tspan x="265.6" y="45.182">é</tspan>ciation</text><text x="239.624" y="116.016" style="font-family:&quot;CrimsonPro-Regular&quot;,&quot;Crimson Pro&quot;;font-size:66.667px" transform="matrix(.26667 0 0 .26667 -14.424 822.854)">Musicale</text><path d="m124.515 818.998 6.117-8.904 6.118 8.904M130.632 810.094v248.155M496.025 1051.89l8.563 6.361-8.563 6.362M504.588 1058.25H130.632" style="fill:none;stroke:#000;stroke-width:1.67px"/><text x="429.687" y="1089.99" style="font-family:&quot;CrimsonPro-Regular&quot;,&quot;Crimson Pro&quot;;font-size:17.778px">E<tspan x="439.045" y="1089.99">x</tspan>position</text><path d="M130.632 1058.25c23.51-41.427 70.528-124.282 186.978-124.077 98.21.172 147.124 72.072 171.581 108.023" style="fill:none;stroke:#000;stroke-width:.94px;stroke-dasharray:1.89,.05,0,3.78,3.78,0;stroke-dashoffset:3.78"/><path d="M.493.005.455.003.405.001.362 0H.135L.096.001.058.003v-.051l.309-.509v.041H.2l-.047.001-.032.004-.019.1h-.06L.04-.576a1 1 0 0 0 .096.003h.279l.038-.001.038-.001v.05l-.303.503v-.04h.183l.028-.001.024-.003.041-.111.059.008z" style="fill-rule:nonzero" transform="scale(20.00002)rotate(-5.791 453.323 -117.09)"/><path d="M.263.008A.24.24 0 0 1 .144-.02a.2.2 0 0 1-.081-.077.2.2 0 0 1-.029-.113q0-.072.033-.123A.2.2 0 0 1 .153-.41a.25.25 0 0 1 .229.001.2.2 0 0 1 .104.189.23.23 0 0 1-.11.198.2.2 0 0 1-.113.03m.011-.062A.06.06 0 0 0 .315-.07a.1.1 0 0 0 .026-.046.305.305 0 0 0-.017-.21Q.297-.378.252-.378q-.036 0-.059.038a.2.2 0 0 0-.022.102.3.3 0 0 0 .014.094.2.2 0 0 0 .036.065.07.07 0 0 0 .053.025" style="fill-rule:nonzero" transform="rotate(-3.539 14740.825 -4295.823)scale(20.00002)"/><path d="M.018 0 .015-.045l.061-.016.002-.018.002-.035.001-.045.001-.074L.08-.286Q.078-.308.073-.333L.011-.347V-.39l.171-.045.027.017-.006.058.003.001A.175.175 0 0 1 .35-.437q.042 0 .075.021t.053.06a.2.2 0 0 1 .019.096v.1a1 1 0 0 0 .005.099l.06.016L.559 0H.315L.312-.045l.055-.016.003-.026.002-.035v-.12a.14.14 0 0 0-.011-.059.07.07 0 0 0-.03-.034.1.1 0 0 0-.041-.011.105.105 0 0 0-.083.043v.143a1 1 0 0 0 .005.099l.059.016L.268 0z" style="fill-rule:nonzero" transform="scale(20.00002)rotate(-1.225 2114.382 -687.517)"/><path d="M.252.008a.2.2 0 0 1-.113-.029.2.2 0 0 1-.077-.077.2.2 0 0 1-.028-.11q0-.068.032-.119a.2.2 0 0 1 .081-.081.2.2 0 0 1 .108-.029q.086 0 .133.054a.2.2 0 0 1 .047.138v.023H.148v-.051h.191l-.015.024v-.034a.12.12 0 0 0-.02-.072.07.07 0 0 0-.057-.027.1.1 0 0 0-.044.013.1.1 0 0 0-.031.041.2.2 0 0 0-.011.07v.02a.16.16 0 0 0 .037.111.12.12 0 0 0 .098.042.13.13 0 0 0 .061-.013.2.2 0 0 0 .053-.041l.03.028a.2.2 0 0 1-.077.089.2.2 0 0 1-.111.03" style="fill-rule:nonzero" transform="matrix(19.99674 .3623 -.3623 19.99674 315.14 900.816)"/><path d="M.371.012.345-.002l.001-.063-.003-.002a.16.16 0 0 1-.055.06.13.13 0 0 1-.062.016.2.2 0 0 1-.096-.026.2.2 0 0 1-.07-.073.2.2 0 0 1-.026-.11.23.23 0 0 1 .074-.173.26.26 0 0 1 .163-.063q.018 0 .038.004a.1.1 0 0 1 .032.01v-.041L.34-.509.339-.551.337-.58.264-.591.262-.633l.186-.048.026.017-.005.112q-.003.051-.003.108l-.001.226q0 .048.003.078l.004.052.065.014v.042zM.272-.084a.086.086 0 0 0 .07-.042v-.218A.1.1 0 0 0 .311-.37a.1.1 0 0 0-.037-.007.09.09 0 0 0-.076.038.16.16 0 0 0-.03.105q0 .072.031.111a.09.09 0 0 0 .073.039" style="fill-rule:nonzero" transform="rotate(4.297 -11845.155 4825.252)scale(20.00003)"/><path d="M.252.008a.2.2 0 0 1-.113-.029.2.2 0 0 1-.077-.077.2.2 0 0 1-.028-.11q0-.068.032-.119a.2.2 0 0 1 .081-.081.2.2 0 0 1 .108-.029q.086 0 .133.054a.2.2 0 0 1 .047.138v.023H.148v-.051h.191l-.015.024v-.034a.12.12 0 0 0-.02-.072.07.07 0 0 0-.057-.027.1.1 0 0 0-.044.013.1.1 0 0 0-.031.041.2.2 0 0 0-.011.07v.02a.16.16 0 0 0 .037.111.12.12 0 0 0 .098.042.13.13 0 0 0 .061-.013.2.2 0 0 0 .053-.041l.03.028a.2.2 0 0 1-.077.089.2.2 0 0 1-.111.03" style="fill-rule:nonzero" transform="scale(20.00003)rotate(6.853 -368.119 164.169)"/><text x="3746.71" y="-142.979" style="font-family:&quot;CrimsonPro-Regular&quot;,&quot;Crimson Pro&quot;;font-size:66.667px" transform="matrix(.24891 .08625 -.08106 .2576 -579.808 678.399)">Z</text><text x="3779.33" y="-154.761" style="font-family:&quot;CrimsonPro-Regular&quot;,&quot;Crimson Pro&quot;;font-size:66.667px" transform="matrix(.2436 .10155 -.09584 .25196 -562.47 622.934)">o</text><text x="3811.15" y="-164.183" style="font-family:&quot;CrimsonPro-Regular&quot;,&quot;Crimson Pro&quot;;font-size:66.667px" transform="matrix(.23783 .11554 -.10938 .24586 -543.271 571.098)">n</text><text x="3846.01" y="-172.299" style="font-family:&quot;CrimsonPro-Regular&quot;,&quot;Crimson Pro&quot;;font-size:66.667px" transform="matrix(.23206 .12769 -.12113 .23978 -523.797 525.457)">e</text><text x="3887.16" y="-179.525" style="font-family:&quot;CrimsonPro-Regular&quot;,&quot;Crimson Pro&quot;;font-size:66.667px" transform="matrix(.2235 .14336 -.1363 .23075 -493.966 464.82)">d</text><text x="3922.01" y="-183.48" style="font-family:&quot;CrimsonPro-Regular&quot;,&quot;Crimson Pro&quot;;font-size:66.667px" transform="matrix(.21682 .15407 -.14668 .22374 -470.216 422.49)">e</text><text x="3963.77" y="-185.863" style="font-family:&quot;CrimsonPro-Regular&quot;,&quot;Crimson Pro&quot;;font-size:66.667px" transform="matrix(.20788 .16688 -.1591 .21436 -437.48 370.605)">r</text><text x="3986.07" y="-186.151" style="font-family:&quot;CrimsonPro-Regular&quot;,&quot;Crimson Pro&quot;;font-size:66.667px" transform="matrix(.2016 .17502 -.167 .20776 -413.912 336.966)">é</text><text x="4015.28" y="-185.342" style="font-family:&quot;CrimsonPro-Regular&quot;,&quot;Crimson Pro&quot;;font-size:66.667px" transform="matrix(.1932 .18495 -.17663 .19898 -381.862 295.282)">g</text><text x="4047.51" y="-182.856" style="font-family:&quot;CrimsonPro-Regular&quot;,&quot;Crimson Pro&quot;;font-size:66.667px" transform="matrix(.1834 .19541 -.1868 .18871 -343.559 250.573)">u</text><text x="4082.49" y="-177.984" style="font-family:&quot;CrimsonPro-Regular&quot;,&quot;Crimson Pro&quot;;font-size:66.667px" transform="matrix(.1749 .20362 -.19477 .17983 -309.372 214.688)">l</text><text x="4099.72" y="-175.078" style="font-family:&quot;CrimsonPro-Regular&quot;,&quot;Crimson Pro&quot;;font-size:66.667px" transform="matrix(.16602 .21145 -.2024 .17054 -273.638 180.423)">a</text><text x="4129.85" y="-168.234" style="font-family:&quot;CrimsonPro-Regular&quot;,&quot;Crimson Pro&quot;;font-size:66.667px" transform="matrix(.1563 .21925 -.21 .1604 -233.273 145.506)">r</text><text x="4152.62" y="-161.904" style="font-family:&quot;CrimsonPro-Regular&quot;,&quot;Crimson Pro&quot;;font-size:66.667px" transform="matrix(.14835 .22509 -.21568 .1521 -199.748 119.125)">i</text><text x="4169.32" y="-156.689" style="font-family:&quot;CrimsonPro-Regular&quot;,&quot;Crimson Pro&quot;;font-size:66.667px" transform="matrix(.1399 .2308 -.22126 .14327 -164.092 93.274)">t</text><text x="4189.73" y="-149.482" style="font-family:&quot;CrimsonPro-Regular&quot;,&quot;Crimson Pro&quot;;font-size:66.667px" transform="matrix(.12925 .23733 -.22764 .13218 -118.677 63.5)">é</text><text x="3739.51" y="-143.41" style="font-family:&quot;CrimsonPro-Regular&quot;,&quot;Crimson Pro&quot;;font-size:66.667px" transform="matrix(.1389 -.23135 .22183 .14248 -319.102 1930.171)">Z</text><text x="3772.23" y="-154.87" style="font-family:&quot;CrimsonPro-Regular&quot;,&quot;Crimson Pro&quot;;font-size:66.667px" transform="matrix(.15168 -.2226 .21329 .15581 -365.816 1900.372)">o</text><text x="3804.01" y="-163.99" style="font-family:&quot;CrimsonPro-Regular&quot;,&quot;Crimson Pro&quot;;font-size:66.667px" transform="matrix(.1629 -.21392 .20485 .16752 -407.745 1870.421)">n</text><text x="3839.03" y="-171.931" style="font-family:&quot;CrimsonPro-Regular&quot;,&quot;Crimson Pro&quot;;font-size:66.667px" transform="matrix(.17242 -.20574 .1969 .17747 -443.875 1841.896)">e</text><text x="3880.19" y="-179.041" style="font-family:&quot;CrimsonPro-Regular&quot;,&quot;Crimson Pro&quot;;font-size:66.667px" transform="matrix(.18431 -.19433 .18582 .1899 -490.433 1801.025)">d</text><text x="3915.04" y="-182.932" style="font-family:&quot;CrimsonPro-Regular&quot;,&quot;Crimson Pro&quot;;font-size:66.667px" transform="matrix(.19047 -.18782 .1795 .19634 -514.889 1777.457)">&apos;</text><text x="3930.23" y="-184.192" style="font-family:&quot;CrimsonPro-Regular&quot;,&quot;Crimson Pro&quot;;font-size:66.667px" transform="matrix(.19443 -.18338 .1752 .20049 -531.037 1761.017)">i</text><text x="3947.68" y="-185.282" style="font-family:&quot;CrimsonPro-Regular&quot;,&quot;Crimson Pro&quot;;font-size:66.667px" transform="matrix(.1994 -.17754 .16953 .20568 -551.49 1739.1)">r</text><text x="3971.28" y="-186.02" style="font-family:&quot;CrimsonPro-Regular&quot;,&quot;Crimson Pro&quot;;font-size:66.667px" transform="matrix(.2049 -.17064 .16285 .21144 -574.433 1712.928)">r</text><text x="3993.59" y="-186.055" style="font-family:&quot;CrimsonPro-Regular&quot;,&quot;Crimson Pro&quot;;font-size:66.667px" transform="matrix(.21061 -.16293 .15538 .21743 -598.668 1683.255)">é</text><text x="4022.91" y="-184.99" style="font-family:&quot;CrimsonPro-Regular&quot;,&quot;Crimson Pro&quot;;font-size:66.667px" transform="matrix(.2175 -.15282 .1456 .22466 -628.337 1643.673)">g</text><text x="4055.04" y="-182.34" style="font-family:&quot;CrimsonPro-Regular&quot;,&quot;Crimson Pro&quot;;font-size:66.667px" transform="matrix(.22455 -.14132 .13446 .23206 -659.333 1597.764)">u</text><text x="4090.04" y="-177.415" style="font-family:&quot;CrimsonPro-Regular&quot;,&quot;Crimson Pro&quot;;font-size:66.667px" transform="matrix(.22997 -.1315 .12495 .23777 -683.78 1557.421)">l</text><text x="4107.3" y="-174.51" style="font-family:&quot;CrimsonPro-Regular&quot;,&quot;Crimson Pro&quot;;font-size:66.667px" transform="matrix(.23504 -.12134 .11513 .2431 -706.634 1515.902)">a</text><text x="4137.48" y="-167.77" style="font-family:&quot;CrimsonPro-Regular&quot;,&quot;Crimson Pro&quot;;font-size:66.667px" transform="matrix(.23995 -.11037 .10453 .24828 -729.297 1469.667)">r</text><text x="4160.28" y="-161.581" style="font-family:&quot;CrimsonPro-Regular&quot;,&quot;Crimson Pro&quot;;font-size:66.667px" transform="matrix(.2435 -.1015 .09596 .25204 -745.918 1431.747)">i</text><text x="4177.04" y="-156.486" style="font-family:&quot;CrimsonPro-Regular&quot;,&quot;Crimson Pro&quot;;font-size:66.667px" transform="matrix(.24689 -.0921 .08688 .25562 -761.792 1391.665)">t</text><text x="4197.47" y="-149.489" style="font-family:&quot;CrimsonPro-Regular&quot;,&quot;Crimson Pro&quot;;font-size:66.667px" transform="matrix(.25058 -.0804 .07558 .25954 -779.295 1341.223)">é</text><path d="M.041 0 .038-.049l.058-.016q.003-.003.003-.023l.003-.051.001-.071.001-.157-.001-.069-.006-.075-.062-.014.003-.048h.247q.12 0 .18.043.059.043.059.125a.17.17 0 0 1-.028.096.2.2 0 0 1-.082.068.3.3 0 0 1-.128.025q-.016 0-.034-.002L.221-.223V-.29l.028.008q.016.003.037.003.046 0 .072-.029a.12.12 0 0 0 .026-.084q0-.066-.032-.096a.12.12 0 0 0-.089-.031H.236l-.001.026v.05l-.001.076.001.157.001.071.003.051.002.023.08.014L.318 0z" style="fill-rule:nonzero" transform="rotate(-16.082 3436.563 -428.792)scale(20.00003)"/><path d="M.015 0 .012-.046l.064-.015.003-.038.002-.062.001-.068v-.124L.081-.42.08-.484.079-.54.076-.581l-.072-.01-.002-.042.186-.048.027.017-.003.08-.001.087-.001.119-.001.144.001.115a.4.4 0 0 0 .004.058l.063.015L.275 0z" style="fill-rule:nonzero" transform="rotate(-13.897 3956.17 -616.763)scale(20.00003)"/><path d="M.184.008a.15.15 0 0 1-.078-.02.14.14 0 0 1-.05-.046.1.1 0 0 1-.017-.052q0-.036.022-.06a.15.15 0 0 1 .068-.037l.154-.045v-.035a.06.06 0 0 0-.014-.039.095.095 0 0 0-.08-.041q-.016 0-.023.007-.006.008-.008.029l-.005.059a.13.13 0 0 1-.079-.003Q.043-.288.043-.318q0-.019.019-.039a.358.358 0 0 1 .161-.08q.087 0 .138.04.05.04.051.106l-.003.136.001.043q.002.015.006.025l.064.011v.041l-.063.028a.2.2 0 0 1-.06.015q-.039 0-.054-.039L.286-.076l.021.004a.3.3 0 0 1-.062.059.1.1 0 0 1-.061.021M.233-.08A.1.1 0 0 0 .26-.085a.1.1 0 0 0 .023-.017v-.095l-.067.012Q.192-.182.182-.17a.05.05 0 0 0-.01.031q0 .023.018.041a.06.06 0 0 0 .043.018" style="fill-rule:nonzero" transform="scale(20.00002)rotate(-11.758 232.702 -42.18)"/><path d="M.015 0 .012-.046l.065-.016.002-.018.002-.034.001-.045.001-.073a1 1 0 0 0-.009-.101L.009-.347v-.044l.179-.044.027.017-.005.063-.001.072v.123a1 1 0 0 0 .005.098l.065.016L.276 0zm.131-.515a.08.08 0 0 1-.061-.024.08.08 0 0 1-.023-.055q0-.031.023-.055a.08.08 0 0 1 .061-.024q.04 0 .061.024a.08.08 0 0 1 .022.055.08.08 0 0 1-.022.055q-.02.024-.061.024" style="fill-rule:nonzero" transform="rotate(-9.814 5548.442 -1161.255)scale(20.00003)"/><path d="M.19.008a.4.4 0 0 1-.081-.009.3.3 0 0 1-.067-.024L.037-.14H.1l.02.07q.037.022.077.022.03 0 .046-.012a.04.04 0 0 0 .016-.032.05.05 0 0 0-.017-.038.3.3 0 0 0-.07-.035.3.3 0 0 1-.101-.058.11.11 0 0 1-.028-.078q0-.04.025-.071A.2.2 0 0 1 .136-.42a.3.3 0 0 1 .101-.017.4.4 0 0 1 .117.022l.011.113H.303L.281-.371a.1.1 0 0 0-.05-.013.1.1 0 0 0-.048.013.04.04 0 0 0-.018.034q0 .023.022.039a.4.4 0 0 0 .078.039.3.3 0 0 1 .092.056q.027.03.027.074A.12.12 0 0 1 .33-.03a.24.24 0 0 1-.14.038" style="fill-rule:nonzero" transform="rotate(-7.944 6822.696 -1587.081)scale(20.00003)"/><path d="M.015 0 .012-.046l.065-.016.002-.018.002-.034.001-.045.001-.073a1 1 0 0 0-.009-.101L.009-.347v-.044l.179-.044.027.017-.005.063-.001.072v.123a1 1 0 0 0 .005.098l.065.016L.276 0zm.131-.515a.08.08 0 0 1-.061-.024.08.08 0 0 1-.023-.055q0-.031.023-.055a.08.08 0 0 1 .061-.024q.04 0 .061.024a.08.08 0 0 1 .022.055.08.08 0 0 1-.022.055q-.02.024-.061.024" style="fill-rule:nonzero" transform="rotate(-6.127 8803.066 -2273.04)scale(20.00002)"/><path d="M.019 0 .016-.045l.061-.016.002-.019.002-.035.001-.044.001-.074-.002-.052Q.079-.308.074-.333L.012-.347V-.39l.169-.045.025.017-.004.077.003.001a.2.2 0 0 1 .057-.074.1.1 0 0 1 .059-.02q.027 0 .047.015t.019.046a.06.06 0 0 1-.021.049.07.07 0 0 1-.05.017.1.1 0 0 1-.042-.008.1.1 0 0 1-.04-.029l.027.002a.16.16 0 0 0-.052.066l.001.077.001.064.002.048.002.025.085.015L.297 0z" style="fill-rule:nonzero" transform="scale(20.00002)rotate(-4.254 630.782 -177.91)"/><path d="M.047-.573h.204l.205.433H.428l.184-.433h.204l.003.048-.062.015v.044l.002.079.006.171.004.073.006.078.062.016L.834 0H.569L.566-.049l.063-.016.001-.022.001-.052L.63-.215l-.003-.33h.045L.439.003H.378l-.26-.548h.06l.001.336.001.107.002.037.068.016L.247 0H.033L.03-.049l.068-.016L.1-.091l.002-.051.001-.06.002-.183.001-.082v-.042L.044-.525z" style="fill-rule:nonzero" transform="matrix(19.99962 .12671 -.12671 19.99962 310.52 925.08)"/><path d="m.492-.088.064.014v.042L.391.012.364-.002l.001-.069-.003-.001a.16.16 0 0 1-.061.064.14.14 0 0 1-.067.017.15.15 0 0 1-.115-.044Q.075-.078.075-.167V-.25L.074-.292.071-.333.005-.347V-.39L.18-.435l.028.017-.004.07-.002.084-.001.083q0 .05.023.074a.08.08 0 0 0 .061.023.092.092 0 0 0 .077-.046v-.094L.361-.266.36-.3.356-.333.287-.347V-.39l.176-.045.027.017-.002.037-.001.047v.14l.001.05q0 .027.004.056" style="fill-rule:nonzero" transform="matrix(19.9369 1.58782 -1.58782 19.9369 327.9 925.3)"/><path d="M.19.008a.4.4 0 0 1-.081-.009.3.3 0 0 1-.067-.024L.037-.14H.1l.02.07q.037.022.077.022.03 0 .046-.012a.04.04 0 0 0 .016-.032.05.05 0 0 0-.017-.038.3.3 0 0 0-.07-.035.3.3 0 0 1-.101-.058.11.11 0 0 1-.028-.078q0-.04.025-.071A.2.2 0 0 1 .136-.42a.3.3 0 0 1 .101-.017.4.4 0 0 1 .117.022l.011.113H.303L.281-.371a.1.1 0 0 0-.05-.013.1.1 0 0 0-.048.013.04.04 0 0 0-.018.034q0 .023.022.039a.4.4 0 0 0 .078.039.3.3 0 0 1 .092.056q.027.03.027.074A.12.12 0 0 1 .33-.03a.24.24 0 0 1-.14.038" style="fill-rule:nonzero" transform="scale(20.00003)rotate(7.589 -340.65 151.026)"/><path d="M.015 0 .012-.046l.065-.016.002-.018.002-.034.001-.045.001-.073a1 1 0 0 0-.009-.101L.009-.347v-.044l.179-.044.027.017-.005.063-.001.072v.123a1 1 0 0 0 .005.098l.065.016L.276 0zm.131-.515a.08.08 0 0 1-.061-.024.08.08 0 0 1-.023-.055q0-.031.023-.055a.08.08 0 0 1 .061-.024q.04 0 .061.024a.08.08 0 0 1 .022.055.08.08 0 0 1-.022.055q-.02.024-.061.024" style="fill-rule:nonzero" transform="rotate(9.715 -5282.141 2506.927)scale(20.00002)"/><path d="M.253.008a.23.23 0 0 1-.111-.027.203.203 0 0 1-.108-.185q0-.062.031-.115a.23.23 0 0 1 .086-.085.24.24 0 0 1 .125-.033q.043 0 .078.012a.1.1 0 0 1 .054.032.06.06 0 0 1 .021.046q0 .024-.015.036a.06.06 0 0 1-.037.013.1.1 0 0 1-.033-.007.2.2 0 0 1-.032-.023L.241-.39l.049.011a.08.08 0 0 0-.056.008.1.1 0 0 0-.046.048.2.2 0 0 0-.018.085q0 .074.037.113a.12.12 0 0 0 .091.038.1.1 0 0 0 .054-.012.2.2 0 0 0 .053-.042l.03.028a.2.2 0 0 1-.076.09.2.2 0 0 1-.106.031" style="fill-rule:nonzero" transform="rotate(12.139 -4188.473 2124.158)scale(20.00003)"/><path d="M.184.008a.15.15 0 0 1-.078-.02.14.14 0 0 1-.05-.046.1.1 0 0 1-.017-.052q0-.036.022-.06a.15.15 0 0 1 .068-.037l.154-.045v-.035a.06.06 0 0 0-.014-.039.095.095 0 0 0-.08-.041q-.016 0-.023.007-.006.008-.008.029l-.005.059a.13.13 0 0 1-.079-.003Q.043-.288.043-.318q0-.019.019-.039a.358.358 0 0 1 .161-.08q.087 0 .138.04.05.04.051.106l-.003.136.001.043q.002.015.006.025l.064.011v.041l-.063.028a.2.2 0 0 1-.06.015q-.039 0-.054-.039L.286-.076l.021.004a.3.3 0 0 1-.062.059.1.1 0 0 1-.061.021M.233-.08A.1.1 0 0 0 .26-.085a.1.1 0 0 0 .023-.017v-.095l-.067.012Q.192-.182.182-.17a.05.05 0 0 0-.01.031q0 .023.018.041a.06.06 0 0 0 .043.018" style="fill-rule:nonzero" transform="rotate(15.228 -3298.128 1818.392)scale(20.00003)"/><path d="M.015 0 .012-.046l.064-.015.003-.038.002-.062.001-.068v-.124L.081-.42.08-.484.079-.54.076-.581l-.072-.01-.002-.042.186-.048.027.017-.003.08-.001.087-.001.119-.001.144.001.115a.4.4 0 0 0 .004.058l.063.015L.275 0z" style="fill-rule:nonzero" transform="rotate(17.661 -2816.406 1661.126)scale(20.00003)"/><path d="m124.328 214.302 6.114-8.186 6.114 8.186M130.442 206.116v228.142M496.084 428.568l8.558 5.849-8.558 5.848M504.151 434.258H130.442" style="fill:none;stroke:#000;stroke-width:1.67px"/><path d="M130.442 434.258 467.468 232.77" style="fill:none;stroke:#000;stroke-width:.94px;stroke-dasharray:0,.05,3.78,3.78,0,0;stroke-dashoffset:3.78"/><text x="191.268" y="45.182" style="font-family:&quot;CrimsonPro-Regular&quot;,&quot;Crimson Pro&quot;;font-size:66.667px" transform="matrix(.26667 0 0 .26667 -26.08 218.325)">C<tspan x="230.266" y="45.182">e</tspan>rtitude de</text><text x="247.844" y="116.016" style="font-family:&quot;CrimsonPro-Regular&quot;,&quot;Crimson Pro&quot;;font-size:66.667px" transform="matrix(.26667 0 0 .26667 -26.08 218.325)">Pr<tspan x="303.573" y="116.016">é</tspan>diction</text><text x="424.451" y="464.409" style="font-family:&quot;CrimsonPro-Regular&quot;,&quot;Crimson Pro&quot;;font-size:17.778px">E<tspan x="433.808" y="464.409">x</tspan>position</text><path d="m124.782 514.744 6.114-8.092 6.113 8.092M130.896 506.652v225.519M496.042 726.39l8.558 5.781-8.558 5.781M504.6 732.171H130.896" style="fill:none;stroke:#000;stroke-width:1.67px"/><path d="m145.217 518.721 341.884 202.093" style="fill:none;stroke:#000;stroke-width:.94px;stroke-dasharray:1.89,.05,0,3.78,3.78,0;stroke-dashoffset:3.78"/><text x="194.928" y="45.182" style="font-family:&quot;CrimsonPro-Regular&quot;,&quot;Crimson Pro&quot;;font-size:66.667px" transform="matrix(.26667 0 0 .26667 -7.981 518.721)">Err<tspan x="277.089" y="45.182">e</tspan>ur de</text><text x="168.691" y="116.016" style="font-family:&quot;CrimsonPro-Regular&quot;,&quot;Crimson Pro&quot;;font-size:66.667px" transform="matrix(.26667 0 0 .26667 -7.981 518.721)">Pr<tspan x="224.42" y="116.016">é</tspan>diction</text><text x="424.9" y="762.114" style="font-family:&quot;CrimsonPro-Regular&quot;,&quot;Crimson Pro&quot;;font-size:17.778px">E<tspan x="434.258" y="762.114">x</tspan>position</text><text x="279.411" y="852.819" style="font-family:&quot;Inter-Regular&quot;,&quot;Inter&quot;;font-size:38.542px" transform="matrix(1 0 0 .8385 0 -222.755)">x</text><text x="277.962" y="1154.17" style="font-family:&quot;Inter-Regular&quot;,&quot;Inter&quot;;font-size:38.542px" transform="matrix(1 0 0 .8385 0 -174.087)">=</text><path d="M.52.007.448.002.371 0H.034L.031-.052.094-.07l.004-.025.003-.055v-.274l-.007-.08-.063-.017.003-.052H.33l.053-.001a1 1 0 0 0 .112-.005l.028.151-.061.008-.037-.088L.4-.512.378-.513H.316l-.037.001-.028.002-.001.024-.001.04v.307l.002.069q.02.002.04.003l.053.001H.42l.018-.001.014-.003.055-.099.059.011zm-.129-.2L.382-.259.359-.26H.278l-.033.001-.02.002v-.075l.02.003.033.001h.045l.036-.001h.023l.009-.065h.058v.201z" style="fill-rule:nonzero" transform="rotate(-8.967 814.79 -1144.796)scale(22.22224)"/><path d="M.016 0 .013-.048l.06-.017.002-.02.002-.037.001-.039.001-.073-.001-.048L.071-.33.009-.344v-.047L.19-.438l.03.017-.004.078.003.001a.2.2 0 0 1 .055-.075.1.1 0 0 1 .061-.02q.027 0 .049.016.021.016.021.051 0 .033-.023.053a.08.08 0 0 1-.053.02.1.1 0 0 1-.045-.009.14.14 0 0 1-.044-.033l.032.002a.1.1 0 0 0-.027.025.2.2 0 0 0-.022.034l.001.073.002.069.002.048.001.022.085.016L.311 0z" style="fill-rule:nonzero" transform="scale(22.22225)rotate(-7.86 40.88 -63.37)"/><path d="M.016 0 .013-.048l.06-.017.002-.02.002-.037.001-.039.001-.073-.001-.048L.071-.33.009-.344v-.047L.19-.438l.03.017-.004.078.003.001a.2.2 0 0 1 .055-.075.1.1 0 0 1 .061-.02q.027 0 .049.016.021.016.021.051 0 .033-.023.053a.08.08 0 0 1-.053.02.1.1 0 0 1-.045-.009.14.14 0 0 1-.044-.033l.032.002a.1.1 0 0 0-.027.025.2.2 0 0 0-.022.034l.001.073.002.069.002.048.001.022.085.016L.311 0z" style="fill-rule:nonzero" transform="rotate(-6.974 1005.682 -1670.635)scale(22.22224)"/><path d="M.255.008a.22.22 0 0 1-.194-.109.2.2 0 0 1-.028-.109q0-.068.032-.119a.24.24 0 0 1 .084-.082A.2.2 0 0 1 .26-.44q.088 0 .137.053a.2.2 0 0 1 .049.139v.025H.161v-.053H.34l-.018.027v-.038a.1.1 0 0 0-.018-.068Q.286-.381.252-.381a.06.06 0 0 0-.04.013.1.1 0 0 0-.028.038.2.2 0 0 0-.01.066v.023q0 .065.036.105a.12.12 0 0 0 .097.041.2.2 0 0 0 .061-.012.2.2 0 0 0 .052-.041l.032.03a.2.2 0 0 1-.079.094.22.22 0 0 1-.118.032" style="fill-rule:nonzero" transform="rotate(-6.098 1129.728 -2000.88)scale(22.22223)"/><path d="m.509-.095.065.013v.046L.396.013.365-.002l.001-.072-.003-.001a.2.2 0 0 1-.062.067.15.15 0 0 1-.069.018.16.16 0 0 1-.117-.046Q.071-.081.071-.171v-.083L.07-.296.067-.33.001-.344v-.047L.19-.438l.031.017-.003.072q-.003.044-.002.088l-.001.074q0 .048.02.07.021.023.059.023a.1.1 0 0 0 .036-.01.1.1 0 0 0 .032-.031v-.128L.361-.296.357-.33.29-.344v-.047l.187-.047.031.017-.003.032-.001.049v.149l.001.036z" style="fill-rule:nonzero" transform="rotate(-5.053 1333.187 -2546.027)scale(22.22224)"/><path d="M.016 0 .013-.048l.06-.017.002-.02.002-.037.001-.039.001-.073-.001-.048L.071-.33.009-.344v-.047L.19-.438l.03.017-.004.078.003.001a.2.2 0 0 1 .055-.075.1.1 0 0 1 .061-.02q.027 0 .049.016.021.016.021.051 0 .033-.023.053a.08.08 0 0 1-.053.02.1.1 0 0 1-.045-.009.14.14 0 0 1-.044-.033l.032.002a.1.1 0 0 0-.027.025.2.2 0 0 0-.022.034l.001.073.002.069.002.048.001.022.085.016L.311 0z" style="fill-rule:nonzero" transform="rotate(-4.065 1620.508 -3360.846)scale(22.22223)"/><path d="M.191.008a.34.34 0 0 1-.154-.034L.032-.145h.069l.02.071a.2.2 0 0 0 .077.021.07.07 0 0 0 .043-.011.03.03 0 0 0 .014-.028.04.04 0 0 0-.017-.035.3.3 0 0 0-.069-.033.3.3 0 0 1-.101-.058.12.12 0 0 1-.028-.08.1.1 0 0 1 .026-.074.16.16 0 0 1 .072-.05.3.3 0 0 1 .106-.018.4.4 0 0 1 .121.022L.377-.3H.309L.288-.37.264-.38.238-.383a.1.1 0 0 0-.044.012q-.018.01-.017.032t.021.036q.021.015.078.037a.24.24 0 0 1 .092.056q.027.03.027.075a.12.12 0 0 1-.056.104.26.26 0 0 1-.148.039" style="fill-rule:nonzero" transform="rotate(-3.254 1987.656 -4370.653)scale(22.22225)"/><path d="M.371.013.34-.002l.001-.064-.003-.002a.15.15 0 0 1-.053.061.13.13 0 0 1-.062.017.2.2 0 0 1-.093-.026.2.2 0 0 1-.071-.074.2.2 0 0 1-.027-.112.23.23 0 0 1 .077-.173.2.2 0 0 1 .078-.047.25.25 0 0 1 .121-.014l.027.007V-.47L.334-.511.333-.548.331-.577.26-.586.258-.631l.199-.051.03.018-.006.11-.003.103-.001.228a1 1 0 0 0 .006.128l.066.013v.046zM.278-.094a.1.1 0 0 0 .03-.009.07.07 0 0 0 .029-.028v-.221A.1.1 0 0 0 .311-.37a.084.084 0 0 0-.1.031.16.16 0 0 0-.027.099q0 .072.028.109.028.036.066.037" style="fill-rule:nonzero" transform="scale(22.22224)rotate(-1.899 148.56 -357.224)"/><path d="M.255.008a.22.22 0 0 1-.194-.109.2.2 0 0 1-.028-.109q0-.068.032-.119a.24.24 0 0 1 .084-.082A.2.2 0 0 1 .26-.44q.088 0 .137.053a.2.2 0 0 1 .049.139v.025H.161v-.053H.34l-.018.027v-.038a.1.1 0 0 0-.018-.068Q.286-.381.252-.381a.06.06 0 0 0-.04.013.1.1 0 0 0-.028.038.2.2 0 0 0-.01.066v.023q0 .065.036.105a.12.12 0 0 0 .097.041.2.2 0 0 0 .061-.012.2.2 0 0 0 .052-.041l.032.03a.2.2 0 0 1-.079.094.22.22 0 0 1-.118.032" style="fill-rule:nonzero" transform="rotate(-.887 6892.008 -17839.653)scale(22.22224)"/><path d="M.038 0 .035-.052.094-.07q.003-.003.004-.025l.003-.054v-.068L.102-.36.101-.426.095-.508.032-.521l.003-.052h.262q.128 0 .189.043a.14.14 0 0 1 .061.126.2.2 0 0 1-.028.098.2.2 0 0 1-.084.069.3.3 0 0 1-.137.026q-.014 0-.03-.002L.237-.217V-.29l.024.008.038.003q.044 0 .067-.029a.13.13 0 0 0 .023-.083q0-.064-.031-.094-.03-.03-.087-.03H.252l-.001.026v.049L.25-.36l.001.143a2 2 0 0 0 .007.148l.079.015L.334 0z" style="fill-rule:nonzero" transform="rotate(.561 -10509.537 29852.448)scale(22.22224)"/><path d="M.016 0 .013-.048l.06-.017.002-.02.002-.037.001-.039.001-.073-.001-.048L.071-.33.009-.344v-.047L.19-.438l.03.017-.004.078.003.001a.2.2 0 0 1 .055-.075.1.1 0 0 1 .061-.02q.027 0 .049.016.021.016.021.051 0 .033-.023.053a.08.08 0 0 1-.053.02.1.1 0 0 1-.045-.009.14.14 0 0 1-.044-.033l.032.002a.1.1 0 0 0-.027.025.2.2 0 0 0-.022.034l.001.073.002.069.002.048.001.022.085.016L.311 0z" style="fill-rule:nonzero" transform="rotate(1.575 -3650.956 11141.49)scale(22.22224)"/><path d="M.256.008A.23.23 0 0 1 .14-.021a.2.2 0 0 1-.078-.08.2.2 0 0 1-.029-.109q0-.068.032-.119a.24.24 0 0 1 .084-.082A.2.2 0 0 1 .26-.44q.087 0 .137.053a.2.2 0 0 1 .049.139v.025H.161v-.053H.34l-.018.027v-.038a.1.1 0 0 0-.018-.068.06.06 0 0 0-.052-.026.06.06 0 0 0-.04.013.1.1 0 0 0-.028.038.2.2 0 0 0-.01.066v.023q0 .065.036.105a.12.12 0 0 0 .097.041.2.2 0 0 0 .061-.012.2.2 0 0 0 .052-.04l.032.03a.2.2 0 0 1-.079.093.22.22 0 0 1-.117.032m.028-.481L.22-.494l.096-.167.129.022z" style="fill-rule:nonzero" transform="scale(22.22223)rotate(2.47 -102.36 329.72)"/><path d="M.371.013.34-.002l.001-.064-.003-.002a.15.15 0 0 1-.053.061.13.13 0 0 1-.062.017.2.2 0 0 1-.093-.026.2.2 0 0 1-.071-.074.2.2 0 0 1-.027-.112.23.23 0 0 1 .077-.173.2.2 0 0 1 .078-.047.25.25 0 0 1 .121-.014l.027.007V-.47L.334-.511.333-.548.331-.577.26-.586.258-.631l.199-.051.03.018-.006.11-.003.103-.001.228a1 1 0 0 0 .006.128l.066.013v.046zM.278-.094a.1.1 0 0 0 .03-.009.07.07 0 0 0 .029-.028v-.221A.1.1 0 0 0 .311-.37a.084.084 0 0 0-.1.031.16.16 0 0 0-.027.099q0 .072.028.109.028.036.066.037" style="fill-rule:nonzero" transform="scale(22.22223)rotate(3.583 -68.414 235.552)"/><path d="M.012 0 .009-.05l.064-.015.002-.02.002-.036.001-.04.001-.073-.001-.049L.071-.33.006-.344v-.047l.192-.047.031.017-.005.065-.001.072v.125a1 1 0 0 0 .005.094l.064.015L.289 0zm.14-.507a.1.1 0 0 1-.069-.026.09.09 0 0 1 0-.121q.024-.027.069-.027t.069.027a.1.1 0 0 1 .023.06.1.1 0 0 1-.023.061.1.1 0 0 1-.069.026" style="fill-rule:nonzero" transform="scale(22.22224)rotate(4.483 -53.39 195.813)"/><path d="M.258.008A.23.23 0 0 1 .143-.02a.2.2 0 0 1-.081-.076.216.216 0 0 1 .002-.224.25.25 0 0 1 .219-.12q.042 0 .079.012a.14.14 0 0 1 .058.033q.021.02.022.049 0 .027-.017.04a.06.06 0 0 1-.039.013A.1.1 0 0 1 .351-.3a.1.1 0 0 1-.035-.022L.238-.389l.055.012a.07.07 0 0 0-.05.008.1.1 0 0 0-.041.046.2.2 0 0 0-.016.079q0 .073.036.11a.12.12 0 0 0 .088.037.1.1 0 0 0 .05-.011.2.2 0 0 0 .053-.042l.032.029a.2.2 0 0 1-.079.096.2.2 0 0 1-.108.033" style="fill-rule:nonzero" transform="scale(22.22224)rotate(5.352 -43.575 167.611)"/><path d="M.373-.089a.13.13 0 0 1-.054.072.16.16 0 0 1-.093.027.17.17 0 0 1-.115-.04Q.066-.07.066-.152l.003-.213H0v-.033l.183-.14h.032l-.002.146-.002.229q0 .038.019.053a.08.08 0 0 0 .053.016q.015 0 .033-.007a.1.1 0 0 0 .03-.017zM.165-.365v-.067h.182v.067z" style="fill-rule:nonzero" transform="scale(22.22224)rotate(6.271 -36.207 147.55)"/><path d="M.012 0 .009-.05l.064-.015.002-.02.002-.036.001-.04.001-.073-.001-.049L.071-.33.006-.344v-.047l.192-.047.031.017-.005.065-.001.072v.125a1 1 0 0 0 .005.094l.064.015L.289 0zm.14-.507a.1.1 0 0 1-.069-.026.09.09 0 0 1 0-.121q.024-.027.069-.027t.069.027a.1.1 0 0 1 .023.06.1.1 0 0 1-.023.061.1.1 0 0 1-.069.026" style="fill-rule:nonzero" transform="scale(22.22223)rotate(7.033 -31.563 134.808)"/><path d="M.268.008A.25.25 0 0 1 .146-.02a.2.2 0 0 1-.084-.078.2.2 0 0 1-.03-.113q0-.074.034-.125a.23.23 0 0 1 .09-.078.3.3 0 0 1 .117-.026q.066 0 .117.028.05.027.079.077a.2.2 0 0 1 .029.113.22.22 0 0 1-.114.199.2.2 0 0 1-.116.031M.279-.06a.05.05 0 0 0 .036-.015.1.1 0 0 0 .022-.043.3.3 0 0 0 .007-.068.3.3 0 0 0-.024-.138Q.295-.377.256-.377q-.032 0-.05.036a.2.2 0 0 0-.019.097.3.3 0 0 0 .012.094.2.2 0 0 0 .033.065q.02.025.047.025" style="fill-rule:nonzero" transform="rotate(8.008 -596.04 2684.342)scale(22.22224)"/><path d="M.015 0 .012-.048l.06-.017.002-.02.002-.036.001-.04.001-.074-.001-.048L.07-.33.008-.344v-.047l.184-.047.031.017-.006.061.003.001A.2.2 0 0 1 .287-.42a.16.16 0 0 1 .155.001q.034.021.053.061a.2.2 0 0 1 .019.096v.099l.001.061.003.037.061.017L.576 0h-.26L.313-.048l.054-.017.003-.029.002-.036v-.109a.13.13 0 0 0-.01-.057.1.1 0 0 0-.027-.033.1.1 0 0 0-.039-.01.1.1 0 0 0-.041.009.1.1 0 0 0-.034.028v.143a1 1 0 0 0 .005.094l.057.017L.28 0z" style="fill-rule:nonzero" transform="rotate(9.349 -487.867 2378.091)scale(22.22224)"/><path d="M408.302 80.49a3.23 3.23 0 0 1 2.627 3.17l.04 51.645a1.694 1.694 0 0 1-2.007 1.667c-81.298-15.15-160.605-14.511-238.16.016a1.61 1.61 0 0 1-1.908-1.583V83.748a3.3 3.3 0 0 1 2.717-3.247c78.704-14.036 157.589-14.948 236.691-.011" style="fill:none;stroke:#000;stroke-width:.78px"/></svg>