<svg xmlns="http://www.w3.org/2000/svg" xml:space="preserve" style="fill-rule:evenodd;clip-rule:evenodd;stroke-linecap:round;stroke-linejoin:round;stroke-miterlimit:1.5" viewBox="0 0 4461 4522"><path d="M0 0h4460.42v4521.79H0z" style="fill:none"/><path d="m2028.08 3560.48 42.824 101.219M2568.5 3566.83l-45.254 94.471" style="fill:none;stroke:#e0e0e0;stroke-width:3.54px"/><path d="M3368.15 3051.02v1186.43c0 21.372-17.352 38.724-38.725 38.724h-2198.44c-21.372 0-38.724-17.352-38.724-38.724V3051.02c0-21.372 17.352-38.724 38.724-38.724h2198.44c21.373 0 38.725 17.352 38.725 38.724" style="fill:none;stroke:#e0e0e0;stroke-width:2.92px"/><text x="96.228" y="45.182" style="font-family:&quot;CrimsonPro-Regular&quot;,&quot;Crimson Pro&quot;;font-size:66.667px;fill:#b0b0b0" transform="translate(1164.67 3231.89)">Appr<tspan x="226.306" y="45.182">é</tspan>ciation</text><text x="200.33" y="116.016" style="font-family:&quot;CrimsonPro-Regular&quot;,&quot;Crimson Pro&quot;;font-size:66.667px;fill:#b0b0b0" transform="translate(1164.67 3231.89)">Musicale</text><path d="m1642.97 3219.13 21.061-29.479 21.061 29.479M1664.04 3189.65v821.563M2921.92 3990.15l29.479 21.062-29.479 21.061M2951.39 4011.21H1664.03" style="fill:none;stroke:#e0e0e0;stroke-width:6.25px"/><text x="2681.8" y="4121.58" style="font-family:&quot;CrimsonPro-Regular&quot;,&quot;Crimson Pro&quot;;font-size:66.667px;fill:#b0b0b0">E<tspan x="2716.89" y="4121.58">x</tspan>position</text><path d="M1664.04 4011.21c80.931-137.153 242.794-411.459 643.68-410.782 338.092.571 506.48 238.61 590.674 357.629" style="fill:none;stroke:#e0e0e0;stroke-width:3.54px;stroke-dasharray:7.08,.18,0,14.17,14.17,0;stroke-dashoffset:14.17"/><path d="M.493.005.455.003.405.001.362 0H.135L.096.001.058.003v-.051l.309-.509v.041H.2l-.047.001-.032.004-.019.1h-.06L.04-.576a1 1 0 0 0 .096.003h.279l.038-.001.038-.001v.05l-.303.503v-.04h.183l.028-.001.024-.003.041-.111.059.008z" style="fill:#fff;fill-rule:nonzero" transform="rotate(-6.109 33862.738 -18648.31)scale(74.99997)"/><path d="M.263.008A.24.24 0 0 1 .144-.02a.2.2 0 0 1-.081-.077.2.2 0 0 1-.029-.113q0-.072.033-.123A.2.2 0 0 1 .153-.41a.25.25 0 0 1 .229.001.2.2 0 0 1 .104.189.23.23 0 0 1-.11.198.2.2 0 0 1-.113.03m.011-.062A.06.06 0 0 0 .315-.07a.1.1 0 0 0 .026-.046.305.305 0 0 0-.017-.21Q.297-.378.252-.378q-.036 0-.059.038a.2.2 0 0 0-.022.102.3.3 0 0 0 .014.094.2.2 0 0 0 .036.065.07.07 0 0 0 .053.025" style="fill:#fff;fill-rule:nonzero" transform="scale(74.99997)rotate(-3.716 732.683 -432.32)"/><path d="M.018 0 .015-.045l.061-.016.002-.018.002-.035.001-.045.001-.074L.08-.286Q.078-.308.073-.333L.011-.347V-.39l.171-.045.027.017-.006.058.003.001A.175.175 0 0 1 .35-.437q.042 0 .075.021t.053.06a.2.2 0 0 1 .019.096v.1a1 1 0 0 0 .005.099l.06.016L.559 0H.315L.312-.045l.055-.016.003-.026.002-.035v-.12a.14.14 0 0 0-.011-.059.07.07 0 0 0-.03-.034.1.1 0 0 0-.041-.011.105.105 0 0 0-.083.043v.143a1 1 0 0 0 .005.099l.059.016L.268 0z" style="fill:#fff;fill-rule:nonzero" transform="rotate(-1.29 156116.918 -98421.277)scale(74.99997)"/><path d="M.252.008a.2.2 0 0 1-.113-.029.2.2 0 0 1-.077-.077.2.2 0 0 1-.028-.11q0-.068.032-.119a.2.2 0 0 1 .081-.081.2.2 0 0 1 .108-.029q.086 0 .133.054a.2.2 0 0 1 .047.138v.023H.148v-.051h.191l-.015.024v-.034a.12.12 0 0 0-.02-.072.07.07 0 0 0-.057-.027.1.1 0 0 0-.044.013.1.1 0 0 0-.031.041.2.2 0 0 0-.011.07v.02a.16.16 0 0 0 .037.111.12.12 0 0 0 .098.042.13.13 0 0 0 .061-.013.2.2 0 0 0 .053-.041l.03.028a.2.2 0 0 1-.077.089.2.2 0 0 1-.111.03" style="fill:#fff;fill-rule:nonzero" transform="scale(75.00001)rotate(1.085 -2442.666 1642.561)"/><path d="M.371.012.345-.002l.001-.063-.003-.002a.16.16 0 0 1-.055.06.13.13 0 0 1-.062.016.2.2 0 0 1-.096-.026.2.2 0 0 1-.07-.073.2.2 0 0 1-.026-.11.23.23 0 0 1 .074-.173.26.26 0 0 1 .163-.063q.018 0 .038.004a.1.1 0 0 1 .032.01v-.041L.34-.509.339-.551.337-.58.264-.591.262-.633l.186-.048.026.017-.005.112q-.003.051-.003.108l-.001.226q0 .048.003.078l.004.052.065.014v.042zM.272-.084a.086.086 0 0 0 .07-.042v-.218A.1.1 0 0 0 .311-.37a.1.1 0 0 0-.037-.007.09.09 0 0 0-.076.038.16.16 0 0 0-.03.105q0 .072.031.111a.09.09 0 0 0 .073.039" style="fill:#fff;fill-rule:nonzero" transform="rotate(4.527 -42984.412 31448.881)scale(75.00003)"/><path d="M.252.008a.2.2 0 0 1-.113-.029.2.2 0 0 1-.077-.077.2.2 0 0 1-.028-.11q0-.068.032-.119a.2.2 0 0 1 .081-.081.2.2 0 0 1 .108-.029q.086 0 .133.054a.2.2 0 0 1 .047.138v.023H.148v-.051h.191l-.015.024v-.034a.12.12 0 0 0-.02-.072.07.07 0 0 0-.057-.027.1.1 0 0 0-.044.013.1.1 0 0 0-.031.041.2.2 0 0 0-.011.07v.02a.16.16 0 0 0 .037.111.12.12 0 0 0 .098.042.13.13 0 0 0 .061-.013.2.2 0 0 0 .053-.041l.03.028a.2.2 0 0 1-.077.089.2.2 0 0 1-.111.03" style="fill:#fff;fill-rule:nonzero" transform="rotate(7.264 -26331.89 20567.994)scale(74.99997)"/><text x="3716.74" y="-138.282" style="font-family:&quot;CrimsonPro-Regular&quot;,&quot;Crimson Pro&quot;;font-size:66.667px;fill:#b0b0b0" transform="rotate(15.596 -10915.767 -2859.751)">Z</text><text x="3748.83" y="-151.575" style="font-family:&quot;CrimsonPro-Regular&quot;,&quot;Crimson Pro&quot;;font-size:66.667px;fill:#b0b0b0" transform="rotate(19.824 -7920.448 -1854.588)">o</text><text x="3780.26" y="-162.019" style="font-family:&quot;CrimsonPro-Regular&quot;,&quot;Crimson Pro&quot;;font-size:66.667px;fill:#b0b0b0" transform="rotate(23.549 -6156.994 -1267.727)">n</text><text x="3814.9" y="-170.959" style="font-family:&quot;CrimsonPro-Regular&quot;,&quot;Crimson Pro&quot;;font-size:66.667px;fill:#b0b0b0" transform="rotate(26.766 -5019.835 -891.764)">e</text><text x="3855.92" y="-178.891" style="font-family:&quot;CrimsonPro-Regular&quot;,&quot;Crimson Pro&quot;;font-size:66.667px;fill:#b0b0b0" transform="rotate(30.976 -3870.275 -515.416)">d</text><text x="3890.8" y="-183.236" style="font-family:&quot;CrimsonPro-Regular&quot;,&quot;Crimson Pro&quot;;font-size:66.667px;fill:#b0b0b0" transform="rotate(33.942 -3222.492 -304.671)">e</text><text x="3932.48" y="-185.847" style="font-family:&quot;CrimsonPro-Regular&quot;,&quot;Crimson Pro&quot;;font-size:66.667px;fill:#b0b0b0" transform="rotate(37.604 -2552.171 -87.498)">r</text><text x="3954.74" y="-186.167" style="font-family:&quot;CrimsonPro-Regular&quot;,&quot;Crimson Pro&quot;;font-size:66.667px;fill:#b0b0b0" transform="rotate(40.025 -2170.265 36.104)">é</text><text x="3984.09" y="-185.279" style="font-family:&quot;CrimsonPro-Regular&quot;,&quot;Crimson Pro&quot;;font-size:66.667px;fill:#b0b0b0" transform="rotate(43.119 -1738.648 175.98)">g</text><text x="4016.14" y="-182.566" style="font-family:&quot;CrimsonPro-Regular&quot;,&quot;Crimson Pro&quot;;font-size:66.667px;fill:#b0b0b0" transform="rotate(46.521 -1323.239 311.182)">u</text><text x="4051.14" y="-177.192" style="font-family:&quot;CrimsonPro-Regular&quot;,&quot;Crimson Pro&quot;;font-size:66.667px;fill:#b0b0b0" transform="rotate(49.363 -1012.932 413.354)">l</text><text x="4068.38" y="-173.977" style="font-family:&quot;CrimsonPro-Regular&quot;,&quot;Crimson Pro&quot;;font-size:66.667px;fill:#b0b0b0" transform="rotate(52.228 -733.418 505.369)">a</text><text x="4098.26" y="-166.443" style="font-family:&quot;CrimsonPro-Regular&quot;,&quot;Crimson Pro&quot;;font-size:66.667px;fill:#b0b0b0" transform="rotate(55.237 -464.043 595.93)">r</text><text x="4120.89" y="-159.43" style="font-family:&quot;CrimsonPro-Regular&quot;,&quot;Crimson Pro&quot;;font-size:66.667px;fill:#b0b0b0" transform="rotate(57.639 -266.162 663.456)">i</text><text x="4137.47" y="-153.64" style="font-family:&quot;CrimsonPro-Regular&quot;,&quot;Crimson Pro&quot;;font-size:66.667px;fill:#b0b0b0" transform="rotate(60.135 -76.599 728.185)">t</text><text x="4157.51" y="-145.706" style="font-family:&quot;CrimsonPro-Regular&quot;,&quot;Crimson Pro&quot;;font-size:66.667px;fill:#b0b0b0" transform="rotate(63.167 136.707 802.097)">é</text><text x="3709.43" y="-138.529" style="font-family:&quot;CrimsonPro-Regular&quot;,&quot;Crimson Pro&quot;;font-size:66.667px;fill:#b0b0b0" transform="rotate(-60.985 6249.214 3559.922)">Z</text><text x="3741.62" y="-151.587" style="font-family:&quot;CrimsonPro-Regular&quot;,&quot;Crimson Pro&quot;;font-size:66.667px;fill:#b0b0b0" transform="rotate(-56.732 6575.27 3700.642)">o</text><text x="3773.04" y="-161.764" style="font-family:&quot;CrimsonPro-Regular&quot;,&quot;Crimson Pro&quot;;font-size:66.667px;fill:#b0b0b0" transform="rotate(-53.119 6887.4 3839.129)">n</text><text x="3807.72" y="-170.511" style="font-family:&quot;CrimsonPro-Regular&quot;,&quot;Crimson Pro&quot;;font-size:66.667px;fill:#b0b0b0" transform="rotate(-50.056 7183.324 3972.677)">e</text><text x="3848.89" y="-178.362" style="font-family:&quot;CrimsonPro-Regular&quot;,&quot;Crimson Pro&quot;;font-size:66.667px;fill:#b0b0b0" transform="rotate(-46.096 7613.77 4174.51)">d</text><text x="3883.61" y="-182.623" style="font-family:&quot;CrimsonPro-Regular&quot;,&quot;Crimson Pro&quot;;font-size:66.667px;fill:#b0b0b0" transform="rotate(-43.982 7872.189 4297.36)">&apos;</text><text x="3898.82" y="-184.011" style="font-family:&quot;CrimsonPro-Regular&quot;,&quot;Crimson Pro&quot;;font-size:66.667px;fill:#b0b0b0" transform="rotate(-42.574 8055.402 4386.838)">i</text><text x="3916.2" y="-185.204" style="font-family:&quot;CrimsonPro-Regular&quot;,&quot;Crimson Pro&quot;;font-size:66.667px;fill:#b0b0b0" transform="rotate(-40.772 8305.914 4510.642)">r</text><text x="3939.91" y="-186.021" style="font-family:&quot;CrimsonPro-Regular&quot;,&quot;Crimson Pro&quot;;font-size:66.667px;fill:#b0b0b0" transform="rotate(-38.683 8622.268 4668.742)">r</text><text x="3962.16" y="-186.063" style="font-family:&quot;CrimsonPro-Regular&quot;,&quot;Crimson Pro&quot;;font-size:66.667px;fill:#b0b0b0" transform="rotate(-36.425 9000.861 4860.305)">é</text><text x="3991.51" y="-184.896" style="font-family:&quot;CrimsonPro-Regular&quot;,&quot;Crimson Pro&quot;;font-size:66.667px;fill:#b0b0b0" transform="rotate(-33.53 9553.695 5143.595)">g</text><text x="4023.65" y="-181.977" style="font-family:&quot;CrimsonPro-Regular&quot;,&quot;Crimson Pro&quot;;font-size:66.667px;fill:#b0b0b0" transform="rotate(-30.326 10278.29 5519.625)">u</text><text x="4058.47" y="-176.561" style="font-family:&quot;CrimsonPro-Regular&quot;,&quot;Crimson Pro&quot;;font-size:66.667px;fill:#b0b0b0" transform="rotate(-27.664 10995.455 5897.901)">l</text><text x="4075.76" y="-173.337" style="font-family:&quot;CrimsonPro-Regular&quot;,&quot;Crimson Pro&quot;;font-size:66.667px;fill:#b0b0b0" transform="rotate(-24.948 11884.404 6364.746)">a</text><text x="4105.74" y="-165.883" style="font-family:&quot;CrimsonPro-Regular&quot;,&quot;Crimson Pro&quot;;font-size:66.667px;fill:#b0b0b0" transform="rotate(-22.077 13043.308 6981.535)">r</text><text x="4128.38" y="-159.014" style="font-family:&quot;CrimsonPro-Regular&quot;,&quot;Crimson Pro&quot;;font-size:66.667px;fill:#b0b0b0" transform="rotate(-19.783 14201.853 7600.346)">i</text><text x="4144.89" y="-153.39" style="font-family:&quot;CrimsonPro-Regular&quot;,&quot;Crimson Pro&quot;;font-size:66.667px;fill:#b0b0b0" transform="rotate(-17.398 15729.765 8414.484)">t</text><text x="4165.06" y="-145.62" style="font-family:&quot;CrimsonPro-Regular&quot;,&quot;Crimson Pro&quot;;font-size:66.667px;fill:#b0b0b0" transform="rotate(-14.456 18294.12 9783.844)">é</text><path d="M.041 0 .038-.049l.058-.016q.003-.003.003-.023l.003-.051.001-.071.001-.157-.001-.069-.006-.075-.062-.014.003-.048h.247q.12 0 .18.043.059.043.059.125a.17.17 0 0 1-.028.096.2.2 0 0 1-.082.068.3.3 0 0 1-.128.025q-.016 0-.034-.002L.221-.223V-.29l.028.008q.016.003.037.003.046 0 .072-.029a.12.12 0 0 0 .026-.084q0-.066-.032-.096a.12.12 0 0 0-.089-.031H.236l-.001.026v.05l-.001.076.001.157.001.071.003.051.002.023.08.014L.318 0z" style="fill:#fff;fill-rule:nonzero" transform="scale(75.00003)rotate(-16.842 176.34 -69.04)"/><path d="M.015 0 .012-.046l.064-.015.003-.038.002-.062.001-.068v-.124L.081-.42.08-.484.079-.54.076-.581l-.072-.01-.002-.042.186-.048.027.017-.003.08-.001.087-.001.119-.001.144.001.115a.4.4 0 0 0 .004.058l.063.015L.275 0z" style="fill:#fff;fill-rule:nonzero" transform="scale(75)rotate(-14.502 202.56 -86.436)"/><path d="M.184.008a.15.15 0 0 1-.078-.02.14.14 0 0 1-.05-.046.1.1 0 0 1-.017-.052q0-.036.022-.06a.15.15 0 0 1 .068-.037l.154-.045v-.035a.06.06 0 0 0-.014-.039.095.095 0 0 0-.08-.041q-.016 0-.023.007-.006.008-.008.029l-.005.059a.13.13 0 0 1-.079-.003Q.043-.288.043-.318q0-.019.019-.039a.358.358 0 0 1 .161-.08q.087 0 .138.04.05.04.051.106l-.003.136.001.043q.002.015.006.025l.064.011v.041l-.063.028a.2.2 0 0 1-.06.015q-.039 0-.054-.039L.286-.076l.021.004a.3.3 0 0 1-.062.059.1.1 0 0 1-.061.021M.233-.08A.1.1 0 0 0 .26-.085a.1.1 0 0 0 .023-.017v-.095l-.067.012Q.192-.182.182-.17a.05.05 0 0 0-.01.031q0 .023.018.041a.06.06 0 0 0 .043.018" style="fill:#fff;fill-rule:nonzero" transform="scale(75)rotate(-12.24 237.537 -108.392)"/><path d="M.015 0 .012-.046l.065-.016.002-.018.002-.034.001-.045.001-.073a1 1 0 0 0-.009-.101L.009-.347v-.044l.179-.044.027.017-.005.063-.001.072v.123a1 1 0 0 0 .005.098l.065.016L.276 0zm.131-.515a.08.08 0 0 1-.061-.024.08.08 0 0 1-.023-.055q0-.031.023-.055a.08.08 0 0 1 .061-.024q.04 0 .061.024a.08.08 0 0 1 .022.055.08.08 0 0 1-.022.055q-.02.024-.061.024" style="fill:#fff;fill-rule:nonzero" transform="scale(74.99996)rotate(-10.207 282.009 -137.654)"/><path d="M.19.008a.4.4 0 0 1-.081-.009.3.3 0 0 1-.067-.024L.037-.14H.1l.02.07q.037.022.077.022.03 0 .046-.012a.04.04 0 0 0 .016-.032.05.05 0 0 0-.017-.038.3.3 0 0 0-.07-.035.3.3 0 0 1-.101-.058.11.11 0 0 1-.028-.078q0-.04.025-.071A.2.2 0 0 1 .136-.42a.3.3 0 0 1 .101-.017.4.4 0 0 1 .117.022l.011.113H.303L.281-.371a.1.1 0 0 0-.05-.013.1.1 0 0 0-.048.013.04.04 0 0 0-.018.034q0 .023.022.039a.4.4 0 0 0 .078.039.3.3 0 0 1 .092.056q.027.03.027.074A.12.12 0 0 1 .33-.03a.24.24 0 0 1-.14.038" style="fill:#fff;fill-rule:nonzero" transform="rotate(-8.239 25948.914 -13381.987)scale(75.00001)"/><path d="M.015 0 .012-.046l.065-.016.002-.018.002-.034.001-.045.001-.073a1 1 0 0 0-.009-.101L.009-.347v-.044l.179-.044.027.017-.005.063-.001.072v.123a1 1 0 0 0 .005.098l.065.016L.276 0zm.131-.515a.08.08 0 0 1-.061-.024.08.08 0 0 1-.023-.055q0-.031.023-.055a.08.08 0 0 1 .061-.024q.04 0 .061.024a.08.08 0 0 1 .022.055.08.08 0 0 1-.022.055q-.02.024-.061.024" style="fill:#fff;fill-rule:nonzero" transform="rotate(-6.338 33402.575 -18221.88)scale(74.99999)"/><path d="M.019 0 .016-.045l.061-.016.002-.019.002-.035.001-.044.001-.074-.002-.052Q.079-.308.074-.333L.012-.347V-.39l.169-.045.025.017-.004.077.003.001a.2.2 0 0 1 .057-.074.1.1 0 0 1 .059-.02q.027 0 .047.015t.019.046a.06.06 0 0 1-.021.049.07.07 0 0 1-.05.017.1.1 0 0 1-.042-.008.1.1 0 0 1-.04-.029l.027.002a.16.16 0 0 0-.052.066l.001.077.001.064.002.048.002.025.085.015L.297 0z" style="fill:#fff;fill-rule:nonzero" transform="rotate(-4.383 47808.788 -27445.54)scale(75.00001)"/><path d="M.047-.573h.204l.205.433H.428l.184-.433h.204l.003.048-.062.015v.044l.002.079.006.171.004.073.006.078.062.016L.834 0H.569L.566-.049l.063-.016.001-.022.001-.052L.63-.215l-.003-.33h.045L.439.003H.378l-.26-.548h.06l.001.336.001.107.002.037.068.016L.247 0H.033L.03-.049l.068-.016L.1-.091l.002-.051.001-.06.002-.183.001-.082v-.042L.044-.525z" style="fill:#fff;fill-rule:nonzero" transform="scale(74.99997)rotate(.449 -6064.928 3909.827)"/><path d="m.492-.088.064.014v.042L.391.012.364-.002l.001-.069-.003-.001a.16.16 0 0 1-.061.064.14.14 0 0 1-.067.017.15.15 0 0 1-.115-.044Q.075-.078.075-.167V-.25L.074-.292.071-.333.005-.347V-.39L.18-.435l.028.017-.004.07-.002.084-.001.083q0 .05.023.074a.08.08 0 0 0 .061.023.092.092 0 0 0 .077-.046v-.094L.361-.266.36-.3.356-.333.287-.347V-.39l.176-.045.027.017-.002.037-.001.047v.14l.001.05q0 .027.004.056" style="fill:#fff;fill-rule:nonzero" transform="scale(75.00004)rotate(4.866 -544.738 392.122)"/><path d="M.19.008a.4.4 0 0 1-.081-.009.3.3 0 0 1-.067-.024L.037-.14H.1l.02.07q.037.022.077.022.03 0 .046-.012a.04.04 0 0 0 .016-.032.05.05 0 0 0-.017-.038.3.3 0 0 0-.07-.035.3.3 0 0 1-.101-.058.11.11 0 0 1-.028-.078q0-.04.025-.071A.2.2 0 0 1 .136-.42a.3.3 0 0 1 .101-.017.4.4 0 0 1 .117.022l.011.113H.303L.281-.371a.1.1 0 0 0-.05-.013.1.1 0 0 0-.048.013.04.04 0 0 0-.018.034q0 .023.022.039a.4.4 0 0 0 .078.039.3.3 0 0 1 .092.056q.027.03.027.074A.12.12 0 0 1 .33-.03a.24.24 0 0 1-.14.038" style="fill:#fff;fill-rule:nonzero" transform="scale(75.00003)rotate(8.056 -322.522 250.054)"/><path d="M.015 0 .012-.046l.065-.016.002-.018.002-.034.001-.045.001-.073a1 1 0 0 0-.009-.101L.009-.347v-.044l.179-.044.027.017-.005.063-.001.072v.123a1 1 0 0 0 .005.098l.065.016L.276 0zm.131-.515a.08.08 0 0 1-.061-.024.08.08 0 0 1-.023-.055q0-.031.023-.055a.08.08 0 0 1 .061-.024q.04 0 .061.024a.08.08 0 0 1 .022.055.08.08 0 0 1-.022.055q-.02.024-.061.024" style="fill:#fff;fill-rule:nonzero" transform="rotate(10.318 -18612.41 15190.551)scale(75.00001)"/><path d="M.253.008a.23.23 0 0 1-.111-.027.203.203 0 0 1-.108-.185q0-.062.031-.115a.23.23 0 0 1 .086-.085.24.24 0 0 1 .125-.033q.043 0 .078.012a.1.1 0 0 1 .054.032.06.06 0 0 1 .021.046q0 .024-.015.036a.06.06 0 0 1-.037.013.1.1 0 0 1-.033-.007.2.2 0 0 1-.032-.023L.241-.39l.049.011a.08.08 0 0 0-.056.008.1.1 0 0 0-.046.048.2.2 0 0 0-.018.085q0 .074.037.113a.12.12 0 0 0 .091.038.1.1 0 0 0 .054-.012.2.2 0 0 0 .053-.042l.03.028a.2.2 0 0 1-.076.09.2.2 0 0 1-.106.031" style="fill:#fff;fill-rule:nonzero" transform="scale(74.99998)rotate(12.895 -195.097 167.901)"/><path d="M.184.008a.15.15 0 0 1-.078-.02.14.14 0 0 1-.05-.046.1.1 0 0 1-.017-.052q0-.036.022-.06a.15.15 0 0 1 .068-.037l.154-.045v-.035a.06.06 0 0 0-.014-.039.095.095 0 0 0-.08-.041q-.016 0-.023.007-.006.008-.008.029l-.005.059a.13.13 0 0 1-.079-.003Q.043-.288.043-.318q0-.019.019-.039a.358.358 0 0 1 .161-.08q.087 0 .138.04.05.04.051.106l-.003.136.001.043q.002.015.006.025l.064.011v.041l-.063.028a.2.2 0 0 1-.06.015q-.039 0-.054-.039L.286-.076l.021.004a.3.3 0 0 1-.062.059.1.1 0 0 1-.061.021M.233-.08A.1.1 0 0 0 .26-.085a.1.1 0 0 0 .023-.017v-.095l-.067.012Q.192-.182.182-.17a.05.05 0 0 0-.01.031q0 .023.018.041a.06.06 0 0 0 .043.018" style="fill:#fff;fill-rule:nonzero" transform="rotate(16.175 -11396.395 10500.32)scale(75)"/><path d="M.015 0 .012-.046l.064-.015.003-.038.002-.062.001-.068v-.124L.081-.42.08-.484.079-.54.076-.581l-.072-.01-.002-.042.186-.048.027.017-.003.08-.001.087-.001.119-.001.144.001.115a.4.4 0 0 0 .004.058l.063.015L.275 0z" style="fill:#fff;fill-rule:nonzero" transform="rotate(18.78 -9632.425 9386.798)scale(75.00002)"/><path d="M3122.39 706.358v888.032c0 15.997-12.988 28.985-28.985 28.985h-1814.6c-15.997 0-28.985-12.988-28.985-28.985V706.358c0-15.997 12.988-28.984 28.985-28.984h1814.6c15.997 0 28.985 12.987 28.985 28.984" style="fill:none;stroke:#e0e0e0;stroke-width:2.92px"/><path d="m1739.47 853.583 15.764-22.065 15.764 22.065M1755.23 831.518v614.93M2698.01 1431.11l22.065 15.764-22.065 15.764M2718.81 1446.45h-963.574" style="fill:none;stroke:#e0e0e0;stroke-width:6.25px"/><path d="m1755.23 1446.45 868.992-543.088" style="fill:none;stroke:#e0e0e0;stroke-width:3.54px;stroke-dasharray:0,.18,14.17,14.17,0,0;stroke-dashoffset:14.17"/><text x="28.346" y="45.182" style="font-family:&quot;CrimsonPro-Regular&quot;,&quot;Crimson Pro&quot;;font-size:66.667px;fill:#b0b0b0" transform="translate(1351.65 864.425)">C<tspan x="67.344" y="45.182">e</tspan>rtitude de</text><text x="84.922" y="116.016" style="font-family:&quot;CrimsonPro-Regular&quot;,&quot;Crimson Pro&quot;;font-size:66.667px;fill:#b0b0b0" transform="translate(1351.65 864.425)">Pr<tspan x="140.651" y="116.016">é</tspan>diction</text><text x="2468.56" y="1540.42" style="font-family:&quot;CrimsonPro-Regular&quot;,&quot;Crimson Pro&quot;;font-size:66.667px;fill:#b0b0b0">E<tspan x="2503.65" y="1540.42">x</tspan>position</text><path d="M3122.39 1874.59v888.031c0 15.998-12.988 28.985-28.985 28.985h-1814.6c-15.997 0-28.985-12.987-28.985-28.985V1874.59c0-15.997 12.988-28.985 28.985-28.985h1814.6c15.997 0 28.985 12.988 28.985 28.985" style="fill:none;stroke:#e0e0e0;stroke-width:2.92px"/><path d="m1761.77 2021.81 16.67-22.065 16.671 22.065M1778.44 1999.75v614.93M2774.1 2598.91l23.334 15.764-23.334 15.765M2797.44 2614.68H1778.45" style="fill:none;stroke:#e0e0e0;stroke-width:6.25px"/><path d="m1817.5 2032.65 932.227 551.054" style="fill:none;stroke:#e0e0e0;stroke-width:3.54px;stroke-dasharray:7.08,.18,0,14.17,14.17,0;stroke-dashoffset:14.17"/><text x="74.231" y="45.182" style="font-family:&quot;CrimsonPro-Regular&quot;,&quot;Crimson Pro&quot;;font-size:66.667px;fill:#b0b0b0" transform="translate(1399.76 2032.65)">Err<tspan x="156.392" y="45.182">e</tspan>ur de</text><text x="47.994" y="116.016" style="font-family:&quot;CrimsonPro-Regular&quot;,&quot;Crimson Pro&quot;;font-size:66.667px;fill:#b0b0b0" transform="translate(1399.76 2032.65)">Pr<tspan x="103.723" y="116.016">é</tspan>diction</text><text x="2541.03" y="2708.65" style="font-family:&quot;CrimsonPro-Regular&quot;,&quot;Crimson Pro&quot;;font-size:66.667px;fill:#b0b0b0">E<tspan x="2576.12" y="2708.65">x</tspan>position</text><text x="2197.57" y="3118.22" style="font-family:&quot;Inter-Regular&quot;,&quot;Inter&quot;;font-size:144.534px;fill:#b0b0b0" transform="matrix(1 0 0 .8385 0 -848.226)">x</text><text x="2192.14" y="4282.53" style="font-family:&quot;Inter-Regular&quot;,&quot;Inter&quot;;font-size:144.534px;fill:#b0b0b0" transform="matrix(1 0 0 .8385 0 -660.189)">=</text><path d="M.52.007.448.002.371 0H.034L.031-.052.094-.07l.004-.025.003-.055v-.274l-.007-.08-.063-.017.003-.052H.33l.053-.001a1 1 0 0 0 .112-.005l.028.151-.061.008-.037-.088L.4-.512.378-.513H.316l-.037.001-.028.002-.001.024-.001.04v.307l.002.069q.02.002.04.003l.053.001H.42l.018-.001.014-.003.055-.099.059.011zm-.129-.2L.382-.259.359-.26H.278l-.033.001-.02.002v-.075l.02.003.033.001h.045l.036-.001h.023l.009-.065h.058v.201z" style="fill:#fff;fill-rule:nonzero" transform="rotate(-8.967 3626.538 -11581.426)scale(83.3333)"/><path d="M.016 0 .013-.048l.06-.017.002-.02.002-.037.001-.039.001-.073-.001-.048L.071-.33.009-.344v-.047L.19-.438l.03.017-.004.078.003.001a.2.2 0 0 1 .055-.075.1.1 0 0 1 .061-.02q.027 0 .049.016.021.016.021.051 0 .033-.023.053a.08.08 0 0 1-.053.02.1.1 0 0 1-.045-.009.14.14 0 0 1-.044-.033l.032.002a.1.1 0 0 0-.027.025.2.2 0 0 0-.022.034l.001.073.002.069.002.048.001.022.085.016L.311 0z" style="fill:#fff;fill-rule:nonzero" transform="rotate(-7.86 3977.687 -13599.352)scale(83.33332)"/><path d="M.016 0 .013-.048l.06-.017.002-.02.002-.037.001-.039.001-.073-.001-.048L.071-.33.009-.344v-.047L.19-.438l.03.017-.004.078.003.001a.2.2 0 0 1 .055-.075.1.1 0 0 1 .061-.02q.027 0 .049.016.021.016.021.051 0 .033-.023.053a.08.08 0 0 1-.053.02.1.1 0 0 1-.045-.009.14.14 0 0 1-.044-.033l.032.002a.1.1 0 0 0-.027.025.2.2 0 0 0-.022.034l.001.073.002.069.002.048.001.022.085.016L.311 0z" style="fill:#fff;fill-rule:nonzero" transform="rotate(-6.974 4342.26 -15643.31)scale(83.33329)"/><path d="M.255.008a.22.22 0 0 1-.194-.109.2.2 0 0 1-.028-.109q0-.068.032-.119a.24.24 0 0 1 .084-.082A.2.2 0 0 1 .26-.44q.088 0 .137.053a.2.2 0 0 1 .049.139v.025H.161v-.053H.34l-.018.027v-.038a.1.1 0 0 0-.018-.068Q.286-.381.252-.381a.06.06 0 0 0-.04.013.1.1 0 0 0-.028.038.2.2 0 0 0-.01.066v.023q0 .065.036.105a.12.12 0 0 0 .097.041.2.2 0 0 0 .061-.012.2.2 0 0 0 .052-.041l.032.03a.2.2 0 0 1-.079.094.22.22 0 0 1-.118.032" style="fill:#fff;fill-rule:nonzero" transform="scale(83.33326)rotate(-6.098 57.688 -218.796)"/><path d="m.509-.095.065.013v.046L.396.013.365-.002l.001-.072-.003-.001a.2.2 0 0 1-.062.067.15.15 0 0 1-.069.018.16.16 0 0 1-.117-.046Q.071-.081.071-.171v-.083L.07-.296.067-.33.001-.344v-.047L.19-.438l.031.017-.003.072q-.003.044-.002.088l-.001.074q0 .048.02.07.021.023.059.023a.1.1 0 0 0 .036-.01.1.1 0 0 0 .032-.031v-.128L.361-.296.357-.33.29-.344v-.047l.187-.047.031.017-.003.032-.001.049v.149l.001.036z" style="fill:#fff;fill-rule:nonzero" transform="rotate(-5.053 5570.219 -22498.181)scale(83.3333)"/><path d="M.016 0 .013-.048l.06-.017.002-.02.002-.037.001-.039.001-.073-.001-.048L.071-.33.009-.344v-.047L.19-.438l.03.017-.004.078.003.001a.2.2 0 0 1 .055-.075.1.1 0 0 1 .061-.02q.027 0 .049.016.021.016.021.051 0 .033-.023.053a.08.08 0 0 1-.053.02.1.1 0 0 1-.045-.009.14.14 0 0 1-.044-.033l.032.002a.1.1 0 0 0-.027.025.2.2 0 0 0-.022.034l.001.073.002.069.002.048.001.022.085.016L.311 0z" style="fill:#fff;fill-rule:nonzero" transform="rotate(-4.065 6647.497 -28707.095)scale(83.33326)"/><path d="M.191.008a.34.34 0 0 1-.154-.034L.032-.145h.069l.02.071a.2.2 0 0 0 .077.021.07.07 0 0 0 .043-.011.03.03 0 0 0 .014-.028.04.04 0 0 0-.017-.035.3.3 0 0 0-.069-.033.3.3 0 0 1-.101-.058.12.12 0 0 1-.028-.08.1.1 0 0 1 .026-.074.16.16 0 0 1 .072-.05.3.3 0 0 1 .106-.018.4.4 0 0 1 .121.022L.377-.3H.309L.288-.37.264-.38.238-.383a.1.1 0 0 0-.044.012q-.018.01-.017.032t.021.036q.021.015.078.037a.24.24 0 0 1 .092.056q.027.03.027.075a.12.12 0 0 1-.056.104.26.26 0 0 1-.148.039" style="fill:#fff;fill-rule:nonzero" transform="scale(83.33333)rotate(-3.254 96.289 -438.114)"/><path d="M.371.013.34-.002l.001-.064-.003-.002a.15.15 0 0 1-.053.061.13.13 0 0 1-.062.017.2.2 0 0 1-.093-.026.2.2 0 0 1-.071-.074.2.2 0 0 1-.027-.112.23.23 0 0 1 .077-.173.2.2 0 0 1 .078-.047.25.25 0 0 1 .121-.014l.027.007V-.47L.334-.511.333-.548.331-.577.26-.586.258-.631l.199-.051.03.018-.006.11-.003.103-.001.228a1 1 0 0 0 .006.128l.066.013v.046zM.278-.094a.1.1 0 0 0 .03-.009.07.07 0 0 0 .029-.028v-.221A.1.1 0 0 0 .311-.37a.084.084 0 0 0-.1.031.16.16 0 0 0-.027.099q0 .072.028.109.028.036.066.037" style="fill:#fff;fill-rule:nonzero" transform="rotate(-1.899 12949.646 -64253.616)scale(83.33331)"/><path d="M.255.008a.22.22 0 0 1-.194-.109.2.2 0 0 1-.028-.109q0-.068.032-.119a.24.24 0 0 1 .084-.082A.2.2 0 0 1 .26-.44q.088 0 .137.053a.2.2 0 0 1 .049.139v.025H.161v-.053H.34l-.018.027v-.038a.1.1 0 0 0-.018-.068Q.286-.381.252-.381a.06.06 0 0 0-.04.013.1.1 0 0 0-.028.038.2.2 0 0 0-.01.066v.023q0 .065.036.105a.12.12 0 0 0 .097.041.2.2 0 0 0 .061-.012.2.2 0 0 0 .052-.041l.032.03a.2.2 0 0 1-.079.094.22.22 0 0 1-.118.032" style="fill:#fff;fill-rule:nonzero" transform="rotate(-.888 26412.593 -140672.291)scale(83.3333)"/><path d="M.038 0 .035-.052.094-.07q.003-.003.004-.025l.003-.054v-.068L.102-.36.101-.426.095-.508.032-.521l.003-.052h.262q.128 0 .189.043a.14.14 0 0 1 .061.126.2.2 0 0 1-.028.098.2.2 0 0 1-.084.069.3.3 0 0 1-.137.026q-.014 0-.03-.002L.237-.217V-.29l.024.008.038.003q.044 0 .067-.029a.13.13 0 0 0 .023-.083q0-.064-.031-.094-.03-.03-.087-.03H.252l-.001.026v.049L.25-.36l.001.143a2 2 0 0 0 .007.148l.079.015L.334 0z" style="fill:#fff;fill-rule:nonzero" transform="scale(83.3333)rotate(.562 -465.982 2742.622)"/><path d="M.016 0 .013-.048l.06-.017.002-.02.002-.037.001-.039.001-.073-.001-.048L.071-.33.009-.344v-.047L.19-.438l.03.017-.004.078.003.001a.2.2 0 0 1 .055-.075.1.1 0 0 1 .061-.02q.027 0 .049.016.021.016.021.051 0 .033-.023.053a.08.08 0 0 1-.053.02.1.1 0 0 1-.045-.009.14.14 0 0 1-.044-.033l.032.002a.1.1 0 0 0-.027.025.2.2 0 0 0-.022.034l.001.073.002.069.002.048.001.022.085.016L.311 0z" style="fill:#fff;fill-rule:nonzero" transform="scale(83.3333)rotate(1.575 -157.408 1000.196)"/><path d="M.256.008A.23.23 0 0 1 .14-.021a.2.2 0 0 1-.078-.08.2.2 0 0 1-.029-.109q0-.068.032-.119a.24.24 0 0 1 .084-.082A.2.2 0 0 1 .26-.44q.087 0 .137.053a.2.2 0 0 1 .049.139v.025H.161v-.053H.34l-.018.027v-.038a.1.1 0 0 0-.018-.068.06.06 0 0 0-.052-.026.06.06 0 0 0-.04.013.1.1 0 0 0-.028.038.2.2 0 0 0-.01.066v.023q0 .065.036.105a.12.12 0 0 0 .097.041.2.2 0 0 0 .061-.012.2.2 0 0 0 .052-.04l.032.03a.2.2 0 0 1-.079.093.22.22 0 0 1-.117.032m.028-.481L.22-.494l.096-.167.129.022z" style="fill:#fff;fill-rule:nonzero" transform="scale(83.33328)rotate(2.47 -95.486 647.889)"/><path d="M.371.013.34-.002l.001-.064-.003-.002a.15.15 0 0 1-.053.061.13.13 0 0 1-.062.017.2.2 0 0 1-.093-.026.2.2 0 0 1-.071-.074.2.2 0 0 1-.027-.112.23.23 0 0 1 .077-.173.2.2 0 0 1 .078-.047.25.25 0 0 1 .121-.014l.027.007V-.47L.334-.511.333-.548.331-.577.26-.586.258-.631l.199-.051.03.018-.006.11-.003.103-.001.228a1 1 0 0 0 .006.128l.066.013v.046zM.278-.094a.1.1 0 0 0 .03-.009.07.07 0 0 0 .029-.028v-.221A.1.1 0 0 0 .311-.37a.084.084 0 0 0-.1.031.16.16 0 0 0-.027.099q0 .072.028.109.028.036.066.037" style="fill:#fff;fill-rule:nonzero" transform="scale(83.33328)rotate(3.583 -61.544 454.805)"/><path d="M.012 0 .009-.05l.064-.015.002-.02.002-.036.001-.04.001-.073-.001-.049L.071-.33.006-.344v-.047l.192-.047.031.017-.005.065-.001.072v.125a1 1 0 0 0 .005.094l.064.015L.289 0zm.14-.507a.1.1 0 0 1-.069-.026.09.09 0 0 1 0-.121q.024-.027.069-.027t.069.027a.1.1 0 0 1 .023.06.1.1 0 0 1-.023.061.1.1 0 0 1-.069.026" style="fill:#fff;fill-rule:nonzero" transform="scale(83.33331)rotate(4.483 -46.523 371.025)"/><path d="M.258.008A.23.23 0 0 1 .143-.02a.2.2 0 0 1-.081-.076.216.216 0 0 1 .002-.224.25.25 0 0 1 .219-.12q.042 0 .079.012a.14.14 0 0 1 .058.033q.021.02.022.049 0 .027-.017.04a.06.06 0 0 1-.039.013A.1.1 0 0 1 .351-.3a.1.1 0 0 1-.035-.022L.238-.389l.055.012a.07.07 0 0 0-.05.008.1.1 0 0 0-.041.046.2.2 0 0 0-.016.079q0 .073.036.11a.12.12 0 0 0 .088.037.1.1 0 0 0 .05-.011.2.2 0 0 0 .053-.042l.032.029a.2.2 0 0 1-.079.096.2.2 0 0 1-.108.033" style="fill:#fff;fill-rule:nonzero" transform="scale(83.33329)rotate(5.352 -36.71 314.348)"/><path d="M.373-.089a.13.13 0 0 1-.054.072.16.16 0 0 1-.093.027.17.17 0 0 1-.115-.04Q.066-.07.066-.152l.003-.213H0v-.033l.183-.14h.032l-.002.146-.002.229q0 .038.019.053a.08.08 0 0 0 .053.016q.015 0 .033-.007a.1.1 0 0 0 .03-.017zM.165-.365v-.067h.182v.067z" style="fill:#fff;fill-rule:nonzero" transform="scale(83.33331)rotate(6.271 -29.342 272.732)"/><path d="M.012 0 .009-.05l.064-.015.002-.02.002-.036.001-.04.001-.073-.001-.049L.071-.33.006-.344v-.047l.192-.047.031.017-.005.065-.001.072v.125a1 1 0 0 0 .005.094l.064.015L.289 0zm.14-.507a.1.1 0 0 1-.069-.026.09.09 0 0 1 0-.121q.024-.027.069-.027t.069.027a.1.1 0 0 1 .023.06.1.1 0 0 1-.023.061.1.1 0 0 1-.069.026" style="fill:#fff;fill-rule:nonzero" transform="scale(83.33328)rotate(7.033 -24.7 246.408)"/><path d="M.268.008A.25.25 0 0 1 .146-.02a.2.2 0 0 1-.084-.078.2.2 0 0 1-.03-.113q0-.074.034-.125a.23.23 0 0 1 .09-.078.3.3 0 0 1 .117-.026q.066 0 .117.028.05.027.079.077a.2.2 0 0 1 .029.113.22.22 0 0 1-.114.199.2.2 0 0 1-.116.031M.279-.06a.05.05 0 0 0 .036-.015.1.1 0 0 0 .022-.043.3.3 0 0 0 .007-.068.3.3 0 0 0-.024-.138Q.295-.377.256-.377q-.032 0-.05.036a.2.2 0 0 0-.019.097.3.3 0 0 0 .012.094.2.2 0 0 0 .033.065q.02.025.047.025" style="fill:#fff;fill-rule:nonzero" transform="rotate(8.008 -1663.222 18230.402)scale(83.33329)"/><path d="M.015 0 .012-.048l.06-.017.002-.02.002-.036.001-.04.001-.074-.001-.048L.07-.33.008-.344v-.047l.184-.047.031.017-.006.061.003.001A.2.2 0 0 1 .287-.42a.16.16 0 0 1 .155.001q.034.021.053.061a.2.2 0 0 1 .019.096v.099l.001.061.003.037.061.017L.576 0h-.26L.313-.048l.054-.017.003-.029.002-.036v-.109a.13.13 0 0 0-.01-.057.1.1 0 0 0-.027-.033.1.1 0 0 0-.039-.01.1.1 0 0 0-.041.009.1.1 0 0 0-.034.028v.143a1 1 0 0 0 .005.094l.057.017L.28 0z" style="fill:#fff;fill-rule:nonzero" transform="scale(83.3333)rotate(9.349 -15.092 190.883)"/><path d="M2674.1 301.836a12.11 12.11 0 0 1 9.853 11.889c.03 36.411.124 161.375.148 193.668a6.354 6.354 0 0 1-7.523 6.251c-304.869-56.812-602.269-54.414-893.1.063a6.04 6.04 0 0 1-7.157-5.937l-.001-193.714a12.37 12.37 0 0 1 10.189-12.177c295.143-52.634 590.96-56.054 887.591-.043" style="fill:none;stroke:#e0e0e0;stroke-width:2.92px"/></svg>