<?xml version="1.0" encoding="UTF-8" standalone="no"?><!DOCTYPE svg PUBLIC "-//W3C//DTD SVG 1.1//EN" "http://www.w3.org/Graphics/SVG/1.1/DTD/svg11.dtd"><svg width="100%" height="100%" viewBox="0 0 123 123" version="1.1" xmlns="http://www.w3.org/2000/svg" xmlns:xlink="http://www.w3.org/1999/xlink" xml:space="preserve" xmlns:serif="http://www.serif.com/" style="fill-rule:evenodd;clip-rule:evenodd;stroke-linejoin:round;stroke-miterlimit:2;"><rect id="Plan-de-travail3" serif:id="Plan de travail3" x="0" y="0" width="122.434" height="122.434" style="fill:none;"/><path d="M41.997,49.142c-0.116,1.215 -0.175,2.447 -0.175,3.692c-0,6.061 1.408,11.796 3.916,16.895l0.779,1.499c6.518,11.897 19.158,19.971 33.669,19.971c6.662,-0 12.93,-1.702 18.391,-4.694c-7.948,11.442 -21.185,18.939 -36.16,18.939c-24.283,0 -43.998,-19.715 -43.998,-43.999c-0,-24.283 19.715,-43.998 43.998,-43.998c0.919,-0 1.832,0.028 2.738,0.084c-12.172,5.194 -21.119,16.502 -22.977,30.055l-0.181,1.556Z"/></svg>