<?xml version="1.0" encoding="UTF-8" standalone="no"?><!DOCTYPE svg PUBLIC "-//W3C//DTD SVG 1.1//EN" "http://www.w3.org/Graphics/SVG/1.1/DTD/svg11.dtd"><svg width="100%" height="100%" viewBox="0 0 123 123" version="1.1" xmlns="http://www.w3.org/2000/svg" xmlns:xlink="http://www.w3.org/1999/xlink" xml:space="preserve" xmlns:serif="http://www.serif.com/" style="fill-rule:evenodd;clip-rule:evenodd;stroke-linejoin:round;stroke-miterlimit:2;"><rect id="Plan-de-travail3" serif:id="Plan de travail3" x="0" y="0" width="122.434" height="122.434" style="fill:none;"/><path d="M77.405,28.274l1.32,7.213l1.12,0.748l0.748,1.119l7.212,1.321l-7.212,1.32l-0.748,1.12l-1.12,0.748l-1.32,7.213l-1.321,-7.213l-1.12,-0.748l-0.748,-1.12l-7.212,-1.32l7.212,-1.321l0.748,-1.119l1.12,-0.748l1.321,-7.213Z"/><path d="M32.599,32.572l1.32,7.212l1.12,0.748l0.748,1.12l7.212,1.32l-7.212,1.321l-0.748,1.12l-1.12,0.748l-1.32,7.212l-1.321,-7.212l-1.12,-0.748l-0.748,-1.12l-7.212,-1.321l7.212,-1.32l0.748,-1.12l1.12,-0.748l1.321,-7.212Z"/><path d="M90.01,52.733l0.652,7.304l1.046,0.848l0.642,1.183l7.06,1.979l-7.303,0.651l-0.848,1.046l-1.184,0.642l-1.979,7.06l-0.651,-7.303l-1.046,-0.848l-0.642,-1.183l-7.06,-1.979l7.303,-0.651l0.848,-1.046l1.184,-0.642l1.978,-7.061Z"/><path d="M48.83,52.639l2.86,-0.854l0.622,-1.194l1.031,-0.866l0.528,-7.313l2.098,7.026l1.194,0.622l0.866,1.031l7.313,0.528l-7.026,2.098l-0.622,1.194l-1.031,0.866l-0.528,7.313l-2.098,-7.026l-1.194,-0.622l-0.866,-1.031l-2.974,-0.215l-4.413,-0.299l4.24,-1.258Z"/><path d="M34.467,86.412l2.771,-1.11l0.511,-1.245l0.949,-0.956l-0.136,-7.331l2.725,6.808l1.246,0.511l0.955,0.949l7.331,-0.136l-6.807,2.725l-0.512,1.245l-0.948,0.955l0.136,7.332l-2.725,-6.808l-1.246,-0.511l-0.955,-0.949l-2.982,0.055l-4.422,0.101l4.109,-1.635Z"/><path d="M77.547,73.404l1.191,7.235l1.106,0.768l0.728,1.133l7.187,1.449l-7.234,1.191l-0.768,1.106l-1.133,0.728l-1.45,7.188l-1.191,-7.235l-1.106,-0.768l-0.728,-1.133l-7.188,-1.449l7.235,-1.191l0.768,-1.106l1.133,-0.728l1.45,-7.188Z"/></svg>