<?xml version="1.0" encoding="UTF-8" standalone="no"?><!DOCTYPE svg PUBLIC "-//W3C//DTD SVG 1.1//EN" "http://www.w3.org/Graphics/SVG/1.1/DTD/svg11.dtd"><svg width="100%" height="100%" viewBox="0 0 123 123" version="1.1" xmlns="http://www.w3.org/2000/svg" xmlns:xlink="http://www.w3.org/1999/xlink" xml:space="preserve" xmlns:serif="http://www.serif.com/" style="fill-rule:evenodd;clip-rule:evenodd;stroke-linejoin:round;stroke-miterlimit:2;"><rect id="Plan-de-travail3" serif:id="Plan de travail3" x="0" y="0" width="122.434" height="122.434" style="fill:none;"/><clipPath id="_clip1"><rect x="0" y="0" width="122.434" height="122.434"/></clipPath><g clip-path="url(#_clip1)"><path d="M61.488,0.815l4.962,34.023l12.37,-19.48l-3.045,22.874l25.67,-22.874l-18.069,29.252l21.997,-6.971l-17.035,15.565l34.367,-1.022l-32.644,10.795l21.332,8.799l-23.055,0.973l26.983,21.308l-31.945,-12.714l10.685,20.452l-18.286,-14.074l6.974,33.668l-16.299,-30.274l-4.962,22.536l-4.961,-22.536l-16.299,30.274l6.974,-33.668l-18.287,14.074l10.685,-20.452l-31.945,12.714l26.983,-21.308l-23.054,-0.973l21.331,-8.799l-32.644,-10.795l34.367,1.022l-17.035,-15.565l21.997,6.971l-18.068,-29.252l25.67,22.874l-3.045,-22.874l12.37,19.48l4.961,-34.023Z"/></g></svg>